<svg viewBox="0 0 580 350" fill="none" xmlns="http://www.w3.org/2000/svg">
<g id="CMS" opacity="0.8">
<g id="Dashbord">
<g id="Background" filter="url(#filter0_b_2541_36)">
<rect width="580" height="350" rx="2" fill="url(#paint0_linear_2541_36)"/>
<rect x="0.375" y="0.375" width="579.25" height="349.25" rx="1.625" stroke="url(#paint1_linear_2541_36)" stroke-width="0.75"/>
</g>
<g id="We specialize in creating unique and memorable projects exploring the best in each business. Let&#39;s do a remarkable project?" opacity="0.75">
<text fill="#B6B6B6" xml:space="preserve" style="white-space: pre" font-family="Inter" font-size="5" letter-spacing="0em"><tspan x="315" y="208.818">We specialize in creating unique and memorable </tspan><tspan x="315" y="218.818">projects exploring the best in each business. </tspan></text>
<text fill="#B6B6B6" xml:space="preserve" style="white-space: pre" font-family="Inter" font-size="5" letter-spacing="0em"><tspan x="421.709" y="218.818">Let&#39;s </tspan><tspan x="315" y="228.818">do a remarkable project?</tspan></text>
</g>
<text id="Edit Cover Text" fill="#D5D5D5" xml:space="preserve" style="white-space: pre" font-family="Montserrat" font-size="10" font-weight="600" letter-spacing="0em"><tspan x="143.445" y="60.585">Edit Cover Text</tspan></text>
<rect id="Button" opacity="0.75" x="475.75" y="51.75" width="56.5" height="15.5" rx="1.25" stroke="#555555" stroke-width="0.5"/>
<rect id="Button_2" opacity="0.75" x="50.75" y="51.75" width="15.5" height="15.5" rx="1.25" stroke="#555555" stroke-width="0.5"/>
<rect id="Button_3" opacity="0.75" x="53.75" y="78.75" width="9.5" height="9.5" rx="4.75" stroke="#555555" stroke-width="0.5"/>
<rect id="Button_4" opacity="0.75" x="53.75" y="120.75" width="9.5" height="9.5" rx="4.75" stroke="#555555" stroke-width="0.5"/>
<rect id="Button_5" opacity="0.6" x="53.75" y="162.75" width="9.5" height="9.5" rx="4.75" stroke="#555555" stroke-width="0.5"/>
<rect id="Button_6" opacity="0.75" x="53.75" y="99.75" width="9.5" height="9.5" rx="4.75" stroke="#555555" stroke-width="0.5"/>
<rect id="Button_7" opacity="0.75" x="53.75" y="141.75" width="9.5" height="9.5" rx="4.75" stroke="#555555" stroke-width="0.5"/>
<rect id="Button_8" opacity="0.5" x="53.75" y="183.75" width="9.5" height="9.5" rx="4.75" stroke="#555555" stroke-width="0.5"/>
<g id="Image Upload">
<rect id="Button_9" x="158.75" y="115.75" width="136.5" height="136.5" rx="1.25" stroke="#555555" stroke-width="0.5"/>
<text id="Click to select an asset or drag and drop in this area" opacity="0.75" fill="#B6B6B6" xml:space="preserve" style="white-space: pre" font-family="Montserrat" font-size="5" font-weight="500" letter-spacing="0em"><tspan x="188.436" y="198.793">Click to select an asset or drag </tspan><tspan x="200.85" y="206.792">and drop in this area</tspan></text>
<g id="Image Icon">
<path id="Vector 2" d="M225.666 178.334L232.333 171.334L234.999 174.001V182.001H229.333L225.666 178.334Z" stroke="#555555" stroke-width="0.5"/>
<path id="Vector 1" d="M224.274 177L219.334 182H229.334L224.274 177Z" stroke="#555555" stroke-width="0.5"/>
<path id="Ellipse 1" d="M224.083 168.666C224.083 170.001 223.001 171.083 221.666 171.083C220.331 171.083 219.25 170.001 219.25 168.666C219.25 167.331 220.331 166.25 221.666 166.25C223.001 166.25 224.083 167.331 224.083 168.666Z" stroke="#555555" stroke-width="0.5"/>
<path id="Rectangle 1" d="M233 164H217.5C217.224 164 217 164.224 217 164.5V183.5C217 183.776 217.224 184 217.5 184H236.5C236.776 184 237 183.776 237 183.5V168" stroke="#555555" stroke-width="0.5"/>
<line id="Line 121" x1="235" y1="164" x2="239" y2="164" stroke="#E7E7E7" stroke-width="0.5"/>
<line id="Line 122" x1="237" y1="162" x2="237" y2="166" stroke="#E7E7E7" stroke-width="0.5"/>
</g>
</g>
<text id="API ID: Design Studio" opacity="0.75" fill="#B6B6B6" xml:space="preserve" style="white-space: pre" font-family="Montserrat" font-size="4" font-weight="500" letter-spacing="0em"><tspan x="143" y="73.434">API ID: Design Studio</tspan></text>
<rect id="Field" opacity="0.75" x="142.75" y="85.75" width="320.5" height="240.5" rx="1.25" stroke="url(#paint2_linear_2541_36)" stroke-width="0.5"/>
<rect id="Button_10" x="306.75" y="115.75" width="140.5" height="48.5" rx="1.25" stroke="#555555" stroke-width="0.5"/>
<rect id="Button_11" x="306.75" y="193.75" width="140.5" height="58.5" rx="1.25" stroke="#555555" stroke-width="0.5"/>
<rect id="Field_2" opacity="0.75" x="0.25" y="-0.25" width="57.5" height="240.5" rx="1.25" transform="matrix(-1 0 0 1 532.5 86)" stroke="url(#paint3_linear_2541_36)" stroke-width="0.5"/>
<text id="Save Adjust" fill="#B6B6B6" xml:space="preserve" style="white-space: pre" font-family="Montserrat" font-size="5" font-weight="500" letter-spacing="0em"><tspan x="493.203" y="61.2925">Save Adjust</tspan></text>
<text id="Cover Image" fill="#B6B6B6" xml:space="preserve" style="white-space: pre" font-family="Montserrat" font-size="6" font-weight="500" letter-spacing="0em"><tspan x="159.226" y="103.151">Cover Image</tspan></text>
<text id="Cover Title" fill="#B6B6B6" xml:space="preserve" style="white-space: pre" font-family="Montserrat" font-size="6" font-weight="500" letter-spacing="0em"><tspan x="307" y="103.151">Cover Title</tspan></text>
<text id="23 / Apr / 2022" opacity="0.75" fill="#B6B6B6" xml:space="preserve" style="white-space: pre" font-family="Montserrat" font-size="5" font-weight="500" letter-spacing="0em"><tspan x="486.17" y="113.793">23 / Apr / 2022</tspan></text>
<text id="English" opacity="0.75" fill="#B6B6B6" xml:space="preserve" style="white-space: pre" font-family="Montserrat" font-size="5" font-weight="500" letter-spacing="0em"><tspan x="494.04" y="155.793">English</tspan></text>
<text id="CMS Dashboard" opacity="0.75" fill="#B6B6B6" xml:space="preserve" style="white-space: pre" font-family="Montserrat" font-size="6" font-weight="500" letter-spacing="0em"><tspan x="265.014" y="16.151">CMS Dashboard</tspan></text>
<text id="Kelvin Q." opacity="0.75" fill="#B6B6B6" xml:space="preserve" style="white-space: pre" font-family="Montserrat" font-size="5" font-weight="500" letter-spacing="0em"><tspan x="492.448" y="196.793">Kelvin Q.</tspan></text>
<text id="Main Page" opacity="0.75" fill="#B6B6B6" xml:space="preserve" style="white-space: pre" font-family="Montserrat" font-size="5" font-weight="500" letter-spacing="0em"><tspan x="490.021" y="237.793">Main Page</tspan></text>
<text id="Last Update" fill="#B6B6B6" xml:space="preserve" style="white-space: pre" font-family="Montserrat" font-size="6" font-weight="500" letter-spacing="0em"><tspan x="485" y="103.151">Last Update</tspan></text>
<g id="Be Unique &#38; Memora|">
<text fill="#E93CAC" xml:space="preserve" style="white-space: pre" font-family="Montserrat" font-size="7" letter-spacing="0em"><tspan x="390.134" y="131.01">|</tspan></text>
<text fill="#B6B6B6" xml:space="preserve" style="white-space: pre" font-family="Montserrat" font-size="7" letter-spacing="0em"><tspan x="315" y="131.01">Be Unique &#38; Memora</tspan></text>
</g>
<text id="Language" fill="#B6B6B6" xml:space="preserve" style="white-space: pre" font-family="Montserrat" font-size="6" font-weight="500" letter-spacing="0em"><tspan x="488.055" y="145.151">Language</tspan></text>
<text id="Created by" fill="#B6B6B6" xml:space="preserve" style="white-space: pre" font-family="Montserrat" font-size="6" font-weight="500" letter-spacing="0em"><tspan x="486.497" y="186.151">Created by</tspan></text>
<text id="Pagination" fill="#B6B6B6" xml:space="preserve" style="white-space: pre" font-family="Montserrat" font-size="6" font-weight="500" letter-spacing="0em"><tspan x="486.307" y="227.151">Pagination</tspan></text>
<text id="Cover Description" fill="#B6B6B6" xml:space="preserve" style="white-space: pre" font-family="Montserrat" font-size="6" font-weight="500" letter-spacing="0em"><tspan x="307" y="181.151">Cover Description</tspan></text>
<line id="Line 119" x1="484.177" y1="58.8232" x2="486.177" y2="60.8232" stroke="#B6B6B6" stroke-width="0.5"/>
<line id="Line 120" x1="485.823" y1="60.8232" x2="488.823" y2="57.8232" stroke="#B6B6B6" stroke-width="0.5"/>
<line id="Line 123" x1="485" y1="127.75" x2="522" y2="127.75" stroke="#555555" stroke-width="0.5"/>
<line id="Line 124" x1="485" y1="168.75" x2="522" y2="168.75" stroke="#555555" stroke-width="0.5"/>
<line id="Line 125" x1="485" y1="209.75" x2="522" y2="209.75" stroke="#555555" stroke-width="0.5"/>
<path id="Rectangle 33" opacity="0.75" d="M74 95H51C49.3431 95 48 96.3431 48 98V111C48 112.657 49.3431 114 51 114H74" stroke="#555555" stroke-width="0.5"/>
<line id="Line 126" opacity="0.75" x1="73.75" y1="95" x2="73.75" y2="74" stroke="#555555" stroke-width="0.5"/>
<line id="Line 127" opacity="0.75" x1="73.75" y1="326" x2="73.75" y2="114" stroke="url(#paint4_linear_2541_36)" stroke-width="0.5"/>
<line id="Line 128" opacity="0.75" x1="131.25" y1="74" x2="131.25" y2="326" stroke="url(#paint5_linear_2541_36)" stroke-width="0.5"/>
<line id="Line 129" opacity="0.75" x1="73.5" y1="73.75" x2="131.5" y2="73.75" stroke="#555555" stroke-width="0.5"/>
<line id="Line 130" x1="81" y1="56.5" x2="121" y2="56.5" stroke="#D5D5D5"/>
<line id="Line 131" x1="81" y1="61.5" x2="100" y2="61.5" stroke="#B6B6B6"/>
<line id="Line 132" x1="82" y1="83.5" x2="122" y2="83.5" stroke="#555555"/>
<line id="Line 133" x1="82" y1="104.5" x2="122" y2="104.5" stroke="#B6B6B6"/>
<line id="Line 134" x1="82" y1="125.5" x2="122" y2="125.5" stroke="#555555"/>
<line id="Line 135" x1="82" y1="146.5" x2="122" y2="146.5" stroke="#555555"/>
<line id="Line 136" x1="82" y1="167.5" x2="122" y2="167.5" stroke="#555555"/>
<line id="Line 137" x1="82" y1="188.5" x2="122" y2="188.5" stroke="#555555"/>
<line id="Line 138" opacity="0.75" y1="27.75" x2="580" y2="27.75" stroke="#555555" stroke-width="0.5"/>
<circle id="Ellipse 31" cx="14" cy="14" r="2" fill="#555555"/>
<circle id="Ellipse 32" cx="22" cy="14" r="2" fill="#555555"/>
<circle id="Ellipse 33" cx="30" cy="14" r="2" fill="#555555"/>
</g>
</g>
<defs>
<filter id="filter0_b_2541_36" x="-5" y="-5" width="590" height="360" filterUnits="userSpaceOnUse" color-interpolation-filters="sRGB">
<feFlood flood-opacity="0" result="BackgroundImageFix"/>
<feGaussianBlur in="BackgroundImage" stdDeviation="2.5"/>
<feComposite in2="SourceAlpha" operator="in" result="effect1_backgroundBlur_2541_36"/>
<feBlend mode="normal" in="SourceGraphic" in2="effect1_backgroundBlur_2541_36" result="shape"/>
</filter>
<linearGradient id="paint0_linear_2541_36" x1="290" y1="0" x2="290" y2="350" gradientUnits="userSpaceOnUse">
<stop stop-color="#010101"/>
<stop offset="1" stop-color="#010101" stop-opacity="0.75"/>
</linearGradient>
<linearGradient id="paint1_linear_2541_36" x1="290" y1="0" x2="290" y2="350" gradientUnits="userSpaceOnUse">
<stop stop-color="#B6B6B6"/>
<stop offset="1" stop-color="#B6B6B6" stop-opacity="0"/>
</linearGradient>
<linearGradient id="paint2_linear_2541_36" x1="303" y1="86" x2="303" y2="326" gradientUnits="userSpaceOnUse">
<stop stop-color="#555555"/>
<stop offset="1" stop-color="#555555" stop-opacity="0"/>
</linearGradient>
<linearGradient id="paint3_linear_2541_36" x1="28.5" y1="0" x2="28.5" y2="240" gradientUnits="userSpaceOnUse">
<stop stop-color="#555555"/>
<stop offset="1" stop-color="#555555" stop-opacity="0"/>
</linearGradient>
<linearGradient id="paint4_linear_2541_36" x1="73.9999" y1="114" x2="74" y2="326" gradientUnits="userSpaceOnUse">
<stop stop-color="#555555"/>
<stop offset="1" stop-color="#555555" stop-opacity="0"/>
</linearGradient>
<linearGradient id="paint5_linear_2541_36" x1="131" y1="326" x2="131" y2="74" gradientUnits="userSpaceOnUse">
<stop stop-color="#555555"/>
<stop offset="1" stop-color="#555555" stop-opacity="0"/>
</linearGradient>
<!-- <style>
@import url('https://fonts.googleapis.com/css2?family=Inter:wght@400&amp;family=Montserrat:wght@500;600&amp;display=swap');
</style> -->
</defs>
</svg>
