<svg viewBox="0 0 580 379" fill="none" xmlns="http://www.w3.org/2000/svg"><g id="Front End"><g id="Background" filter="url(#filter0_b_2541_6)"><rect width="580" height="360" rx="2" fill="url(#paint0_linear_2541_6)" fill-opacity="0.8"/><rect x="0.375" y="0.375" width="579.25" height="359.25" rx="1.625" stroke="url(#paint1_linear_2541_6)" stroke-width="0.75"/></g><g id="Title"><g id="We specialize in creating unique and memorable projects exploring the best in each business. Let&#39;s do a remarkable project?" opacity="0.75"><text fill="#B6B6B6" xml:space="preserve" style="white-space: pre" font-family="Inter" font-size="6" letter-spacing="0em"><tspan x="48" y="183.182">We specialize in creating unique and memorable </tspan><tspan x="48" y="195.182">projects exploring the best in each business. </tspan></text><text fill="#E7E7E7" xml:space="preserve" style="white-space: pre" font-family="Inter" font-size="6" font-weight="500" letter-spacing="0em"><tspan x="48" y="207.182">Let&#39;s do a remarkable project?</tspan></text></g><text id="Be Unique &#38; Memorable" transform="translate(48.2979 114)" fill="#B6B6B6" xml:space="preserve" style="white-space: pre" font-family="Montserrat" font-size="16" letter-spacing="0em"><tspan x="0" y="16.736">Be Unique&#10;</tspan><tspan x="0" y="38.736">&#38; Memorable</tspan></text><g id="Button"><rect id="Button_2" opacity="0.5" x="47.75" y="231.75" width="40.5" height="15.5" rx="0.5" stroke="#555555" stroke-width="0.5"/><text id="See More" transform="translate(54 237)" fill="#555555" xml:space="preserve" style="white-space: pre" font-family="Montserrat" font-size="5" font-weight="300" letter-spacing="0em"><tspan x="2.46924" y="4.2925">See More</tspan></text></g></g><g id="Placeholder"><g id="Rectangle 28" filter="url(#filter1_bd_2541_6)"><rect x="289.25" y="79.25" width="239.5" height="239.5" rx="1.75" stroke="url(#paint2_linear_2541_6)" stroke-width="0.5" shape-rendering="crispEdges"/></g><g id="Image Icon"><path id="Vector 2" d="M407.426 190.344L415.295 182.082L418.442 185.229V194.672H411.754L407.426 190.344Z" fill="url(#paint3_linear_2541_6)" fill-opacity="0.5" stroke="#555555" stroke-width="0.5"/><path id="Vector 1" d="M405.782 188.77L399.952 194.671H411.755L405.782 188.77Z" fill="url(#paint4_linear_2541_6)" fill-opacity="0.5" stroke="#555555" stroke-width="0.5"/><path id="Ellipse 1" d="M405.602 178.934C405.602 180.534 404.304 181.832 402.704 181.832C401.104 181.832 399.807 180.534 399.807 178.934C399.807 177.334 401.104 176.037 402.704 176.037C404.304 176.037 405.602 177.334 405.602 178.934Z" stroke="#555555" stroke-width="0.5"/><rect id="Rectangle 1" x="396.947" y="173.176" width="24.1066" height="24.1066" rx="0.75" stroke="#555555" stroke-width="0.5"/></g></g><g id="Get in Touch"><rect id="Button_3" opacity="0.75" x="483.75" y="31.75" width="48.5" height="15.5" rx="1.25" stroke="#B6B6B6" stroke-width="0.5"/><text id="Get in Touch_2" fill="#B6B6B6" xml:space="preserve" style="white-space: pre" font-family="Montserrat" font-size="5" font-weight="500" letter-spacing="0em"><tspan x="492.038" y="41.2925">Get in Touch</tspan></text></g><g id="Menu"><text id="About Us" opacity="0.75" fill="#B6B6B6" xml:space="preserve" style="white-space: pre" font-family="Montserrat" font-size="5" font-weight="500" letter-spacing="0em"><tspan x="202.25" y="41.2925">About Us</tspan></text><text id="Services" opacity="0.75" fill="#B6B6B6" xml:space="preserve" style="white-space: pre" font-family="Montserrat" font-size="5" font-weight="500" letter-spacing="0em"><tspan x="287.068" y="41.2925">Services</tspan></text><text id="Clients" opacity="0.75" fill="#B6B6B6" xml:space="preserve" style="white-space: pre" font-family="Montserrat" font-size="5" font-weight="500" letter-spacing="0em"><tspan x="328.277" y="41.2925">Clients</tspan></text><text id="Contact" opacity="0.75" fill="#B6B6B6" xml:space="preserve" style="white-space: pre" font-family="Montserrat" font-size="5" font-weight="500" letter-spacing="0em"><tspan x="366.444" y="41.2925">Contact</tspan></text><text id="Projects" opacity="0.75" fill="#B6B6B6" xml:space="preserve" style="white-space: pre" font-family="Montserrat" font-size="5" font-weight="500" letter-spacing="0em"><tspan x="246" y="41.2925">Projects</tspan></text></g><g id="Logo"><path id="Vector" d="M56.7907 42.2012C56.7907 43.8722 55.4763 44.8403 52.9564 44.8403H48V35.1724H52.6828C55.0787 35.1724 56.3162 36.1793 56.3162 37.6842C56.3246 38.1251 56.2085 38.5593 55.9814 38.9361C55.7543 39.3129 55.4257 39.6168 55.0338 39.8123C56.1046 40.1572 56.7907 40.9852 56.7907 42.2012ZM50.2035 36.8563V39.146H52.4028C53.4843 39.146 54.072 38.7601 54.072 37.999C54.072 37.2379 53.4843 36.867 52.4028 36.867L50.2035 36.8563ZM54.5594 41.9662C54.5594 41.1512 53.9417 40.7653 52.7918 40.7653H50.2035V43.1542H52.7918C53.9417 43.1542 54.5594 42.7963 54.5594 41.9662Z" fill="#B6B6B6"/><path id="Vector_2" d="M62.897 37.2983V39.2884C62.7196 39.2733 62.5829 39.2604 62.4183 39.2604C61.2406 39.2604 60.4605 39.9072 60.4605 41.3324V44.8403H58.3232V37.4083H60.3622V38.3893C60.8858 37.6713 61.7621 37.2983 62.897 37.2983Z" fill="#B6B6B6"/><path id="Vector_3" d="M66.4507 43.8895L67.203 42.2035C68.1331 42.8526 69.2353 43.2042 70.3662 43.2125C71.6806 43.2125 72.215 42.7705 72.215 42.1755C72.215 40.3665 66.6409 41.6106 66.6409 38.0185C66.6409 36.3756 67.9575 35 70.6804 35C71.8858 35 73.119 35.2889 74.0081 35.8624L73.3242 37.5614C72.5186 37.0807 71.6034 36.8185 70.6676 36.8003C69.3531 36.8003 68.8466 37.2984 68.8466 37.9064C68.8466 39.6873 74.4185 38.4584 74.4185 42.003C74.4185 43.6179 73.0912 44.9999 70.3577 44.9999C68.8338 45.0064 67.2992 44.5493 66.4507 43.8895Z" fill="#B6B6B6"/><path id="Vector_4" d="M80.5401 44.4805C80.0205 44.8108 79.414 44.9747 78.8003 44.9506C77.0627 44.9506 76.0496 44.0536 76.0496 42.2856V39.2326H74.9126V37.5746H76.0496V35.7656H78.1869V37.5746H80.0229V39.2326H78.1869V42.2511C78.1869 42.8872 78.5289 43.2322 79.1038 43.2322C79.4106 43.2342 79.7101 43.1375 79.9587 42.9562L80.5401 44.4805Z" fill="#B6B6B6"/><path id="Vector_5" d="M81.3462 41.1254C81.3462 38.8874 83.056 37.2983 85.407 37.2983C87.7581 37.2983 89.4465 38.8874 89.4465 41.1254C89.4465 43.3634 87.7495 44.9503 85.407 44.9503C83.0646 44.9503 81.3462 43.3613 81.3462 41.1254ZM87.275 41.1254C87.275 39.8317 86.4671 39.0663 85.3985 39.0663C84.3299 39.0663 83.5091 39.8404 83.5091 41.1254C83.5091 42.4104 84.3299 43.1823 85.3985 43.1823C86.4671 43.1823 87.275 42.4083 87.275 41.1254Z" fill="#B6B6B6"/><path id="Vector_6" d="M95.0553 37.2983V39.2884C94.8779 39.2733 94.7411 39.2604 94.5765 39.2604C93.3989 39.2604 92.6187 39.9072 92.6187 41.3324V44.8403H90.4814V37.4083H92.5204V38.3893C93.0441 37.6713 93.9204 37.2983 95.0553 37.2983Z" fill="#B6B6B6"/><path id="Vector_7" d="M108.774 40.586V44.84H106.637V40.9159C106.637 39.7149 106.102 39.163 105.241 39.163C104.281 39.163 103.61 39.7839 103.61 41.1035V44.8335H101.473V40.9094C101.473 39.7085 100.966 39.1565 100.077 39.1565C99.1326 39.1565 98.4615 39.7775 98.4615 41.097V44.827H96.3242V37.4079H98.3653V38.2704C98.658 37.9493 99.0165 37.6964 99.4158 37.5292C99.8152 37.362 100.246 37.2846 100.678 37.3023C101.706 37.3023 102.582 37.7033 103.102 38.5183C103.423 38.1244 103.829 37.81 104.29 37.5992C104.75 37.3884 105.253 37.2868 105.758 37.3023C107.515 37.298 108.774 38.32 108.774 40.586Z" fill="#B6B6B6"/><path id="Vector_8" d="M65.0341 42.6841H62.8989V44.838H65.0341V42.6841Z" fill="#B6B6B6"/></g></g><defs><filter id="filter0_b_2541_6" x="-5" y="-5" width="590" height="370" filterUnits="userSpaceOnUse" color-interpolation-filters="sRGB"><feFlood flood-opacity="0" result="BackgroundImageFix"/><feGaussianBlur in="BackgroundImage" stdDeviation="2.5"/><feComposite in2="SourceAlpha" operator="in" result="effect1_backgroundBlur_2541_6"/><feBlend mode="normal" in="SourceGraphic" in2="effect1_backgroundBlur_2541_6" result="shape"/></filter><filter id="filter1_bd_2541_6" x="239" y="39" width="340" height="340" filterUnits="userSpaceOnUse" color-interpolation-filters="sRGB"><feFlood flood-opacity="0" result="BackgroundImageFix"/><feGaussianBlur in="BackgroundImage" stdDeviation="2.5"/><feComposite in2="SourceAlpha" operator="in" result="effect1_backgroundBlur_2541_6"/><feColorMatrix in="SourceAlpha" type="matrix" values="0 0 0 0 0 0 0 0 0 0 0 0 0 0 0 0 0 0 127 0" result="hardAlpha"/><feOffset dy="10"/><feGaussianBlur stdDeviation="25"/><feComposite in2="hardAlpha" operator="out"/><feColorMatrix type="matrix" values="0 0 0 0 0 0 0 0 0 0 0 0 0 0 0 0 0 0 0.15 0"/><feBlend mode="normal" in2="effect1_backgroundBlur_2541_6" result="effect2_dropShadow_2541_6"/><feBlend mode="normal" in="SourceGraphic" in2="effect2_dropShadow_2541_6" result="shape"/></filter><linearGradient id="paint0_linear_2541_6" x1="290" y1="0" x2="290" y2="360" gradientUnits="userSpaceOnUse"><stop offset="0.322917" stop-color="#010101"/><stop offset="1" stop-color="#010101" stop-opacity="0.25"/></linearGradient><linearGradient id="paint1_linear_2541_6" x1="290" y1="0" x2="290" y2="360" gradientUnits="userSpaceOnUse"><stop stop-color="#B6B6B6"/><stop offset="1" stop-color="#B6B6B6" stop-opacity="0"/></linearGradient><linearGradient id="paint2_linear_2541_6" x1="409" y1="79" x2="409" y2="319" gradientUnits="userSpaceOnUse"><stop stop-color="#B6B6B6" stop-opacity="0.75"/><stop offset="1" stop-color="#555555" stop-opacity="0"/></linearGradient><linearGradient id="paint3_linear_2541_6" x1="412.934" y1="182.082" x2="412.934" y2="194.672" gradientUnits="userSpaceOnUse"><stop stop-color="#101010" stop-opacity="0.8"/><stop offset="1" stop-color="#101010" stop-opacity="0"/></linearGradient><linearGradient id="paint4_linear_2541_6" x1="405.853" y1="188.77" x2="405.853" y2="194.671" gradientUnits="userSpaceOnUse"><stop stop-color="#101010" stop-opacity="0.8"/><stop offset="1" stop-color="#101010" stop-opacity="0"/></linearGradient><!-- <style>@import url('https://fonts.googleapis.com/css2?family=Inter:wght@400;500&amp;family=Montserrat:wght@300;400;500&amp;display=swap');</style> --></defs></svg>