<svg width="149" height="28" viewBox="0 0 149 28" fill="none" xmlns="http://www.w3.org/2000/svg">
<path d="M52.3263 17.8745C52.3263 20.9646 49.8955 22.7549 45.2356 22.7549H36.0699V4.8763H44.7297C49.1604 4.8763 51.4488 6.73831 51.4488 9.52137C51.4643 10.3367 51.2496 11.1397 50.8297 11.8365C50.4098 12.5333 49.802 13.0953 49.0774 13.4567C51.0575 14.0947 52.3263 15.6258 52.3263 17.8745ZM40.1449 7.99029V12.2247H44.2119C46.2118 12.2247 47.2988 11.511 47.2988 10.1035C47.2988 8.69602 46.2118 8.01022 44.2119 8.01022L40.1449 7.99029ZM48.1999 17.4399C48.1999 15.9328 47.0577 15.2191 44.9313 15.2191H40.1449V19.6369H44.9313C47.0577 19.6369 48.1999 18.975 48.1999 17.4399Z" fill="white"/>
<path d="M63.6184 8.80737V12.4876C63.2903 12.4596 63.0373 12.4357 62.733 12.4357C60.5552 12.4357 59.1126 13.6319 59.1126 16.2674V22.7546H55.1602V9.01072H58.9308V10.8249C59.8991 9.49716 61.5196 8.80737 63.6184 8.80737Z" fill="white"/>
<path d="M70.1912 20.9966L71.5825 17.8786C73.3024 19.079 75.3407 19.7293 77.4321 19.7446C79.8628 19.7446 80.8509 18.9273 80.8509 17.8268C80.8509 14.4816 70.543 16.7822 70.543 10.1395C70.543 7.10127 72.9777 4.55744 78.0131 4.55744C80.2422 4.55744 82.5228 5.09173 84.167 6.15232L82.9022 9.29423C81.4125 8.40517 79.7199 7.92029 77.9893 7.88675C75.5586 7.88675 74.6219 8.80779 74.6219 9.93218C74.6219 13.2256 84.9259 10.9529 84.9259 17.5078C84.9259 20.4942 82.4714 23.05 77.4163 23.05C74.5982 23.062 71.7603 22.2167 70.1912 20.9966Z" fill="white"/>
<path d="M96.2458 22.0894C95.2849 22.7001 94.1633 23.0032 93.0285 22.9586C89.8152 22.9586 87.9417 21.2999 87.9417 18.0304V12.3845H85.839V9.31839H87.9417V5.97314H91.8941V9.31839H95.2893V12.3845H91.8941V17.9666C91.8941 19.1428 92.5265 19.7808 93.5897 19.7808C94.1571 19.7846 94.7109 19.6058 95.1707 19.2704L96.2458 22.0894Z" fill="white"/>
<path d="M97.7357 15.8846C97.7357 11.7459 100.898 8.80737 105.245 8.80737C109.593 8.80737 112.715 11.7459 112.715 15.8846C112.715 20.0233 109.577 22.9579 105.245 22.9579C100.914 22.9579 97.7357 20.0193 97.7357 15.8846ZM108.7 15.8846C108.7 13.4923 107.206 12.0769 105.23 12.0769C103.253 12.0769 101.736 13.5083 101.736 15.8846C101.736 18.261 103.253 19.6884 105.23 19.6884C107.206 19.6884 108.7 18.257 108.7 15.8846Z" fill="white"/>
<path d="M123.087 8.80737V12.4876C122.759 12.4596 122.506 12.4357 122.201 12.4357C120.024 12.4357 118.581 13.6319 118.581 16.2674V22.7546H114.628V9.01072H118.399V10.8249C119.367 9.49716 120.988 8.80737 123.087 8.80737Z" fill="white"/>
<path d="M148.457 14.8882V22.7549H144.505V15.4983C144.505 13.2774 143.517 12.2567 141.924 12.2567C140.149 12.2567 138.908 13.405 138.908 15.8451V22.743H134.956V15.4863C134.956 13.2654 134.019 12.2447 132.375 12.2447C130.628 12.2447 129.387 13.393 129.387 15.8332V22.731H125.434V9.01111H129.209V10.606C129.75 10.0122 130.413 9.54448 131.152 9.23531C131.89 8.92615 132.686 8.78297 133.485 8.81574C135.387 8.81574 137.007 9.55735 137.968 11.0645C138.562 10.336 139.314 9.75459 140.165 9.36478C141.017 8.97496 141.946 8.78715 142.88 8.81574C146.129 8.80776 148.457 10.6977 148.457 14.8882Z" fill="white"/>
<path d="M67.5708 18.7673H63.6223V22.7505H67.5708V18.7673Z" fill="#E7E7E7"/>
<path d="M19.0863 3.39692L15.7188 6.798C15.129 6.20293 14.4286 5.73088 13.6579 5.40883C12.8872 5.08677 12.0611 4.92101 11.2269 4.92101C10.3927 4.92101 9.56661 5.08677 8.79588 5.40883C8.02515 5.73088 7.32485 6.20293 6.73496 6.798C6.14507 7.39308 5.67715 8.09953 5.3579 8.87704C5.03865 9.65455 4.87434 10.4879 4.87434 11.3294C4.87434 12.171 5.03865 13.0043 5.3579 13.7818C5.67715 14.5593 6.14507 15.2658 6.73496 15.8609L3.36749 19.258C1.3459 17.1421 0.228218 14.3104 0.254836 11.3719C0.281455 8.43332 1.45025 5.62268 3.50983 3.54447C5.56941 1.46625 8.35524 0.286473 11.2682 0.258882C14.1811 0.231291 16.9884 1.35808 19.0863 3.39692Z" fill="#D5D5D5"/>
<path d="M27.1058 11.3276C27.1066 14.496 26.1759 17.5935 24.4314 20.2282C22.6869 22.8629 20.207 24.9165 17.3053 26.1291C14.4036 27.3417 11.2106 27.6589 8.13023 27.0406C5.04983 26.4222 2.22044 24.8961 0 22.6552L3.36747 19.2581C5.46538 21.297 8.27269 22.4238 11.1856 22.3962C14.0985 22.3686 16.8844 21.1888 18.944 19.1106C21.0035 17.0324 22.1723 14.2217 22.199 11.2832C22.2256 8.34463 21.1079 5.51292 19.0863 3.39708L22.4577 -3.8147e-06C23.9336 1.4864 25.104 3.25224 25.9017 5.19614C26.6993 7.14005 27.1085 9.22374 27.1058 11.3276Z" fill="#E7E7E7"/>
<path d="M17.5804 11.3273C17.5796 12.5945 17.2066 13.8331 16.5084 14.8865C15.8102 15.94 14.8183 16.7611 13.6578 17.2462C12.4973 17.7313 11.2204 17.8586 9.98823 17.612C8.75608 17.3654 7.624 16.756 6.73496 15.8608L11.2289 11.3273L15.7188 6.7979C16.3099 7.39171 16.7787 8.09763 17.0982 8.875C17.4177 9.65236 17.5816 10.4858 17.5804 11.3273Z" fill="#E93CAC"/>
</svg>
