<svg width="28" height="28" viewBox="0 0 28 28" fill="none" xmlns="http://www.w3.org/2000/svg"><path d="M19.0863 3.39692L15.7188 6.798C15.129 6.20293 14.4286 5.73088 13.6579 5.40883C12.8872 5.08677 12.0611 4.92101 11.2269 4.92101C10.3927 4.92101 9.56661 5.08677 8.79588 5.40883C8.02515 5.73088 7.32485 6.20293 6.73496 6.798C6.14507 7.39308 5.67715 8.09953 5.3579 8.87704C5.03865 9.65455 4.87434 10.4879 4.87434 11.3294C4.87434 12.171 5.03865 13.0043 5.3579 13.7818C5.67715 14.5593 6.14507 15.2658 6.73496 15.8609L3.36749 19.258C1.3459 17.1421 0.228218 14.3104 0.254836 11.3719C0.281455 8.43332 1.45025 5.62268 3.50983 3.54447C5.56941 1.46625 8.35524 0.286473 11.2682 0.258882C14.1811 0.231291 16.9884 1.35808 19.0863 3.39692Z" fill="#D5D5D5"/><path d="M27.1058 11.3276C27.1066 14.496 26.1759 17.5935 24.4314 20.2282C22.6869 22.8629 20.207 24.9165 17.3053 26.1291C14.4036 27.3417 11.2106 27.6589 8.13023 27.0406C5.04983 26.4222 2.22044 24.8961 0 22.6552L3.36747 19.2581C5.46538 21.297 8.27269 22.4238 11.1856 22.3962C14.0985 22.3686 16.8844 21.1888 18.944 19.1106C21.0035 17.0324 22.1723 14.2217 22.199 11.2832C22.2256 8.34463 21.1079 5.51292 19.0863 3.39708L22.4577 -3.8147e-06C23.9336 1.4864 25.104 3.25224 25.9017 5.19614C26.6993 7.14005 27.1085 9.22374 27.1058 11.3276Z" fill="#E7E7E7"/><path d="M17.5804 11.3273C17.5796 12.5945 17.2066 13.8331 16.5084 14.8865C15.8102 15.94 14.8183 16.7611 13.6578 17.2462C12.4973 17.7313 11.2204 17.8586 9.98823 17.612C8.75608 17.3654 7.624 16.756 6.73496 15.8608L11.2289 11.3273L15.7188 6.7979C16.3099 7.39171 16.7787 8.09763 17.0982 8.875C17.4177 9.65236 17.5816 10.4858 17.5804 11.3273Z" fill="#E93CAC"/></svg>