<svg width="16" height="16" viewBox="0 0 16 16" fill="none" xmlns="http://www.w3.org/2000/svg">
<rect width="16" height="16" fill="#E5E5E5"/>
<rect width="1440" height="3139" transform="translate(-338 -2499)" fill="#010101"/>
<g opacity="0.4">
<rect x="-20.5" y="-20.5" width="806" height="147" rx="2.5" fill="#0A0A0A" stroke="#555555"/>
<rect x="-4.5" y="-4.5" width="25" height="25" rx="2.5" stroke="#B6B6B6"/>
<rect width="16" height="16" rx="2" fill="#B6B6B6"/>
<path d="M11.9012 6.19045L7.09655 10.9042C6.96556 11.0327 6.75405 11.0318 6.62412 10.9023L4.09689 8.38261C3.96697 8.25307 3.9678 8.04387 4.09881 7.91535L4.73128 7.29487C4.86226 7.16638 5.07378 7.1672 5.20371 7.29677L6.86824 8.95636L10.8033 5.09583C10.9343 4.96733 11.1458 4.96816 11.2757 5.0977L11.9031 5.72319C12.033 5.85276 12.0322 6.06196 11.9012 6.19045Z" fill="#010101"/>
</g>
</svg>
