<svg width="252" height="40" viewBox="0 0 252 40" fill="none" xmlns="http://www.w3.org/2000/svg">
<path d="M36.0044 28.8059C36.0044 35.493 30.6229 39.3624 20.3036 39.3624H0V0.667938H19.1821C28.9951 0.667938 34.0418 4.70629 34.0418 10.7254C34.0794 12.4861 33.6088 14.2211 32.6851 15.7284C31.7613 17.2357 30.4223 18.4534 28.8238 19.2398C33.2007 20.6217 36.0044 23.9384 36.0044 28.8059ZM9.03422 7.40877V16.568H18.0606C22.4921 16.568 24.8986 15.0325 24.8986 11.9615C24.8986 8.89052 22.4921 7.42412 18.0606 7.42412L9.03422 7.40877ZM26.8612 27.8692C26.8612 24.6063 24.3379 23.0555 19.6338 23.0555H9.03422V32.6216H19.6338C24.3379 32.6216 26.8612 31.1552 26.8612 27.8692Z" fill="white"/>
<path d="M61.0121 9.18228V17.1438C60.2879 17.0824 59.7271 17.0287 59.0495 17.0287C54.2287 17.0287 51.0278 19.6313 51.0278 25.3203V39.3624H42.2817V9.65828H50.6384V13.5891C52.7412 10.6717 56.3549 9.18228 61.0121 9.18228Z" fill="white"/>
<path d="M63.7603 34.3873C63.7603 32.962 64.3346 31.595 65.357 30.5872C66.3794 29.5793 67.7661 29.0131 69.2119 29.0131C70.6578 29.0131 72.0445 29.5793 73.0669 30.5872C74.0893 31.595 74.6636 32.962 74.6636 34.3873C74.6636 35.8127 74.0893 37.1796 73.0669 38.1875C72.0445 39.1954 70.6578 39.7616 69.2119 39.7616C67.7661 39.7616 66.3794 39.1954 65.357 38.1875C64.3346 37.1796 63.7603 35.8127 63.7603 34.3873Z" fill="white"/>
<path d="M78.6753 35.5467L81.7905 28.8059C85.5985 31.4034 90.1116 32.8106 94.7422 32.8442C100.132 32.8442 102.312 31.0707 102.312 28.6984C102.312 21.4508 79.4931 26.3951 79.4931 12.0536C79.4931 5.47404 84.8746 0 96.035 0C100.973 0 106.019 1.16698 109.664 3.43183L106.86 10.2341C103.558 8.29442 99.8004 7.23603 95.9571 7.16308C90.5677 7.16308 88.4961 9.15154 88.4961 11.5853C88.4961 18.71 111.323 13.7964 111.323 27.9998C111.323 34.4719 105.871 39.9996 94.6643 39.9996C88.4338 40.0303 82.1488 38.2031 78.6753 35.5467Z" fill="white"/>
<path d="M136.378 37.9266C134.25 39.2482 131.766 39.9039 129.252 39.8075C122.134 39.8075 117.983 36.2145 117.983 29.1358V16.921H113.31V10.2877H117.983V3.04013H126.729V10.2877H134.245V16.921H126.729V29.0284C126.729 31.5696 128.131 32.9515 130.491 32.9515C131.757 32.9682 132.995 32.5803 134.019 31.846L136.378 37.9266Z" fill="white"/>
<path d="M138.115 24.4912C138.115 15.5392 145.124 9.18228 154.711 9.18228C164.298 9.18228 171.253 15.5392 171.253 24.4912C171.253 33.4431 164.298 39.8077 154.711 39.8077C145.124 39.8077 138.115 33.4584 138.115 24.4912ZM162.398 24.4912C162.398 19.3549 159.088 16.2532 154.711 16.2532C150.334 16.2532 146.97 19.3242 146.97 24.4912C146.97 29.6581 150.334 32.7291 154.711 32.7291C159.088 32.7291 162.398 29.6197 162.398 24.4912Z" fill="white"/>
<path d="M195.817 9.18228V17.1438C195.085 17.0824 194.524 17.0287 193.854 17.0287C189.026 17.0287 185.832 19.6313 185.832 25.3203V39.3624H177.086V9.65828H185.443V13.5891C187.569 10.6717 191.16 9.18228 195.817 9.18228Z" fill="white"/>
<path d="M251.999 22.3414V39.3624H243.253V23.662C243.253 18.8559 241.065 16.6448 237.537 16.6448C233.643 16.6448 230.862 19.1323 230.862 24.4374V39.3624H222.116V23.662C222.116 18.8559 220.037 16.6448 216.392 16.6448C212.498 16.6448 209.772 19.1323 209.772 24.4374V39.3624H201.026V9.65827H209.383V13.0901C211.626 10.5489 214.99 9.25136 218.861 9.25136C223.066 9.25136 226.649 10.856 228.783 14.1112C230.103 12.5338 231.772 11.2755 233.662 10.433C235.552 9.59059 237.613 9.18635 239.686 9.25136C246.843 9.18227 251.999 13.2743 251.999 22.3414Z" fill="white"/>
</svg>
