<svg width="200" height="110" viewBox="0 0 200 110" fill="none" xmlns="http://www.w3.org/2000/svg">
<g opacity="0.7" filter="url(#filter0_b)">
<rect width="200" height="110" rx="2" fill="#010101"/>
<rect x="0.375" y="0.375" width="199.25" height="109.25" rx="1.625" stroke="url(#paint0_linear)" stroke-width="0.75"/>
</g>
<circle cx="18" cy="20" r="7.75" stroke="#555555" stroke-width="0.5"/>
<line x1="12.8232" y1="25.8232" x2="23.7834" y2="14.8631" stroke="#555555" stroke-width="0.5"/>
<line x1="12.1768" y1="14.8232" x2="18.1872" y2="20.8336" stroke="#555555" stroke-width="0.5"/>
<path d="M36.6392 17.1817V22.9999H37.4744V18.7868H37.5284L39.2443 22.9913H39.9375L41.6534 18.7896H41.7074V22.9999H42.5426V17.1817H41.4773L39.625 21.7044H39.5568L37.7045 17.1817H36.6392Z" fill="#E93CAC"/>
<path d="M43.7507 22.9999H44.6001V18.6362H43.7507V22.9999ZM44.1797 17.9629C44.4723 17.9629 44.7166 17.7357 44.7166 17.4573C44.7166 17.1788 44.4723 16.9487 44.1797 16.9487C43.8842 16.9487 43.6427 17.1788 43.6427 17.4573C43.6427 17.7357 43.8842 17.9629 44.1797 17.9629Z" fill="#E93CAC"/>
<path d="M47.581 23.0879C48.6122 23.0879 49.2798 22.4686 49.3736 21.6192H48.5469C48.4389 22.0908 48.0724 22.3692 47.5866 22.3692C46.8679 22.3692 46.4048 21.7698 46.4048 20.818C46.4048 19.8834 46.8764 19.2953 47.5866 19.2953C48.1264 19.2953 48.456 19.6362 48.5469 20.0453H49.3736C49.2827 19.1646 48.5639 18.5794 47.5724 18.5794C46.3423 18.5794 45.5469 19.5055 45.5469 20.8379C45.5469 22.1533 46.3139 23.0879 47.581 23.0879Z" fill="#E93CAC"/>
<path d="M51.1314 20.409C51.1314 19.7129 51.5717 19.3152 52.1768 19.3152C52.7621 19.3152 53.1115 19.6874 53.1115 20.3266V22.9999H53.9609V20.2243C53.9609 19.1362 53.3643 18.5794 52.4666 18.5794C51.7876 18.5794 51.3785 18.8749 51.174 19.3465H51.12V17.1817H50.2819V22.9999H51.1314V20.409Z" fill="#E93CAC"/>
<path d="M56.9751 23.0879C57.9268 23.0879 58.6001 22.6192 58.7933 21.909L57.9893 21.7641C57.8359 22.176 57.4666 22.3862 56.9837 22.3862C56.2564 22.3862 55.7677 21.9146 55.745 21.0737H58.8473V20.7726C58.8473 19.1959 57.9041 18.5794 56.9155 18.5794C55.6996 18.5794 54.8984 19.5055 54.8984 20.8465C54.8984 22.2016 55.6882 23.0879 56.9751 23.0879ZM55.7479 20.4374C55.7819 19.818 56.2308 19.2811 56.9212 19.2811C57.5802 19.2811 58.0121 19.7698 58.0149 20.4374H55.7479Z" fill="#E93CAC"/>
<path d="M60.6392 17.1817H59.7898V22.9999H60.6392V17.1817Z" fill="#E93CAC"/>
<path d="M63.0518 23.0965C63.7734 23.0965 64.1797 22.73 64.3416 22.4033H64.3757V22.9999H65.2052V20.1021C65.2052 18.8323 64.2052 18.5794 63.5121 18.5794C62.7223 18.5794 61.995 18.8976 61.7109 19.693L62.5092 19.8749C62.6342 19.5652 62.9524 19.2669 63.5234 19.2669C64.0717 19.2669 64.353 19.5538 64.353 20.0482V20.068C64.353 20.3777 64.0348 20.372 63.2507 20.4629C62.424 20.5595 61.5774 20.7754 61.5774 21.7669C61.5774 22.6249 62.2223 23.0965 63.0518 23.0965ZM63.2365 22.4146C62.7564 22.4146 62.4098 22.1987 62.4098 21.7783C62.4098 21.3237 62.8132 21.1618 63.3047 21.0965C63.5802 21.0595 64.2337 20.9857 64.3558 20.8635V21.426C64.3558 21.943 63.9439 22.4146 63.2365 22.4146Z" fill="#E93CAC"/>
<path d="M67.1861 20.409C67.1861 19.7129 67.6122 19.3152 68.2031 19.3152C68.7798 19.3152 69.1292 19.693 69.1292 20.3266V22.9999H69.9787V20.2243C69.9787 19.1448 69.3849 18.5794 68.4929 18.5794C67.8366 18.5794 67.4077 18.8834 67.206 19.3465H67.152V18.6362H66.3366V22.9999H67.1861V20.409Z" fill="#E93CAC"/>
<path d="M72.9474 24.7271C74.0582 24.7271 74.9162 24.2186 74.9162 23.0965V18.6362H74.0838V19.3436H74.0213C73.8707 19.0737 73.5696 18.5794 72.7571 18.5794C71.7031 18.5794 70.9275 19.4118 70.9275 20.801C70.9275 22.193 71.7202 22.9345 72.7514 22.9345C73.5525 22.9345 73.8622 22.4828 74.0156 22.2044H74.0696V23.0624C74.0696 23.747 73.6008 24.0425 72.956 24.0425C72.2486 24.0425 71.973 23.6874 71.8224 23.4374L71.0923 23.7385C71.3224 24.2726 71.9048 24.7271 72.9474 24.7271ZM72.9389 22.23C72.1804 22.23 71.7855 21.6476 71.7855 20.7896C71.7855 19.9516 72.1719 19.301 72.9389 19.301C73.6804 19.301 74.0781 19.9061 74.0781 20.7896C74.0781 21.6902 73.6719 22.23 72.9389 22.23Z" fill="#E93CAC"/>
<path d="M77.9361 23.0879C78.8878 23.0879 79.5611 22.6192 79.7542 21.909L78.9503 21.7641C78.7969 22.176 78.4275 22.3862 77.9446 22.3862C77.2173 22.3862 76.7287 21.9146 76.706 21.0737H79.8082V20.7726C79.8082 19.1959 78.865 18.5794 77.8764 18.5794C76.6605 18.5794 75.8594 19.5055 75.8594 20.8465C75.8594 22.2016 76.6491 23.0879 77.9361 23.0879ZM76.7088 20.4374C76.7429 19.818 77.1917 19.2811 77.8821 19.2811C78.5412 19.2811 78.973 19.7698 78.9758 20.4374H76.7088Z" fill="#E93CAC"/>
<path d="M81.6001 17.1817H80.7507V22.9999H81.6001V17.1817Z" fill="#E93CAC"/>
<path d="M84.581 23.0879C85.8111 23.0879 86.615 22.1874 86.615 20.8379C86.615 19.48 85.8111 18.5794 84.581 18.5794C83.3508 18.5794 82.5469 19.48 82.5469 20.8379C82.5469 22.1874 83.3508 23.0879 84.581 23.0879ZM84.5838 22.3749C83.7798 22.3749 83.4048 21.6732 83.4048 20.8351C83.4048 19.9999 83.7798 19.2896 84.5838 19.2896C85.3821 19.2896 85.7571 19.9999 85.7571 20.8351C85.7571 21.6732 85.3821 22.3749 84.5838 22.3749Z" fill="#E93CAC"/>
<path d="M37.4972 40.8182H36.7486V47H37.4972V40.8182ZM44.5762 43.402C44.3528 42.744 43.8518 42.3033 42.9342 42.3033C41.9562 42.3033 41.2318 42.8587 41.2318 43.6435C41.2318 44.2834 41.6121 44.712 42.4633 44.9112L43.236 45.0923C43.7039 45.201 43.9242 45.4244 43.9242 45.7443C43.9242 46.1428 43.5016 46.4688 42.8376 46.4688C42.255 46.4688 41.8898 46.2182 41.763 45.7202L41.0869 45.8892C41.2529 46.677 41.9019 47.0966 42.8497 47.0966C43.9272 47.0966 44.6607 46.508 44.6607 45.7081C44.6607 45.0621 44.2563 44.6547 43.4292 44.4524L42.741 44.2834C42.1916 44.1475 41.9441 43.9634 41.9441 43.6072C41.9441 43.2088 42.3667 42.919 42.9342 42.919C43.556 42.919 43.8125 43.2631 43.9363 43.5831L44.5762 43.402ZM47.0974 47.1087C47.9063 47.1087 48.3289 46.674 48.4738 46.3722H48.51V47H49.2224V43.9453C49.2224 42.4723 48.0995 42.3033 47.5079 42.3033C46.8076 42.3033 46.0107 42.5447 45.6485 43.3899L46.3247 43.6314C46.4816 43.2933 46.8529 42.9311 47.532 42.9311C48.1871 42.9311 48.51 43.2782 48.51 43.8729V43.897C48.51 44.2411 48.1599 44.2109 47.3147 44.3196C46.4545 44.4313 45.5157 44.6214 45.5157 45.6839C45.5157 46.5895 46.216 47.1087 47.0974 47.1087ZM47.2061 46.4688C46.6386 46.4688 46.2281 46.2152 46.2281 45.7202C46.2281 45.1768 46.7231 45.0078 47.2785 44.9354C47.5803 44.8991 48.3893 44.8146 48.51 44.6697V45.3217C48.51 45.9013 48.0512 46.4688 47.2061 46.4688ZM51.573 47H52.2733L53.2875 43.4382H53.36L54.3742 47H55.0744L56.4871 42.3636H55.7385L54.7364 45.9013H54.6881L53.7101 42.3636H52.9494L51.9594 45.9134H51.9111L50.909 42.3636H50.1604L51.573 47ZM61.8358 42.3636H60.8457V41.2528H60.1334V42.3636H59.4331V42.9673H60.1334V45.8651C60.1334 46.674 60.7854 47.0604 61.3891 47.0604C61.6547 47.0604 61.8237 47.0121 61.9203 46.9759L61.7754 46.3359C61.7151 46.348 61.6185 46.3722 61.4615 46.3722C61.1476 46.3722 60.8457 46.2756 60.8457 45.6719V42.9673H61.8358V42.3636ZM63.7193 44.2109C63.7193 43.402 64.2355 42.9432 64.9388 42.9432C65.6089 42.9432 66.0134 43.3658 66.0134 44.1023V47H66.7257V44.054C66.7257 42.8617 66.0918 42.3033 65.144 42.3033C64.4136 42.3033 63.997 42.6081 63.7797 43.0881H63.7193V40.8182H63.007V47H63.7193V44.2109ZM69.9728 47.0966C70.9146 47.0966 71.6028 46.6257 71.8201 45.9254L71.1319 45.7322C70.9508 46.2152 70.5312 46.4567 69.9728 46.4567C69.1367 46.4567 68.5602 45.9164 68.527 44.9233H71.8926V44.6214C71.8926 42.8949 70.8663 42.3033 69.9004 42.3033C68.6447 42.3033 67.8116 43.2933 67.8116 44.718C67.8116 46.1428 68.6326 47.0966 69.9728 47.0966ZM68.527 44.3075C68.5753 43.5861 69.0854 42.9432 69.9004 42.9432C70.6731 42.9432 71.1681 43.5227 71.1681 44.3075H68.527ZM76.7312 47.1087C77.5401 47.1087 77.9627 46.674 78.1076 46.3722H78.1438V47H78.8562V43.9453C78.8562 42.4723 77.7333 42.3033 77.1417 42.3033C76.4414 42.3033 75.6445 42.5447 75.2823 43.3899L75.9585 43.6314C76.1154 43.2933 76.4867 42.9311 77.1658 42.9311C77.8208 42.9311 78.1438 43.2782 78.1438 43.8729V43.897C78.1438 44.2411 77.7937 44.2109 76.9485 44.3196C76.0882 44.4313 75.1495 44.6214 75.1495 45.6839C75.1495 46.5895 75.8498 47.1087 76.7312 47.1087ZM76.8398 46.4688C76.2724 46.4688 75.8619 46.2152 75.8619 45.7202C75.8619 45.1768 76.3569 45.0078 76.9123 44.9354C77.2141 44.8991 78.0231 44.8146 78.1438 44.6697V45.3217C78.1438 45.9013 77.685 46.4688 76.8398 46.4688ZM80.8687 44.2109C80.8687 43.402 81.3698 42.9432 82.052 42.9432C82.713 42.9432 83.1145 43.3748 83.1145 44.1023V47H83.8268V44.054C83.8268 42.8707 83.196 42.3033 82.2572 42.3033C81.557 42.3033 81.1223 42.6172 80.905 43.0881H80.8446V42.3636H80.1564V47H80.8687V44.2109ZM87 48.8352C88.1108 48.8352 89.0043 48.3281 89.0043 47.1328V42.3636H88.3161V43.1001H88.2436C88.0866 42.8587 87.7969 42.3033 86.8913 42.3033C85.7202 42.3033 84.9112 43.233 84.9112 44.6577C84.9112 46.1065 85.7564 46.9276 86.8793 46.9276C87.7848 46.9276 88.0746 46.3963 88.2315 46.1428H88.2919V47.0845C88.2919 47.8572 87.7486 48.2074 87 48.2074C86.1578 48.2074 85.862 47.7637 85.6719 47.5071L85.1044 47.9055C85.3942 48.3915 85.9647 48.8352 87 48.8352ZM86.9759 46.2876C86.0824 46.2876 85.6236 45.6115 85.6236 44.6456C85.6236 43.7038 86.0703 42.9432 86.9759 42.9432C87.8452 42.9432 88.304 43.6435 88.304 44.6456C88.304 45.6719 87.8331 46.2876 86.9759 46.2876ZM92.2521 47.0966C93.1939 47.0966 93.8821 46.6257 94.0994 45.9254L93.4112 45.7322C93.2301 46.2152 92.8105 46.4567 92.2521 46.4567C91.416 46.4567 90.8395 45.9164 90.8063 44.9233H94.1719V44.6214C94.1719 42.8949 93.1456 42.3033 92.1797 42.3033C90.924 42.3033 90.0909 43.2933 90.0909 44.718C90.0909 46.1428 90.9119 47.0966 92.2521 47.0966ZM90.8063 44.3075C90.8546 43.5861 91.3647 42.9432 92.1797 42.9432C92.9524 42.9432 93.4474 43.5227 93.4474 44.3075H90.8063ZM95.9679 40.8182H95.2555V47H95.9679V40.8182ZM99.6632 47H100.376V42.3636H99.6632V47ZM100.025 41.5909C100.303 41.5909 100.533 41.3736 100.533 41.108C100.533 40.8423 100.303 40.625 100.025 40.625C99.7477 40.625 99.5183 40.8423 99.5183 41.108C99.5183 41.3736 99.7477 41.5909 100.025 41.5909ZM102.393 44.2109C102.393 43.402 102.894 42.9432 103.576 42.9432C104.237 42.9432 104.638 43.3748 104.638 44.1023V47H105.351V44.054C105.351 42.8707 104.72 42.3033 103.781 42.3033C103.081 42.3033 102.646 42.6172 102.429 43.0881H102.369V42.3636H101.68V47H102.393V44.2109ZM111.059 42.3636H110.069V41.2528H109.357V42.3636H108.657V42.9673H109.357V45.8651C109.357 46.674 110.009 47.0604 110.613 47.0604C110.878 47.0604 111.047 47.0121 111.144 46.9759L110.999 46.3359C110.939 46.348 110.842 46.3722 110.685 46.3722C110.371 46.3722 110.069 46.2756 110.069 45.6719V42.9673H111.059V42.3636ZM112.943 44.2109C112.943 43.402 113.459 42.9432 114.162 42.9432C114.833 42.9432 115.237 43.3658 115.237 44.1023V47H115.949V44.054C115.949 42.8617 115.315 42.3033 114.368 42.3033C113.637 42.3033 113.221 42.6081 113.003 43.0881H112.943V40.8182H112.231V47H112.943V44.2109ZM119.196 47.0966C120.138 47.0966 120.826 46.6257 121.044 45.9254L120.356 45.7322C120.174 46.2152 119.755 46.4567 119.196 46.4567C118.36 46.4567 117.784 45.9164 117.751 44.9233H121.116V44.6214C121.116 42.8949 120.09 42.3033 119.124 42.3033C117.868 42.3033 117.035 43.2933 117.035 44.718C117.035 46.1428 117.856 47.0966 119.196 47.0966ZM117.751 44.3075C117.799 43.5861 118.309 42.9432 119.124 42.9432C119.897 42.9432 120.392 43.5227 120.392 44.3075H117.751ZM124.59 47H125.303V44.1023C125.303 43.4231 125.798 42.9432 126.353 42.9432C126.894 42.9432 127.271 43.2963 127.271 43.8246V47H127.995V43.9815C127.995 43.3839 128.37 42.9432 129.022 42.9432C129.529 42.9432 129.963 43.2118 129.963 43.897V47H130.676V43.897C130.676 42.8074 130.09 42.3033 129.263 42.3033C128.599 42.3033 128.113 42.6081 127.875 43.0881H127.826C127.597 42.593 127.192 42.3033 126.583 42.3033C125.979 42.3033 125.532 42.593 125.339 43.0881H125.279V42.3636H124.59V47ZM133.343 47.1087C134.151 47.1087 134.574 46.674 134.719 46.3722H134.755V47H135.468V43.9453C135.468 42.4723 134.345 42.3033 133.753 42.3033C133.053 42.3033 132.256 42.5447 131.894 43.3899L132.57 43.6314C132.727 43.2933 133.098 42.9311 133.777 42.9311C134.432 42.9311 134.755 43.2782 134.755 43.8729V43.897C134.755 44.2411 134.405 44.2109 133.56 44.3196C132.7 44.4313 131.761 44.6214 131.761 45.6839C131.761 46.5895 132.461 47.1087 133.343 47.1087ZM133.451 46.4688C132.884 46.4688 132.473 46.2152 132.473 45.7202C132.473 45.1768 132.968 45.0078 133.524 44.9354C133.825 44.8991 134.634 44.8146 134.755 44.6697V45.3217C134.755 45.9013 134.296 46.4688 133.451 46.4688ZM136.768 47H137.48V44.0661C137.48 43.4382 137.975 42.9794 138.651 42.9794C138.841 42.9794 139.038 43.0156 139.086 43.0277V42.3033C139.004 42.2972 138.817 42.2912 138.712 42.2912C138.156 42.2912 137.673 42.6051 137.504 43.0639H137.456V42.3636H136.768V47ZM140.027 47H140.715V46.2876H140.8C140.957 46.5412 141.258 47.0966 142.152 47.0966C143.311 47.0966 144.12 46.1669 144.12 44.6939C144.12 43.233 143.311 42.3033 142.14 42.3033C141.234 42.3033 140.957 42.8587 140.8 43.1001H140.739V40.8182H140.027V47ZM140.727 44.6818C140.727 43.6435 141.186 42.9432 142.055 42.9432C142.961 42.9432 143.408 43.7038 143.408 44.6818C143.408 45.6719 142.949 46.4567 142.055 46.4567C141.198 46.4567 140.727 45.7322 140.727 44.6818ZM145.922 40.8182H145.21V47H145.922V40.8182ZM149.171 47.0966C150.112 47.0966 150.801 46.6257 151.018 45.9254L150.33 45.7322C150.149 46.2152 149.729 46.4567 149.171 46.4567C148.334 46.4567 147.758 45.9164 147.725 44.9233H151.09V44.6214C151.09 42.8949 150.064 42.3033 149.098 42.3033C147.842 42.3033 147.009 43.2933 147.009 44.718C147.009 46.1428 147.83 47.0966 149.171 47.0966ZM147.725 44.3075C147.773 43.5861 148.283 42.9432 149.098 42.9432C149.871 42.9432 150.366 43.5227 150.366 44.3075H147.725ZM38.0163 60.1087C38.8253 60.1087 39.2479 59.674 39.3928 59.3722H39.429V60H40.1413V56.9453C40.1413 55.4723 39.0185 55.3033 38.4268 55.3033C37.7266 55.3033 36.9297 55.5447 36.5675 56.3899L37.2436 56.6314C37.4006 56.2933 37.7718 55.9311 38.451 55.9311C39.106 55.9311 39.429 56.2782 39.429 56.8729V56.897C39.429 57.2411 39.0788 57.2109 38.2337 57.3196C37.3734 57.4313 36.4347 57.6214 36.4347 58.6839C36.4347 59.5895 37.1349 60.1087 38.0163 60.1087ZM38.125 59.4688C37.5575 59.4688 37.147 59.2152 37.147 58.7202C37.147 58.1768 37.642 58.0078 38.1974 57.9354C38.4993 57.8991 39.3082 57.8146 39.429 57.6697V58.3217C39.429 58.9013 38.9702 59.4688 38.125 59.4688ZM42.1539 57.2109C42.1539 56.402 42.655 55.9432 43.3371 55.9432C43.9982 55.9432 44.3996 56.3748 44.3996 57.1023V60H45.112V57.054C45.112 55.8707 44.4811 55.3033 43.5424 55.3033C42.8421 55.3033 42.4074 55.6172 42.1901 56.0881H42.1297V55.3636H41.4415V60H42.1539V57.2109ZM48.1644 60.0966C49.0579 60.0966 49.3597 59.5412 49.5167 59.2876H49.6012V60H50.2894V53.8182H49.5771V56.1001H49.5167C49.3597 55.8587 49.082 55.3033 48.1765 55.3033C47.0053 55.3033 46.1964 56.233 46.1964 57.6939C46.1964 59.1669 47.0053 60.0966 48.1644 60.0966ZM48.261 59.4567C47.3675 59.4567 46.9087 58.6719 46.9087 57.6818C46.9087 56.7038 47.3555 55.9432 48.261 55.9432C49.1303 55.9432 49.5891 56.6435 49.5891 57.6818C49.5891 58.7322 49.1183 59.4567 48.261 59.4567ZM55.9672 60.0966C56.9934 60.0966 57.6696 59.4688 57.7903 58.6477H57.0779C56.9451 59.1548 56.5225 59.4567 55.9672 59.4567C55.122 59.4567 54.5787 58.7564 54.5787 57.6818C54.5787 56.6314 55.1341 55.9432 55.9672 55.9432C56.595 55.9432 56.9693 56.3295 57.0779 56.7521H57.7903C57.6696 55.8828 56.9331 55.3033 55.9551 55.3033C54.6994 55.3033 53.8663 56.2933 53.8663 57.706C53.8663 59.0945 54.6632 60.0966 55.9672 60.0966ZM60.196 60.1087C61.005 60.1087 61.4276 59.674 61.5724 59.3722H61.6087V60H62.321V56.9453C62.321 55.4723 61.1982 55.3033 60.6065 55.3033C59.9062 55.3033 59.1094 55.5447 58.7472 56.3899L59.4233 56.6314C59.5803 56.2933 59.9515 55.9311 60.6307 55.9311C61.2857 55.9311 61.6087 56.2782 61.6087 56.8729V56.897C61.6087 57.2411 61.2585 57.2109 60.4134 57.3196C59.5531 57.4313 58.6143 57.6214 58.6143 58.6839C58.6143 59.5895 59.3146 60.1087 60.196 60.1087ZM60.3047 59.4688C59.7372 59.4688 59.3267 59.2152 59.3267 58.7202C59.3267 58.1768 59.8217 58.0078 60.3771 57.9354C60.679 57.8991 61.4879 57.8146 61.6087 57.6697V58.3217C61.6087 58.9013 61.1499 59.4688 60.3047 59.4688ZM63.6212 60H64.3336V57.0661C64.3336 56.4382 64.8286 55.9794 65.5047 55.9794C65.6949 55.9794 65.8911 56.0156 65.9394 56.0277V55.3033C65.8579 55.2972 65.6708 55.2912 65.5651 55.2912C65.0097 55.2912 64.5268 55.6051 64.3577 56.0639H64.3094V55.3636H63.6212V60ZM70.7161 55.3636H69.9434L68.6636 59.0582H68.6153L67.3354 55.3636H66.5627L68.2772 60H69.0016L70.7161 55.3636ZM73.4343 60.0966C74.376 60.0966 75.0642 59.6257 75.2816 58.9254L74.5934 58.7322C74.4122 59.2152 73.9927 59.4567 73.4343 59.4567C72.5981 59.4567 72.0216 58.9164 71.9884 57.9233H75.354V57.6214C75.354 55.8949 74.3277 55.3033 73.3618 55.3033C72.1061 55.3033 71.273 56.2933 71.273 57.718C71.273 59.1428 72.0941 60.0966 73.4343 60.0966ZM71.9884 57.3075C72.0367 56.5861 72.5468 55.9432 73.3618 55.9432C74.1345 55.9432 74.6296 56.5227 74.6296 57.3075H71.9884ZM78.1883 60.0966C79.0818 60.0966 79.3837 59.5412 79.5406 59.2876H79.6251V60H80.3133V53.8182H79.601V56.1001H79.5406C79.3837 55.8587 79.106 55.3033 78.2004 55.3033C77.0293 55.3033 76.2203 56.233 76.2203 57.6939C76.2203 59.1669 77.0293 60.0966 78.1883 60.0966ZM78.2849 59.4567C77.3915 59.4567 76.9327 58.6719 76.9327 57.6818C76.9327 56.7038 77.3794 55.9432 78.2849 55.9432C79.1543 55.9432 79.6131 56.6435 79.6131 57.6818C79.6131 58.7322 79.1422 59.4567 78.2849 59.4567ZM87.0294 58.1044C87.0294 58.9737 86.3654 59.3722 85.8341 59.3722C85.2425 59.3722 84.8199 58.9375 84.8199 58.2614V55.3636H84.1076V58.3097C84.1076 59.4929 84.7354 60.0604 85.6047 60.0604C86.305 60.0604 86.7638 59.6861 86.9811 59.2152H87.0294V60H87.7418V55.3636H87.0294V58.1044ZM89.7589 57.2109C89.7589 56.402 90.2599 55.9432 90.9421 55.9432C91.6032 55.9432 92.0046 56.3748 92.0046 57.1023V60H92.717V57.054C92.717 55.8707 92.0861 55.3033 91.1474 55.3033C90.4471 55.3033 90.0124 55.6172 89.7951 56.0881H89.7347V55.3636H89.0465V60H89.7589V57.2109ZM96.035 55.3636H95.045V54.2528H94.3326V55.3636H93.6323V55.9673H94.3326V58.8651C94.3326 59.674 94.9846 60.0604 95.5883 60.0604C95.8539 60.0604 96.0229 60.0121 96.1195 59.9759L95.9747 59.3359C95.9143 59.348 95.8177 59.3722 95.6607 59.3722C95.3468 59.3722 95.045 59.2756 95.045 58.6719V55.9673H96.035V55.3636ZM97.1066 60H97.8189V55.3636H97.1066V60ZM97.4688 54.5909C97.7465 54.5909 97.9759 54.3736 97.9759 54.108C97.9759 53.8423 97.7465 53.625 97.4688 53.625C97.1911 53.625 96.9617 53.8423 96.9617 54.108C96.9617 54.3736 97.1911 54.5909 97.4688 54.5909ZM99.836 53.8182H99.1237V60H99.836V53.8182ZM104.377 53.8182H103.628V60H104.377V53.8182ZM111.456 56.402C111.232 55.744 110.731 55.3033 109.814 55.3033C108.836 55.3033 108.111 55.8587 108.111 56.6435C108.111 57.2834 108.491 57.712 109.343 57.9112L110.115 58.0923C110.583 58.201 110.804 58.4244 110.804 58.7443C110.804 59.1428 110.381 59.4688 109.717 59.4688C109.134 59.4688 108.769 59.2182 108.642 58.7202L107.966 58.8892C108.132 59.677 108.781 60.0966 109.729 60.0966C110.807 60.0966 111.54 59.508 111.54 58.7081C111.54 58.0621 111.136 57.6547 110.309 57.4524L109.62 57.2834C109.071 57.1475 108.824 56.9634 108.824 56.6072C108.824 56.2088 109.246 55.919 109.814 55.919C110.435 55.919 110.692 56.2631 110.816 56.5831L111.456 56.402ZM114.556 60.0966C115.498 60.0966 116.186 59.6257 116.404 58.9254L115.715 58.7322C115.534 59.2152 115.115 59.4567 114.556 59.4567C113.72 59.4567 113.144 58.9164 113.11 57.9233H116.476V57.6214C116.476 55.8949 115.45 55.3033 114.484 55.3033C113.228 55.3033 112.395 56.2933 112.395 57.718C112.395 59.1428 113.216 60.0966 114.556 60.0966ZM113.11 57.3075C113.159 56.5861 113.669 55.9432 114.484 55.9432C115.257 55.9432 115.752 56.5227 115.752 57.3075H113.11ZM119.576 55.3636H118.586V54.2528H117.874V55.3636H117.173V55.9673H117.874V58.8651C117.874 59.674 118.526 60.0604 119.129 60.0604C119.395 60.0604 119.564 60.0121 119.661 59.9759L119.516 59.3359C119.455 59.348 119.359 59.3722 119.202 59.3722C118.888 59.3722 118.586 59.2756 118.586 58.6719V55.9673H119.576V55.3636ZM123.751 57.2109C123.751 56.402 124.267 55.9432 124.97 55.9432C125.64 55.9432 126.045 56.3658 126.045 57.1023V60H126.757V57.054C126.757 55.8617 126.123 55.3033 125.175 55.3033C124.445 55.3033 124.028 55.6081 123.811 56.0881H123.751V53.8182H123.038V60H123.751V57.2109ZM128.06 60H128.773V55.3636H128.06V60ZM128.422 54.5909C128.7 54.5909 128.93 54.3736 128.93 54.108C128.93 53.8423 128.7 53.625 128.422 53.625C128.145 53.625 127.915 53.8423 127.915 54.108C127.915 54.3736 128.145 54.5909 128.422 54.5909ZM130.077 60H130.79V57.1023C130.79 56.4231 131.285 55.9432 131.84 55.9432C132.38 55.9432 132.758 56.2963 132.758 56.8246V60H133.482V56.9815C133.482 56.3839 133.856 55.9432 134.508 55.9432C135.015 55.9432 135.45 56.2118 135.45 56.897V60H136.163V56.897C136.163 55.8074 135.577 55.3033 134.75 55.3033C134.086 55.3033 133.6 55.6081 133.361 56.0881H133.313C133.084 55.593 132.679 55.3033 132.069 55.3033C131.466 55.3033 131.019 55.593 130.826 56.0881H130.765V55.3636H130.077V60ZM141.92 55.3636H140.882V54.8928C140.882 54.4339 141.075 54.1925 141.546 54.1925C141.751 54.1925 141.872 54.2408 141.944 54.2649L142.15 53.6491C142.041 53.6009 141.824 53.5284 141.473 53.5284C140.809 53.5284 140.17 53.9268 140.17 54.7237V55.3636H139.421V55.9673H140.17V60H140.882V55.9673H141.92V55.3636ZM142.919 60H143.631V57.0661C143.631 56.4382 144.126 55.9794 144.802 55.9794C144.992 55.9794 145.188 56.0156 145.237 56.0277V55.3033C145.155 55.2972 144.968 55.2912 144.862 55.2912C144.307 55.2912 143.824 55.6051 143.655 56.0639H143.607V55.3636H142.919V60ZM147.884 60.0966C148.826 60.0966 149.514 59.6257 149.731 58.9254L149.043 58.7322C148.862 59.2152 148.442 59.4567 147.884 59.4567C147.048 59.4567 146.471 58.9164 146.438 57.9233H149.804V57.6214C149.804 55.8949 148.777 55.3033 147.812 55.3033C146.556 55.3033 145.723 56.2933 145.723 57.718C145.723 59.1428 146.544 60.0966 147.884 60.0966ZM146.438 57.3075C146.486 56.5861 146.997 55.9432 147.812 55.9432C148.584 55.9432 149.079 56.5227 149.079 57.3075H146.438ZM152.831 60.0966C153.773 60.0966 154.461 59.6257 154.679 58.9254L153.99 58.7322C153.809 59.2152 153.39 59.4567 152.831 59.4567C151.995 59.4567 151.419 58.9164 151.385 57.9233H154.751V57.6214C154.751 55.8949 153.725 55.3033 152.759 55.3033C151.503 55.3033 150.67 56.2933 150.67 57.718C150.67 59.1428 151.491 60.0966 152.831 60.0966ZM151.385 57.3075C151.434 56.5861 151.944 55.9432 152.759 55.9432C153.532 55.9432 154.027 56.5227 154.027 57.3075H151.385ZM156.354 60.0483C156.653 60.0483 156.897 59.8038 156.897 59.505C156.897 59.2061 156.653 58.9616 156.354 58.9616C156.055 58.9616 155.81 59.2061 155.81 59.505C155.81 59.8038 156.055 60.0483 156.354 60.0483Z" fill="#E7E7E7"/>
<g opacity="0.5">
<path d="M167.639 96.9998H168.517V94.7981H169.71C169.73 94.7981 169.747 94.7981 169.767 94.7981L170.949 96.9998H171.949L170.659 94.6447C171.372 94.3805 171.727 93.7868 171.727 93.0055C171.727 91.9345 171.063 91.1816 169.713 91.1816H167.639V96.9998ZM168.517 94.0424V91.9345H169.619C170.486 91.9345 170.844 92.3464 170.844 93.0055C170.844 93.6618 170.486 94.0424 169.631 94.0424H168.517Z" fill="#555555"/>
<path d="M174.553 97.0879C175.505 97.0879 176.178 96.6191 176.371 95.9089L175.567 95.764C175.414 96.176 175.045 96.3862 174.562 96.3862C173.835 96.3862 173.346 95.9146 173.323 95.0737H176.425V94.7725C176.425 93.1958 175.482 92.5794 174.494 92.5794C173.278 92.5794 172.477 93.5055 172.477 94.8464C172.477 96.2015 173.266 97.0879 174.553 97.0879ZM173.326 94.4373C173.36 93.818 173.809 93.2811 174.499 93.2811C175.158 93.2811 175.59 93.7697 175.593 94.4373H173.326Z" fill="#555555"/>
<path d="M177.368 98.6362H178.217V96.3208H178.268C178.422 96.5993 178.734 97.0851 179.53 97.0851C180.587 97.0851 181.354 96.2385 181.354 94.8265C181.354 93.4118 180.575 92.5794 179.521 92.5794C178.712 92.5794 178.419 93.0737 178.268 93.3436H178.197V92.6362H177.368V98.6362ZM178.2 94.818C178.2 93.9061 178.598 93.301 179.34 93.301C180.109 93.301 180.496 93.9515 180.496 94.818C180.496 95.693 180.098 96.3606 179.34 96.3606C178.609 96.3606 178.2 95.7356 178.2 94.818Z" fill="#555555"/>
<path d="M183.155 91.1816H182.305V96.9998H183.155V91.1816Z" fill="#555555"/>
<path d="M184.835 98.6362C185.536 98.6362 185.979 98.2697 186.232 97.5822L188.036 92.6447L187.119 92.6362L186.014 96.0225H185.968L184.863 92.6362H183.954L185.55 97.0566L185.445 97.3464C185.229 97.926 184.925 97.9743 184.46 97.8464L184.255 98.5424C184.357 98.5879 184.579 98.6362 184.835 98.6362Z" fill="#555555"/>
</g>
<circle cx="183" cy="20" r="4.622" stroke="#555555" stroke-width="0.756"/>
<path d="M181 19.8889L182.333 21L185 19" stroke="#555555" stroke-width="0.756"/>
<circle cx="159.75" cy="19.75" r="0.75" fill="#555555"/>
<circle cx="162.75" cy="19.75" r="0.75" fill="#555555"/>
<circle cx="165.75" cy="19.75" r="0.75" fill="#555555"/>
<line y1="76.75" x2="200" y2="76.75" stroke="#555555" stroke-width="0.5"/>
<defs>
<filter id="filter0_b" x="-5" y="-5" width="210" height="120" filterUnits="userSpaceOnUse" color-interpolation-filters="sRGB">
<feFlood flood-opacity="0" result="BackgroundImageFix"/>
<feGaussianBlur in="BackgroundImage" stdDeviation="2.5"/>
<feComposite in2="SourceAlpha" operator="in" result="effect1_backgroundBlur"/>
<feBlend mode="normal" in="SourceGraphic" in2="effect1_backgroundBlur" result="shape"/>
</filter>
<linearGradient id="paint0_linear" x1="100" y1="0" x2="100" y2="110" gradientUnits="userSpaceOnUse">
<stop stop-color="#B6B6B6"/>
<stop offset="1" stop-color="#B6B6B6" stop-opacity="0"/>
</linearGradient>
</defs>
</svg>
