<svg width="123" height="100" viewBox="0 0 123 100" fill="none" xmlns="http://www.w3.org/2000/svg">
<path d="M57.5805 50.0013C57.3635 50.0762 57.1542 50.1719 56.9556 50.2871C55.1489 51.3106 53.4133 52.4549 51.7606 53.712C51.7029 53.7693 51.6344 53.8147 51.5591 53.8456C51.4838 53.8765 51.4031 53.8922 51.3217 53.8919C51.2403 53.8915 51.1598 53.8751 51.0847 53.8437C51.0097 53.8122 50.9416 53.7662 50.8843 53.7083C50.6808 53.4457 50.7332 53.1709 51.014 52.8791C51.0925 52.7916 51.1774 52.7101 51.268 52.6352C54.2526 50.3407 57.5005 48.4109 60.9428 46.8868C61.7558 46.4989 62.6279 46.2494 63.5232 46.1485C63.8365 46.1005 64.157 46.136 64.4523 46.2516C64.7792 46.3504 65.0538 46.5743 65.2164 46.8746C65.379 47.1749 65.4164 47.5273 65.3205 47.855C65.2767 48.1703 65.0847 48.3587 64.8527 48.3342C64.7259 48.3454 64.5988 48.3158 64.4899 48.2498C64.381 48.1838 64.296 48.0848 64.2473 47.9671C64.1658 47.7577 64.2585 47.4742 63.9347 47.3901C63.7231 47.3498 63.5045 47.3689 63.303 47.4453C62.3866 47.6548 61.4979 47.9711 60.6553 48.3878L59.6932 48.8244C59.585 48.8666 59.4916 48.9398 59.4246 49.0346C59.3576 49.1295 59.3198 49.242 59.3161 49.3581C59.2951 50.0226 59.1926 50.6821 59.011 51.3217C58.3646 54.534 57.731 57.7066 57.0656 60.9282C56.5367 63.618 56.0518 66.3406 55.6108 69.096C55.1161 72.1284 54.6203 75.1557 54.1685 78.2159C53.7166 81.276 53.2037 84.2226 52.8286 87.2717C52.8094 87.3549 52.784 87.4342 52.7637 87.5123C52.7831 87.7772 52.8334 87.8403 53.0908 87.7856C53.3687 87.7219 53.6418 87.6391 53.9084 87.538C54.8822 87.1846 55.8965 86.9548 56.9276 86.8541C57.2692 86.8229 57.6131 86.8276 57.9537 86.868C58.1569 86.8955 58.3511 86.9695 58.5209 87.0844C58.6908 87.1992 58.8319 87.3518 58.9331 87.5301C58.9857 87.5911 59.0254 87.6623 59.0496 87.7392C59.0738 87.8161 59.0821 87.8971 59.074 87.9773C59.0659 88.0575 59.0415 88.1352 59.0023 88.2057C58.9632 88.2761 58.9101 88.3379 58.8462 88.3871C58.625 88.5871 58.3995 88.5929 58.1138 88.316C57.9869 88.2076 57.8378 88.1281 57.6771 88.083C57.5163 88.0379 57.3477 88.0284 57.1828 88.0551C56.7506 88.0974 56.3227 88.176 55.9037 88.29C53.5003 88.88 51.1729 89.7446 48.9672 90.8667C48.6394 91.0323 48.3401 91.249 48.0805 91.5088C48.0223 91.577 47.9501 91.6319 47.8689 91.6699C47.7877 91.7079 47.6993 91.7282 47.6096 91.7292C47.5199 91.7303 47.4311 91.7122 47.349 91.6762C47.2669 91.6401 47.1934 91.587 47.1336 91.5202C47.081 91.4599 47.0413 91.3894 47.0169 91.3132C46.9925 91.237 46.9839 91.1566 46.9916 91.0769C46.9994 90.9972 47.0233 90.92 47.062 90.8499C47.1006 90.7798 47.1532 90.7184 47.2164 90.6693C47.5701 90.3627 47.9614 90.1023 48.3808 89.8944C49.2667 89.3896 50.1892 88.952 51.1405 88.5852C51.3828 88.4598 51.5131 88.353 51.5301 88.0857C51.6241 86.3938 51.9208 84.7379 52.1761 83.0855C52.946 77.9483 53.7587 72.8389 54.6067 67.7219C55.3374 63.1204 56.266 58.556 57.2373 54.0194C57.4387 53.1801 57.6069 52.3585 57.8061 51.5092C57.8178 51.3907 57.8977 51.2208 57.8046 51.1298C57.5876 50.7964 57.5074 50.3923 57.5805 50.0013V50.0013Z" fill="#59CBE8"/>
<path d="M64.2648 78.0744C64.5063 77.7288 64.7218 77.3657 64.9094 76.988C65.2083 76.434 65.4784 75.9177 65.7419 75.3712C66.2948 74.2252 66.8965 73.111 67.4579 72.0054C67.7761 71.3682 68.1068 70.7652 68.4431 70.2137L68.7142 69.7025C68.8443 69.4906 69.0093 69.3021 69.2023 69.1452C69.2766 69.0751 69.3725 69.0324 69.4743 69.0242C69.5762 69.0159 69.6777 69.0427 69.7623 69.1C69.8582 69.1428 69.9365 69.2171 69.9842 69.3107C70.0319 69.4042 70.0461 69.5112 70.0245 69.6139C70 69.8495 69.9176 70.0755 69.7845 70.2715C68.8571 71.9876 67.97 73.6951 67.0865 75.4441C66.6874 76.2462 66.254 77.0609 65.856 77.8681C65.7215 78.1651 65.5505 78.4442 65.3469 78.6988L65.2039 78.9191C65.0716 79.1288 64.8857 79.2994 64.6655 79.4133C64.5643 79.486 64.4494 79.5373 64.3277 79.5642C64.206 79.591 64.0802 79.5929 63.9578 79.5695C63.8354 79.5462 63.719 79.4982 63.6158 79.4285C63.5125 79.3588 63.4245 79.2688 63.3572 79.164C63.0861 78.7786 62.9486 78.3151 62.9659 77.8442C62.9503 77.235 62.9976 76.6258 63.1069 76.0262C63.4677 73.977 63.8703 71.9505 64.3143 69.9205C64.5368 69.0238 64.6849 68.1103 64.757 67.1893C64.6789 67.1689 64.636 67.1411 64.5957 67.1497C64.5553 67.1583 64.4972 67.2076 64.4694 67.2504C64.4416 67.2932 64.4365 67.2943 64.4012 67.3018C64.1522 67.5446 63.9334 67.781 63.7197 68.0163C62.4132 69.6739 61.3194 71.4887 60.464 73.4182C59.9328 74.5174 59.4482 75.6119 58.9649 76.7379C58.838 77.0338 58.6821 77.3676 58.5627 77.6989C58.4829 77.8747 58.3924 78.0454 58.2916 78.2101C58.2182 78.3358 58.1007 78.4297 57.962 78.4738C57.8233 78.5179 57.6732 78.509 57.5406 78.4488C57.4169 78.397 57.314 78.3055 57.2481 78.1886C57.1822 78.0718 57.1571 77.9363 57.1767 77.8036C57.1856 77.6589 57.2063 77.5152 57.2383 77.3739C57.2297 77.3335 57.2297 77.3335 57.2575 77.2907C57.6672 74.9251 58.1903 72.5724 58.7977 70.2439C58.8899 69.7703 59.0068 69.3017 59.1481 68.8403C59.2009 68.6982 59.2332 68.5493 59.2439 68.398C59.238 68.2591 59.1948 68.1244 59.1188 68.0079C59.0811 67.9368 59.063 67.857 59.0663 67.7766C59.0696 67.6962 59.0942 67.6181 59.1376 67.5504L59.1654 67.5075C59.2999 67.2469 59.4001 66.9988 59.5381 66.7796C59.589 66.6554 59.6831 66.5537 59.8031 66.4933C59.923 66.4329 60.0607 66.4179 60.1908 66.451C60.3285 66.4858 60.4504 66.5662 60.5366 66.679C60.6228 66.7919 60.6684 66.9306 60.6658 67.0726C60.6831 67.3212 60.6577 67.571 60.5907 67.8111L60.1239 69.8829L59.7102 71.6586C59.6999 71.6764 59.6936 71.6962 59.6916 71.7166C59.6895 71.737 59.6919 71.7577 59.6985 71.7771C59.653 71.9273 59.6363 72.0847 59.6494 72.2411L59.8598 71.8167C60.0483 71.5188 60.211 71.2054 60.3464 70.8799C61.0251 69.5772 61.8323 68.3455 62.7558 67.2032C63.1547 66.7094 63.6245 66.2772 64.1498 65.9206L64.482 65.6971C64.6358 65.624 64.8033 65.5845 64.9735 65.581C65.1438 65.5776 65.3127 65.6103 65.4693 65.6771C65.6171 65.7634 65.7393 65.8872 65.8238 66.036C65.9082 66.1847 65.9518 66.3532 65.9501 66.5243C66.0142 67.0188 66.0052 67.5201 65.9235 68.012C65.7785 68.9183 65.5997 69.8635 65.3698 70.7668C65.2728 71.2041 65.2088 71.5974 65.1043 71.9994C65.089 72.1609 65.0594 72.3207 65.016 72.477C64.7506 73.7096 64.5179 74.9721 64.3317 76.23C64.1829 76.8337 64.1601 77.4616 64.2648 78.0744V78.0744Z" fill="#59CBE8"/>
<path d="M69.9521 69.8191C70.0831 69.7958 70.2027 69.7296 70.2918 69.6308C70.3124 69.6293 70.3323 69.6232 70.3502 69.613C70.3681 69.6028 70.3835 69.5888 70.3953 69.5719C71.5621 68.7171 72.7773 67.9305 74.0349 67.216L74.3821 67.0631C74.5001 67.0179 74.6302 67.0151 74.7501 67.055C74.87 67.0949 74.9724 67.175 75.0399 67.2819C75.1074 67.3888 75.1357 67.5157 75.1202 67.6412C75.1046 67.7666 75.0461 67.8827 74.9546 67.9699C74.7738 68.1601 74.564 68.3205 74.333 68.4448C74.1177 68.5949 73.8929 68.7308 73.6599 68.8516C72.9516 69.2659 72.2694 69.7537 71.562 70.2469C71.5509 70.2632 71.5363 70.2768 71.5192 70.2868C71.5022 70.2968 71.4832 70.303 71.4635 70.3048C71.4515 70.3214 71.436 70.3352 71.4181 70.3454C71.4003 70.3555 71.3805 70.3618 71.36 70.3637L71.1666 70.5208C71.0844 70.5668 71.0076 70.622 70.9379 70.6855C70.8984 70.7083 70.8648 70.7401 70.8399 70.7784C70.8151 70.8167 70.7996 70.8603 70.7949 70.9057C70.7695 70.985 70.8249 71.047 70.8763 71.1152C70.9329 71.1848 71.01 71.2348 71.0966 71.2583C71.1461 71.2626 71.1942 71.2768 71.2381 71.3001C71.282 71.3234 71.3208 71.3553 71.3522 71.3938C71.6245 71.6155 71.8468 71.8923 72.0044 72.2061C72.162 72.5198 72.2513 72.8634 72.2666 73.2142C72.3149 73.9174 72.2458 74.6237 72.0621 75.3041C71.7122 76.6989 71.2821 78.0723 70.774 79.4175L70.534 80.0751C69.8579 82.0806 69.1401 84.0633 68.4266 86.0662C68.2516 86.4832 68.1118 86.8927 67.9242 87.2754C67.8503 87.4073 67.7916 87.5472 67.7491 87.6923C67.6795 87.8944 67.5603 88.0757 67.4023 88.2196C67.1886 88.4549 66.9802 88.5414 66.7749 88.469C66.6545 88.448 66.54 88.401 66.4396 88.3313C66.3391 88.2616 66.2551 88.1708 66.1933 88.0652C66.1123 87.8571 66.0655 87.6373 66.055 87.4142C66.0034 86.6118 66.0228 85.8064 66.113 85.0074C66.4939 81.0848 67.073 77.1841 67.8482 73.32C68.3933 70.6989 69.0167 68.0981 69.645 65.4962C69.6858 65.357 69.7048 65.2124 69.7016 65.0675C69.6891 65.0002 69.6633 64.9361 69.6258 64.8789C69.5883 64.8217 69.5398 64.7725 69.4831 64.7342C69.4186 64.667 69.3736 64.5836 69.3527 64.4929C69.3311 64.4081 69.3249 64.3201 69.3344 64.2331C69.4209 63.5905 69.6872 62.9854 70.1026 62.4875C70.1943 62.3445 70.332 62.2369 70.493 62.1826C70.654 62.1282 70.8287 62.1303 70.9884 62.1885C71.14 62.2694 71.2619 62.3965 71.3365 62.5513C71.4111 62.7061 71.4346 62.8806 71.4035 63.0496C71.3379 63.6358 71.2323 64.2169 71.0875 64.7887L71.0023 65.1075C70.8362 65.9392 70.6274 66.7431 70.4271 67.5873C70.2906 68.1859 70.1541 68.7846 70.0126 69.3843L69.957 69.4699C69.9292 69.5128 69.9453 69.5884 69.9124 69.6323C69.906 69.6645 69.9063 69.6977 69.9131 69.7298C69.9199 69.7619 69.9332 69.7923 69.9521 69.8191V69.8191ZM67.4434 85.1624C67.437 85.1437 67.4349 85.1238 67.4371 85.1042C67.4393 85.0846 67.4458 85.0657 67.4562 85.0489C67.484 85.0061 67.5083 84.9218 67.5361 84.879C67.7483 84.2642 67.9276 83.6934 68.1472 83.114C68.6667 81.6376 69.1913 80.1601 69.7022 78.6432C69.7375 78.6357 69.7375 78.6357 69.73 78.6004C70.1826 77.4315 70.5626 76.2358 70.8677 75.02C71.0213 74.4511 71.0741 73.8598 71.0237 73.2727C70.991 73.0061 70.8867 72.7534 70.7218 72.5414C70.557 72.3294 70.3378 72.1661 70.0875 72.0688L70.0471 72.0773C69.7486 71.914 69.5787 71.8341 69.4802 71.8919C69.3818 71.9498 69.3054 72.1612 69.2681 72.5066C68.7533 75.0475 68.3015 77.6118 67.9337 80.1742C67.6721 81.8258 67.5084 83.4914 67.4434 85.1624V85.1624Z" fill="#59CBE8"/>
<path d="M74.3025 72.0483C74.1192 70.8731 74.1338 69.6756 74.3458 68.5053C74.6203 66.8621 75.0666 65.2523 75.6772 63.7023C75.8852 63.2414 76.1553 63.0733 76.5158 63.1812C76.8763 63.2892 76.9158 63.6236 76.7492 64.081C76.0913 65.8598 75.6562 67.7132 75.4538 69.5989C75.361 70.4132 75.42 71.2375 75.6278 72.0303C75.8336 72.8251 76.2003 72.9371 76.7443 72.3204C76.8973 72.1735 77.0401 72.0162 77.1717 71.8498C78.1527 70.386 79.0506 68.903 79.9157 67.39C79.951 67.3825 79.951 67.3825 79.9435 67.3471L80.2018 66.9494C80.2834 66.8397 80.4022 66.7635 80.536 66.7351C80.6697 66.7067 80.8092 66.7279 80.9284 66.7949C81.0367 66.8548 81.1229 66.9478 81.1743 67.0603C81.2258 67.1728 81.2398 67.2988 81.2142 67.4199C81.1208 67.707 81.0036 67.986 80.8641 68.2538C80.0664 69.6786 79.1864 71.0805 78.2242 72.4594C77.9725 72.8115 77.6892 73.1401 77.378 73.4409C77.2104 73.6126 77.0099 73.7486 76.7884 73.841C76.567 73.9334 76.3293 73.9802 76.0894 73.9786C75.8568 73.973 75.6288 73.9139 75.4228 73.8058C75.2169 73.6978 75.0387 73.5436 74.902 73.3554C74.6214 72.9615 74.418 72.5179 74.3025 72.0483V72.0483ZM75.8859 61.4586C75.8411 61.2675 75.8517 61.0677 75.9164 60.8825C75.9591 60.5623 76.0452 60.2495 76.1724 59.9525C76.2836 59.615 76.3634 59.2678 76.4108 58.9156C76.4577 58.7424 76.5577 58.5883 76.6969 58.475C76.7577 58.4395 76.825 58.4168 76.8949 58.4083C76.9647 58.3998 77.0356 58.4057 77.1031 58.4256C77.2456 58.4537 77.3713 58.5369 77.4529 58.6572C77.5263 58.8023 77.5606 58.964 77.5527 59.1264C77.3767 59.8864 77.1956 60.6475 76.9843 61.415C76.9565 61.4578 76.964 61.4931 76.9311 61.537C76.8041 61.833 76.645 61.9776 76.3777 61.9606C76.2519 61.9426 76.1356 61.8837 76.0467 61.7929C75.9578 61.7022 75.9013 61.5847 75.8859 61.4586V61.4586Z" fill="#59CBE8"/>
<path d="M85.9183 73.4716C86.1599 73.126 86.3753 72.7629 86.563 72.3853C86.8619 71.8312 87.1319 71.315 87.3954 70.7684C87.9483 69.6225 88.55 68.5083 89.1114 67.4026C89.4296 66.7654 89.7603 66.1624 90.0966 65.611L90.3677 65.0998C90.4978 64.8878 90.6628 64.6993 90.8558 64.5424C90.9305 64.4731 91.0264 64.431 91.128 64.4228C91.2296 64.4146 91.3309 64.4408 91.4158 64.4972C91.5117 64.54 91.59 64.6144 91.6377 64.7079C91.6854 64.8014 91.6996 64.9084 91.678 65.0111C91.6535 65.2468 91.5711 65.4727 91.438 65.6687C90.5106 67.3848 89.6236 69.0923 88.74 70.8413C88.3409 71.6434 87.9076 72.4581 87.5095 73.2653C87.375 73.5623 87.204 73.8414 87.0004 74.0961L86.8574 74.3163C86.7251 74.5261 86.5392 74.6967 86.319 74.8105C86.2178 74.8832 86.1028 74.9345 85.9812 74.9614C85.8595 74.9883 85.7337 74.9901 85.6113 74.9668C85.4889 74.9434 85.3725 74.8954 85.2693 74.8257C85.166 74.756 85.0781 74.666 85.0107 74.5612C84.7396 74.1758 84.6022 73.7123 84.6194 73.2414C84.6038 72.6322 84.6511 72.023 84.7604 71.4235C85.1212 69.3742 85.5238 67.3477 85.9679 65.3177C86.1903 64.421 86.3384 63.5075 86.4105 62.5865C86.3324 62.5662 86.2896 62.5383 86.2492 62.5469C86.2088 62.5555 86.1507 62.6048 86.1229 62.6476C86.0951 62.6904 86.09 62.6915 86.0547 62.699C85.8057 62.9418 85.5869 63.1782 85.3732 63.4135C84.0667 65.0711 82.973 66.8859 82.1175 68.8154C81.5914 69.9135 81.1017 71.0092 80.6185 72.1351C80.4915 72.4311 80.3356 72.7648 80.2162 73.0961C80.1364 73.2719 80.0459 73.4426 79.9451 73.6073C79.8717 73.733 79.7542 73.8269 79.6155 73.871C79.4768 73.9151 79.3267 73.9062 79.1942 73.8461C79.0704 73.7942 78.9675 73.7027 78.9016 73.5858C78.8357 73.469 78.8106 73.3335 78.8302 73.2008C78.8392 73.0562 78.8598 72.9124 78.8918 72.7711C78.8833 72.7307 78.8832 72.7307 78.9111 72.6879C79.3207 70.3223 79.8438 67.9696 80.4512 65.6411C80.5434 65.1675 80.6603 64.699 80.8016 64.2375C80.8567 64.0961 80.889 63.9468 80.8974 63.7952C80.8909 63.6568 80.8496 63.5223 80.7774 63.4041C80.7391 63.3336 80.7202 63.2542 80.7227 63.174C80.7251 63.0938 80.7487 63.0157 80.7911 62.9476L80.8189 62.9048C80.9534 62.6441 81.0536 62.396 81.1916 62.1768C81.2425 62.0526 81.3366 61.9509 81.4566 61.8905C81.5765 61.8302 81.7142 61.8151 81.8443 61.8482C81.982 61.883 82.1039 61.9634 82.1901 62.0762C82.2763 62.1891 82.3219 62.3278 82.3193 62.4698C82.3357 62.7178 82.3121 62.9668 82.2492 63.2073L81.7774 65.2801L81.3637 67.0558C81.3534 67.0736 81.3471 67.0934 81.345 67.1138C81.343 67.1343 81.3454 67.1549 81.352 67.1743C81.3065 67.3245 81.2898 67.482 81.3029 67.6383L81.5133 67.2139C81.7018 66.916 81.8645 66.6026 81.9999 66.2771C82.6786 64.9744 83.4858 63.7428 84.4093 62.6005C84.8082 62.1066 85.278 61.6744 85.8033 61.3179L86.1356 61.0943C86.2893 61.0212 86.4568 60.9817 86.627 60.9782C86.7972 60.9748 86.9663 61.0075 87.1229 61.0743C87.2706 61.1606 87.3929 61.2844 87.4773 61.4332C87.5617 61.582 87.6053 61.7504 87.6036 61.9215C87.6677 62.416 87.6587 62.9173 87.577 63.4092C87.4321 64.3155 87.2532 65.2607 87.0233 66.164C86.9263 66.6013 86.8623 66.9947 86.7578 67.3966C86.7425 67.5581 86.7129 67.7179 86.6695 67.8742C86.4041 69.1068 86.1461 70.3747 85.9852 71.6273C85.8364 72.2309 85.8137 72.8588 85.9183 73.4716Z" fill="#59CBE8"/>
<path d="M100.386 56.4778C99.6405 58.1553 98.9225 59.79 98.2011 61.3832C97.2324 63.4509 96.304 65.5101 95.2914 67.5449C94.8848 68.4168 94.3712 69.2347 93.7625 69.9796C93.5885 70.1757 93.3973 70.3558 93.1912 70.5177C92.9009 70.7413 92.5346 70.8425 92.1707 70.7996C91.8068 70.7567 91.4741 70.5732 91.2437 70.2882C90.7825 69.7402 90.5054 69.0611 90.4513 68.3469C90.2134 66.2255 90.4428 64.0777 91.1233 62.0543C91.2798 61.5253 91.508 60.9863 91.6167 60.4305C91.6433 60.2137 91.7495 60.0144 91.9146 59.8714C91.9915 59.7979 92.0893 59.75 92.1945 59.7342C92.2997 59.7184 92.4073 59.7356 92.5024 59.7834C92.6051 59.8311 92.6923 59.907 92.7536 60.0022C92.8149 60.0975 92.8479 60.2082 92.8488 60.3215C92.8094 60.5782 92.7484 60.8311 92.6667 61.0775C92.2603 62.1805 91.9728 63.3237 91.8092 64.4876C91.535 65.7791 91.5225 67.1125 91.7725 68.4089C91.8228 68.6783 91.8916 68.9439 91.9784 69.2038C92.1691 69.5799 92.4136 69.6387 92.7233 69.3091C93.1542 68.8448 93.5153 68.3204 93.7953 67.7522C95.0484 65.4341 96.1013 63.0426 97.1609 60.7077C98.5607 57.6412 99.8838 54.5857 101.199 51.4949C101.26 51.4082 101.272 51.2896 101.327 51.204C101.183 51.0448 101.044 51.1113 100.898 51.1424C98.9347 51.5596 97.0003 52.0868 95.076 52.6857C93.3549 53.2305 91.6646 53.8679 90.0125 54.5953C89.7934 54.64 89.586 54.7301 89.4038 54.8597C89.2215 54.9892 89.0683 55.1555 88.9541 55.3477C88.9282 55.4058 88.8878 55.4562 88.8366 55.4939C88.7854 55.5315 88.7253 55.5553 88.6622 55.5627C88.1735 55.6719 87.6988 55.8365 87.2475 56.0533C87.1289 56.1289 86.9919 56.1708 86.8513 56.1744C86.7334 56.1865 86.6149 56.1599 86.5134 56.0987C86.4119 56.0375 86.3331 55.945 86.2887 55.8351C86.2418 55.7384 86.2264 55.6294 86.2446 55.5234C86.2627 55.4174 86.3135 55.3197 86.3898 55.244C86.5238 55.0798 86.6881 54.9428 86.8737 54.8406C88.2628 54.0007 89.7288 53.2952 91.2518 52.7338C93.9366 51.6695 96.6995 50.8142 99.516 50.1755C100.278 50.0135 101.015 49.7831 101.835 49.6457C101.982 49.6213 102.118 49.5527 102.225 49.4489C102.332 49.3451 102.405 49.2111 102.434 49.0648C102.626 48.5289 102.751 47.9709 102.803 47.404C102.829 47.075 102.929 46.7562 103.096 46.4716C103.149 46.3146 103.258 46.1829 103.403 46.1024C103.548 46.0219 103.717 45.9983 103.879 46.0362C104.024 46.1049 104.141 46.2203 104.213 46.3638C104.285 46.5072 104.306 46.6706 104.274 46.8277C104.173 47.4188 103.953 47.9982 103.817 48.5968C103.754 48.7927 103.706 48.9932 103.675 49.1966C103.789 49.3621 103.923 49.2968 104.034 49.2732C106.06 48.8795 108.025 48.5725 110.062 48.3294C111.617 48.1021 113.189 48.0222 114.758 48.0907C115.161 48.1051 115.556 48.2005 115.92 48.3711C116.045 48.4301 116.154 48.5179 116.239 48.6272C116.323 48.7365 116.38 48.8643 116.405 49.0001C116.431 49.1358 116.423 49.2756 116.384 49.408C116.344 49.5403 116.274 49.6614 116.179 49.7613C115.81 50.1826 115.345 50.1285 115.108 49.6832C115.059 49.5616 114.975 49.458 114.865 49.3868C114.755 49.3156 114.626 49.2803 114.496 49.2858C113.653 49.2565 112.81 49.2842 111.971 49.3688C109.745 49.6152 107.526 49.8969 105.319 50.3292C104.806 50.3961 104.293 50.4681 103.738 50.5861C103.59 50.595 103.45 50.6538 103.34 50.7529C103.23 50.852 103.156 50.9855 103.132 51.1316C102.409 53.9856 101.643 56.8067 100.99 59.6407C100.337 62.4746 99.7759 65.3681 99.3333 68.2733C98.9214 70.5287 98.6448 72.8066 98.5048 75.095C98.5081 75.2842 98.5064 75.4744 98.5011 75.6232C98.5227 76.0722 98.5227 76.0722 98.9321 76.212C99.3416 76.3517 99.4734 76.6244 99.2993 77.0464C99.2801 77.1296 99.2119 77.181 99.1563 77.2666C98.8477 77.6012 98.5658 77.8879 98.0453 77.7718C97.8417 77.7095 97.6639 77.5826 97.5388 77.4104C97.4137 77.2381 97.348 77.0297 97.3518 76.8169C97.2569 76.1796 97.2328 75.5337 97.2801 74.8912C97.4644 72.3161 97.7821 69.7522 98.2318 67.21C98.8309 63.7757 99.5496 60.3582 100.354 56.9963C100.414 56.8301 100.425 56.6502 100.386 56.4778V56.4778ZM91.7948 58.4148C91.7479 58.2283 91.7463 58.0334 91.79 57.8462L92.3517 55.6751C92.4915 55.2657 92.7566 55.0985 93.0804 55.1827C93.1573 55.203 93.2292 55.2392 93.2914 55.2889C93.3536 55.3386 93.4048 55.4007 93.4416 55.4713C93.4785 55.5419 93.5002 55.6194 93.5054 55.6989C93.5106 55.7783 93.4992 55.858 93.4719 55.9328C93.2983 56.7292 93.0894 57.5331 92.8731 58.3016C92.8555 58.4078 92.8115 58.5079 92.745 58.5926C92.6825 58.6787 92.5975 58.7461 92.4994 58.7874C92.4013 58.8288 92.2936 58.8424 92.1883 58.8269C92.0895 58.8045 91.9995 58.7534 91.9295 58.6801C91.8595 58.6068 91.8127 58.5145 91.7948 58.4148V58.4148Z" fill="#59CBE8"/>
<path d="M105.751 63.0062C105.247 63.1372 104.726 63.1962 104.206 63.1817C104.068 63.1657 103.929 63.1826 103.8 63.2311C103.731 63.2825 103.727 63.4364 103.73 63.6255C103.724 64.1136 103.815 64.598 103.996 65.051C104.152 65.5334 104.467 65.9484 104.89 66.2271C105.178 66.4357 105.519 66.5596 105.874 66.5848C106.229 66.61 106.583 66.5356 106.898 66.3699C107.359 66.1449 107.782 65.8504 108.152 65.4968C108.588 65.0458 108.994 64.5667 109.367 64.0625C109.426 63.9639 109.497 63.8727 109.578 63.7908C110.351 62.7817 111.05 61.7182 111.67 60.6087C111.663 60.5734 111.663 60.5734 111.703 60.5648C111.744 60.5562 111.696 60.5295 111.724 60.4867C111.941 60.0975 112.227 60 112.518 60.128C112.808 60.2561 112.91 60.5351 112.813 60.9724C112.77 61.1378 112.7 61.2951 112.606 61.4383C111.746 62.9072 110.774 64.3075 109.699 65.6269C109.124 66.3254 108.424 66.9107 107.634 67.3526C107.196 67.6297 106.695 67.7911 106.178 67.8217C105.66 67.8524 105.144 67.7513 104.676 67.5279C103.846 67.1322 103.188 66.4497 102.822 65.6065C102.512 64.9136 102.402 64.1476 102.505 63.3954C102.595 62.1994 102.938 61.0362 103.513 59.9836C104.088 58.931 104.881 58.0131 105.839 57.2913C106.442 56.8127 107.174 56.5249 107.941 56.4646C108.417 56.4161 108.894 56.5315 109.295 56.7917C109.696 57.0519 109.995 57.4413 110.144 57.8952C110.303 58.4078 110.287 58.9589 110.097 59.461C109.722 60.5435 108.987 61.4647 108.015 62.0713C107.344 62.5554 106.568 62.8756 105.751 63.0062V63.0062ZM105.224 61.9421C105.888 61.8367 106.524 61.5989 107.094 61.2431C107.664 60.8872 108.158 60.4204 108.544 59.8703C108.785 59.5403 108.937 59.1538 108.986 58.7479C109.022 58.023 108.684 57.6729 107.97 57.7139C107.442 57.7796 106.94 57.977 106.509 58.288C105.652 58.946 104.96 59.7957 104.489 60.7691C104.354 61.0247 104.262 61.3131 104.139 61.603C104.106 61.6542 104.089 61.7136 104.089 61.7744C104.089 61.8351 104.106 61.8947 104.138 61.946C104.189 62.0092 104.272 62.0284 104.462 62.0301C104.652 62.0319 104.868 61.9807 105.057 61.9775L105.224 61.9421Z" fill="#59CBE8"/>
<path d="M30.137 64.241C29.627 64.323 29.1224 64.4303 28.6231 64.5628L28.4616 64.5971C28.2984 64.6526 28.1316 64.6968 27.9624 64.7296C25.6211 65.2852 23.336 66.0551 21.1359 67.0297L20.8553 67.1737C20.7693 67.2461 20.702 67.3382 20.6592 67.4422C20.6207 67.5033 20.5704 67.5561 20.5114 67.5976C20.4523 67.6391 20.3856 67.6685 20.3151 67.6841C20.0689 67.7361 19.8292 67.8154 19.6006 67.9204C19.5443 67.9524 19.483 67.9744 19.4192 67.9853C19.2858 68.053 19.1407 68.0946 18.9917 68.1079C18.9108 68.1199 18.8282 68.1036 18.7579 68.0619C18.6875 68.0202 18.6337 67.9555 18.6054 67.8788C18.5736 67.8129 18.5619 67.7391 18.5718 67.6666C18.5817 67.5942 18.6128 67.5262 18.6612 67.4714C18.777 67.3103 18.9303 67.1799 19.1079 67.0916L19.1382 67.0852C20.0703 66.5319 21.0439 66.0516 22.0502 65.6487C23.7321 64.9826 25.453 64.4196 27.2033 63.9626C28.1708 63.7253 29.1344 63.4942 30.1083 63.2872C30.2311 63.2849 30.3491 63.239 30.441 63.1576C30.5329 63.0762 30.5928 62.9646 30.6099 62.843C30.6616 62.6896 30.6882 62.5415 30.74 62.3881C30.8243 62.103 30.8751 61.809 30.8913 61.5121C30.9121 61.237 31.0095 60.9733 31.1725 60.7508C31.2173 60.6658 31.2914 60.6 31.381 60.5654C31.4706 60.5308 31.5698 60.5299 31.66 60.5628C31.7539 60.5965 31.834 60.6603 31.8881 60.7441C31.9421 60.8279 31.9671 60.9272 31.959 61.0267C31.9313 61.2564 31.8843 61.4834 31.8185 61.7053L31.772 61.8839C31.7332 61.9707 31.7047 62.0617 31.6873 62.1551C31.6473 62.364 31.6009 62.5427 31.5523 62.7112C31.5038 62.8798 31.5678 62.9083 31.7095 62.9046C31.74 62.9245 31.7401 62.9245 31.7653 62.9191L32.3725 62.8481C34.4047 62.4463 36.4596 62.1698 38.5256 62.0201C38.9896 62.0028 39.4543 62.0168 39.9164 62.0621C40.1834 62.0809 40.4424 62.1612 40.6731 62.2968C40.7634 62.3552 40.8402 62.4321 40.8985 62.5225C40.9568 62.6128 40.9953 62.7146 41.0113 62.8209C41.0133 62.9326 40.9899 63.0433 40.943 63.1446C40.896 63.246 40.8266 63.3354 40.74 63.406C40.6924 63.4544 40.6329 63.4897 40.5675 63.5082C40.5021 63.5267 40.433 63.5279 40.3669 63.5117C40.2968 63.5104 40.2289 63.4861 40.1739 63.4426C40.1189 63.399 40.0798 63.3385 40.0625 63.2705C40.0244 63.1712 39.9566 63.0862 39.8683 63.0269C39.7758 62.9918 39.6773 62.9751 39.5784 62.9778C38.8797 62.9334 38.1784 62.9588 37.4848 63.0536C35.5517 63.2641 33.6314 63.5351 31.7074 63.9124L31.44 63.9693C31.3617 63.9812 31.2885 64.0157 31.2295 64.0685C31.1705 64.1213 31.1281 64.1902 31.1076 64.2667L31.0757 64.3895C31.0811 64.4147 31.0811 64.4148 31.0865 64.44C29.8626 68.9116 28.89 73.4482 28.1731 78.0286C27.9164 79.4898 27.758 80.9665 27.6992 82.4489C27.6934 82.5237 27.7005 82.5989 27.7201 82.6713C27.7126 82.6842 27.708 82.6986 27.7066 82.7134C27.7052 82.7283 27.7071 82.7433 27.712 82.7574C27.6989 82.8446 27.7107 82.9001 27.7464 82.9189C27.782 82.9377 27.8443 82.9824 27.9314 82.9956C28.1289 83.0063 28.2823 83.0581 28.3365 83.189C28.3631 83.2669 28.3708 83.3501 28.3587 83.4316C28.3467 83.513 28.3153 83.5904 28.2672 83.6573C28.1828 83.7598 28.0902 83.8553 27.9904 83.9429C27.9104 84.0289 27.8088 84.0918 27.6961 84.125C27.5835 84.1582 27.464 84.1606 27.3501 84.1318C27.2339 84.1021 27.1283 84.0403 27.0455 83.9534C26.9627 83.8665 26.906 83.7582 26.8818 83.6406C26.8136 83.4267 26.7855 83.202 26.799 82.9778C26.7791 81.7042 26.8612 80.4309 27.0445 79.1704C27.741 74.3292 28.741 69.5366 30.0387 64.8209C30.0905 64.6675 30.1181 64.5245 30.1699 64.3711L30.137 64.241Z" fill="#59CBE8"/>
<path d="M30.8566 74.0035C30.8939 73.9059 30.9336 73.8447 30.9521 73.7828L31.1085 73.3276C31.4499 72.3627 31.8765 71.4301 32.3832 70.5408C32.7447 69.881 33.1821 69.2659 33.6866 68.7079C33.9304 68.465 34.2115 68.2628 34.5193 68.1089C35.2472 67.8118 35.7142 68.0237 35.9558 68.7635C36.0497 69.0887 36.0755 69.4297 36.0316 69.7653C35.96 70.3713 35.8892 70.9559 35.7923 71.5672C35.63 72.2615 35.5154 72.9661 35.4494 73.676C35.4397 73.6881 35.4334 73.7025 35.4311 73.7178C35.4288 73.7331 35.4306 73.7488 35.4363 73.7632C35.4251 73.8661 35.4294 73.97 35.4491 74.0716C35.5666 73.9752 35.665 73.8577 35.7394 73.7251L35.7831 73.6578C36.2158 73.0384 36.657 72.4594 37.0876 71.8299L37.4946 71.2634C37.5926 71.1058 37.7161 70.9655 37.8599 70.8482C37.9294 70.7866 38.0163 70.7481 38.1086 70.7379C38.2009 70.7277 38.2941 70.7464 38.3753 70.7914C38.5354 70.8998 38.5698 71.0613 38.5078 71.2907C38.4607 71.4424 38.3852 71.5838 38.2851 71.7072C37.5 72.8024 36.7105 73.8773 35.9557 74.9661C35.8406 75.1382 35.6928 75.2861 35.5208 75.4013C35.4304 75.4659 35.3263 75.5088 35.2167 75.5266C35.107 75.5444 34.9948 75.5367 34.8886 75.504C34.7843 75.4769 34.6892 75.422 34.6135 75.3453C34.5378 75.2685 34.4842 75.1728 34.4584 75.0681C34.4019 74.8392 34.3908 74.6014 34.4257 74.3683C34.4822 73.4102 34.6093 72.4577 34.8062 71.5184C34.9874 70.8274 35.0932 70.1188 35.1217 69.4049C35.1249 69.391 35.125 69.3766 35.1221 69.3627C35.1191 69.3487 35.1131 69.3356 35.1046 69.3242C35.1177 69.237 35.1059 69.1815 35.1139 69.0954C35.0961 69.034 35.0548 68.9821 34.9989 68.9511C34.9648 68.9299 34.9258 68.9179 34.8857 68.9162C34.8456 68.9146 34.8058 68.9234 34.7701 68.9417C34.7015 68.9961 34.6385 69.0572 34.5821 69.1241C34.5568 69.1294 34.5568 69.1294 34.533 69.1662C33.9919 69.7094 33.5244 70.3212 33.1424 70.986C32.376 72.4127 31.7786 73.9238 31.3622 75.4888C31.2444 75.8778 31.1382 76.2959 31.0269 76.7152C30.8675 77.4384 30.6669 78.1519 30.4263 78.8523C30.3494 79.0777 30.2528 79.2959 30.1377 79.5044C30.0951 79.6242 30.0097 79.724 29.898 79.7847C29.7864 79.8454 29.6562 79.8628 29.5325 79.8334C29.2616 79.775 29.1348 79.5751 29.1163 79.2152C29.1199 78.6698 29.1812 78.1264 29.2991 77.594L29.2873 77.5385C30.0063 72.7884 30.9661 68.0779 32.1629 63.4252C32.1883 63.3409 32.2052 63.2543 32.2135 63.1666C32.2706 63.0384 32.2837 62.9512 32.2481 62.9325C32.163 62.8894 32.0713 62.8607 31.9769 62.8477C31.9202 62.8418 31.8653 62.8241 31.8159 62.7957C31.7664 62.7673 31.7235 62.7288 31.6899 62.6828C31.6562 62.6367 31.6326 62.5842 31.6205 62.5284C31.6085 62.4727 31.6083 62.415 31.6199 62.3592C31.6339 62.2596 31.6716 62.1647 31.7299 62.0827C31.9505 61.7412 32.2043 61.4223 32.4874 61.1305C32.5675 61.0356 32.6656 60.9574 32.7761 60.9004C32.8334 60.8794 32.8948 60.8718 32.9555 60.8781C33.0162 60.8844 33.0747 60.9044 33.1266 60.9367C33.2395 60.9898 33.3322 61.078 33.3908 61.1882C33.4494 61.2984 33.4708 61.4246 33.4517 61.5479C33.4081 62.0921 33.3143 62.6311 33.1716 63.1581C33.0599 63.551 32.9735 63.9386 32.8911 64.32C32.6107 65.4819 32.3302 66.6439 32.0498 67.8058C31.6106 69.7346 31.2312 71.6718 30.8803 73.6187C30.8856 73.6439 30.8856 73.6439 30.8921 73.6742C30.8985 73.7045 30.884 73.7603 30.8645 73.8172C30.8469 73.8778 30.8442 73.9417 30.8566 74.0035V74.0035Z" fill="#59CBE8"/>
<path d="M39.9307 71.9061C39.5523 72.0029 39.1622 72.0468 38.7717 72.0364C38.669 72.0346 38.5671 72.0562 38.474 72.0997C38.4235 72.1104 38.4222 72.2531 38.426 72.3947C38.4259 72.7416 38.4883 73.0857 38.6102 73.4104C38.7292 73.7693 38.9657 74.0777 39.2815 74.2857C39.4947 74.4414 39.7473 74.5343 40.0106 74.5538C40.2738 74.5734 40.5374 74.5188 40.7712 74.3962C41.1048 74.2225 41.4133 74.0044 41.6882 73.7477C42.0117 73.4119 42.3129 73.0554 42.5901 72.6805C42.6309 72.6065 42.6823 72.5387 42.7424 72.4793C43.3194 71.7295 43.8404 70.9383 44.3015 70.1121C44.2961 70.0869 44.2961 70.0869 44.3264 70.0804C44.3567 70.074 44.32 70.0502 44.3146 70.0249C44.4801 69.7366 44.6907 69.6602 44.9063 69.7567C45.122 69.8533 45.1984 70.0639 45.1255 70.3905C45.0909 70.5119 45.0392 70.6277 44.9718 70.7344C44.3319 71.8212 43.6086 72.8567 42.8083 73.8314C42.38 74.351 41.8594 74.7871 41.2727 75.1177C40.9463 75.3237 40.5731 75.4438 40.1879 75.4667C39.8026 75.4895 39.4179 75.4145 39.0695 75.2485C38.4584 74.9489 37.9756 74.4392 37.7095 73.8128C37.4812 73.2971 37.4004 72.7283 37.4762 72.1694C37.5434 71.28 37.7993 70.415 38.2267 69.6322C38.6541 68.8493 39.2433 68.1663 39.9551 67.6288C40.4052 67.2731 40.9512 67.0597 41.5232 67.016C41.8766 66.9789 42.2321 67.0647 42.5298 67.2588C42.8275 67.4529 43.0493 67.7436 43.158 68.082C43.2771 68.4621 43.2656 68.8711 43.1254 69.244C42.8373 70.044 42.2828 70.7206 41.5548 71.1601C41.0778 71.53 40.5221 71.7852 39.9307 71.9061V71.9061ZM39.5357 71.1145C40.0294 71.0362 40.5024 70.8593 40.9263 70.5943C41.3502 70.3293 41.7165 69.9817 42.0032 69.5721C42.1886 69.3265 42.3087 69.0378 42.3523 68.7332C42.3776 68.6281 42.3756 68.5183 42.3466 68.4142C42.3175 68.3101 42.2624 68.2151 42.1864 68.1383C42.1104 68.0615 42.016 68.0054 41.9122 67.9753C41.8084 67.9452 41.6986 67.942 41.5933 67.9662C41.1974 68.0125 40.82 68.1599 40.4976 68.3943C39.8623 68.8837 39.3499 69.5146 39.001 70.2367C38.8991 70.4271 38.8288 70.6424 38.7373 70.857C38.7129 70.8957 38.6998 70.9404 38.6992 70.9862C38.6987 71.0319 38.7109 71.0769 38.7343 71.1161C38.7703 71.1612 38.8322 71.1797 38.9739 71.176C39.1155 71.1722 39.2716 71.1127 39.4196 71.1392L39.5357 71.1145Z" fill="#59CBE8"/>
<path d="M9.59732 44.034C9.10643 44.2082 8.59345 44.3124 8.07351 44.3435C7.93523 44.3393 7.79796 44.3683 7.67319 44.4281C7.61468 44.4838 7.6239 44.6374 7.63873 44.8271C7.68039 45.3129 7.81242 45.7866 8.02803 46.2239C8.22754 46.6903 8.57913 47.0753 9.02551 47.3162C9.32968 47.4993 9.67907 47.5934 10.034 47.5878C10.389 47.5823 10.7353 47.4774 11.0336 47.2849C11.4714 47.0163 11.8682 46.686 12.2119 46.3043C12.6042 45.8152 12.9663 45.3027 13.2964 44.7697C13.3462 44.6662 13.4066 44.5682 13.4767 44.4772C14.1608 43.4058 14.767 42.2866 15.2905 41.1282C15.2799 41.0937 15.2799 41.0937 15.3144 41.0831C15.349 41.0726 15.3039 41.0486 15.3263 40.9986C15.5145 40.5904 15.7851 40.4699 16.091 40.5706C16.3969 40.6713 16.514 40.9484 16.4556 41.3924C16.4272 41.5586 16.3725 41.7192 16.2935 41.8681C15.5651 43.4064 14.7189 44.8862 13.7625 46.2942C13.2503 47.0408 12.6045 47.6863 11.8577 48.1982C11.4437 48.5109 10.9578 48.7145 10.4446 48.7903C9.93145 48.8661 9.40744 48.8117 8.92076 48.6322C8.06023 48.3065 7.34508 47.6829 6.90528 46.8747C6.54106 46.2095 6.36524 45.4574 6.39675 44.6997C6.38188 43.5003 6.62357 42.3117 7.10564 41.2134C7.5877 40.1152 8.299 39.1326 9.19183 38.3317C9.74941 37.8003 10.4543 37.4494 11.2145 37.3249C11.6838 37.2342 12.17 37.3071 12.592 37.5315C13.0141 37.7559 13.3464 38.1182 13.5336 38.558C13.7313 39.056 13.7627 39.6046 13.6234 40.122C13.3395 41.2303 12.6878 42.2093 11.775 42.8989C11.1475 43.4418 10.4017 43.8305 9.59732 44.034ZM8.97482 43.0213C9.62719 42.8577 10.24 42.5646 10.7769 42.1595C11.3138 41.7545 11.7639 41.2456 12.1003 40.6632C12.314 40.3153 12.4341 39.918 12.449 39.51C12.4696 39.3664 12.4536 39.22 12.4026 39.0843C12.3515 38.9486 12.267 38.828 12.1569 38.7336C12.0469 38.6392 11.9147 38.5742 11.7728 38.5444C11.6309 38.5147 11.4838 38.5213 11.3451 38.5636C10.826 38.6778 10.3438 38.9199 9.94192 39.2677C9.14461 39.9962 8.53084 40.9029 8.15068 41.9138C8.03793 42.1803 7.97027 42.4707 7.87453 42.7751C7.84495 42.8276 7.83133 42.8876 7.83533 42.9477C7.83933 43.0078 7.86079 43.0654 7.89706 43.1135C7.95915 43.1754 8.03879 43.1888 8.22696 43.1691C8.41512 43.1493 8.62877 43.0894 8.81694 43.0696L8.97482 43.0213Z" fill="#59CBE8"/>
<path d="M16.5588 43.6535C16.4102 44.0496 16.2327 44.4923 16.0465 44.8891C15.6329 45.8302 15.2212 46.7598 14.8451 47.7002L14.1988 49.3975L13.7014 50.5584L13.4787 50.9772C13.4135 51.0912 13.3073 51.176 13.1817 51.2144C13.0561 51.2528 12.9206 51.2418 12.8028 51.1838C12.6774 51.1283 12.574 51.0327 12.5088 50.912C12.4435 50.7913 12.4203 50.6524 12.4425 50.5171C12.4532 50.382 12.4921 50.2507 12.5566 50.1316C13.5567 47.6679 14.5518 45.2058 15.6342 42.7818C15.704 42.6569 15.7422 42.5169 15.7455 42.3739C15.7488 42.2309 15.7171 42.0893 15.6531 41.9614C15.0135 40.7269 14.5394 39.4135 14.243 38.0551C14.2154 37.9454 14.1706 37.8408 14.1104 37.745C14.0306 37.6753 13.9358 37.6249 13.8334 37.5977C13.7473 37.5759 13.6664 37.5373 13.5953 37.484C13.5243 37.4307 13.4645 37.3638 13.4195 37.2872C13.3745 37.2106 13.3452 37.1259 13.3332 37.0379C13.3213 36.9499 13.3269 36.8603 13.3498 36.7745C13.3845 36.4156 13.4886 36.0668 13.6562 35.7476C13.7021 35.6471 13.7719 35.5595 13.8595 35.4922C13.9471 35.425 14.0498 35.3803 14.1587 35.362C14.2691 35.3606 14.3781 35.3874 14.4753 35.4398C14.5725 35.4922 14.6547 35.5685 14.7142 35.6615C14.8486 35.844 14.9511 36.0479 15.0174 36.2647C15.1803 36.7975 15.3432 37.3304 15.4715 37.8737C15.6186 38.4386 15.8009 38.9936 16.0174 39.5357C16.1711 39.9149 16.3008 40.3391 16.4215 40.7338C16.4615 40.7392 16.5022 40.732 16.538 40.7133C16.5738 40.6947 16.603 40.6654 16.6215 40.6295L16.6984 40.4927C16.7329 40.4822 16.7329 40.4822 16.7554 40.4321C17.4284 39.1043 18.0561 37.8226 18.7316 36.5911C19.2473 35.6135 19.7345 34.6661 20.2366 33.644L20.2711 33.6335C20.3001 33.5869 20.288 33.5474 20.312 33.5023C20.5523 33.1591 20.7934 33.0476 21.1049 33.1844C21.4164 33.3211 21.4728 33.6113 21.3192 34.0089C20.9825 34.8132 20.6112 35.628 20.1933 36.414C20.0171 36.7376 19.8234 37.1097 19.6593 37.4728C18.93 38.8987 18.2007 40.3247 17.4835 41.7902C17.385 41.9527 17.3438 42.1434 17.3662 42.332C17.3887 42.5207 17.4737 42.6964 17.6075 42.8312C18.0134 43.3636 18.4968 43.8323 19.0415 44.2216C19.4248 44.4876 19.8924 44.6036 20.3556 44.5475C20.8188 44.4914 21.2453 44.2672 21.5541 43.9174C21.8898 43.5737 22.1758 43.1848 22.4039 42.762C23.2124 41.5432 23.9007 40.2488 24.459 38.8969C24.5733 38.6211 24.7127 38.3564 24.8754 38.106L24.9507 37.9643C25.03 37.8155 25.1326 37.6804 25.2545 37.564C25.3385 37.4988 25.4387 37.4579 25.5443 37.4455C25.6499 37.4332 25.7568 37.45 25.8535 37.4941C25.9451 37.5499 26.0198 37.6296 26.0698 37.7245C26.1197 37.8194 26.1429 37.9261 26.1371 38.0332C26.0943 38.2618 26.0161 38.4823 25.9053 38.6867C25.9158 38.7212 25.9158 38.7212 25.8919 38.7663C25.1491 40.5194 24.2613 42.2074 23.2376 43.8127C22.9027 44.3234 22.4997 44.7861 22.0396 45.1877C21.6141 45.5332 21.099 45.7502 20.5547 45.8134C20.0103 45.8767 19.4592 45.7835 18.9659 45.5448C18.2466 45.2184 17.6079 44.7378 17.0951 44.1369C17.0911 44.1169 17.083 44.0978 17.0714 44.0809C17.0597 44.0641 17.0447 44.0498 17.0273 44.039C16.9717 43.9805 16.9506 43.9114 16.8934 43.8479C16.8036 43.7514 16.6872 43.6838 16.5588 43.6535V43.6535Z" fill="#59CBE8"/>
<path d="M26.4501 36.4809C26.541 36.2813 26.6208 36.0768 26.689 35.8684C26.9031 35.4448 27.0943 35.0099 27.2618 34.5658C27.7376 33.5449 28.3559 32.5966 29.0981 31.7494C29.3908 31.4362 29.7255 31.165 30.0926 30.9437C30.3068 30.8208 30.5438 30.7427 30.7891 30.7141C31.0344 30.6854 31.283 30.7069 31.5198 30.777C31.7489 30.8628 31.9555 30.9996 32.1239 31.1772C32.2922 31.3547 32.4178 31.5683 32.4912 31.8017C32.7202 32.5558 32.8045 33.3464 32.7396 34.1318L32.7052 34.5308C32.7038 34.6499 32.701 34.7641 32.6947 34.8847C32.6884 35.0053 32.6905 35.1179 32.7355 35.1419C32.7806 35.1659 32.8667 35.1827 32.9992 35.1044C33.3029 34.9684 33.6419 34.7893 33.9817 34.6476L34.6639 34.3204C34.8881 34.2079 35.1341 34.1456 35.3848 34.1377C35.498 34.112 35.6166 34.1282 35.7188 34.1833C35.8209 34.2383 35.8996 34.3286 35.9404 34.4372C35.9775 34.5421 35.9856 34.6551 35.9639 34.7643C35.9422 34.8735 35.8915 34.9748 35.8171 35.0575C35.658 35.2102 35.4724 35.3328 35.2695 35.4192L34.5577 35.7555C33.9826 36.0446 33.4018 36.2977 32.8176 36.5572C32.6832 36.6018 32.5643 36.6837 32.4746 36.7932C32.3849 36.9028 32.3281 37.0355 32.3109 37.1761C32.072 38.2994 31.7012 39.3906 31.2062 40.4269C30.8665 41.1853 30.3949 41.8774 29.8136 42.4711C29.6035 42.6991 29.3447 42.8769 29.0565 42.9911C28.7683 43.1054 28.4581 43.1533 28.1488 43.1311C27.6193 43.0872 27.1225 42.8567 26.747 42.4808L26.4318 42.2265C26.3867 42.2025 26.3641 42.1285 26.3085 42.07C26.2023 42.2057 26.1452 42.3734 26.1464 42.5457C26.136 42.5639 26.13 42.5843 26.1289 42.6053C26.1278 42.6262 26.1317 42.6471 26.1401 42.6663C25.6331 45.578 25.2375 48.5366 24.9906 51.4875L24.8653 52.8421C24.795 53.7591 24.6901 54.6867 24.5883 55.6241C24.5989 55.6586 24.5989 55.6586 24.5764 55.7087C24.5791 56.0366 24.5336 56.3632 24.4412 56.6779C24.4123 56.8233 24.331 56.953 24.2127 57.0423C24.0943 57.1316 23.9473 57.1742 23.7995 57.162C23.6518 57.1498 23.5137 57.0837 23.4116 56.9763C23.3095 56.8688 23.2505 56.7276 23.2458 56.5794C23.2078 56.2039 23.2096 55.8254 23.2512 55.4503C23.2392 55.436 23.2302 55.4193 23.225 55.4014C23.2197 55.3834 23.2183 55.3646 23.2208 55.3461C23.2232 55.3275 23.2295 55.3097 23.2393 55.2938C23.249 55.2778 23.262 55.2641 23.2774 55.2535C23.3132 54.7354 23.3779 54.1707 23.3972 53.5984C23.4999 52.1698 23.6026 50.7412 23.7602 49.3335C23.9938 47.0449 24.2394 44.7957 24.4851 42.5465C24.6167 41.0713 24.7708 39.546 24.9369 38.0603C24.9981 37.378 25.0486 36.6612 25.1162 35.9824C25.1747 35.5384 25.1986 35.1049 25.2506 34.6574C25.2429 34.5087 25.2386 34.3535 25.24 34.2345C25.2105 34.1715 25.1673 34.1159 25.1137 34.0717C25.06 34.0274 24.9972 33.9956 24.9298 33.9786C24.8607 33.9523 24.798 33.9114 24.746 33.8587C24.6941 33.806 24.6541 33.7428 24.6287 33.6732C24.6034 33.6037 24.5933 33.5296 24.5991 33.4558C24.605 33.382 24.6266 33.3104 24.6626 33.2457C24.7575 33.0049 24.9051 32.7883 25.0946 32.6119C25.1861 32.5115 25.3006 32.4347 25.4282 32.3882C25.5558 32.3417 25.6928 32.3267 25.8275 32.3447C25.9585 32.386 26.0764 32.4612 26.169 32.5626C26.2616 32.6641 26.3257 32.7883 26.3548 32.9226C26.3697 33.1122 26.4 33.3349 26.4198 33.5231C26.4057 33.5739 26.4089 33.628 26.429 33.6767C26.4248 34.2984 26.4222 34.925 26.3835 35.5572C26.3774 35.651 26.3663 35.7444 26.3504 35.8371C26.349 35.9562 26.3582 36.1098 26.3504 36.2255C26.3426 36.3411 26.3596 36.3791 26.3357 36.4242C26.3577 36.4246 26.3795 36.4299 26.3992 36.4397C26.419 36.4495 26.4364 36.4636 26.4501 36.4809V36.4809ZM28.499 41.7887C28.7116 41.733 28.9047 41.6198 29.0572 41.4616C29.2063 41.3099 29.3356 41.1398 29.4419 40.9555C30.0711 40.0676 30.5309 39.0711 30.7983 38.0161C30.8222 37.9711 30.8357 37.8914 30.8596 37.8463C30.861 37.7272 30.8053 37.6687 30.6623 37.7125C30.5412 37.7436 30.4251 37.7918 30.3176 37.8556L29.9835 38.0333C29.5579 38.2821 29.0912 38.538 28.6712 38.8229C28.5976 38.8408 28.5287 38.8747 28.4697 38.9223C28.0483 39.1861 27.6457 39.4787 27.2646 39.7978C27.0979 39.9222 26.9867 40.1069 26.9547 40.3123C26.9227 40.5178 26.9725 40.7276 27.0934 40.8967C27.2136 41.1463 27.3745 41.3743 27.5694 41.5712C27.6746 41.6664 27.7983 41.7388 27.9328 41.784C28.0673 41.8292 28.2097 41.8462 28.351 41.8339L28.499 41.7887ZM27.3058 38.1506C27.3453 38.1385 27.3453 38.1385 27.3574 38.178L27.4264 38.1569C28.5629 37.3826 29.7551 36.6936 30.9933 36.0954C31.1075 36.0422 31.2052 35.9591 31.2759 35.8548C31.3466 35.7505 31.3877 35.629 31.3948 35.5032C31.3847 35.3203 31.3937 35.1367 31.4216 34.9556C31.4632 34.5976 31.5188 34.2677 31.5293 33.9138C31.5662 33.4443 31.5257 32.9719 31.4093 32.5155C31.2978 31.8861 30.9968 31.7839 30.5183 32.1244C30.1791 32.4153 29.8742 32.7438 29.6093 33.1036C28.5554 34.5634 27.7676 36.1977 27.2819 37.9313C27.2545 37.9829 27.2546 37.9829 27.2651 38.0174C27.2552 38.0408 27.2538 38.0671 27.2612 38.0914C27.2687 38.1158 27.2845 38.1367 27.3058 38.1506V38.1506Z" fill="#59CBE8"/>
<path d="M34.4089 49.1906C34.3729 49.0955 34.3566 48.994 34.3609 48.8924C34.3135 48.5801 34.2821 48.2656 34.267 47.9501C34.1741 45.6527 34.2219 43.3519 34.4102 41.0604C34.8637 34.7701 35.6886 28.5122 36.8804 22.3192C36.9763 21.7505 37.1116 21.1696 37.2269 20.5409C37.2427 20.4427 37.2653 20.3456 37.2945 20.2505C37.3467 20.0559 37.3634 19.8534 37.3438 19.6528C37.3278 19.2437 37.4021 18.8361 37.5613 18.4588C37.616 18.3271 37.7155 18.219 37.8422 18.1536C37.9689 18.0883 38.1147 18.0698 38.2536 18.1017C38.3926 18.1335 38.5159 18.2135 38.6015 18.3275C38.6871 18.4415 38.7296 18.5822 38.7215 18.7245C38.7068 19.0627 38.6673 19.3993 38.6033 19.7317C38.4455 20.3626 38.3328 21.0174 38.2265 21.6757C37.698 24.5346 37.2315 27.4555 36.7985 30.3446C36.0615 35.0849 35.6152 39.8659 35.4624 44.6607C35.4073 45.832 35.4291 47.0057 35.5278 48.1742C35.5115 48.2763 35.5302 48.3808 35.5807 48.4709C35.6364 48.5294 35.7175 48.5478 35.8711 48.5386C36.1439 48.5307 36.3152 48.597 36.4089 48.7626C36.4537 48.8638 36.4732 48.9744 36.4656 49.0848C36.4579 49.1953 36.4235 49.3022 36.3653 49.3963C36.3244 49.4841 36.2712 49.5658 36.2075 49.6388C36.0928 49.795 35.9513 49.9296 35.7895 50.0363C35.7108 50.103 35.6175 50.1503 35.5171 50.1744C35.4167 50.1986 35.3121 50.1988 35.2116 50.1752C34.8431 50.0991 34.5929 49.7925 34.4089 49.1906Z" fill="#59CBE8"/>
<path d="M45.386 32.7416C46.2149 32.3992 46.9301 31.8294 47.4491 31.0981C47.9681 30.3667 48.2698 29.5034 48.3193 28.608C48.3344 28.2297 48.2582 27.8533 48.0971 27.5107C48.0449 27.3534 47.9341 27.2222 47.7878 27.1444C47.6415 27.0666 47.4708 27.0481 47.3112 27.0928C47.1202 27.1193 46.927 27.1259 46.7346 27.1126C46.5988 27.0945 46.4723 27.0335 46.3734 26.9386C46.2746 26.8437 46.2085 26.7198 46.1848 26.5848C46.1537 26.446 46.1678 26.301 46.2251 26.1708C46.2824 26.0407 46.3799 25.9324 46.5032 25.8616C46.6797 25.7628 46.8807 25.7163 47.0826 25.7277C48.0221 25.7479 48.8664 25.3334 49.7334 24.9928C50.2902 24.7848 50.8243 24.5028 51.3706 24.2603C51.6194 24.1401 51.8896 24.0703 52.1656 24.055C52.3011 24.035 52.4393 24.0451 52.5704 24.0844C52.7016 24.1238 52.8224 24.1916 52.9245 24.2829C53.0265 24.3742 53.1072 24.4869 53.1609 24.6129C53.2146 24.7389 53.2399 24.8751 53.235 25.012C53.2545 25.5366 53.2348 26.062 53.176 26.5837C52.8256 30.1488 52.5764 33.7801 52.4581 37.3282C52.4525 37.6806 52.442 38.0345 52.4695 38.3713C52.4577 38.8443 52.2709 39.1333 51.922 39.1213C51.573 39.1093 51.27 38.8945 51.2333 38.404C51.1906 37.6849 51.1918 36.964 51.2368 36.245C51.4018 32.8499 51.6424 29.437 51.9681 26.0736C51.9773 25.8388 52.066 25.6175 51.9617 25.4174C51.8249 25.3406 51.7045 25.4583 51.6114 25.5245C50.9172 25.8123 50.1962 26.1892 49.5055 26.4003C49.1609 26.5435 49.0905 26.6837 49.2576 26.9832C49.5515 27.6106 49.6439 28.3135 49.5221 28.9955C49.4046 30.1158 48.9705 31.1794 48.2707 32.0621C47.5709 32.9448 46.6343 33.61 45.5704 33.98C45.4226 34.0205 45.2894 34.1024 45.1865 34.216C45.0836 34.3297 45.0153 34.4703 44.9897 34.6214C44.7798 35.5581 44.4402 36.4608 43.9809 37.3036C43.6801 37.8366 43.2863 38.3115 42.8181 38.7056C42.5969 38.8963 42.3396 39.0404 42.0615 39.1294C41.7834 39.2184 41.4902 39.2503 41.1994 39.2234C40.9087 39.1965 40.6263 39.1112 40.3693 38.9726C40.1123 38.8341 39.8858 38.6451 39.7034 38.4171C39.4051 38.0621 39.1645 37.6623 38.9906 37.2324C38.2473 35.2651 38.0651 33.13 38.4646 31.0652C38.6575 30.0778 39.1269 29.1654 39.8181 28.4342C40.6123 27.6088 41.5575 27.4007 42.5549 28.1046C42.6448 28.1649 42.7459 28.2065 42.8522 28.2268C42.9586 28.2471 43.0679 28.2458 43.1737 28.2229C43.4755 28.19 43.7803 28.2467 44.0502 28.3857C44.32 28.5248 44.543 28.7402 44.6914 29.005C45.0236 29.5639 45.2406 30.1836 45.3295 30.8276C45.3634 31.2932 45.3621 31.7606 45.3255 32.226C45.3014 32.4002 45.3222 32.5777 45.386 32.7416V32.7416ZM41.6618 37.9586C42.1463 37.7707 42.5468 37.4146 42.7901 36.9555C43.2445 36.1974 43.5691 35.3689 43.7507 34.5039C43.8289 34.248 43.7457 34.117 43.4793 34.0043C43.0729 33.8601 42.7075 33.6196 42.4144 33.3033C42.1214 32.987 41.9094 32.6044 41.7966 32.1882C41.4935 31.3038 41.5165 30.3401 41.8614 29.4711C41.986 29.1201 41.8415 28.8945 41.4137 28.9066C41.104 28.9491 40.821 29.1048 40.6194 29.3437C40.0927 29.9524 39.7592 30.7042 39.6612 31.5032C39.3551 33.2276 39.5088 35.0022 40.1068 36.6484C40.2276 37.0023 40.4206 37.3272 40.6736 37.6026C40.7778 37.7606 40.9304 37.8807 41.1085 37.9449C41.2866 38.0091 41.4807 38.0139 41.6618 37.9586V37.9586ZM43.9393 30.4272C43.8795 30.1842 43.783 29.9518 43.6531 29.7379C43.457 29.4849 43.3485 29.5181 43.1561 29.7711C42.9041 30.2066 42.7946 30.7101 42.8433 31.2109C42.8919 31.7117 43.0961 32.1848 43.4272 32.5636C43.4941 32.648 43.5811 32.7142 43.6803 32.756C43.9243 32.9188 44.0328 32.8856 44.0489 32.5678C44.1626 31.8544 44.1253 31.1252 43.9393 30.4272V30.4272Z" fill="#59CBE8"/>
<path d="M54.2528 32.7875C53.9703 31.6336 53.8828 30.4405 53.9936 29.2577C54.1215 27.5965 54.4258 25.9537 54.9013 24.3569C55.0683 23.8797 55.3178 23.6901 55.6913 23.7647C55.9923 23.8669 56.1283 24.1706 55.9973 24.6422C55.4993 26.4721 55.2275 28.3561 55.1877 30.2521C55.168 31.0712 55.2986 31.887 55.5729 32.659C55.8507 33.4265 56.2208 33.5075 56.7105 32.8507C56.8485 32.6897 56.977 32.5207 57.0953 32.3447C57.945 30.8009 58.7102 29.2453 59.4401 27.6627C59.4746 27.6521 59.4746 27.6521 59.4641 27.6176C59.5394 27.4759 59.6163 27.3391 59.6867 27.1989C59.757 27.0899 59.8622 27.008 59.985 26.9666C60.1079 26.9252 60.2412 26.9267 60.3631 26.9708C60.485 27.015 60.5883 27.0993 60.6561 27.2098C60.7239 27.3203 60.7522 27.4506 60.7363 27.5793C60.6682 27.8735 60.5759 28.1616 60.4602 28.4405C59.7915 29.9235 59.0348 31.4011 58.2019 32.8587C57.9829 33.231 57.7287 33.5815 57.4429 33.9053C57.2913 34.0914 57.1038 34.2451 56.8915 34.3573C56.6793 34.4694 56.4467 34.5378 56.2075 34.5582C55.9754 34.5725 55.7432 34.5334 55.5287 34.4437C55.3142 34.354 55.1232 34.2162 54.9704 34.0409C54.6545 33.6719 54.4111 33.2467 54.2528 32.7875V32.7875ZM54.9122 22.0986C54.8517 21.9128 54.8431 21.7139 54.8874 21.5236C54.9076 21.2022 54.9682 20.8846 55.0678 20.5783C55.1495 20.2314 55.1966 19.8773 55.2085 19.5211C55.2454 19.3463 55.3309 19.1856 55.4551 19.0572C55.5136 19.0163 55.5799 18.9879 55.6499 18.974C55.72 18.96 55.7921 18.9607 55.8618 18.9761C56.0042 18.9933 56.1351 19.0629 56.229 19.1713C56.3104 19.3133 56.3589 19.4718 56.3708 19.635C56.2568 20.409 56.1412 21.178 56.0025 21.9595C55.9785 22.0046 55.9906 22.044 55.9666 22.0891C55.8645 22.3901 55.72 22.5529 55.4507 22.5544C55.3224 22.5512 55.1991 22.5043 55.1011 22.4214C55.0031 22.3385 54.9365 22.2246 54.9122 22.0986V22.0986Z" fill="#59CBE8"/>
<path d="M65.9593 33.2113C66.1666 32.8442 66.3494 32.4639 66.5068 32.0728C66.7548 31.4899 66.9803 30.957 67.1937 30.3847C67.6461 29.1998 68.1435 28.0389 68.6113 26.8871C68.8727 26.2245 69.1447 25.5965 69.4366 25.0163L69.6621 24.4834C69.7744 24.2605 69.9216 24.0571 70.0983 23.8808C70.1734 23.8129 70.2669 23.7686 70.3671 23.7535C70.4672 23.7384 70.5696 23.753 70.6614 23.7957C70.7533 23.8384 70.8305 23.9072 70.8836 23.9934C70.9366 24.0797 70.9631 24.1797 70.9597 24.2809C70.9536 24.5175 70.8913 24.7492 70.7779 24.9569C70.0036 26.7473 69.2638 28.5272 68.5395 30.34C68.2133 31.1788 67.8526 32.0282 67.5264 32.867C67.416 33.1723 67.2696 33.4634 67.0902 33.7341L66.9669 33.966C66.8551 34.1876 66.6844 34.3742 66.4736 34.5052C66.3791 34.5864 66.2691 34.6476 66.1503 34.6849C66.0314 34.7223 65.9062 34.7351 65.7822 34.7225C65.6583 34.7099 65.5382 34.6723 65.4293 34.6118C65.3203 34.5514 65.2248 34.4694 65.1486 34.3708C64.8452 34.0085 64.666 33.5585 64.6373 33.0867C64.5749 32.4825 64.5694 31.8737 64.6209 31.2684C64.8002 29.1905 65.0311 27.1401 65.2916 25.0806C65.4357 24.1675 65.5052 23.2441 65.4994 22.3197C65.4149 22.3078 65.3683 22.2789 65.3337 22.2894C65.2992 22.3 65.2373 22.3621 65.2133 22.4072C65.1893 22.4523 65.1893 22.4523 65.1548 22.4628C64.9229 22.7279 64.7306 22.9809 64.5332 23.2355C63.3762 25.0007 62.4447 26.9039 61.7607 28.9006C61.3323 30.0404 60.9385 31.1696 60.5616 32.3368C60.4545 32.6393 60.3298 32.9903 60.2382 33.3258C60.1784 33.5109 60.1034 33.6907 60.0142 33.8636C59.9528 33.9948 59.8442 34.0982 59.7102 34.1532C59.5761 34.2081 59.4262 34.2107 59.2904 34.1604C59.1621 34.1204 59.051 34.0383 58.9751 33.9275C58.8991 33.8167 58.8626 33.6835 58.8716 33.5494C58.8672 33.4045 58.8752 33.2594 58.8955 33.1159C58.8849 33.0814 58.8849 33.0814 58.9089 33.0363C59.1108 30.644 59.4269 28.2546 59.8275 25.8772C59.8776 25.398 59.9516 24.9217 60.0493 24.4499C60.0957 24.3067 60.1155 24.1562 60.1077 24.0058C60.0894 23.8685 60.0365 23.738 59.9541 23.6267C59.9106 23.5581 59.8857 23.4795 59.8817 23.3984C59.8778 23.3174 59.8949 23.2367 59.9314 23.1642L59.9553 23.1192C60.0681 22.8527 60.1463 22.5968 60.2647 22.3664C60.3016 22.2363 60.3859 22.1248 60.5009 22.0537C60.6159 21.9826 60.7534 21.9571 60.8863 21.9822C61.0262 22.0051 61.1542 22.0749 61.2491 22.1802C61.3441 22.2855 61.4003 22.42 61.4087 22.5615C61.4487 22.8054 61.4463 23.0543 61.4017 23.2974L61.1138 25.4084L60.8575 27.2346C60.8487 27.2523 60.8438 27.2717 60.8433 27.2914C60.8428 27.3111 60.8467 27.3307 60.8547 27.3488C60.8219 27.5044 60.8179 27.6647 60.8428 27.8218L61.0204 27.379C61.1798 27.0644 61.3125 26.7369 61.417 26.4C61.981 25.0438 62.6777 23.7466 63.4968 22.5274C63.8539 22.0008 64.2857 21.529 64.7786 21.1266L65.0901 20.875C65.2357 20.7878 65.3984 20.7334 65.5671 20.7153C65.7357 20.6973 65.9063 20.7161 66.067 20.7705C66.223 20.8419 66.3571 20.9538 66.4552 21.0946C66.5532 21.2354 66.6118 21.4 66.6246 21.5711C66.731 22.0582 66.7658 22.5583 66.7278 23.0554C66.656 23.9675 66.5617 24.9296 66.4163 25.848C66.3579 26.2921 66.3234 26.691 66.2593 27.099C66.2634 27.2599 66.2473 27.4207 66.2114 27.5776C66.0559 28.8336 65.9391 30.1101 65.8568 31.376C65.7652 31.9883 65.8001 32.6129 65.9593 33.2113V33.2113Z" fill="#59CBE8"/>
<path d="M75.8697 18.3723L75.9584 18.151C76.0232 17.9747 76.0486 17.8105 76.1149 17.6392C76.2395 17.2882 76.453 17.1042 76.7378 17.1358C76.8203 17.1412 76.9007 17.1635 76.9742 17.2012C77.0477 17.239 77.1127 17.2914 77.1651 17.3553C77.2175 17.4192 77.2562 17.4932 77.2789 17.5726C77.3016 17.6521 77.3076 17.7354 77.2968 17.8173C77.2905 17.9379 77.2892 18.057 77.2863 18.1712C77.272 18.1969 77.2677 18.227 77.2744 18.2557C77.0034 20.6691 76.8361 23.0508 76.7685 25.4235C76.743 25.7365 76.7345 26.0506 76.7433 26.3645C76.7416 26.4201 76.7331 26.4752 76.718 26.5287C76.7285 26.5632 76.7045 26.6083 76.7151 26.6429C76.8652 26.5536 76.9863 26.4229 77.064 26.2665C77.0534 26.2319 77.0759 26.1819 77.0998 26.1368C77.715 25.0964 78.2942 24.0615 78.8607 23.0737L80.0067 21.105C80.1252 20.8579 80.2788 20.6292 80.4627 20.4261C80.7636 20.1399 81.0603 20.0869 81.2978 20.2463C81.5354 20.4056 81.5827 20.6663 81.422 21.0229C81.3232 21.2671 81.1992 21.5002 81.0521 21.7187L76.7631 29.2878C76.5963 29.5574 76.5046 29.8667 76.4975 30.1836C76.3537 32.3807 76.0744 34.5668 75.6611 36.7295C75.3857 38.3188 74.8092 39.8409 73.9626 41.2139C73.7744 41.5482 73.5416 41.8553 73.2706 42.1268C73.0779 42.3203 72.846 42.4703 72.5905 42.5667C72.3201 42.6858 72.0142 42.6962 71.7363 42.5959C71.4584 42.4734 71.2182 42.2789 71.0405 42.0327C70.8628 41.7864 70.754 41.4972 70.7253 41.1948C70.6127 40.3636 70.6857 39.5177 70.9391 38.718C71.2919 37.4398 71.7713 36.1999 72.37 35.0168C73.2255 33.2447 74.1295 31.4902 75.1096 29.7555C75.2333 29.5437 75.3083 29.307 75.3294 29.0626C75.3616 27.7742 75.4375 26.5048 75.5168 25.229C75.5407 24.7955 75.5976 24.3465 75.6166 23.9145C75.4982 24.0115 75.4174 24.1469 75.3883 24.2972C75.3594 24.3438 75.37 24.3783 75.346 24.4234C74.935 25.5302 74.4141 26.5931 73.7913 27.5961C73.5144 28.0754 73.1096 28.4681 72.6221 28.7304C72.37 28.8893 72.0739 28.9638 71.7766 28.9432C71.4793 28.9225 71.1963 28.8078 70.9686 28.6155C70.4492 28.1763 70.0982 27.5706 69.9753 26.9016C69.6989 25.9569 69.609 24.9675 69.7104 23.9885C69.7184 22.547 70.0379 21.1243 70.6472 19.8179C71.0311 18.8758 71.7688 18.1216 72.7022 17.7169C73.1636 17.4912 73.6834 17.4132 74.1907 17.4937C74.698 17.5741 75.1681 17.8091 75.537 18.1665C75.5836 18.1954 75.5836 18.1954 75.5942 18.2299L75.8697 18.3723ZM75.0276 32.7693C74.9635 32.7793 74.9047 32.8106 74.8606 32.8581C74.8168 32.9017 74.7813 32.9527 74.7556 33.0089L74.7498 33.043C73.9966 34.5141 73.2554 36.0246 72.6283 37.538C72.3107 38.2696 72.0891 39.0391 71.9688 39.8274C71.8963 40.2148 71.8863 40.6112 71.9394 41.0017C72.0825 41.3463 72.2467 41.3717 72.4891 41.1411C72.593 41.0691 72.6693 40.964 72.7055 40.843C73.131 40.3044 73.4714 39.7036 73.7146 39.0617C74.3428 37.3399 74.7476 35.5445 74.9189 33.7196C74.9621 33.5079 74.9866 33.2928 74.9922 33.0768C74.9842 32.973 74.9962 32.8686 75.0276 32.7693V32.7693ZM71.1204 26.4652C71.1335 26.5158 71.1607 26.5618 71.1987 26.5977C71.2145 26.7708 71.2658 26.9387 71.3495 27.0911L71.4821 27.4012C71.5134 27.4786 71.5649 27.5463 71.6311 27.5972C71.6973 27.6482 71.776 27.6805 71.8589 27.6909C71.9418 27.7013 72.0259 27.6893 72.1027 27.6563C72.1795 27.6233 72.246 27.5705 72.2955 27.5031C72.5754 27.2169 72.8162 26.8947 73.0114 26.5452C73.9282 24.8149 74.6354 22.9814 75.118 21.0837C75.2328 20.5763 75.2054 20.047 75.0388 19.5542C74.9575 19.2598 74.7635 19.0093 74.4988 18.8569C74.2341 18.7046 73.9201 18.6627 73.6247 18.7404C73.0818 18.8264 72.5917 19.115 72.2532 19.5481C71.9885 19.8342 71.7734 20.1625 71.6169 20.5195C70.8839 22.4126 70.7115 24.4767 71.1204 26.4652V26.4652Z" fill="#59CBE8"/>
</svg>
