<svg width="148" height="39" viewBox="0 0 148 39" fill="none" xmlns="http://www.w3.org/2000/svg">
<rect y="0.89209" width="148" height="38.1078" fill="#010101"/>
<mask id="mask0" maskUnits="userSpaceOnUse" x="2" y="4" width="143" height="32">
<rect x="2.65869" y="4.43701" width="141.796" height="31.018" fill="white"/>
</mask>
<g mask="url(#mask0)">
<line x1="-18.0387" y1="36.6067" x2="21.3982" y2="-2.83026" stroke="white" stroke-width="0.5"/>
<line x1="109.441" y1="36.6067" x2="148.878" y2="-2.83026" stroke="white" stroke-width="0.5"/>
<line x1="77.5707" y1="36.6067" x2="117.008" y2="-2.83026" stroke="white" stroke-width="0.5"/>
<line x1="45.7011" y1="36.6067" x2="85.138" y2="-2.83026" stroke="white" stroke-width="0.5"/>
<line x1="141.311" y1="36.6067" x2="180.747" y2="-2.83026" stroke="white" stroke-width="0.5"/>
<line x1="13.8312" y1="36.6067" x2="53.2681" y2="-2.83026" stroke="white" stroke-width="0.5"/>
<line x1="-26.0062" y1="36.6067" x2="13.4307" y2="-2.83026" stroke="white" stroke-width="0.5"/>
<line x1="101.473" y1="36.6067" x2="140.91" y2="-2.83026" stroke="white" stroke-width="0.5"/>
<line x1="69.6035" y1="36.6067" x2="109.04" y2="-2.83026" stroke="white" stroke-width="0.5"/>
<line x1="37.7336" y1="36.6067" x2="77.1705" y2="-2.83026" stroke="white" stroke-width="0.5"/>
<line x1="133.343" y1="36.6067" x2="172.78" y2="-2.83026" stroke="white" stroke-width="0.5"/>
<line x1="5.86369" y1="36.6067" x2="45.3006" y2="-2.83026" stroke="white" stroke-width="0.5"/>
<line x1="-33.9737" y1="36.6067" x2="5.46328" y2="-2.83026" stroke="white" stroke-width="0.5"/>
<line x1="93.5058" y1="36.6067" x2="132.943" y2="-2.83026" stroke="white" stroke-width="0.5"/>
<line x1="61.636" y1="36.6067" x2="101.073" y2="-2.83026" stroke="white" stroke-width="0.5"/>
<line x1="29.7661" y1="36.6067" x2="69.203" y2="-2.83026" stroke="white" stroke-width="0.5"/>
<line x1="125.376" y1="36.6067" x2="164.813" y2="-2.83026" stroke="white" stroke-width="0.5"/>
<line x1="-2.10378" y1="36.6067" x2="37.3331" y2="-2.83026" stroke="white" stroke-width="0.5"/>
<line x1="85.5383" y1="36.6067" x2="124.975" y2="-2.83026" stroke="white" stroke-width="0.5"/>
<line x1="53.6686" y1="36.6067" x2="93.1055" y2="-2.83026" stroke="white" stroke-width="0.5"/>
<line x1="21.7987" y1="36.6067" x2="61.2356" y2="-2.83026" stroke="white" stroke-width="0.5"/>
<line x1="117.408" y1="36.6067" x2="156.845" y2="-2.83026" stroke="white" stroke-width="0.5"/>
<line x1="-10.0712" y1="36.6067" x2="29.3657" y2="-2.83026" stroke="white" stroke-width="0.5"/>
</g>
</svg>
