<svg width="177" height="177" viewBox="0 0 177 177" fill="none" xmlns="http://www.w3.org/2000/svg">
<path d="M44.1942 132.583C68.6019 156.99 108.175 156.99 132.583 132.583C156.99 108.175 156.99 68.6019 132.583 44.1942C108.175 19.7864 68.6019 19.7864 44.1942 44.1942C19.7864 68.6019 19.7864 108.175 44.1942 132.583Z" fill="#0A0A0A"/>
<path d="M43.6943 95.9209C44.6007 95.7021 45.257 96.2647 45.5539 97.593L46.1008 100.015L40.8188 101.203L40.2875 98.9213C40.0375 97.7337 40.3813 96.9523 41.2408 96.7491C41.4076 96.9888 41.6476 97.168 41.925 97.2595C42.2023 97.351 42.5019 97.3499 42.7786 97.2565C43.0553 97.1631 43.2942 96.9824 43.4593 96.7415C43.6244 96.5007 43.7069 96.2127 43.6943 95.9209ZM41.147 100.531L43.0691 100.109L42.6941 98.4213C42.5066 97.5774 42.0534 97.1555 41.4283 97.3118C40.8032 97.4681 40.5844 97.9994 40.772 98.8432L41.147 100.531ZM43.788 96.4835C43.0848 96.6241 42.8973 97.218 43.1004 98.14L43.5223 99.9997L45.5226 99.5621L45.1007 97.7024C44.8819 96.7648 44.4756 96.3272 43.7255 96.546L43.788 96.4835Z" fill="#E7E7E7"/>
<path d="M42.7409 91.0605L43.0535 94.4986C43.2499 94.4689 43.4384 94.4 43.6076 94.2959C43.7768 94.1919 43.9234 94.0549 44.0386 93.893C44.1538 93.7312 44.2352 93.5478 44.2781 93.3538C44.3209 93.1598 44.3243 92.9592 44.2881 92.7639C44.273 92.5298 44.2063 92.3019 44.0928 92.0966C43.9793 91.8913 43.8219 91.7136 43.6317 91.5763L43.9755 91.2325C44.2036 91.4162 44.3929 91.6434 44.5324 91.901C44.6719 92.1585 44.7588 92.4412 44.7881 92.7327C44.8329 93.0097 44.8193 93.2932 44.748 93.5646C44.6767 93.8361 44.5494 94.0897 44.3743 94.309C44.1991 94.5283 43.9799 94.7085 43.7309 94.8381C43.4819 94.9676 43.2086 95.0436 42.9284 95.0611C42.6648 95.1009 42.3958 95.0866 42.1378 95.0192C41.8798 94.9517 41.6383 94.8324 41.4278 94.6687C41.2173 94.505 41.0423 94.3003 40.9134 94.0668C40.7846 93.8334 40.7045 93.5762 40.6781 93.3109C40.6407 93.0436 40.6601 92.7714 40.7349 92.5121C40.8097 92.2528 40.9382 92.012 41.1122 91.8057C41.2861 91.5993 41.5015 91.4319 41.7445 91.3142C41.9874 91.1966 42.2524 91.1315 42.5222 91.1231L42.7409 91.0605ZM42.6784 94.4986L42.4128 91.6388C42.0825 91.7297 41.7948 91.934 41.6001 92.2157C41.4054 92.4975 41.316 92.8389 41.3477 93.1799C41.3794 93.521 41.5301 93.84 41.7734 94.0811C42.0167 94.3222 42.3371 94.47 42.6784 94.4986Z" fill="#E7E7E7"/>
<path d="M42.2098 87.7787L39.1937 87.6693L39.2406 87.0912L42.2411 87.2162C43.5382 87.2943 44.1632 86.7317 44.2101 85.6847C44.2426 85.4451 44.2193 85.2013 44.1421 84.9723C44.0648 84.7432 43.9357 84.535 43.7648 84.3641C43.5938 84.1932 43.3857 84.0641 43.1567 83.9868C42.9276 83.9096 42.6837 83.8863 42.4442 83.9188L39.35 83.7312L39.3969 83.1843L42.4911 83.3718C42.8013 83.3368 43.1154 83.3722 43.41 83.4753C43.7046 83.5784 43.9722 83.7465 44.1929 83.9672C44.4136 84.1879 44.5818 84.4555 44.6849 84.7502C44.7879 85.0448 44.8233 85.3589 44.7883 85.669C44.7784 85.9845 44.7011 86.2943 44.5614 86.5774C44.4218 86.8605 44.2232 87.1104 43.9788 87.3103C43.7345 87.5102 43.4502 87.6554 43.1451 87.7362C42.8399 87.817 42.521 87.8315 42.2098 87.7787Z" fill="#E7E7E7"/>
<path d="M43.4445 77.6677L45.7574 78.1053L45.648 78.6522L43.3977 78.2147C43.2352 78.1587 43.0623 78.1399 42.8917 78.1596C42.721 78.1792 42.5569 78.2369 42.4115 78.3284C42.2661 78.4198 42.143 78.5427 42.0513 78.688C41.9596 78.8333 41.9017 78.9973 41.8818 79.168C41.8343 79.3559 41.8278 79.5518 41.8628 79.7424C41.8978 79.933 41.9735 80.1138 42.0848 80.2725C42.196 80.4312 42.3401 80.564 42.5074 80.662C42.6746 80.7599 42.861 80.8207 43.0539 80.8401L45.1479 81.2464L45.0385 81.7933L41.0848 80.9651L41.1786 80.4651L41.9131 80.6057C41.6947 80.3931 41.5374 80.1257 41.4577 79.8316C41.378 79.5375 41.3787 79.2273 41.4598 78.9335C41.4907 78.7119 41.5693 78.4996 41.6902 78.3113C41.8111 78.123 41.9715 77.9631 42.1602 77.8428C42.3489 77.7225 42.5614 77.6445 42.7831 77.6143C43.0049 77.584 43.2305 77.6023 43.4445 77.6677Z" fill="#E7E7E7"/>
<path d="M40.9285 75.4954C40.8354 75.4612 40.7585 75.3935 40.7127 75.3055C40.6669 75.2176 40.6556 75.1157 40.681 75.0199C40.7064 74.924 40.7668 74.8411 40.8501 74.7874C40.9335 74.7337 41.0339 74.7131 41.1317 74.7296C41.1836 74.743 41.2322 74.7668 41.2747 74.7994C41.3171 74.8321 41.3526 74.873 41.3788 74.9197C41.4051 74.9664 41.4217 75.0179 41.4276 75.0712C41.4334 75.1245 41.4285 75.1784 41.413 75.2297C41.4005 75.2801 41.3777 75.3274 41.346 75.3685C41.3143 75.4096 41.2745 75.4437 41.229 75.4686C41.1835 75.4936 41.1332 75.5089 41.0815 75.5135C41.0298 75.5181 40.9777 75.5119 40.9285 75.4954ZM42.1944 75.7298L42.3506 75.1984L46.2731 76.308L46.1324 76.8237L42.1944 75.7298Z" fill="#E7E7E7"/>
<path d="M44.1006 70.0732L49.3358 71.9954L49.1326 72.5111L47.0072 71.7297C47.1915 71.9746 47.3099 72.2628 47.351 72.5665C47.392 72.8702 47.3544 73.1793 47.2417 73.4644C47.0149 73.9264 46.6247 74.2878 46.1467 74.4785C45.6686 74.6692 45.1368 74.6757 44.6543 74.4967C44.1717 74.3177 43.7728 73.966 43.5348 73.5096C43.2968 73.0533 43.2368 72.5248 43.3661 72.0267C43.4444 71.7259 43.6015 71.4514 43.8213 71.2316C44.041 71.0118 44.3155 70.8547 44.6163 70.7765L43.8662 70.4952L44.1006 70.0732ZM45.8352 71.2765C45.6475 71.1934 45.4445 71.1503 45.2392 71.1499C45.0338 71.1495 44.8307 71.1918 44.6426 71.2741C44.4545 71.3564 44.2855 71.4769 44.1465 71.628C44.0074 71.7791 43.9013 71.9574 43.8349 72.1517C43.7582 72.3418 43.7219 72.5458 43.7281 72.7507C43.7344 72.9556 43.7831 73.1571 43.8713 73.3422C43.9594 73.5273 44.0851 73.692 44.2402 73.826C44.3954 73.9601 44.5767 74.0604 44.7726 74.1207C44.9628 74.2022 45.1677 74.2441 45.3746 74.2439C45.5815 74.2437 45.7863 74.2014 45.9763 74.1195C46.1664 74.0376 46.3378 73.9179 46.4801 73.7677C46.6224 73.6174 46.7327 73.4398 46.8041 73.2456C46.8768 73.0531 46.9093 72.8478 46.8994 72.6423C46.8895 72.4368 46.8375 72.2355 46.7467 72.0509C46.6559 71.8663 46.5281 71.7024 46.3713 71.5692C46.2145 71.436 46.0321 71.3363 45.8352 71.2765Z" fill="#E7E7E7"/>
<path d="M46.5544 64.9938L50.1799 66.8378L49.9299 67.3067L49.2735 66.9629C49.4215 67.2127 49.5021 67.4966 49.5076 67.787C49.513 68.0773 49.4432 68.3641 49.3048 68.6194C49.2191 68.8429 49.0841 69.0443 48.9098 69.2085C48.7355 69.3726 48.5264 69.4953 48.2981 69.5674C48.0698 69.6395 47.828 69.6591 47.5911 69.6249C47.3541 69.5906 47.1279 69.5033 46.9294 69.3694L44.851 68.3224L45.101 67.8223L47.1482 68.9006C47.2896 68.9983 47.4508 69.0637 47.6203 69.0922C47.7899 69.1206 47.9635 69.1114 48.1291 69.0651C48.2946 69.0189 48.448 68.9368 48.5783 68.8246C48.7085 68.7125 48.8125 68.573 48.8828 68.4162C48.9793 68.2491 49.0382 68.0629 49.0553 67.8707C49.0724 67.6784 49.0474 67.4847 48.9819 67.3032C48.9164 67.1216 48.8121 66.9566 48.6762 66.8195C48.5403 66.6824 48.3762 66.5767 48.1953 66.5097L46.3043 65.5251L46.5544 64.9938Z" fill="#E7E7E7"/>
<path d="M51.4611 61.4315L49.5703 64.2601C49.7397 64.3641 49.9283 64.4329 50.1248 64.4625C50.3214 64.492 50.5219 64.4817 50.7144 64.4321C50.9069 64.3826 51.0874 64.2947 51.2452 64.1739C51.4031 64.053 51.535 63.9017 51.633 63.7287C51.772 63.5374 51.8665 63.3175 51.9098 63.085C51.953 62.8525 51.9439 62.6133 51.8831 62.3848L52.3519 62.3223C52.4231 62.6096 52.432 62.9089 52.3781 63.1999C52.3242 63.491 52.2087 63.7672 52.0394 64.01C51.8986 64.2519 51.7089 64.4617 51.4824 64.626C51.2559 64.7904 50.9976 64.9057 50.7241 64.9645C50.4505 65.0233 50.1676 65.0244 49.8936 64.9677C49.6196 64.911 49.3604 64.7977 49.1327 64.6351C48.8969 64.4999 48.6914 64.3179 48.5288 64.1002C48.3662 63.8825 48.2498 63.6338 48.187 63.3694C48.1242 63.105 48.1163 62.8306 48.1637 62.563C48.211 62.2955 48.3127 62.0404 48.4625 61.8137C48.6122 61.5869 48.8068 61.3932 49.0343 61.2446C49.2618 61.0959 49.5174 60.9955 49.7852 60.9495C50.053 60.9034 50.3273 60.9127 50.5914 60.9768C50.8555 61.0409 51.1036 61.1584 51.3205 61.3221L51.4611 61.4315ZM49.2264 64.0413L50.836 61.6503C50.519 61.4368 50.1301 61.3581 49.755 61.4314C49.3799 61.5046 49.0492 61.7239 48.8357 62.041C48.6223 62.3581 48.5436 62.7469 48.6168 63.1221C48.6901 63.4972 48.9094 63.8278 49.2264 64.0413Z" fill="#E7E7E7"/>
<path d="M57.5869 57.2744L56.5087 57.3212C56.5288 57.6559 56.4794 57.991 56.3638 58.3057C56.2482 58.6203 56.0687 58.9077 55.8367 59.1497C55.0866 59.8998 54.1958 60.1342 53.5863 59.556C52.9769 58.9778 53.0081 58.5402 53.2582 57.415C52.5081 57.4462 52.1643 57.3525 51.8517 57.0712C51.5392 56.7899 51.3672 55.8991 51.9142 55.2896C52.4611 54.6802 53.055 54.6177 53.5707 55.0709C54.0864 55.5241 54.0239 55.9304 53.8051 56.9306L55.946 56.8524C55.8141 56.5067 55.6353 56.1806 55.4147 55.8835L55.8054 55.6491C56.0799 56.0018 56.2818 56.4055 56.3993 56.8368L57.5244 56.8055L57.5869 57.2744ZM52.1798 56.6805C52.4142 56.9149 52.6643 56.9774 53.3676 56.9306C53.5551 56.0554 53.5238 55.6803 53.2425 55.4303C52.9612 55.1803 52.5549 55.1803 52.2111 55.5554C52.1146 55.6182 52.0338 55.7022 51.9749 55.8012C51.9161 55.9001 51.8808 56.0113 51.8717 56.1261C51.8627 56.2408 51.8801 56.3562 51.9227 56.4632C51.9653 56.5701 52.0319 56.6658 52.1174 56.743L52.1798 56.6805ZM55.9929 57.3681L53.6488 57.4619C53.43 58.4308 53.5082 58.8527 53.8677 59.1809C54.2271 59.5091 54.9459 59.4465 55.4616 58.8683C55.651 58.6683 55.7929 58.4281 55.8768 58.1656C55.9606 57.9032 55.9843 57.6253 55.9461 57.3525L55.9929 57.3681Z" fill="#E7E7E7"/>
<path d="M60.9314 47.4288L64.2131 51.7419L63.8381 52.117L61.2127 48.6789L61.7284 52.8515L61.5252 53.0546L57.6496 51.4606L60.2594 54.883L59.8687 55.2737L56.6026 50.9762L56.9464 50.6324L61.2283 52.4139L60.5407 47.7257L60.9314 47.4288Z" fill="#E7E7E7"/>
<path d="M67.9794 47.4759L65.0258 49.1168C65.1303 49.2854 65.2677 49.4314 65.4297 49.546C65.5918 49.6605 65.7751 49.7413 65.969 49.7836C66.1629 49.8259 66.3633 49.8287 66.5583 49.792C66.7533 49.7553 66.939 49.6798 67.1042 49.5699C67.3117 49.4683 67.4938 49.3216 67.6371 49.1404C67.7804 48.9592 67.8814 48.7483 67.9325 48.523L68.3701 48.6792C68.2399 49.0672 68.0045 49.4113 67.6902 49.6734C67.3759 49.9355 66.9949 50.1052 66.5898 50.1635C66.1848 50.2218 65.7715 50.1666 65.396 50.0038C65.0206 49.8411 64.6976 49.5773 64.4632 49.2418C64.3187 49.015 64.2228 48.7606 64.1816 48.4948C64.1404 48.2291 64.1547 47.9576 64.2238 47.6976C64.2928 47.4377 64.415 47.1949 64.5826 46.9846C64.7503 46.7743 64.9597 46.601 65.1977 46.4757C65.4287 46.3396 65.6855 46.2532 65.9518 46.2222C66.2182 46.1912 66.4881 46.2162 66.7441 46.2957C67.0002 46.3752 67.2368 46.5073 67.4387 46.6837C67.6407 46.86 67.8036 47.0766 67.9168 47.3196L67.9794 47.4759ZM64.8227 48.7573L67.3387 47.3665C67.1457 47.05 66.8361 46.8219 66.4766 46.7313C66.1171 46.6407 65.7364 46.6948 65.4165 46.8821C65.2452 46.9652 65.0922 47.0814 64.9663 47.2242C64.8403 47.367 64.744 47.5334 64.6829 47.7137C64.6219 47.894 64.5973 48.0846 64.6105 48.2745C64.6238 48.4644 64.6746 48.6498 64.7601 48.8198L64.8227 48.7573Z" fill="#E7E7E7"/>
<path d="M75.5584 43.991L76.4179 46.257L75.9178 46.4445L75.0271 44.2098C74.9971 44.0457 74.9303 43.8906 74.8317 43.756C74.7332 43.6214 74.6055 43.5109 74.4581 43.4327C74.3108 43.3546 74.1476 43.3107 73.9809 43.3046C73.8142 43.2984 73.6483 43.3301 73.4956 43.3972C73.3128 43.4526 73.1444 43.5475 73.0023 43.6753C72.8602 43.803 72.7479 43.9604 72.6733 44.1363C72.5988 44.3122 72.5638 44.5024 72.5709 44.6933C72.578 44.8842 72.6269 45.0713 72.7143 45.2412L73.4644 47.2415L72.9487 47.4446L72.1517 45.2725C72.119 45.1065 72.0494 44.95 71.948 44.8145C71.8465 44.6791 71.7159 44.5682 71.5658 44.4902C71.4157 44.4121 71.2499 44.3689 71.0808 44.3637C70.9117 44.3584 70.7436 44.3912 70.589 44.4598C70.4088 44.5187 70.2438 44.6161 70.1051 44.7453C69.9665 44.8745 69.8577 45.0324 69.7863 45.2079C69.7149 45.3835 69.6826 45.5724 69.6917 45.7617C69.7008 45.951 69.751 46.136 69.8388 46.3039L70.5733 48.3198L70.0576 48.4917L68.6512 44.6786L69.1356 44.5067L69.4013 45.2099C69.4711 44.922 69.6188 44.6589 69.8283 44.4494C70.0378 44.2399 70.301 44.0921 70.589 44.0223C70.8635 43.8965 71.1702 43.8591 71.4669 43.915C71.7636 43.971 72.0356 44.1177 72.2454 44.3348C72.302 44.0196 72.4443 43.7261 72.6565 43.4863C72.8687 43.2465 73.1428 43.0697 73.4487 42.9752C73.6521 42.8828 73.8732 42.8362 74.0966 42.8387C74.3199 42.8411 74.54 42.8927 74.7413 42.9896C74.9425 43.0864 75.12 43.2264 75.2612 43.3994C75.4024 43.5725 75.5039 43.7744 75.5584 43.991Z" fill="#E7E7E7"/>
<path d="M77.3244 43.8504C77.2427 43.4473 77.2825 43.0289 77.4387 42.6484C77.5949 42.2679 77.8607 41.9423 78.2021 41.7129C78.5436 41.4835 78.9455 41.3607 79.3569 41.36C79.7682 41.3593 80.1705 41.4808 80.5128 41.7089C80.8551 41.9371 81.1219 42.2617 81.2794 42.6417C81.437 43.0217 81.4782 43.44 81.3979 43.8434C81.3175 44.2468 81.1191 44.6173 80.8279 44.9079C80.5368 45.1984 80.1659 45.3961 79.7623 45.4757C79.495 45.5377 79.2177 45.5443 78.9477 45.4952C78.6776 45.4461 78.4205 45.3422 78.1921 45.1899C77.9637 45.0377 77.769 44.8403 77.6197 44.6099C77.4705 44.3796 77.37 44.1211 77.3244 43.8504ZM80.8406 43.1472C80.8239 42.9322 80.7618 42.7232 80.6584 42.534C80.5549 42.3448 80.4125 42.1796 80.2406 42.0494C80.0686 41.9193 79.8711 41.8272 79.6609 41.779C79.4507 41.7308 79.2327 41.7278 79.0212 41.7701C78.8098 41.8124 78.6097 41.899 78.4342 42.0243C78.2587 42.1496 78.1118 42.3107 78.0031 42.497C77.8945 42.6832 77.8265 42.8905 77.8038 43.1049C77.7811 43.3193 77.8042 43.5361 77.8714 43.741C77.8951 43.9513 77.9629 44.1542 78.0704 44.3365C78.1779 44.5188 78.3227 44.6763 78.4953 44.7988C78.6679 44.9212 78.8644 45.0058 79.072 45.0471C79.2796 45.0883 79.4935 45.0853 79.6998 45.0381C79.9175 45.0091 80.1261 44.932 80.3103 44.8125C80.4945 44.6929 80.6499 44.5339 80.765 44.347C80.8802 44.16 80.9524 43.9496 80.9763 43.7313C81.0002 43.513 80.9752 43.2921 80.9032 43.0847L80.8406 43.1472Z" fill="#E7E7E7"/>
<path d="M84.4191 40.6315L84.4659 41.1784C84.2723 41.1908 84.0837 41.2454 83.9134 41.3385C83.7432 41.4317 83.5955 41.5611 83.4807 41.7176C83.366 41.8741 83.287 42.0538 83.2493 42.2442C83.2116 42.4345 83.2161 42.6309 83.2626 42.8193L83.4814 44.8821L82.9345 44.929L82.4969 40.8972L83.0282 40.8346L83.1064 41.6316C83.2107 41.3594 83.3887 41.1217 83.6206 40.945C83.8524 40.7684 84.129 40.6598 84.4191 40.6315Z" fill="#E7E7E7"/>
<path d="M88.6855 42.0533L88.7481 44.585L88.2167 44.585L88.2011 43.9443C88.0572 44.1762 87.8537 44.3653 87.6118 44.4917C87.3699 44.6182 87.0985 44.6773 86.8259 44.6631C85.9039 44.6787 85.3256 44.2256 85.31 43.5223C85.2944 42.8191 85.6851 42.3659 86.8571 42.319L88.1386 42.2878L88.1386 42.0377C88.1572 41.8876 88.1414 41.7351 88.0922 41.592C88.043 41.4489 87.9619 41.3189 87.8549 41.2119C87.7479 41.1049 87.6179 41.0237 87.4748 40.9746C87.3316 40.9254 87.1792 40.9095 87.029 40.9282C86.5378 40.9302 86.0646 41.1138 85.7007 41.4439L85.435 41.022C85.9022 40.6517 86.4798 40.4482 87.0759 40.4437C87.294 40.4154 87.5157 40.4376 87.7239 40.5084C87.9321 40.5793 88.1213 40.697 88.2768 40.8525C88.4323 41.008 88.55 41.1972 88.6209 41.4054C88.6917 41.6136 88.7139 41.8352 88.6855 42.0533ZM88.1542 43.366V42.7097L86.8727 42.741C86.0758 42.7566 85.8414 43.0848 85.8414 43.4911C85.8414 43.8974 86.2477 44.2412 86.8884 44.2256C87.1645 44.2411 87.438 44.1653 87.6668 44.01C87.8955 43.8547 88.0668 43.6283 88.1542 43.366Z" fill="#E7E7E7"/>
<path d="M94.5456 42.9129C94.5338 43.1848 94.4662 43.4514 94.3472 43.6962C94.2282 43.941 94.0602 44.1587 93.8537 44.336C93.6471 44.5132 93.4064 44.6462 93.1464 44.7267C92.8864 44.8071 92.6126 44.8334 92.3421 44.8038C92.0285 44.79 91.7243 44.693 91.4607 44.5227C91.197 44.3524 90.9834 44.115 90.8419 43.8349L90.795 44.6318L90.2637 44.6006L90.7637 38.8497L91.3107 38.8966L91.1075 41.3189C91.2989 41.0821 91.5463 40.8966 91.8274 40.7793C92.1084 40.662 92.4142 40.6165 92.7172 40.6469C92.9897 40.6662 93.2552 40.7414 93.4973 40.8679C93.7395 40.9943 93.953 41.1693 94.1245 41.3819C94.2961 41.5945 94.422 41.8402 94.4944 42.1036C94.5669 42.367 94.5843 42.6425 94.5456 42.9129ZM93.9986 42.866C94.029 42.6592 94.0158 42.4483 93.9601 42.2469C93.9043 42.0454 93.8072 41.8578 93.6748 41.696C93.5425 41.5342 93.3778 41.4018 93.1914 41.3073C93.0049 41.2128 92.8009 41.1582 92.5921 41.147C92.1976 41.1552 91.8203 41.3097 91.5333 41.5804C91.2463 41.8512 91.0701 42.2189 91.039 42.6122C91.0078 43.0056 91.1239 43.3965 91.3647 43.709C91.6055 44.0216 91.9538 44.2335 92.3421 44.3037C92.546 44.3217 92.7514 44.2984 92.9461 44.2352C93.1408 44.1721 93.3208 44.0705 93.4754 43.9363C93.63 43.8022 93.756 43.6382 93.8459 43.4544C93.9358 43.2705 93.9877 43.0704 93.9986 42.866Z" fill="#E7E7E7"/>
<path d="M96.2493 39.49L96.7963 39.5682L95.843 45.2409L95.2961 45.1315L96.2493 39.49Z" fill="#E7E7E7"/>
<path d="M101.031 44.46L97.7024 43.663C97.6577 43.8694 97.657 44.0829 97.7003 44.2896C97.7437 44.4962 97.8301 44.6915 97.9539 44.8625C98.0778 45.0336 98.2363 45.1766 98.4192 45.2822C98.602 45.3879 98.805 45.4539 99.0151 45.4758C99.2396 45.5412 99.4762 45.5541 99.7065 45.5135C99.9369 45.4728 100.155 45.3797 100.343 45.2414L100.562 45.679C100.317 45.843 100.04 45.9529 99.7486 46.0014C99.4576 46.0499 99.1595 46.0359 98.8744 45.9603C98.5979 45.9093 98.335 45.8016 98.1023 45.6439C97.8695 45.4862 97.672 45.2819 97.5222 45.044C97.3724 44.8061 97.2736 44.5397 97.232 44.2617C97.1903 43.9836 97.2068 43.6999 97.2804 43.4286C97.3324 43.1651 97.4373 42.9149 97.5886 42.6931C97.74 42.4712 97.9348 42.2823 98.1611 42.1377C98.3875 41.9932 98.6407 41.8959 98.9057 41.8519C99.1706 41.8079 99.4417 41.8179 99.7026 41.8815C99.9646 41.9397 100.212 42.0514 100.428 42.2098C100.645 42.3681 100.827 42.5695 100.962 42.8015C101.097 43.0334 101.182 43.2908 101.213 43.5574C101.244 43.824 101.219 44.094 101.14 44.3506L101.031 44.46ZM97.8118 43.2724L100.562 43.9912C100.649 43.6182 100.584 43.2259 100.382 42.9006C100.18 42.5753 99.8569 42.3436 99.4839 42.2566C99.1109 42.1696 98.7185 42.2342 98.3932 42.4364C98.0679 42.6387 97.8363 42.9619 97.7493 43.3349L97.8118 43.2724Z" fill="#E7E7E7"/>
<path d="M133.036 80.7777C132.145 80.9809 131.473 80.4339 131.192 79.1212L130.567 76.6209L135.849 75.4332L136.364 77.6991C136.63 78.8712 136.286 79.6525 135.411 79.8713C135.155 79.942 134.883 79.9285 134.636 79.8328C134.388 79.7371 134.178 79.5643 134.036 79.34C134.077 79.661 133.998 79.986 133.813 80.2518C133.628 80.5175 133.351 80.705 133.036 80.7777ZM132.958 80.1995C133.645 80.0433 133.833 79.4807 133.63 78.5587L133.192 76.6833L131.223 77.1522L131.645 79.0118C131.848 79.9339 132.27 80.3558 133.036 80.2777L132.958 80.1995ZM135.567 76.152L133.661 76.5896L134.051 78.2617C134.239 79.1056 134.661 79.5275 135.239 79.4494C135.817 79.3713 136.021 78.668 135.895 77.8867L135.567 76.152Z" fill="#E7E7E7"/>
<path d="M134.004 85.716L133.692 82.278C133.483 82.3032 133.282 82.3712 133.101 82.4778C132.92 82.5845 132.763 82.7273 132.639 82.8976C132.516 83.0678 132.43 83.2617 132.385 83.467C132.34 83.6723 132.338 83.8847 132.379 84.0908C132.399 84.3239 132.467 84.5502 132.58 84.7549C132.693 84.9596 132.849 85.138 133.036 85.2785L132.754 85.5598C132.449 85.2866 132.225 84.9339 132.109 84.541C131.992 84.1482 131.987 83.7307 132.094 83.3351C132.201 82.9395 132.416 82.5814 132.715 82.3009C133.013 82.0204 133.384 81.8286 133.786 81.7467C134.058 81.6913 134.338 81.6935 134.609 81.7531C134.881 81.8127 135.136 81.9284 135.36 82.0928C135.584 82.2571 135.771 82.4665 135.909 82.7074C136.046 82.9483 136.132 83.2155 136.161 83.4916C136.189 83.7678 136.16 84.0468 136.074 84.3108C135.988 84.5748 135.848 84.818 135.662 85.0245C135.477 85.2311 135.25 85.3965 134.997 85.5103C134.744 85.624 134.47 85.6834 134.192 85.6848L134.004 85.716ZM134.114 82.3249L134.38 85.1847C134.745 85.1269 135.074 84.9307 135.298 84.6367C135.522 84.3427 135.624 83.9737 135.583 83.6063C135.554 83.243 135.385 82.9052 135.11 82.6656C134.835 82.4261 134.478 82.3037 134.114 82.3249Z" fill="#E7E7E7"/>
<path d="M134.536 88.9357L137.63 89.1231L137.599 89.6857L134.582 89.5764C133.301 89.4826 132.676 90.0452 132.613 91.1078C132.551 92.1705 133.082 92.7956 134.379 92.8737L137.458 93.0769L137.411 93.6239L134.317 93.4363C134.025 93.4178 133.741 93.3422 133.478 93.2136C133.216 93.085 132.982 92.9061 132.789 92.6869C132.596 92.4678 132.448 92.2128 132.354 91.9365C132.259 91.6602 132.22 91.368 132.238 91.0766C132.257 90.7852 132.333 90.5003 132.461 90.2381C132.59 89.9759 132.769 89.7416 132.988 89.5486C133.207 89.3556 133.462 89.2077 133.738 89.1133C134.015 89.0188 134.307 88.9797 134.598 88.9982L134.536 88.9357Z" fill="#E7E7E7"/>
<path d="M133.301 99.0466L131.004 98.5934L131.098 98.062L133.379 98.4996C133.54 98.5588 133.712 98.58 133.882 98.5615C134.052 98.543 134.215 98.4852 134.359 98.3928C134.503 98.3004 134.623 98.1758 134.711 98.0289C134.798 97.8821 134.851 97.7168 134.864 97.5463C134.918 97.3584 134.93 97.1609 134.899 96.9679C134.867 96.7748 134.794 96.5911 134.683 96.4298C134.573 96.2685 134.428 96.1337 134.259 96.0349C134.091 95.9362 133.902 95.8759 133.707 95.8586L131.613 95.4522L131.723 94.9365L135.661 95.7492L135.551 96.2649L134.817 96.1243C135.039 96.3349 135.201 96.6008 135.286 96.8947C135.371 97.1885 135.376 97.4997 135.301 97.7963C135.265 98.0167 135.183 98.2269 135.059 98.4128C134.936 98.5987 134.774 98.7561 134.584 98.8744C134.395 98.9928 134.182 99.0693 133.961 99.099C133.74 99.1287 133.515 99.1108 133.301 99.0466Z" fill="#E7E7E7"/>
<path d="M134.551 101.046L134.395 101.578L130.473 100.468L130.613 99.9525L134.551 101.046ZM135.833 101.265C135.928 101.303 136.007 101.375 136.053 101.468C136.099 101.56 136.11 101.666 136.083 101.765C136.055 101.863 135.991 101.947 135.904 101.999C135.817 102.052 135.713 102.068 135.614 102.047C135.51 102.018 135.422 101.949 135.37 101.855C135.317 101.761 135.304 101.65 135.333 101.547C135.362 101.443 135.431 101.355 135.524 101.302C135.618 101.25 135.729 101.236 135.833 101.265Z" fill="#E7E7E7"/>
<path d="M132.66 106.625L127.394 104.672L127.582 104.141L129.707 104.922C129.522 104.68 129.404 104.394 129.366 104.092C129.327 103.79 129.37 103.483 129.488 103.203C129.715 102.741 130.105 102.38 130.583 102.189C131.061 101.998 131.593 101.992 132.076 102.171C132.558 102.35 132.957 102.701 133.195 103.158C133.433 103.614 133.493 104.143 133.364 104.641C133.267 104.937 133.093 105.202 132.859 105.408C132.626 105.614 132.341 105.754 132.035 105.813L132.785 106.094L132.66 106.625ZM130.941 105.438C131.13 105.517 131.332 105.558 131.536 105.557C131.741 105.556 131.943 105.513 132.13 105.431C132.317 105.349 132.486 105.23 132.625 105.08C132.765 104.931 132.873 104.755 132.942 104.563C133.037 104.182 132.989 103.779 132.806 103.432C132.622 103.085 132.317 102.818 131.949 102.682C131.58 102.546 131.175 102.551 130.81 102.697C130.445 102.842 130.147 103.117 129.973 103.469C129.9 103.661 129.867 103.866 129.877 104.072C129.887 104.277 129.939 104.479 130.03 104.663C130.121 104.848 130.249 105.012 130.405 105.145C130.562 105.278 130.745 105.378 130.941 105.438Z" fill="#E7E7E7"/>
<path d="M130.129 111.877L126.519 110.017L126.737 109.548L127.409 109.876C127.255 109.629 127.17 109.344 127.165 109.053C127.159 108.761 127.233 108.473 127.378 108.22C127.464 107.996 127.599 107.795 127.773 107.631C127.948 107.467 128.157 107.344 128.385 107.272C128.613 107.2 128.855 107.18 129.092 107.214C129.329 107.249 129.555 107.336 129.754 107.47L131.816 108.532L131.582 109.017L129.519 107.954C129.379 107.853 129.218 107.784 129.047 107.753C128.877 107.722 128.702 107.731 128.535 107.777C128.368 107.824 128.214 107.908 128.084 108.022C127.954 108.137 127.852 108.279 127.784 108.439C127.688 108.606 127.629 108.792 127.612 108.984C127.595 109.177 127.62 109.37 127.685 109.552C127.751 109.733 127.855 109.898 127.991 110.035C128.127 110.172 128.291 110.278 128.472 110.345L130.379 111.314L130.129 111.877Z" fill="#E7E7E7"/>
<path d="M125.3 115.33L127.191 112.502C126.842 112.3 126.428 112.244 126.039 112.347C125.649 112.449 125.316 112.701 125.112 113.049C124.978 113.242 124.885 113.462 124.842 113.694C124.799 113.925 124.806 114.164 124.862 114.392L124.409 114.439C124.331 114.156 124.316 113.859 124.368 113.57C124.419 113.28 124.535 113.006 124.706 112.767C124.848 112.524 125.038 112.314 125.266 112.148C125.493 111.983 125.752 111.866 126.027 111.806C126.301 111.746 126.585 111.743 126.861 111.798C127.137 111.854 127.398 111.965 127.628 112.127C127.859 112.266 128.059 112.45 128.217 112.669C128.374 112.887 128.485 113.136 128.544 113.399C128.602 113.662 128.607 113.934 128.557 114.199C128.507 114.464 128.404 114.716 128.253 114.939C128.109 115.165 127.919 115.359 127.695 115.508C127.472 115.657 127.221 115.758 126.956 115.805C126.692 115.852 126.421 115.844 126.16 115.781C125.899 115.718 125.654 115.602 125.441 115.439L125.3 115.33ZM127.519 112.736L125.925 115.143C126.244 115.354 126.634 115.43 127.009 115.354C127.384 115.278 127.714 115.055 127.925 114.736C128.137 114.417 128.213 114.027 128.136 113.652C128.06 113.277 127.838 112.947 127.519 112.736Z" fill="#E7E7E7"/>
<path d="M119.284 119.377L120.362 119.33C120.327 118.995 120.369 118.655 120.486 118.338C120.602 118.021 120.79 117.735 121.034 117.502C121.784 116.752 122.659 116.533 123.269 117.08C123.878 117.627 123.831 118.112 123.597 119.221C124.363 119.205 124.706 119.299 125.003 119.596C125.3 119.893 125.503 120.753 124.941 121.378C124.855 121.509 124.741 121.621 124.607 121.704C124.474 121.787 124.324 121.84 124.167 121.86C124.011 121.879 123.853 121.864 123.703 121.816C123.553 121.768 123.416 121.688 123.3 121.581C122.925 121.206 122.847 120.721 123.05 119.737L120.925 119.799C121.037 120.154 121.217 120.483 121.456 120.768L121.034 121.003C120.772 120.642 120.571 120.241 120.44 119.815L119.331 119.862L119.284 119.377ZM120.815 119.315L123.159 119.252C123.362 118.268 123.3 117.862 122.94 117.533C122.581 117.205 121.878 117.252 121.346 117.846C121.158 118.038 121.013 118.269 120.921 118.523C120.829 118.776 120.793 119.046 120.815 119.315ZM124.628 120.002C124.409 119.784 124.159 119.721 123.456 119.737C123.253 120.628 123.284 121.003 123.581 121.268C123.878 121.534 124.269 121.487 124.597 121.128C124.925 120.768 124.988 120.268 124.628 119.94L124.628 120.002Z" fill="#E7E7E7"/>
<path d="M115.861 129.301L112.595 125.004L112.985 124.613L115.611 128.051L115.095 123.878L115.283 123.691L119.174 125.3L116.58 121.862L116.955 121.487L120.221 125.785L119.893 126.113L115.58 124.332L116.158 128.942L115.861 129.301Z" fill="#E7E7E7"/>
<path d="M108.813 129.285L111.782 127.629C111.678 127.46 111.54 127.314 111.378 127.199C111.216 127.085 111.033 127.004 110.839 126.962C110.645 126.92 110.445 126.917 110.25 126.953C110.055 126.99 109.869 127.066 109.704 127.175C109.493 127.279 109.309 127.429 109.163 127.612C109.017 127.796 108.913 128.01 108.86 128.238L108.422 128.082C108.488 127.793 108.616 127.522 108.797 127.287C108.978 127.053 109.207 126.86 109.469 126.722C109.707 126.574 109.972 126.477 110.249 126.436C110.525 126.396 110.807 126.413 111.077 126.486C111.347 126.559 111.599 126.688 111.817 126.863C112.035 127.038 112.215 127.256 112.345 127.504C112.508 127.731 112.621 127.991 112.677 128.266C112.732 128.54 112.729 128.824 112.668 129.097C112.607 129.37 112.488 129.628 112.32 129.852C112.153 130.077 111.939 130.263 111.695 130.399C111.45 130.536 111.179 130.619 110.9 130.643C110.621 130.667 110.339 130.632 110.075 130.54C109.81 130.448 109.568 130.302 109.364 130.11C109.16 129.917 108.999 129.684 108.891 129.426L108.813 129.285ZM111.985 127.988L109.469 129.379C109.561 129.544 109.683 129.69 109.831 129.807C109.979 129.925 110.148 130.012 110.329 130.065C110.511 130.117 110.701 130.133 110.888 130.112C111.076 130.091 111.257 130.033 111.423 129.941C111.588 129.85 111.733 129.727 111.851 129.58C111.969 129.432 112.056 129.263 112.108 129.081C112.161 128.9 112.177 128.71 112.156 128.522C112.134 128.335 112.077 128.153 111.985 127.988Z" fill="#E7E7E7"/>
<path d="M101.187 132.848L100.328 130.582L100.843 130.379L101.718 132.629C101.748 132.793 101.815 132.948 101.914 133.083C102.012 133.218 102.14 133.328 102.287 133.406C102.435 133.484 102.598 133.528 102.764 133.534C102.931 133.541 103.097 133.509 103.25 133.442C103.433 133.386 103.601 133.291 103.743 133.164C103.885 133.036 103.998 132.879 104.072 132.703C104.147 132.527 104.182 132.337 104.175 132.146C104.167 131.955 104.119 131.768 104.031 131.598L103.281 129.597L103.797 129.394L104.594 131.566C104.626 131.732 104.696 131.889 104.798 132.024C104.899 132.16 105.03 132.271 105.18 132.349C105.33 132.427 105.496 132.47 105.665 132.475C105.834 132.481 106.002 132.448 106.157 132.379C106.337 132.32 106.502 132.223 106.64 132.094C106.779 131.964 106.888 131.807 106.959 131.631C107.031 131.455 107.063 131.266 107.054 131.077C107.045 130.888 106.995 130.703 106.907 130.535L106.172 128.519L106.688 128.347L108.094 132.16L107.61 132.332L107.344 131.629C107.274 131.917 107.127 132.18 106.917 132.39C106.708 132.599 106.444 132.747 106.157 132.817C105.882 132.942 105.575 132.98 105.279 132.924C104.982 132.868 104.71 132.721 104.5 132.504C104.443 132.819 104.301 133.113 104.089 133.353C103.877 133.592 103.603 133.769 103.297 133.864C103.093 133.952 102.872 133.996 102.65 133.991C102.428 133.987 102.21 133.935 102.009 133.839C101.809 133.742 101.632 133.604 101.49 133.433C101.348 133.262 101.245 133.062 101.187 132.848Z" fill="#E7E7E7"/>
<path d="M99.4836 132.895C99.5598 133.293 99.5168 133.705 99.3599 134.078C99.203 134.451 98.9393 134.77 98.6018 134.994C98.2643 135.218 97.8681 135.338 97.463 135.337C97.0579 135.337 96.6619 135.217 96.3249 134.992C95.9878 134.767 95.7247 134.448 95.5685 134.074C95.4124 133.701 95.3701 133.289 95.4471 132.891C95.5241 132.494 95.717 132.127 96.0014 131.839C96.2858 131.55 96.6491 131.352 97.0457 131.27C97.3133 131.204 97.5915 131.195 97.8628 131.243C98.134 131.291 98.3925 131.394 98.6217 131.547C98.8508 131.7 99.0458 131.898 99.1942 132.131C99.3426 132.363 99.4411 132.623 99.4836 132.895ZM95.983 133.614C96.0638 133.891 96.2227 134.139 96.4407 134.328C96.6586 134.518 96.9265 134.64 97.2122 134.681C97.498 134.722 97.7895 134.68 98.0519 134.56C98.3143 134.439 98.5365 134.246 98.692 134.003C98.8475 133.76 98.9297 133.477 98.9287 133.188C98.9277 132.9 98.8436 132.617 98.6864 132.375C98.5293 132.133 98.3057 131.941 98.0425 131.823C97.7792 131.705 97.4874 131.664 97.2019 131.707C96.9884 131.736 96.7836 131.811 96.6019 131.926C96.4201 132.042 96.2658 132.196 96.1497 132.378C96.0337 132.559 95.9586 132.764 95.9298 132.977C95.901 133.191 95.9192 133.408 95.983 133.614Z" fill="#E7E7E7"/>
<path d="M92.4202 136.114L92.3733 135.599C92.5674 135.584 92.7559 135.528 92.9256 135.433C93.0953 135.338 93.242 135.207 93.3554 135.049C93.4687 134.891 93.5459 134.709 93.5815 134.518C93.617 134.327 93.61 134.13 93.561 133.942L93.3266 131.895L93.8736 131.817L94.3267 135.864L93.7954 135.927L93.7173 135.13C93.6185 135.401 93.4437 135.638 93.2137 135.813C92.9836 135.987 92.7082 136.092 92.4202 136.114Z" fill="#E7E7E7"/>
<path d="M88.138 134.708L88.0756 132.176L88.6069 132.176L88.6225 132.817C88.7664 132.585 88.9699 132.396 89.2118 132.269C89.4537 132.143 89.7251 132.084 89.9977 132.098C90.9353 132.067 91.4979 132.536 91.5135 133.239C91.5292 133.942 91.1541 134.411 89.982 134.426L88.685 134.473L88.685 134.723C88.6677 134.875 88.6849 135.029 88.7353 135.174C88.7857 135.318 88.8681 135.449 88.9762 135.557C89.0844 135.665 89.2155 135.748 89.3599 135.798C89.5043 135.849 89.6583 135.866 89.8102 135.849C90.2978 135.828 90.7648 135.647 91.1385 135.333L91.4667 135.661C91.0102 136.054 90.428 136.27 89.8258 136.27C89.6069 136.306 89.3828 136.291 89.1704 136.227C88.9581 136.163 88.7632 136.052 88.6005 135.901C88.4378 135.75 88.3115 135.565 88.2314 135.358C88.1513 135.151 88.1193 134.929 88.138 134.708ZM88.6694 133.395L88.685 134.067L89.9508 134.02C90.7478 134.005 90.9978 133.692 90.9822 133.27C90.9666 132.848 90.5759 132.52 89.9352 132.536C89.6545 132.517 89.376 132.594 89.1437 132.752C88.9115 132.911 88.739 133.143 88.6537 133.411L88.6694 133.395Z" fill="#E7E7E7"/>
<path d="M82.2935 133.864C82.2992 133.593 82.3615 133.326 82.4764 133.08C82.5914 132.835 82.7565 132.616 82.961 132.438C83.1656 132.26 83.4051 132.126 83.6643 132.046C83.9234 131.966 84.1964 131.941 84.4658 131.973C84.7793 131.987 85.0835 132.084 85.3472 132.254C85.6108 132.425 85.8244 132.662 85.966 132.942L86.0284 132.129L86.5598 132.192L86.0441 137.927L85.4972 137.88L85.7003 135.458C85.5089 135.695 85.2615 135.88 84.9805 135.998C84.6995 136.115 84.3937 136.16 84.0907 136.13C83.8197 136.11 83.5558 136.034 83.3157 135.907C83.0756 135.779 82.8645 135.604 82.6957 135.391C82.5268 135.178 82.4039 134.932 82.3347 134.67C82.2655 134.407 82.2515 134.133 82.2935 133.864ZM82.8405 133.911C82.8355 134.203 82.9154 134.49 83.0707 134.737C83.226 134.984 83.4498 135.18 83.7149 135.302C83.9799 135.424 84.2747 135.466 84.5633 135.424C84.852 135.381 85.1219 135.255 85.3402 135.061C85.5585 134.868 85.7157 134.615 85.7927 134.333C85.8697 134.052 85.863 133.754 85.7736 133.476C85.6842 133.199 85.5159 132.953 85.2892 132.769C85.0625 132.586 84.7872 132.472 84.497 132.442C84.2893 132.417 84.0787 132.437 83.8791 132.499C83.6794 132.562 83.4953 132.666 83.3388 132.804C83.1823 132.943 83.057 133.114 82.9711 133.304C82.8852 133.495 82.8407 133.702 82.8405 133.911Z" fill="#E7E7E7"/>
<path d="M80.6056 137.302L80.0586 137.224L80.9807 131.551L81.512 131.645L80.6056 137.302Z" fill="#E7E7E7"/>
<path d="M75.7142 132.317L79.0428 133.114C79.0865 132.908 79.087 132.695 79.0443 132.489C79.0016 132.283 78.9166 132.088 78.7948 131.916C78.6729 131.744 78.5167 131.599 78.3362 131.491C78.1557 131.383 77.9546 131.313 77.7457 131.286C77.5208 131.224 77.2849 131.212 77.0551 131.253C76.8253 131.293 76.6075 131.385 76.4174 131.52L76.183 131.098C76.5436 130.892 76.9551 130.792 77.3701 130.809C77.7852 130.826 78.187 130.959 78.5295 131.194C78.8721 131.429 79.1416 131.756 79.307 132.137C79.4724 132.518 79.5271 132.938 79.4648 133.349C79.4157 133.614 79.3126 133.866 79.1621 134.089C79.0115 134.313 78.8166 134.503 78.5895 134.648C78.3624 134.793 78.1079 134.89 77.8417 134.932C77.5756 134.975 77.3036 134.963 77.0425 134.896C76.7802 134.836 76.533 134.722 76.3168 134.562C76.1005 134.402 75.9198 134.199 75.7862 133.965C75.6525 133.732 75.5688 133.473 75.5402 133.206C75.5117 132.938 75.539 132.667 75.6204 132.411L75.7142 132.317ZM78.9334 133.505L76.1361 132.833C76.0644 133.197 76.139 133.575 76.3437 133.885C76.5484 134.195 76.8667 134.412 77.23 134.489C77.5864 134.584 77.966 134.534 78.2854 134.349C78.6048 134.165 78.8378 133.861 78.9334 133.505Z" fill="#E7E7E7"/>
<path d="M54.5707 122.206C54.9419 122.577 55.5436 122.577 55.9147 122.206C56.2858 121.835 56.2858 121.233 55.9147 120.862C55.5436 120.491 54.9419 120.491 54.5707 120.862C54.1996 121.233 54.1996 121.835 54.5707 122.206Z" fill="#D5D5D5"/>
<path d="M120.862 55.9149C121.233 56.286 121.835 56.286 122.206 55.9149C122.577 55.5437 122.577 54.942 122.206 54.5709C121.835 54.1998 121.233 54.1998 120.862 54.5709C120.491 54.942 120.491 55.5437 120.862 55.9149Z" fill="#D5D5D5"/>
<path d="M104.828 85.544H98.5775C98.5761 83.8607 98.0754 82.2158 97.1388 80.8172C96.2023 79.4185 94.872 78.3291 93.3162 77.6867C91.7604 77.0443 90.0489 76.8778 88.3985 77.2083C86.748 77.5387 85.2326 78.3512 84.044 79.5431C83.254 80.3288 82.6287 81.2643 82.2048 82.2947C81.7808 83.3251 81.5667 84.4298 81.5749 85.544H75.324C75.324 83.5902 75.7088 81.6557 76.4565 79.8507C77.2041 78.0457 78.3 76.4056 79.6815 75.0242C81.063 73.6427 82.703 72.5468 84.508 71.7992C86.313 71.0515 88.2475 70.6667 90.2012 70.6667C92.1549 70.6667 94.0895 71.0515 95.8945 71.7991C97.6995 72.5468 99.3396 73.6427 100.721 75.0242C102.103 76.4057 103.198 78.0457 103.946 79.8507C104.694 81.6557 105.078 83.5902 105.078 85.544H104.828Z" stroke="#59CBE8" stroke-width="0.5" stroke-miterlimit="10"/>
<path d="M111.204 85.544H104.953C104.953 89.4897 103.386 93.2738 100.596 96.0638C97.806 98.8538 94.0219 100.421 90.0762 100.421C86.1305 100.421 82.3465 98.8538 79.5564 96.0638C76.7664 93.2738 75.199 89.4897 75.199 85.544H68.948C69.0942 91.0836 71.3975 96.3472 75.3674 100.214C79.3372 104.08 84.6597 106.244 90.2013 106.244C95.7428 106.244 101.065 104.08 105.035 100.214C109.005 96.3472 111.308 91.0836 111.454 85.544L111.204 85.544Z" stroke="#59CBE8" stroke-width="0.5" stroke-miterlimit="10"/>
<path d="M98.4057 85.5909L89.8888 85.6065L81.4031 85.5909C81.4002 87.2705 81.8958 88.9132 82.8271 90.311C83.7584 91.7089 85.0835 92.7989 86.6346 93.4431C88.1858 94.0873 89.8933 94.2568 91.5408 93.93C93.1883 93.6032 94.7018 92.7949 95.8897 91.6074C97.49 90.0129 98.3945 87.85 98.4057 85.5909V85.5909Z" stroke="#59CBE8" stroke-width="0.5" stroke-miterlimit="10"/>
</svg>
