<svg width="148" height="115" viewBox="0 0 148 115" fill="none" xmlns="http://www.w3.org/2000/svg"><style>svg .words-svg-elem-1{stroke-dashoffset:695.5864868164062px;stroke-dasharray:695.5864868164062px;-webkit-transition:stroke-dashoffset 2.5s cubic-bezier(0.47,0,0.745,0.715) 0s,fill 0.7s cubic-bezier(0.47,0,0.745,0.715) 0.8s;transition:stroke-dashoffset 2.5s cubic-bezier(0.47,0,0.745,0.715) 0s,fill 0.7s cubic-bezier(0.47,0,0.745,0.715) 0.8s}svg.active .words-svg-elem-1{stroke-dashoffset:0}svg .words-svg-elem-2{stroke-dashoffset:689.9965209960938px;stroke-dasharray:689.9965209960938px;-webkit-transition:stroke-dashoffset 2.5s cubic-bezier(0.47,0,0.745,0.715) 0.12s,fill 0.7s cubic-bezier(0.47,0,0.745,0.715) 0.9s;transition:stroke-dashoffset 2.5s cubic-bezier(0.47,0,0.745,0.715) 0.12s,fill 0.7s cubic-bezier(0.47,0,0.745,0.715) 0.9s}svg.active .words-svg-elem-2{stroke-dashoffset:0}svg .words-svg-elem-3{stroke-dashoffset:673.4376220703125px;stroke-dasharray:673.4376220703125px;fill:transparent;-webkit-transition:stroke-dashoffset 2.5s cubic-bezier(0.47,0,0.745,0.715) 0.24s,fill 0.7s cubic-bezier(0.47,0,0.745,0.715) 1s;transition:stroke-dashoffset 2.5s cubic-bezier(0.47,0,0.745,0.715) 0.24s,fill 0.7s cubic-bezier(0.47,0,0.745,0.715) 1s}svg.active .words-svg-elem-3{stroke-dashoffset:0;fill:rgb(213,213,213)}</style><path d="M2.625 113.681V114.056H3H13.1834C17.0332 114.056 20.3049 112.916 22.6197 110.888C24.939 108.857 26.2711 105.957 26.2711 102.5C26.2711 99.0433 24.939 96.1434 22.6197 94.112C20.3049 92.0845 17.0332 90.9444 13.1834 90.9444H3H2.625V91.3194V113.681ZM47.1677 109.824H34.3974V104.408H45.2708H45.6458V104.033V100.615V100.24H45.2708H34.3974V95.1764H46.7018H47.0768V94.8014V91.3194V90.9444H46.7018H29.6961H29.3211V91.3194V113.681V114.056H29.6961H47.1677H47.5427V113.681V110.199V109.824H47.1677ZM67.7217 96.5336L68.0876 96.7399L68.2513 96.353L69.6157 93.1266L69.7399 92.833L69.4701 92.6632C67.3658 91.3387 64.3632 90.625 61.5163 90.625C58.2655 90.625 55.8286 91.4049 54.1959 92.6899C52.5556 93.9807 51.7565 95.7597 51.7565 97.6764C51.7565 99.8809 52.6859 101.35 54.0737 102.362C55.4362 103.356 57.231 103.904 58.9641 104.33C59.4489 104.449 59.9269 104.558 60.3916 104.664C61.6205 104.946 62.7559 105.205 63.675 105.568C64.3016 105.815 64.7861 106.095 65.1113 106.431C65.4259 106.757 65.6007 107.143 65.6007 107.643C65.6007 108.337 65.2906 108.947 64.559 109.401C63.8069 109.868 62.5974 110.175 60.8174 110.175C58.0315 110.175 55.1518 109.176 53.3589 107.793L52.9873 107.507L52.7898 107.932L51.2922 111.159L51.1704 111.421L51.3933 111.606C53.4131 113.277 57.1369 114.375 60.8174 114.375C64.0683 114.375 66.5127 113.595 68.1532 112.315C69.801 111.029 70.6104 109.259 70.6104 107.356C70.6104 105.174 69.6818 103.719 68.2975 102.715C66.9384 101.73 65.1482 101.186 63.4193 100.762C62.9342 100.643 62.4559 100.534 61.991 100.428C60.7666 100.148 59.6353 99.8902 58.7193 99.5314C58.0939 99.2865 57.6106 99.0089 57.2863 98.6767C56.9728 98.3556 56.7996 97.9759 56.7996 97.4847C56.7996 96.7624 57.104 96.1209 57.8149 95.6439C58.544 95.1547 59.7241 94.825 61.483 94.825C63.4461 94.825 65.6792 95.3822 67.7217 96.5336ZM74.3521 113.681V114.056H74.7271H79.0534H79.4284V113.681V91.3194V90.9444H79.0534H74.7271H74.3521V91.3194V113.681ZM101.963 90.9444H101.588V91.3194V105.439L89.4029 91.0768L89.2906 90.9444H89.1169H85.5561H85.1811V91.3194V113.681V114.056H85.5561H89.8491H90.2241V113.681V99.5606L102.409 113.923L102.521 114.056H102.695H106.256H106.631V113.681V91.3194V90.9444H106.256H101.963ZM131.011 97.4678L131.268 97.714L131.527 97.4709L134.256 94.9154L134.527 94.6618L134.276 94.3883C131.993 91.8979 128.622 90.625 124.649 90.625C117.187 90.625 111.661 95.584 111.661 102.5C111.661 109.415 117.186 114.375 124.582 114.375C127.94 114.375 131.421 113.4 133.93 111.453L134.075 111.341V111.157V102.244V101.869H133.7H129.607H129.232V102.244V108.984C127.855 109.701 126.358 109.983 124.815 109.983C120.074 109.983 116.77 106.807 116.77 102.5C116.77 100.283 117.604 98.4198 119.017 97.1088C120.432 95.7958 122.451 95.0167 124.848 95.0167C127.251 95.0167 129.254 95.7806 131.011 97.4678ZM7.7013 109.792V95.2083H12.9838C15.5077 95.2083 17.5499 95.9454 18.9564 97.2087C20.3589 98.4684 21.1615 100.28 21.1615 102.5C21.1615 104.72 20.3589 106.532 18.9564 107.791C17.5499 109.055 15.5077 109.792 12.9838 109.792H7.7013Z" stroke="#E7E7E7" stroke-width="0.75" class="words-svg-elem-1"></path><path d="M8.48382 25.5192H15.3759V6.87225H22.8249V1.48077H1V6.87225H8.48382V25.5192ZM42.4085 25.5192H49.579L38.7884 1.48077H32.0007L21.2449 25.5192H28.2762L30.1907 20.8489H40.494L42.4085 25.5192ZM32.2096 15.8352L35.3424 8.14286L38.4751 15.8352H32.2096ZM66.605 25.5192H73.9844L68.7283 17.9643C71.7566 16.522 73.497 13.9121 73.497 10.375C73.497 4.8805 69.32 1.48077 62.6716 1.48077H51.5329V25.5192H58.425V19.1319H62.1843L66.605 25.5192ZM66.5353 10.375C66.5353 12.5728 65.1082 13.8777 62.2539 13.8777H58.425V6.83791H62.2539C65.1082 6.83791 66.5353 8.14286 66.5353 10.375ZM93.6245 19.5783C92.4062 20.1277 91.1879 20.3681 89.9 20.3681C85.7926 20.3681 83.0079 17.5522 83.0079 13.5C83.0079 9.34478 85.7926 6.63187 89.9696 6.63187C92.3018 6.63187 94.2162 7.49038 95.887 9.31044L100.273 5.3956C97.8711 2.54533 94.1814 1 89.6215 1C81.72 1 76.0462 6.18544 76.0462 13.5C76.0462 20.8146 81.72 26 89.4823 26C93.0327 26 96.8965 24.9354 99.716 22.9437V12.9849H93.6245V19.5783ZM110.908 20.2651V15.8695H121.733V10.7871H110.908V6.73489H123.195V1.48077H104.086V25.5192H123.648V20.2651H110.908ZM132.659 25.5192H139.551V6.87225H147V1.48077H125.175V6.87225H132.659V25.5192Z" stroke="#D5D5D5" stroke-width="0.75" class="words-svg-elem-2"></path><path d="M8.27261 63.8522V70.2106H3.375V46.7894H13.5631C16.7624 46.7894 19.3187 47.6113 21.068 49.0559C22.809 50.4936 23.7861 52.5765 23.7861 55.1851C23.7861 58.658 22.0305 61.1823 18.9945 62.4711L18.567 62.6526L18.8345 63.0323L23.8914 70.2106H18.7438L14.1494 63.6374L14.0374 63.4772H13.842H8.64761H8.27261V63.8522ZM8.27261 59.3978V59.7728H8.64761H13.2494C15.0263 59.7728 16.4231 59.3645 17.3814 58.5632C18.3499 57.7533 18.8188 56.5854 18.8188 55.1851C18.8188 53.7687 18.3506 52.5997 17.3805 51.7933C16.4216 50.9962 15.0245 50.5974 13.2494 50.5974H8.64761H8.27261V50.9724V59.3978ZM33.8734 66.0967V66.4717H34.2484H47.1558V70.2106H29.0107V46.7894H46.7026V50.5283H34.2484H33.8734V50.9033V56.1519V56.5269H34.2484H45.2035V60.1278H34.2484H33.8734V60.5028V66.0967ZM107.002 66.0276V66.4026H107.377H119.239V70.2106H102.105V46.7894H107.002V66.0276ZM131.191 50.5974H130.816V50.9724V70.2106H125.918V50.9724V50.5974H125.543H118.109V46.7894H138.625V50.5974H131.191ZM70.0216 63.5069C70.0216 65.4147 69.2267 67.1793 67.6005 68.4752C65.968 69.7762 63.4703 70.625 60.0426 70.625C56.3693 70.625 52.696 69.5802 50.5744 68.0814L52.1802 64.5534C54.2875 65.9444 57.2444 66.886 60.0775 66.886C61.7823 66.886 63.0384 66.6063 63.8808 66.0932C64.7457 65.5664 65.1588 64.8004 65.1588 63.9213C65.1588 63.2418 64.8863 62.6998 64.4313 62.2712C63.9889 61.8545 63.3791 61.5485 62.6953 61.2991C61.7955 60.971 60.6829 60.7148 59.5294 60.4492C58.9502 60.3158 58.3608 60.18 57.7827 60.0316C56.0163 59.5781 54.3082 58.9986 53.0433 58.0078C51.8009 57.0347 50.9701 55.6531 50.9701 53.5276C50.9701 51.5824 51.7585 49.8097 53.3704 48.5153C54.9891 47.2154 57.4686 46.375 60.8793 46.375C63.7753 46.375 66.713 47.0333 68.8818 48.2959L67.4199 51.8578C65.22 50.6889 62.958 50.1139 60.8445 50.1139C59.1334 50.1139 57.8889 50.4303 57.0611 50.9897C56.2148 51.5618 55.8328 52.3701 55.8328 53.2514C55.8328 53.9243 56.1071 54.4598 56.5626 54.882C57.0052 55.2922 57.6149 55.593 58.2983 55.8381C59.1952 56.1597 60.3038 56.411 61.4538 56.6717C62.036 56.8037 62.6289 56.9381 63.2102 57.0852C64.9768 57.5324 66.6851 58.1047 67.9501 59.0836C69.1923 60.045 70.0216 61.4091 70.0216 63.5069ZM95.7738 59.9503C95.7738 63.435 94.7676 66.0907 92.9612 67.8759C91.1541 69.6617 88.4967 70.625 85.0977 70.625C81.6986 70.625 79.0413 69.6617 77.2341 67.8759C75.4277 66.0907 74.4215 63.435 74.4215 59.9503V46.7894H79.3191V59.7431C79.3191 62.0861 79.8338 63.8153 80.8519 64.9603C81.8776 66.1139 83.3555 66.6098 85.1325 66.6098C86.9261 66.6098 88.4049 66.1144 89.4268 64.9597C90.4406 63.8141 90.946 62.0846 90.946 59.7431V46.7894H95.7738V59.9503Z" fill="#D5D5D5" stroke="#D5D5D5" stroke-width="0.75" class="words-svg-elem-3"></path></svg>