<svg width="148" height="115" viewBox="0 0 148 115" fill="none" xmlns="http://www.w3.org/2000/svg">
<path d="M2.62503 113.681V114.056H3.00003H13.1835C17.0333 114.056 20.3049 112.916 22.6198 110.888C24.939 108.857 26.2711 105.957 26.2711 102.5C26.2711 99.0433 24.939 96.1434 22.6198 94.112C20.3049 92.0845 17.0333 90.9444 13.1835 90.9444H3.00003H2.62503V91.3194V113.681ZM47.1677 109.824H34.3974V104.408H45.2708H45.6458V104.033V100.615V100.24H45.2708H34.3974V95.1764H46.7018H47.0768V94.8014V91.3194V90.9444H46.7018H29.6961H29.3211V91.3194V113.681V114.056H29.6961H47.1677H47.5427V113.681V110.199V109.824H47.1677ZM67.7217 96.5336L68.0877 96.7399L68.2513 96.353L69.6157 93.1266L69.7399 92.833L69.4701 92.6632C67.3659 91.3387 64.3632 90.625 61.5163 90.625C58.2655 90.625 55.8287 91.4049 54.1959 92.6899C52.5557 93.9807 51.7566 95.7597 51.7566 97.6764C51.7566 99.8809 52.686 101.35 54.0737 102.362C55.4362 103.356 57.231 103.904 58.9641 104.33C59.4489 104.449 59.927 104.558 60.3916 104.664C61.6205 104.946 62.756 105.205 63.675 105.568C64.3016 105.815 64.7861 106.095 65.1113 106.431C65.4259 106.757 65.6007 107.143 65.6007 107.643C65.6007 108.337 65.2907 108.947 64.5591 109.401C63.807 109.868 62.5975 110.175 60.8174 110.175C58.0316 110.175 55.1519 109.176 53.359 107.793L52.9874 107.507L52.7898 107.932L51.2922 111.159L51.1704 111.421L51.3933 111.606C53.4131 113.277 57.1369 114.375 60.8174 114.375C64.0683 114.375 66.5127 113.595 68.1532 112.315C69.8011 111.029 70.6105 109.259 70.6105 107.356C70.6105 105.174 69.6819 103.719 68.2976 102.715C66.9384 101.73 65.1482 101.186 63.4193 100.762C62.9343 100.643 62.456 100.534 61.991 100.428C60.7667 100.148 59.6353 99.8902 58.7193 99.5314C58.0939 99.2865 57.6106 99.0089 57.2864 98.6767C56.9729 98.3556 56.7996 97.9759 56.7996 97.4847C56.7996 96.7624 57.104 96.1209 57.8149 95.6439C58.544 95.1547 59.7241 94.825 61.483 94.825C63.4461 94.825 65.6792 95.3822 67.7217 96.5336ZM75.2987 113.681V114.056H75.6737H80H80.375V113.681V91.3194V90.9444H80H75.6737H75.2987V91.3194V113.681ZM129.207 90.9444H128.832V91.3194V105.439L116.647 91.0768L116.535 90.9444H116.361H112.8H112.425V91.3194V113.681V114.056H112.8H117.093H117.468V113.681V99.5606L129.653 113.923L129.765 114.056H129.939H133.5H133.875V113.681V91.3194V90.9444H133.5H129.207ZM104.511 97.4678L104.768 97.714L105.027 97.4709L107.756 94.9154L108.027 94.6618L107.776 94.3883C105.493 91.8979 102.122 90.625 98.1485 90.625C90.6873 90.625 85.1607 95.584 85.1607 102.5C85.1607 109.415 90.686 114.375 98.082 114.375C101.44 114.375 104.921 113.4 107.43 111.453L107.575 111.341V111.157V102.244V101.869H107.2H103.107H102.732V102.244V108.984C101.355 109.701 99.8582 109.983 98.3149 109.983C93.5739 109.983 90.2703 106.807 90.2703 102.5C90.2703 100.283 91.1043 98.4198 92.5173 97.1088C93.9325 95.7958 95.9506 95.0167 98.3482 95.0167C100.751 95.0167 102.754 95.7806 104.511 97.4678ZM7.70133 109.792V95.2083H12.9838C15.5077 95.2083 17.55 95.9454 18.9564 97.2087C20.3589 98.4684 21.1615 100.28 21.1615 102.5C21.1615 104.72 20.3589 106.532 18.9564 107.791C17.55 109.055 15.5077 109.792 12.9838 109.792H7.70133Z" stroke="#E7E7E7" stroke-width="0.75"/>
<path d="M8.48385 25.5192H15.3759V6.87225H22.8249V1.48077H1.00003V6.87225H8.48385V25.5192ZM42.4085 25.5192H49.579L38.7884 1.48077H32.0008L21.245 25.5192H28.2763L30.1907 20.8489H40.494L42.4085 25.5192ZM32.2096 15.8352L35.3424 8.14286L38.4751 15.8352H32.2096ZM66.605 25.5192H73.9844L68.7283 17.9643C71.7567 16.522 73.4971 13.9121 73.4971 10.375C73.4971 4.8805 69.3201 1.48077 62.6716 1.48077H51.5329V25.5192H58.425V19.1319H62.1843L66.605 25.5192ZM66.5354 10.375C66.5354 12.5728 65.1082 13.8777 62.2539 13.8777H58.425V6.83791H62.2539C65.1082 6.83791 66.5354 8.14286 66.5354 10.375ZM93.6245 19.5783C92.4062 20.1277 91.1879 20.3681 89.9 20.3681C85.7926 20.3681 83.0079 17.5522 83.0079 13.5C83.0079 9.34478 85.7926 6.63187 89.9696 6.63187C92.3018 6.63187 94.2163 7.49038 95.8871 9.31044L100.273 5.3956C97.8712 2.54533 94.1815 1 89.6216 1C81.72 1 76.0463 6.18544 76.0463 13.5C76.0463 20.8146 81.72 26 89.4823 26C93.0328 26 96.8965 24.9354 99.716 22.9437V12.9849H93.6245V19.5783ZM110.908 20.2651V15.8695H121.733V10.7871H110.908V6.73489H123.195V1.48077H104.086V25.5192H123.648V20.2651H110.908ZM132.659 25.5192H139.551V6.87225H147V1.48077H125.175V6.87225H132.659V25.5192Z" stroke="#D5D5D5" stroke-width="0.75"/>
<path d="M18.8345 63.0323L23.8915 70.2106H18.7438L14.1494 63.6374L14.0375 63.4772H13.8421H8.64764H8.27264V63.8522V70.2106H3.37503V46.7894H13.5632C16.7624 46.7894 19.3188 47.6113 21.0681 49.0559C22.8091 50.4936 23.7861 52.5765 23.7861 55.1851C23.7861 58.658 22.0306 61.1823 18.9945 62.4711L18.567 62.6526L18.8345 63.0323ZM8.27264 59.3978V59.7728H8.64764H13.2494C15.0263 59.7728 16.4231 59.3645 17.3814 58.5632C18.35 57.7533 18.8188 56.5854 18.8188 55.1851C18.8188 53.7687 18.3507 52.5997 17.3806 51.7933C16.4216 50.9962 15.0245 50.5974 13.2494 50.5974H8.64764H8.27264V50.9724V59.3978ZM33.8735 66.0967V66.4717H34.2485H47.1558V70.2106H29.0107V46.7894H46.7026V50.5283H34.2485H33.8735V50.9033V56.1519V56.5269H34.2485H45.2036V60.1278H34.2485H33.8735V60.5028V66.0967ZM107.002 66.0276V66.4026H107.377H119.239V70.2106H102.105V46.7894H107.002V66.0276ZM131.191 50.5974H130.816V50.9724V70.2106H125.918V50.9724V50.5974H125.543H118.109V46.7894H138.625V50.5974H131.191ZM70.0216 63.5069C70.0216 65.4147 69.2268 67.1793 67.6006 68.4752C65.9681 69.7762 63.4703 70.625 60.0427 70.625C56.3693 70.625 52.696 69.5802 50.5744 68.0814L52.1802 64.5534C54.2875 65.9444 57.2445 66.886 60.0775 66.886C61.7823 66.886 63.0384 66.6063 63.8808 66.0932C64.7457 65.5664 65.1589 64.8004 65.1589 63.9213C65.1589 63.2418 64.8863 62.6998 64.4313 62.2712C63.9889 61.8545 63.3791 61.5485 62.6953 61.2991C61.7955 60.971 60.6829 60.7148 59.5294 60.4492C58.9503 60.3158 58.3608 60.18 57.7828 60.0316C56.0163 59.5781 54.3083 58.9986 53.0433 58.0078C51.8009 57.0347 50.9701 55.6531 50.9701 53.5276C50.9701 51.5824 51.7586 49.8097 53.3705 48.5153C54.9892 47.2154 57.4686 46.375 60.8794 46.375C63.7754 46.375 66.7131 47.0333 68.8818 48.2959L67.42 51.8578C65.22 50.6889 62.958 50.1139 60.8445 50.1139C59.1334 50.1139 57.8889 50.4303 57.0612 50.9897C56.2148 51.5618 55.8329 52.3701 55.8329 53.2514C55.8329 53.9243 56.1072 54.4598 56.5626 54.882C57.0052 55.2922 57.615 55.593 58.2983 55.8381C59.1953 56.1597 60.3039 56.411 61.4539 56.6717C62.0361 56.8037 62.6289 56.9381 63.2102 57.0852C64.9769 57.5324 66.6852 58.1047 67.9501 59.0836C69.1924 60.045 70.0216 61.4091 70.0216 63.5069ZM95.7739 59.9503C95.7739 63.435 94.7677 66.0907 92.9613 67.8759C91.1541 69.6617 88.4968 70.625 85.0977 70.625C81.6986 70.625 79.0413 69.6617 77.2341 67.8759C75.4277 66.0907 74.4215 63.435 74.4215 59.9503V46.7894H79.3191V59.7431C79.3191 62.0861 79.8339 63.8153 80.8519 64.9603C81.8776 66.1139 83.3555 66.6098 85.1326 66.6098C86.9261 66.6098 88.4049 66.1144 89.4268 64.9597C90.4406 63.8141 90.946 62.0846 90.946 59.7431V46.7894H95.7739V59.9503Z" fill="#D5D5D5" stroke="#D5D5D5" stroke-width="0.75"/>
</svg>
