<svg width="151" height="149" viewBox="0 0 151 149" fill="none" xmlns="http://www.w3.org/2000/svg">
<path d="M111.687 109L96.5528 93.6859C101.809 88.2359 104.732 80.9092 104.686 73.2939C104.64 65.6785 101.63 58.3882 96.3087 53.0033C90.9871 47.6183 83.7826 44.5726 76.2569 44.5264C68.7311 44.4802 61.4906 47.4372 56.1048 52.7563L40.9708 37.4422C50.4679 28.5646 62.992 23.7509 75.9187 24.0099C88.8453 24.269 101.171 29.5806 110.314 38.8317C119.456 48.0829 124.705 60.5556 124.961 73.6361C125.217 86.7167 120.46 99.3898 111.687 109V109Z" stroke="#B6B6B6" stroke-miterlimit="10"/>
<path d="M126.971 124.639L111.742 109.285C102.298 118.807 89.4891 124.157 76.133 124.157C62.777 124.157 49.968 118.807 40.5238 109.285C31.0796 99.7628 25.7739 86.8479 25.7739 73.3814C25.7739 59.915 31.0796 47.0001 40.5238 37.4779L25.2953 22.1235C12.5804 35.8723 5.65608 54.0612 5.98181 72.8568C6.30754 91.6524 13.8578 109.586 27.0414 122.879C40.2249 136.171 58.0119 143.784 76.6534 144.112C95.2949 144.441 113.335 137.459 126.971 124.639V124.639Z" stroke="white" stroke-miterlimit="10"/>
<path d="M95.9708 93.9961L76.0483 74.0847L56.1257 54.1235C51.3326 59.5003 48.7771 66.5048 48.9823 73.7031C49.1875 80.9014 52.138 87.7491 57.2297 92.8443C62.3215 97.9395 69.1693 100.897 76.3714 101.111C83.5735 101.325 90.5851 98.7798 95.9708 93.9961V93.9961Z" stroke="#E7E7E7" stroke-miterlimit="10"/>
<path d="M51.6227 8.9563L53.6227 19.6463L52.4827 20.1963L46.7927 13.6163L48.3527 22.1763L47.1927 22.7263L40.1327 14.4463L41.2427 13.9163L46.9827 20.6363L45.4227 11.9163L46.4227 11.4363L52.2127 18.1763L50.5927 9.44629L51.6227 8.9563Z" fill="#E7E7E7"/>
<path d="M63.3226 14.0561L58.9926 15.1161L58.7126 17.8761L57.5126 18.1761L58.7226 7.07614L59.8726 6.79614L66.0726 16.0862L64.8426 16.3861L63.3226 14.0561ZM62.6326 12.9861L59.6326 8.41614L59.0926 13.8461L62.6326 12.9861Z" fill="#E7E7E7"/>
<path d="M70.9928 12.0062L71.3028 15.6162L70.1128 15.7262L69.8028 12.0762L65.9028 5.54623L67.1828 5.43622L70.3328 10.7262L72.5528 4.97623L73.7428 4.87622L70.9928 12.0062Z" fill="#E7E7E7"/>
<path d="M89.0028 13.9261C88.7328 15.7061 87.5028 16.5661 85.4028 16.2461L81.4028 15.6361L82.9828 5.2561L86.7028 5.82611C88.6128 6.11611 89.5328 7.2861 89.2728 8.96609C89.2388 9.42089 89.0848 9.85857 88.8266 10.2345C88.5684 10.6104 88.2151 10.9112 87.8028 11.1061C88.2862 11.3776 88.6661 11.8016 88.8832 12.3117C89.1003 12.8219 89.1423 13.3895 89.0028 13.9261ZM84.0028 6.63611L83.5028 9.96609L85.9328 10.3361C87.1428 10.5161 87.9328 10.0561 88.0828 8.96609C88.2328 7.87609 87.6428 7.19611 86.4328 7.01611L84.0028 6.63611ZM87.8028 13.6361C87.9928 12.4361 87.3628 11.7961 86.0428 11.5861L83.3128 11.1761L82.7928 14.6261L85.5128 15.0461C86.8528 15.2361 87.6428 14.8261 87.8228 13.6261L87.8028 13.6361Z" fill="#E7E7E7"/>
<path d="M97.8326 18.2462L97.4226 19.4862L91.6426 17.5662L94.9526 7.56616L100.573 9.42618L100.163 10.6662L95.6826 9.17618L94.6826 12.2362L98.6826 13.5662L98.2826 14.7762L94.2826 13.4462L93.2126 16.6662L97.8326 18.2462Z" fill="#E7E7E7"/>
<path d="M104.813 18.9962L103.153 22.2262L102.093 21.6762L103.773 18.4462L103.933 10.8362L105.073 11.4262L104.933 17.5762L109.863 13.8962L110.923 14.4362L104.813 18.9962Z" fill="#E7E7E7"/>
<path d="M110.553 20.3063C112.393 17.8563 115.293 17.1563 117.353 18.7063C119.413 20.2563 119.543 23.1963 117.693 25.7063C115.843 28.2163 112.953 28.8663 110.903 27.3263C108.853 25.7863 108.703 22.7663 110.553 20.3063ZM116.733 24.9463C118.123 23.0863 118.043 20.8863 116.553 19.7763C115.063 18.6663 112.903 19.1763 111.553 21.0263C110.203 22.8763 110.243 25.0963 111.753 26.2263C113.263 27.3563 115.323 26.8063 116.733 24.9463Z" fill="#E7E7E7"/>
<path d="M129.493 30.4462L121.703 37.4962L121.043 36.7662L123.473 27.7662L117.663 33.0262L116.853 32.1362L124.643 25.1362L125.303 25.8662L122.883 34.8662L128.693 29.6062L129.493 30.4462Z" fill="#E7E7E7"/>
<path d="M133.013 35.1162L134.843 38.1162C136.243 40.4262 135.383 43.1162 132.713 44.7162C130.043 46.3162 127.273 45.8762 125.873 43.5662L124.033 40.5662L133.013 35.1162ZM126.953 42.8462C128.033 44.6162 130.083 44.9362 132.093 43.7162C134.103 42.4962 134.773 40.5262 133.693 38.7162L132.513 36.7762L125.773 40.8662L126.953 42.8462Z" fill="#E7E7E7"/>
<path d="M141.273 51.5161L142.273 54.9161C143.023 57.5161 141.483 59.8661 138.483 60.7261C135.483 61.5861 132.933 60.4061 132.183 57.8161L131.183 54.4161L141.273 51.5161ZM133.393 57.3861C133.963 59.3861 135.853 60.2261 138.123 59.5761C140.393 58.9261 141.543 57.2061 140.973 55.2061L140.343 53.0261L132.763 55.2061L133.393 57.3861Z" fill="#E7E7E7"/>
<path d="M135.783 71.2363L134.493 71.3663L133.863 65.3063L144.323 64.2263L144.933 70.1263L143.643 70.2563L143.153 65.5563L139.943 65.8863L140.373 70.0763L139.113 70.2063L138.673 66.0163L135.303 66.3663L135.783 71.2363Z" fill="#E7E7E7"/>
<path d="M135.743 73.8662L136.893 74.3662C136.494 74.7017 136.169 75.1152 135.937 75.5813C135.705 76.0474 135.571 76.5562 135.543 77.0762C135.473 78.5262 136.153 79.1862 137.063 79.2362C139.623 79.3562 138.253 74.2362 142.153 74.3762C142.57 74.3795 142.983 74.4731 143.361 74.6505C143.739 74.8279 144.075 75.085 144.344 75.4041C144.614 75.7231 144.811 76.0967 144.923 76.4992C145.035 76.9018 145.059 77.3237 144.993 77.7362C144.955 78.7153 144.581 79.6515 143.933 80.3862L142.753 79.9362C143.336 79.3202 143.689 78.5221 143.753 77.6762C143.823 76.2462 143.103 75.5962 142.193 75.5562C139.633 75.4362 140.983 80.5562 137.133 80.4162C136.713 80.4092 136.3 80.3116 135.922 80.1301C135.544 79.9485 135.209 79.6873 134.941 79.3643C134.673 79.0414 134.479 78.6643 134.37 78.259C134.262 77.8537 134.242 77.4298 134.313 77.0162C134.326 76.4218 134.459 75.8362 134.705 75.2948C134.951 74.7534 135.304 74.2674 135.743 73.8662Z" fill="#E7E7E7"/>
<path d="M144.133 84.8963L143.943 86.0863L133.573 84.3763L133.773 83.1863L144.133 84.8963Z" fill="#E7E7E7"/>
<path d="M136.323 95.1562L135.983 96.2562L132.073 95.0662C131.781 94.5495 131.599 93.9781 131.539 93.3878C131.479 92.7975 131.541 92.2011 131.723 91.6362C132.473 89.1762 135.183 88.0162 138.153 88.9262C141.123 89.8362 142.743 92.2962 141.983 94.7862C141.812 95.3926 141.496 95.9482 141.062 96.4047C140.628 96.8613 140.09 97.2051 139.493 97.4062L138.823 96.4062C139.271 96.2451 139.674 95.9797 139.999 95.632C140.324 95.2842 140.562 94.864 140.693 94.4062C141.253 92.5462 140.043 90.7062 137.803 90.0262C135.563 89.3462 133.543 90.1962 132.973 92.0262C132.75 92.7068 132.779 93.4446 133.053 94.1062L136.323 95.1562Z" fill="#E7E7E7"/>
<path d="M135.473 109.346L126.153 104.446L126.613 103.576L135.893 102.736L128.943 99.1061L129.503 98.0461L138.813 102.906L138.363 103.776L129.083 104.616L136.023 108.246L135.473 109.346Z" fill="#E7E7E7"/>
</svg>
