<svg width="184" height="312" viewBox="0 0 184 312" fill="none" xmlns="http://www.w3.org/2000/svg">
<g filter="url(#filter0_b)">
<rect x="0.00012207" width="184" height="312" rx="2" fill="#010101" fill-opacity="0.5"/>
<path d="M77.6766 59.2188C77.0786 59.2188 76.5716 59.5113 76.2986 60.0183V57.8148H75.9736V62.6378H76.2856V61.8383C76.5521 62.3583 77.0656 62.6638 77.6766 62.6638C78.6321 62.6638 79.3536 61.9553 79.3536 60.9413C79.3536 59.9208 78.6321 59.2188 77.6766 59.2188ZM77.6571 62.3713C76.8771 62.3713 76.2921 61.7928 76.2921 60.9413C76.2921 60.0898 76.8771 59.5113 77.6571 59.5113C78.4371 59.5113 79.0286 60.0898 79.0286 60.9413C79.0286 61.7928 78.4371 62.3713 77.6571 62.3713Z" fill="#E7E7E7"/>
<path d="M80.6718 59.9858V59.2448H80.3598V62.6378H80.6848V60.8698C80.6848 60.0313 81.1333 59.5308 81.8873 59.5308C81.9133 59.5308 81.9393 59.5373 81.9653 59.5373V59.2188C81.3283 59.2188 80.8798 59.4918 80.6718 59.9858Z" fill="#E7E7E7"/>
<path d="M83.7505 62.6638C84.615 62.6638 85.0895 62.2868 85.0895 61.7343C85.0895 60.4408 82.8405 61.1623 82.8405 60.1418C82.8405 59.7778 83.133 59.5048 83.796 59.5048C84.16 59.5048 84.5305 59.6023 84.8165 59.8103L84.966 59.5503C84.6995 59.3488 84.2315 59.2188 83.8025 59.2188C82.9445 59.2188 82.5155 59.6348 82.5155 60.1483C82.5155 61.4808 84.7645 60.7528 84.7645 61.7408C84.7645 62.1243 84.4785 62.3778 83.7635 62.3778C83.263 62.3778 82.8015 62.1893 82.5415 61.9683L82.392 62.2283C82.6585 62.4753 83.1915 62.6638 83.7505 62.6638Z" fill="#E7E7E7"/>
<path d="M87.5435 62.1958C87.407 62.3193 87.2185 62.3843 87.017 62.3843C86.601 62.3843 86.3865 62.1438 86.3865 61.7083V59.5243H87.4655V59.2448H86.3865V58.5038H86.0615V59.2448H85.4375V59.5243H86.0615V61.7408C86.0615 62.3128 86.3865 62.6638 86.9845 62.6638C87.238 62.6638 87.511 62.5858 87.68 62.4233L87.5435 62.1958Z" fill="#E7E7E7"/>
<path d="M89.7918 62.6638C90.7668 62.6638 91.4883 61.9488 91.4883 60.9413C91.4883 59.9338 90.7668 59.2188 89.7918 59.2188C88.8168 59.2188 88.0953 59.9338 88.0953 60.9413C88.0953 61.9488 88.8168 62.6638 89.7918 62.6638ZM89.7918 62.3713C89.0118 62.3713 88.4268 61.7928 88.4268 60.9413C88.4268 60.0898 89.0118 59.5113 89.7918 59.5113C90.5718 59.5113 91.1568 60.0898 91.1568 60.9413C91.1568 61.7928 90.5718 62.3713 89.7918 62.3713Z" fill="#E7E7E7"/>
<path d="M92.8085 59.9858V59.2448H92.4965V62.6378H92.8215V60.8698C92.8215 60.0313 93.27 59.5308 94.024 59.5308C94.05 59.5308 94.076 59.5373 94.102 59.5373V59.2188C93.465 59.2188 93.0165 59.4918 92.8085 59.9858Z" fill="#E7E7E7"/>
<path d="M99.2225 59.2188C98.566 59.2188 98.072 59.5438 97.851 60.0378C97.669 59.4983 97.2205 59.2188 96.6095 59.2188C95.992 59.2188 95.5305 59.4983 95.3095 59.9728V59.2448H94.9975V62.6378H95.3225V60.8308C95.3225 60.0248 95.797 59.5113 96.564 59.5113C97.227 59.5113 97.6235 59.9143 97.6235 60.6813V62.6378H97.9485V60.8308C97.9485 60.0248 98.423 59.5113 99.19 59.5113C99.853 59.5113 100.249 59.9143 100.249 60.6813V62.6378H100.574V60.6553C100.574 59.7063 100.041 59.2188 99.2225 59.2188Z" fill="#E7E7E7"/>
<path d="M101.877 62.6638C102.027 62.6638 102.15 62.5403 102.15 62.3843C102.15 62.2283 102.027 62.1113 101.877 62.1113C101.728 62.1113 101.604 62.2283 101.604 62.3843C101.604 62.5403 101.728 62.6638 101.877 62.6638Z" fill="#E7E7E7"/>
<path d="M105.801 57.8148V60.0313C105.528 59.5178 105.021 59.2188 104.416 59.2188C103.461 59.2188 102.739 59.9208 102.739 60.9413C102.739 61.9553 103.461 62.6638 104.416 62.6638C105.027 62.6638 105.541 62.3648 105.807 61.8383V62.6378H106.126V57.8148H105.801ZM104.436 62.3713C103.656 62.3713 103.071 61.7928 103.071 60.9413C103.071 60.0898 103.656 59.5113 104.436 59.5113C105.216 59.5113 105.801 60.0898 105.801 60.9413C105.801 61.7928 105.216 62.3713 104.436 62.3713Z" fill="#E7E7E7"/>
<path d="M110.369 60.9283C110.369 59.9208 109.68 59.2188 108.751 59.2188C107.821 59.2188 107.126 59.9338 107.126 60.9413C107.126 61.9488 107.847 62.6638 108.874 62.6638C109.388 62.6638 109.856 62.4753 110.155 62.1113L109.966 61.8968C109.706 62.2153 109.31 62.3713 108.881 62.3713C108.068 62.3713 107.477 61.8253 107.444 61.0193H110.363C110.363 60.9868 110.369 60.9543 110.369 60.9283ZM108.751 59.5048C109.472 59.5048 110.005 60.0313 110.051 60.7658H107.451C107.503 60.0248 108.029 59.5048 108.751 59.5048Z" fill="#E7E7E7"/>
<path d="M112.232 62.6638C113.097 62.6638 113.571 62.2868 113.571 61.7343C113.571 60.4408 111.322 61.1623 111.322 60.1418C111.322 59.7778 111.615 59.5048 112.278 59.5048C112.642 59.5048 113.012 59.6023 113.298 59.8103L113.448 59.5503C113.181 59.3488 112.713 59.2188 112.284 59.2188C111.426 59.2188 110.997 59.6348 110.997 60.1483C110.997 61.4808 113.246 60.7528 113.246 61.7408C113.246 62.1243 112.96 62.3778 112.245 62.3778C111.745 62.3778 111.283 62.1893 111.023 61.9683L110.874 62.2283C111.14 62.4753 111.673 62.6638 112.232 62.6638Z" fill="#E7E7E7"/>
<path d="M114.641 58.4193C114.79 58.4193 114.907 58.3023 114.907 58.1528C114.907 58.0098 114.79 57.8928 114.641 57.8928C114.491 57.8928 114.374 58.0163 114.374 58.1593C114.374 58.3023 114.491 58.4193 114.641 58.4193ZM114.478 62.6378H114.803V59.2448H114.478V62.6378Z" fill="#E7E7E7"/>
<path d="M118.916 59.2448V60.0118C118.643 59.5048 118.117 59.2188 117.493 59.2188C116.531 59.2188 115.803 59.8948 115.803 60.8633C115.803 61.8318 116.531 62.5143 117.493 62.5143C118.104 62.5143 118.624 62.2348 118.903 61.7408V62.3128C118.903 63.2163 118.481 63.6323 117.577 63.6323C117.031 63.6323 116.544 63.4503 116.206 63.1383L116.03 63.3853C116.375 63.7298 116.966 63.9248 117.584 63.9248C118.676 63.9248 119.228 63.4113 119.228 62.2738V59.2448H118.916ZM117.519 62.2218C116.719 62.2218 116.134 61.6628 116.134 60.8633C116.134 60.0638 116.719 59.5113 117.519 59.5113C118.325 59.5113 118.91 60.0638 118.91 60.8633C118.91 61.6628 118.325 62.2218 117.519 62.2218Z" fill="#E7E7E7"/>
<path d="M122.261 59.2188C121.618 59.2188 121.143 59.5048 120.916 59.9793V59.2448H120.604V62.6378H120.929V60.8308C120.929 60.0248 121.416 59.5113 122.216 59.5113C122.905 59.5113 123.314 59.9143 123.314 60.6813V62.6378H123.639V60.6553C123.639 59.7063 123.087 59.2188 122.261 59.2188Z" fill="#E7E7E7"/>
<path d="M124.139 63.2878H124.438L126.583 57.1648H126.284L124.139 63.2878Z" fill="#E7E7E7"/>
<path d="M127.06 62.6378H127.385V57.8148H127.06V62.6378Z" fill="#E7E7E7"/>
<path d="M128.917 58.4193C129.066 58.4193 129.183 58.3023 129.183 58.1528C129.183 58.0098 129.066 57.8928 128.917 57.8928C128.767 57.8928 128.65 58.0163 128.65 58.1593C128.65 58.3023 128.767 58.4193 128.917 58.4193ZM128.754 62.6378H129.079V59.2448H128.754V62.6378Z" fill="#E7E7E7"/>
<path d="M132.107 59.2188C131.463 59.2188 130.989 59.5048 130.761 59.9793V59.2448H130.449V62.6378H130.774V60.8308C130.774 60.0248 131.262 59.5113 132.061 59.5113C132.75 59.5113 133.16 59.9143 133.16 60.6813V62.6378H133.485V60.6553C133.485 59.7063 132.932 59.2188 132.107 59.2188Z" fill="#E7E7E7"/>
<path d="M137.475 62.6378H137.878L136.272 60.6163L137.735 59.2448H137.319L135.148 61.2273V57.8148H134.823V62.6378H135.148V61.6303L136.032 60.8243L137.475 62.6378Z" fill="#E7E7E7"/>
<path d="M139.4 62.6638C140.265 62.6638 140.739 62.2868 140.739 61.7343C140.739 60.4408 138.49 61.1623 138.49 60.1418C138.49 59.7778 138.783 59.5048 139.446 59.5048C139.81 59.5048 140.18 59.6023 140.466 59.8103L140.616 59.5503C140.349 59.3488 139.881 59.2188 139.452 59.2188C138.594 59.2188 138.165 59.6348 138.165 60.1483C138.165 61.4808 140.414 60.7528 140.414 61.7408C140.414 62.1243 140.128 62.3778 139.413 62.3778C138.913 62.3778 138.451 62.1893 138.191 61.9683L138.042 62.2283C138.308 62.4753 138.841 62.6638 139.4 62.6638Z" fill="#E7E7E7"/>
<path d="M85.5525 44.8662C85.5525 46.8462 83.995 47.9933 81.0092 47.9933H75.1362V36.5376H80.685C83.524 36.5376 84.9903 37.7307 84.9903 39.5139C85.0002 40.0364 84.8627 40.5509 84.5936 40.9974C84.3245 41.4439 83.9351 41.8039 83.4708 42.0355C84.7396 42.4443 85.5525 43.4253 85.5525 44.8662ZM77.7473 38.5329V41.2461H80.3533C81.6347 41.2461 82.3312 40.7888 82.3312 39.8869C82.3312 38.9851 81.6347 38.5457 80.3533 38.5457L77.7473 38.5329ZM82.9086 44.5878C82.9086 43.622 82.1767 43.1647 80.8142 43.1647H77.7473V45.9955H80.8142C82.1767 45.9955 82.9086 45.5714 82.9086 44.5878Z" fill="#E7E7E7"/>
<path d="M92.7879 39.0566V41.4147C92.5777 41.3968 92.4156 41.3815 92.2206 41.3815C90.8252 41.3815 89.9008 42.148 89.9008 43.8367V47.9933H87.3683V39.1869H89.7843V40.3494C90.4048 39.4986 91.4431 39.0566 92.7879 39.0566Z" fill="#E7E7E7"/>
<path d="M96.9995 46.8667L97.891 44.8688C98.993 45.638 100.299 46.0546 101.639 46.0645C103.197 46.0645 103.83 45.5407 103.83 44.8356C103.83 42.6921 97.2249 44.1663 97.2249 39.91C97.2249 37.9632 98.785 36.3333 102.011 36.3333C103.44 36.3333 104.901 36.6756 105.955 37.3552L105.144 39.3684C104.19 38.7987 103.105 38.488 101.996 38.4665C100.439 38.4665 99.8385 39.0567 99.8385 39.7771C99.8385 41.8874 106.441 40.4312 106.441 44.6312C106.441 46.5448 104.868 48.1824 101.629 48.1824C99.8233 48.1901 98.005 47.6485 96.9995 46.8667Z" fill="#E7E7E7"/>
<path d="M113.694 47.5667C113.078 47.9581 112.36 48.1522 111.633 48.1237C109.574 48.1237 108.373 47.0609 108.373 44.9659V41.3483H107.026V39.3837H108.373V37.2402H110.906V39.3837H113.081V41.3483H110.906V44.9251C110.906 45.6787 111.311 46.0875 111.992 46.0875C112.356 46.0899 112.711 45.9754 113.005 45.7605L113.694 47.5667Z" fill="#E7E7E7"/>
<path d="M114.649 43.5914C114.649 40.9395 116.675 39.0566 119.461 39.0566C122.246 39.0566 124.247 40.9395 124.247 43.5914C124.247 46.2433 122.236 48.1236 119.461 48.1236C116.685 48.1236 114.649 46.2407 114.649 43.5914ZM121.674 43.5914C121.674 42.0585 120.717 41.1516 119.45 41.1516C118.184 41.1516 117.212 42.0687 117.212 43.5914C117.212 45.1141 118.184 46.0287 119.45 46.0287C120.717 46.0287 121.674 45.1115 121.674 43.5914Z" fill="#E7E7E7"/>
<path d="M130.892 39.0566V41.4147C130.682 41.3968 130.52 41.3815 130.325 41.3815C128.93 41.3815 128.005 42.148 128.005 43.8367V47.9933H125.473V39.1869H127.889V40.3494C128.509 39.4986 129.548 39.0566 130.892 39.0566Z" fill="#E7E7E7"/>
<path d="M147.149 42.9527V47.9933H144.616V43.3436C144.616 41.9206 143.983 41.2666 142.962 41.2666C141.825 41.2666 141.03 42.0023 141.03 43.5659V47.9857H138.498V43.3359C138.498 41.9129 137.897 41.2589 136.844 41.2589C135.724 41.2589 134.929 41.9947 134.929 43.5582V47.978H132.397V39.187H134.815V40.2089C135.162 39.8284 135.587 39.5287 136.06 39.3306C136.533 39.1325 137.044 39.0408 137.555 39.0618C138.774 39.0618 139.812 39.537 140.427 40.5027C140.808 40.0359 141.29 39.6633 141.836 39.4136C142.381 39.1638 142.976 39.0435 143.575 39.0618C145.657 39.0567 147.149 40.2676 147.149 42.9527Z" fill="#E7E7E7"/>
<path d="M95.3205 45.4387H92.7905V47.991H95.3205V45.4387Z" fill="#E7E7E7"/>
<circle cx="37.4543" cy="42.2776" r="18.6648" stroke="#B6B6B6" stroke-width="0.5"/>
<circle cx="37.4543" cy="42.2776" r="22.2676" stroke="white" stroke-width="0.5"/>
<path d="M42.9891 34.3782L40.1056 37.2905C39.6005 36.7809 39.0008 36.3767 38.3408 36.101C37.6809 35.8252 36.9735 35.6832 36.2592 35.6832C35.5448 35.6832 34.8375 35.8252 34.1775 36.101C33.5175 36.3767 32.9179 36.7809 32.4128 37.2905C31.9077 37.8001 31.507 38.405 31.2336 39.0708C30.9602 39.7365 30.8195 40.4501 30.8195 41.1707C30.8195 41.8913 30.9602 42.6049 31.2336 43.2707C31.507 43.9365 31.9077 44.5414 32.4128 45.051L29.5292 47.9599C27.7982 46.1481 26.8411 43.7233 26.8639 41.2071C26.8867 38.6908 27.8875 36.2841 29.6511 34.5045C31.4147 32.725 33.8002 31.7147 36.2945 31.6911C38.7888 31.6675 41.1927 32.6323 42.9891 34.3782V34.3782Z" fill="#D5D5D5"/>
<path d="M49.8563 41.169C49.857 43.8821 49.0601 46.5344 47.5662 48.7905C46.0724 51.0466 43.9489 52.805 41.4642 53.8434C38.9795 54.8817 36.2454 55.1533 33.6077 54.6238C30.9699 54.0943 28.5472 52.7875 26.6458 50.8687L29.5294 47.9598C31.3258 49.7057 33.7296 50.6705 36.224 50.6469C38.7183 50.6233 41.1038 49.613 42.8674 47.8335C44.631 46.0539 45.6318 43.6472 45.6546 41.1309C45.6774 38.6147 44.7203 36.1899 42.9892 34.3781L45.8762 31.4692C47.14 32.742 48.1422 34.2541 48.8252 35.9187C49.5082 37.5832 49.8586 39.3675 49.8563 41.169V41.169Z" fill="white"/>
<path d="M41.6999 41.1688C41.6992 42.2539 41.3798 43.3144 40.782 44.2165C40.1841 45.1186 39.3347 45.8217 38.341 46.2371C37.3473 46.6524 36.2539 46.7614 35.1988 46.5503C34.1437 46.3391 33.1743 45.8173 32.413 45.0507L36.2611 41.1688L40.1059 37.2903C40.612 37.7988 41.0134 38.4032 41.287 39.0689C41.5606 39.7345 41.7009 40.4482 41.6999 41.1688V41.1688Z" fill="#E7E7E7"/>
<circle cx="53.7651" cy="57.6872" r="4.78073" fill="#E7E7E7"/>
<line x1="53.6963" y1="55.4563" x2="53.6963" y2="59.9183" stroke="#010101" stroke-width="0.5"/>
<line x1="55.9961" y1="57.6184" x2="51.5341" y2="57.6184" stroke="#010101" stroke-width="0.5"/>
<line x1="158.457" y1="13.2351" x2="168.019" y2="13.2351" stroke="white" stroke-width="0.5"/>
<line x1="158.457" y1="16.4224" x2="168.019" y2="16.4224" stroke="white" stroke-width="0.5"/>
<line x1="158.457" y1="19.6094" x2="168.019" y2="19.6094" stroke="white" stroke-width="0.5"/>
<rect x="21.8116" y="86.875" width="54.2923" height="13.7606" stroke="white" stroke-width="0.25"/>
<rect x="80.8116" y="86.875" width="63.2994" height="13.7606" stroke="white" stroke-width="0.25"/>
<path d="M37.4766 91.0759V90.7999H34.6686V94.9999H34.9746V93.1459H37.2126V92.8699H34.9746V91.0759H37.4766Z" fill="white"/>
<path d="M39.4705 95.0239C40.3705 95.0239 41.0365 94.3639 41.0365 93.4339C41.0365 92.5039 40.3705 91.8439 39.4705 91.8439C38.5705 91.8439 37.9045 92.5039 37.9045 93.4339C37.9045 94.3639 38.5705 95.0239 39.4705 95.0239ZM39.4705 94.7539C38.7505 94.7539 38.2105 94.2199 38.2105 93.4339C38.2105 92.6479 38.7505 92.1139 39.4705 92.1139C40.1905 92.1139 40.7305 92.6479 40.7305 93.4339C40.7305 94.2199 40.1905 94.7539 39.4705 94.7539Z" fill="white"/>
<path d="M41.9672 94.9999H42.2672V90.5479H41.9672V94.9999Z" fill="white"/>
<path d="M43.5316 94.9999H43.8316V90.5479H43.5316V94.9999Z" fill="white"/>
<path d="M46.3201 95.0239C47.2201 95.0239 47.8861 94.3639 47.8861 93.4339C47.8861 92.5039 47.2201 91.8439 46.3201 91.8439C45.4201 91.8439 44.7541 92.5039 44.7541 93.4339C44.7541 94.3639 45.4201 95.0239 46.3201 95.0239ZM46.3201 94.7539C45.6001 94.7539 45.0601 94.2199 45.0601 93.4339C45.0601 92.6479 45.6001 92.1139 46.3201 92.1139C47.0401 92.1139 47.5801 92.6479 47.5801 93.4339C47.5801 94.2199 47.0401 94.7539 46.3201 94.7539Z" fill="white"/>
<path d="M52.9289 91.8679L51.8729 94.6579L50.8109 91.8679H50.5529L49.4849 94.6639L48.4409 91.8679H48.1529L49.3409 94.9999H49.6169L50.6789 92.2819L51.7349 94.9999H52.0169L53.2049 91.8679H52.9289Z" fill="white"/>
<path d="M54.0527 91.1059C54.1907 91.1059 54.2987 90.9979 54.2987 90.8599C54.2987 90.7279 54.1907 90.6199 54.0527 90.6199C53.9147 90.6199 53.8067 90.7339 53.8067 90.8659C53.8067 90.9979 53.9147 91.1059 54.0527 91.1059ZM53.9027 94.9999H54.2027V91.8679H53.9027V94.9999Z" fill="white"/>
<path d="M56.9972 91.8439C56.4032 91.8439 55.9652 92.1079 55.7552 92.5459V91.8679H55.4672V94.9999H55.7672V93.3319C55.7672 92.5879 56.2172 92.1139 56.9552 92.1139C57.5912 92.1139 57.9692 92.4859 57.9692 93.1939V94.9999H58.2692V93.1699C58.2692 92.2939 57.7592 91.8439 56.9972 91.8439Z" fill="white"/>
<path d="M62.0421 91.8679V92.5759C61.7901 92.1079 61.3041 91.8439 60.7281 91.8439C59.8401 91.8439 59.1681 92.4679 59.1681 93.3619C59.1681 94.2559 59.8401 94.8859 60.7281 94.8859C61.2921 94.8859 61.7721 94.6279 62.0301 94.1719V94.6999C62.0301 95.5339 61.6401 95.9179 60.8061 95.9179C60.3021 95.9179 59.8521 95.7499 59.5401 95.4619L59.3781 95.6899C59.6961 96.0079 60.2421 96.1879 60.8121 96.1879C61.8201 96.1879 62.3301 95.7139 62.3301 94.6639V91.8679H62.0421ZM60.7521 94.6159C60.0141 94.6159 59.4741 94.0999 59.4741 93.3619C59.4741 92.6239 60.0141 92.1139 60.7521 92.1139C61.4961 92.1139 62.0361 92.6239 62.0361 93.3619C62.0361 94.0999 61.4961 94.6159 60.7521 94.6159Z" fill="white"/>
<path d="M103.941 94.9999L103.935 90.7999H103.683L101.805 94.0459L99.9266 90.7999H99.6686V94.9999H99.9686V91.4179L101.727 94.4419H101.877L103.635 91.4059L103.641 94.9999H103.941Z" fill="white"/>
<path d="M107.961 93.4219C107.961 92.4919 107.325 91.8439 106.467 91.8439C105.609 91.8439 104.967 92.5039 104.967 93.4339C104.967 94.3639 105.633 95.0239 106.581 95.0239C107.055 95.0239 107.487 94.8499 107.763 94.5139L107.589 94.3159C107.349 94.6099 106.983 94.7539 106.587 94.7539C105.837 94.7539 105.291 94.2499 105.261 93.5059H107.955C107.955 93.4759 107.961 93.4459 107.961 93.4219ZM106.467 92.1079C107.133 92.1079 107.625 92.5939 107.667 93.2719H105.267C105.315 92.5879 105.801 92.1079 106.467 92.1079Z" fill="white"/>
<path d="M109.681 95.0239C110.479 95.0239 110.917 94.6759 110.917 94.1659C110.917 92.9719 108.841 93.6379 108.841 92.6959C108.841 92.3599 109.111 92.1079 109.723 92.1079C110.059 92.1079 110.401 92.1979 110.665 92.3899L110.803 92.1499C110.557 91.9639 110.125 91.8439 109.729 91.8439C108.937 91.8439 108.541 92.2279 108.541 92.7019C108.541 93.9319 110.617 93.2599 110.617 94.1719C110.617 94.5259 110.353 94.7599 109.693 94.7599C109.231 94.7599 108.805 94.5859 108.565 94.3819L108.427 94.6219C108.673 94.8499 109.165 95.0239 109.681 95.0239Z" fill="white"/>
<path d="M112.546 95.0239C113.344 95.0239 113.782 94.6759 113.782 94.1659C113.782 92.9719 111.706 93.6379 111.706 92.6959C111.706 92.3599 111.976 92.1079 112.588 92.1079C112.924 92.1079 113.266 92.1979 113.53 92.3899L113.668 92.1499C113.422 91.9639 112.99 91.8439 112.594 91.8439C111.802 91.8439 111.406 92.2279 111.406 92.7019C111.406 93.9319 113.482 93.2599 113.482 94.1719C113.482 94.5259 113.218 94.7599 112.558 94.7599C112.096 94.7599 111.67 94.5859 111.43 94.3819L111.292 94.6219C111.538 94.8499 112.03 95.0239 112.546 95.0239Z" fill="white"/>
<path d="M115.675 91.8439C115.189 91.8439 114.733 92.0119 114.421 92.2879L114.571 92.5039C114.829 92.2699 115.219 92.1079 115.651 92.1079C116.263 92.1079 116.581 92.4199 116.581 93.0019V93.2539H115.507C114.637 93.2539 114.337 93.6559 114.337 94.1299C114.337 94.6639 114.763 95.0239 115.465 95.0239C116.012 95.0239 116.395 94.8019 116.593 94.4419V94.9999H116.881V93.0139C116.881 92.2399 116.449 91.8439 115.675 91.8439ZM115.507 94.7779C114.955 94.7779 114.637 94.5259 114.637 94.1179C114.637 93.7579 114.865 93.4879 115.513 93.4879H116.581V94.0759C116.401 94.5259 116.035 94.7779 115.507 94.7779Z" fill="white"/>
<path d="M120.655 91.8679V92.5759C120.403 92.1079 119.917 91.8439 119.341 91.8439C118.453 91.8439 117.781 92.4679 117.781 93.3619C117.781 94.2559 118.453 94.8859 119.341 94.8859C119.905 94.8859 120.385 94.6279 120.643 94.1719V94.6999C120.643 95.5339 120.253 95.9179 119.419 95.9179C118.915 95.9179 118.465 95.7499 118.153 95.4619L117.991 95.6899C118.309 96.0079 118.855 96.1879 119.425 96.1879C120.433 96.1879 120.943 95.7139 120.943 94.6639V91.8679H120.655ZM119.365 94.6159C118.627 94.6159 118.087 94.0999 118.087 93.3619C118.087 92.6239 118.627 92.1139 119.365 92.1139C120.109 92.1139 120.649 92.6239 120.649 93.3619C120.649 94.0999 120.109 94.6159 119.365 94.6159Z" fill="white"/>
<path d="M124.865 93.4219C124.865 92.4919 124.229 91.8439 123.371 91.8439C122.513 91.8439 121.871 92.5039 121.871 93.4339C121.871 94.3639 122.537 95.0239 123.485 95.0239C123.959 95.0239 124.391 94.8499 124.667 94.5139L124.493 94.3159C124.253 94.6099 123.887 94.7539 123.491 94.7539C122.741 94.7539 122.195 94.2499 122.165 93.5059H124.859C124.859 93.4759 124.865 93.4459 124.865 93.4219ZM123.371 92.1079C124.037 92.1079 124.529 92.5939 124.571 93.2719H122.171C122.219 92.5879 122.705 92.1079 123.371 92.1079Z" fill="white"/>
<rect x="148.291" y="86.7837" width="13.7606" height="13.7606" stroke="white" stroke-width="0.25"/>
<path d="M156.779 93.2136L154.849 95.4654L152.919 93.2136" stroke="white" stroke-width="0.25"/>
<g opacity="0.8">
<circle cx="31.6853" cy="128.678" r="10.6774" stroke="#B6B6B6" stroke-width="0.5"/>
<circle cx="31.6852" cy="128.679" r="12.4986" stroke="#E7E7E7" stroke-width="0.5"/>
<circle cx="112.68" cy="128.678" r="10.6774" stroke="#B6B6B6" stroke-width="0.5"/>
<circle cx="112.68" cy="128.679" r="12.4986" stroke="#E7E7E7" stroke-width="0.5"/>
<circle cx="72.1824" cy="128.678" r="10.6774" stroke="#B6B6B6" stroke-width="0.5"/>
<circle cx="72.1825" cy="128.679" r="12.4986" stroke="#E7E7E7" stroke-width="0.5"/>
<circle cx="153.177" cy="128.678" r="10.6774" stroke="#B6B6B6" stroke-width="0.5"/>
<circle cx="153.177" cy="128.679" r="12.4986" stroke="#E7E7E7" stroke-width="0.5"/>
</g>
<line opacity="0.4" x1="10.9366" y1="277.693" x2="173.064" y2="277.693" stroke="white" stroke-width="0.5"/>
<path d="M57.7165 203.709C58.8365 203.341 59.5885 202.477 59.5885 201.149C59.5885 199.293 58.1325 198.285 55.7325 198.285H51.0605V209.485H56.0525C58.8045 209.485 60.1805 208.413 60.1805 206.525C60.1805 204.973 59.3005 204.013 57.7165 203.709ZM55.7005 198.989C57.6365 198.989 58.7565 199.741 58.7565 201.213C58.7565 202.701 57.6365 203.453 55.7005 203.453H51.8765V198.989H55.7005ZM56.0525 208.781H51.8765V204.157H56.0525C58.1965 204.157 59.3645 204.861 59.3645 206.461C59.3645 208.077 58.1965 208.781 56.0525 208.781Z" fill="white"/>
<path d="M69.9078 205.277C69.9078 202.797 68.2118 201.069 65.9238 201.069C63.6358 201.069 61.9238 202.829 61.9238 205.309C61.9238 207.789 63.6998 209.549 66.2278 209.549C67.4918 209.549 68.6438 209.085 69.3798 208.189L68.9158 207.661C68.2758 208.445 67.2998 208.829 66.2438 208.829C64.2438 208.829 62.7878 207.485 62.7078 205.501H69.8918C69.8918 205.421 69.9078 205.341 69.9078 205.277ZM65.9238 201.773C67.6998 201.773 69.0118 203.069 69.1238 204.877H62.7238C62.8518 203.053 64.1478 201.773 65.9238 201.773Z" fill="white"/>
<path d="M80.764 198.285H76.748V209.485H77.564V205.821H80.764C83.58 205.821 85.276 204.413 85.276 202.061C85.276 199.693 83.58 198.285 80.764 198.285ZM80.764 205.085H77.564V199.021H80.764C83.164 199.021 84.444 200.125 84.444 202.061C84.444 203.981 83.164 205.085 80.764 205.085Z" fill="white"/>
<path d="M88.2756 202.957V201.133H87.5076V209.485H88.3076V205.133C88.3076 203.069 89.4116 201.837 91.2676 201.837C91.3316 201.837 91.3956 201.853 91.4596 201.853V201.069C89.8916 201.069 88.7876 201.741 88.2756 202.957Z" fill="white"/>
<path d="M100.658 205.277C100.658 202.797 98.9618 201.069 96.6738 201.069C94.3858 201.069 92.6738 202.829 92.6738 205.309C92.6738 207.789 94.4498 209.549 96.9778 209.549C98.2418 209.549 99.3938 209.085 100.13 208.189L99.6658 207.661C99.0258 208.445 98.0498 208.829 96.9938 208.829C94.9938 208.829 93.5378 207.485 93.4578 205.501H100.642C100.642 205.421 100.658 205.341 100.658 205.277ZM96.6738 201.773C98.4498 201.773 99.7618 203.069 99.8738 204.877H93.4738C93.6018 203.053 94.8978 201.773 96.6738 201.773Z" fill="white"/>
<path d="M105.245 209.549C107.373 209.549 108.541 208.621 108.541 207.261C108.541 204.077 103.005 205.853 103.005 203.341C103.005 202.445 103.725 201.773 105.357 201.773C106.253 201.773 107.165 202.013 107.869 202.525L108.237 201.885C107.581 201.389 106.429 201.069 105.373 201.069C103.261 201.069 102.205 202.093 102.205 203.357C102.205 206.637 107.741 204.845 107.741 207.277C107.741 208.221 107.037 208.845 105.277 208.845C104.045 208.845 102.909 208.381 102.269 207.837L101.901 208.477C102.557 209.085 103.869 209.549 105.245 209.549Z" fill="white"/>
<path d="M117.845 205.277C117.845 202.797 116.149 201.069 113.861 201.069C111.573 201.069 109.861 202.829 109.861 205.309C109.861 207.789 111.637 209.549 114.165 209.549C115.429 209.549 116.581 209.085 117.317 208.189L116.853 207.661C116.213 208.445 115.237 208.829 114.181 208.829C112.181 208.829 110.725 207.485 110.645 205.501H117.829C117.829 205.421 117.845 205.341 117.845 205.277ZM113.861 201.773C115.637 201.773 116.949 203.069 117.061 204.877H110.661C110.789 203.053 112.085 201.773 113.861 201.773Z" fill="white"/>
<path d="M124.4 201.069C122.816 201.069 121.648 201.773 121.088 202.941V201.133H120.32V209.485H121.12V205.037C121.12 203.053 122.32 201.789 124.288 201.789C125.984 201.789 126.992 202.781 126.992 204.669V209.485H127.792V204.605C127.792 202.269 126.432 201.069 124.4 201.069Z" fill="white"/>
<path d="M134.894 208.397C134.558 208.701 134.094 208.861 133.598 208.861C132.574 208.861 132.046 208.269 132.046 207.197V201.821H134.702V201.133H132.046V199.309H131.246V201.133H129.71V201.821H131.246V207.277C131.246 208.685 132.046 209.549 133.518 209.549C134.142 209.549 134.814 209.357 135.23 208.957L134.894 208.397Z" fill="white"/>
<path d="M46.7125 230.749V226.157H52.6805V225.437H46.7125V221.021H53.3845V220.285H45.8965V231.485H53.6245V230.749H46.7125Z" fill="white"/>
<path d="M62.0285 223.133L58.6685 230.605L55.3405 223.133H54.4925L58.2525 231.485H59.0685L62.8445 223.133H62.0285Z" fill="white"/>
<path d="M71.4312 227.277C71.4312 224.797 69.7352 223.069 67.4472 223.069C65.1592 223.069 63.4472 224.829 63.4472 227.309C63.4472 229.789 65.2232 231.549 67.7512 231.549C69.0152 231.549 70.1672 231.085 70.9032 230.189L70.4392 229.661C69.7992 230.445 68.8232 230.829 67.7672 230.829C65.7672 230.829 64.3112 229.485 64.2312 227.501H71.4152C71.4152 227.421 71.4312 227.341 71.4312 227.277ZM67.4472 223.773C69.2232 223.773 70.5352 225.069 70.6472 226.877H64.2472C64.3752 225.053 65.6712 223.773 67.4472 223.773Z" fill="white"/>
<path d="M74.6741 224.957V223.133H73.9061V231.485H74.7061V227.133C74.7061 225.069 75.8101 223.837 77.6661 223.837C77.7301 223.837 77.7941 223.853 77.8581 223.853V223.069C76.2901 223.069 75.1861 223.741 74.6741 224.957Z" fill="white"/>
<path d="M86.3253 223.133L82.9813 230.605L79.6373 223.133H78.7893L82.5493 231.453L82.1013 232.461C81.5893 233.597 81.0293 233.949 80.2613 233.949C79.6373 233.949 79.1413 233.741 78.7093 233.293L78.3093 233.901C78.7893 234.397 79.4933 234.653 80.2453 234.653C81.3493 234.653 82.1813 234.157 82.8533 232.621L87.1413 223.133H86.3253Z" fill="white"/>
<path d="M100.044 223.133L97.2276 230.573L94.3956 223.133H93.7076L90.8596 230.589L88.0756 223.133H87.3076L90.4756 231.485H91.2116L94.0436 224.237L96.8596 231.485H97.6116L100.78 223.133H100.044Z" fill="white"/>
<path d="M106.72 223.069C105.168 223.069 104.016 223.741 103.44 224.877V219.613H102.64V231.485H103.44V227.037C103.44 225.053 104.64 223.789 106.608 223.789C108.304 223.789 109.312 224.781 109.312 226.669V231.485H110.112V226.605C110.112 224.269 108.752 223.069 106.72 223.069Z" fill="white"/>
<path d="M120.494 227.277C120.494 224.797 118.798 223.069 116.51 223.069C114.222 223.069 112.51 224.829 112.51 227.309C112.51 229.789 114.286 231.549 116.814 231.549C118.078 231.549 119.23 231.085 119.966 230.189L119.502 229.661C118.862 230.445 117.886 230.829 116.83 230.829C114.83 230.829 113.374 229.485 113.294 227.501H120.478C120.478 227.421 120.494 227.341 120.494 227.277ZM116.51 223.773C118.286 223.773 119.598 225.069 119.71 226.877H113.31C113.438 225.053 114.734 223.773 116.51 223.773Z" fill="white"/>
<path d="M123.737 224.957V223.133H122.969V231.485H123.769V227.133C123.769 225.069 124.873 223.837 126.729 223.837C126.793 223.837 126.857 223.853 126.921 223.853V223.069C125.353 223.069 124.249 223.741 123.737 224.957Z" fill="white"/>
<path d="M136.119 227.277C136.119 224.797 134.423 223.069 132.135 223.069C129.847 223.069 128.135 224.829 128.135 227.309C128.135 229.789 129.911 231.549 132.439 231.549C133.703 231.549 134.855 231.085 135.591 230.189L135.127 229.661C134.487 230.445 133.511 230.829 132.455 230.829C130.455 230.829 128.999 229.485 128.919 227.501H136.103C136.103 227.421 136.119 227.341 136.119 227.277ZM132.135 223.773C133.911 223.773 135.223 225.069 135.335 226.877H128.935C129.063 225.053 130.359 223.773 132.135 223.773Z" fill="white"/>
<path d="M138.61 228.269H139.218L139.378 220.285H138.45L138.61 228.269ZM138.914 231.549C139.298 231.549 139.586 231.245 139.586 230.893C139.586 230.525 139.298 230.237 138.914 230.237C138.546 230.237 138.258 230.525 138.258 230.893C138.258 231.245 138.546 231.549 138.914 231.549Z" fill="white"/>
<line opacity="0.6" x1="10.9366" y1="151.41" x2="173.064" y2="151.41" stroke="white" stroke-width="0.5"/>
<g opacity="0.2">
<path d="M25.8545 287.653L20.9366 292.301V297.759H24.3683V295.057C24.3975 294.682 24.5673 294.331 24.8436 294.075C25.1199 293.82 25.4825 293.678 25.859 293.678C26.2355 293.678 26.5981 293.82 26.8744 294.075C27.1508 294.331 27.3205 294.682 27.3497 295.057V297.759H30.7813V292.301L25.8545 287.653Z" stroke="#E7E7E7" stroke-width="0.4" stroke-miterlimit="10"/>
<path d="M60.401 288.87C60.9834 289.452 61.3802 290.193 61.5411 291C61.7021 291.808 61.6199 292.645 61.3051 293.405C60.9903 294.166 60.4569 294.816 59.7725 295.273C59.0881 295.731 58.2834 295.975 57.4602 295.975C56.6369 295.975 55.8322 295.731 55.1478 295.273C54.4634 294.816 53.93 294.166 53.6152 293.405C53.3004 292.645 53.2183 291.808 53.3792 291C53.5402 290.193 53.9369 289.452 54.5194 288.87C55.2996 288.09 56.3573 287.653 57.4602 287.653C58.563 287.653 59.6207 288.09 60.401 288.87Z" stroke="#E7E7E7" stroke-width="0.4" stroke-miterlimit="10"/>
<path d="M60.383 294.751L63.6615 298.03" stroke="#E7E7E7" stroke-width="0.4" stroke-miterlimit="10"/>
<path d="M91.205 290.463C91.205 290.463 91.2771 296.768 91.205 296.66" stroke="#E7E7E7" stroke-width="0.4" stroke-miterlimit="10"/>
<path d="M94.3125 293.543C94.3125 293.543 88.0526 293.615 88.1247 293.543" stroke="#E7E7E7" stroke-width="0.4" stroke-miterlimit="10"/>
<path d="M93.9703 288.553H88.5841C87.2559 288.553 86.1792 289.63 86.1792 290.958V296.11C86.1792 297.438 87.2559 298.515 88.5841 298.515H93.9703C95.2984 298.515 96.3752 297.438 96.3752 296.11V290.958C96.3752 289.63 95.2984 288.553 93.9703 288.553Z" stroke="#E7E7E7" stroke-width="0.4" stroke-miterlimit="10"/>
<path d="M126.597 288.558C126.06 288.525 125.527 288.66 125.07 288.944C124.613 289.228 124.256 289.647 124.048 290.143C123.837 289.647 123.478 289.229 123.02 288.945C122.562 288.661 122.028 288.526 121.49 288.558C118.653 288.558 118.482 291.521 119.364 292.926C120.247 294.331 124.048 297.358 124.048 297.358C124.048 297.358 127.912 294.214 128.723 292.926C129.533 291.638 129.443 288.558 126.597 288.558Z" stroke="#E7E7E7" stroke-width="0.4" stroke-miterlimit="10"/>
<path d="M159.987 290.661C159.987 291.256 159.81 291.838 159.48 292.332C159.149 292.827 158.679 293.213 158.129 293.44C157.58 293.668 156.975 293.728 156.391 293.612C155.808 293.495 155.272 293.209 154.851 292.788C154.43 292.367 154.144 291.831 154.028 291.248C153.912 290.664 153.971 290.059 154.199 289.51C154.427 288.96 154.812 288.49 155.307 288.16C155.802 287.829 156.383 287.653 156.978 287.653C157.374 287.651 157.765 287.728 158.131 287.879C158.496 288.03 158.829 288.252 159.108 288.531C159.388 288.811 159.609 289.143 159.76 289.508C159.911 289.874 159.988 290.266 159.987 290.661Z" fill="#E7E7E7"/>
<path d="M151.682 298.317V297.416C151.682 296.573 152.017 295.764 152.613 295.168C153.21 294.572 154.018 294.237 154.862 294.237H159.104C159.947 294.237 160.756 294.572 161.352 295.168C161.948 295.764 162.283 296.573 162.283 297.416V298.317H151.682Z" fill="#E7E7E7"/>
</g>
<rect x="0.125122" y="0.125" width="183.75" height="311.75" rx="1.875" stroke="url(#paint0_linear)" stroke-width="0.25"/>
</g>
<defs>
<filter id="filter0_b" x="-4.99988" y="-5" width="194" height="322" filterUnits="userSpaceOnUse" color-interpolation-filters="sRGB">
<feFlood flood-opacity="0" result="BackgroundImageFix"/>
<feGaussianBlur in="BackgroundImage" stdDeviation="2.5"/>
<feComposite in2="SourceAlpha" operator="in" result="effect1_backgroundBlur"/>
<feBlend mode="normal" in="SourceGraphic" in2="effect1_backgroundBlur" result="shape"/>
</filter>
<linearGradient id="paint0_linear" x1="92.0001" y1="0" x2="92.0001" y2="312" gradientUnits="userSpaceOnUse">
<stop stop-color="#E7E7E7"/>
<stop offset="1" stop-color="#E7E7E7" stop-opacity="0"/>
</linearGradient>
</defs>
</svg>
