<svg width="944" height="460" viewBox="0 0 944 460" fill="none" xmlns="http://www.w3.org/2000/svg">
<g filter="url(#filter0_b)">
<rect width="944" height="460" rx="2" fill="url(#paint0_linear)"/>
<rect x="0.378" y="0.378" width="943.244" height="459.244" rx="1.622" stroke="url(#paint1_linear)" stroke-width="0.756"/>
</g>
<line opacity="0.5" x1="447" y1="40.625" x2="497" y2="40.625" stroke="#555555" stroke-width="0.75" stroke-dasharray="0.5 0.5"/>
<path d="M436.68 20.74C435.76 20.74 434.98 21.19 434.56 21.97V18.58H434.06V26H434.54V24.77C434.95 25.57 435.74 26.04 436.68 26.04C438.15 26.04 439.26 24.95 439.26 23.39C439.26 21.82 438.15 20.74 436.68 20.74ZM436.65 25.59C435.45 25.59 434.55 24.7 434.55 23.39C434.55 22.08 435.45 21.19 436.65 21.19C437.85 21.19 438.76 22.08 438.76 23.39C438.76 24.7 437.85 25.59 436.65 25.59ZM441.488 21.92V20.78H441.008V26H441.508V23.28C441.508 21.99 442.198 21.22 443.358 21.22C443.398 21.22 443.438 21.23 443.478 21.23V20.74C442.498 20.74 441.808 21.16 441.488 21.92ZM446.425 26.04C447.755 26.04 448.485 25.46 448.485 24.61C448.485 22.62 445.025 23.73 445.025 22.16C445.025 21.6 445.475 21.18 446.495 21.18C447.055 21.18 447.625 21.33 448.065 21.65L448.295 21.25C447.885 20.94 447.165 20.74 446.505 20.74C445.185 20.74 444.525 21.38 444.525 22.17C444.525 24.22 447.985 23.1 447.985 24.62C447.985 25.21 447.545 25.6 446.445 25.6C445.675 25.6 444.965 25.31 444.565 24.97L444.335 25.37C444.745 25.75 445.565 26.04 446.425 26.04ZM452.46 25.32C452.25 25.51 451.96 25.61 451.65 25.61C451.01 25.61 450.68 25.24 450.68 24.57V21.21H452.34V20.78H450.68V19.64H450.18V20.78H449.22V21.21H450.18V24.62C450.18 25.5 450.68 26.04 451.6 26.04C451.99 26.04 452.41 25.92 452.67 25.67L452.46 25.32ZM456.119 26.04C457.619 26.04 458.729 24.94 458.729 23.39C458.729 21.84 457.619 20.74 456.119 20.74C454.619 20.74 453.509 21.84 453.509 23.39C453.509 24.94 454.619 26.04 456.119 26.04ZM456.119 25.59C454.919 25.59 454.019 24.7 454.019 23.39C454.019 22.08 454.919 21.19 456.119 21.19C457.319 21.19 458.219 22.08 458.219 23.39C458.219 24.7 457.319 25.59 456.119 25.59ZM460.96 21.92V20.78H460.48V26H460.98V23.28C460.98 21.99 461.67 21.22 462.83 21.22C462.87 21.22 462.91 21.23 462.95 21.23V20.74C461.97 20.74 461.28 21.16 460.96 21.92ZM471.028 20.74C470.018 20.74 469.258 21.24 468.918 22C468.638 21.17 467.948 20.74 467.008 20.74C466.058 20.74 465.348 21.17 465.008 21.9V20.78H464.528V26H465.028V23.22C465.028 21.98 465.758 21.19 466.938 21.19C467.958 21.19 468.568 21.81 468.568 22.99V26H469.068V23.22C469.068 21.98 469.798 21.19 470.978 21.19C471.998 21.19 472.608 21.81 472.608 22.99V26H473.108V22.95C473.108 21.49 472.288 20.74 471.028 20.74ZM475.312 26.04C475.542 26.04 475.732 25.85 475.732 25.61C475.732 25.37 475.542 25.19 475.312 25.19C475.082 25.19 474.892 25.37 474.892 25.61C474.892 25.85 475.082 26.04 475.312 26.04ZM481.548 18.58V21.99C481.128 21.2 480.348 20.74 479.418 20.74C477.948 20.74 476.838 21.82 476.838 23.39C476.838 24.95 477.948 26.04 479.418 26.04C480.358 26.04 481.148 25.58 481.558 24.77V26H482.048V18.58H481.548ZM479.448 25.59C478.248 25.59 477.348 24.7 477.348 23.39C477.348 22.08 478.248 21.19 479.448 21.19C480.648 21.19 481.548 22.08 481.548 23.39C481.548 24.7 480.648 25.59 479.448 25.59ZM488.776 23.37C488.776 21.82 487.716 20.74 486.286 20.74C484.856 20.74 483.786 21.84 483.786 23.39C483.786 24.94 484.896 26.04 486.476 26.04C487.266 26.04 487.986 25.75 488.446 25.19L488.156 24.86C487.756 25.35 487.146 25.59 486.486 25.59C485.236 25.59 484.326 24.75 484.276 23.51H488.766C488.766 23.46 488.776 23.41 488.776 23.37ZM486.286 21.18C487.396 21.18 488.216 21.99 488.286 23.12H484.286C484.366 21.98 485.176 21.18 486.286 21.18ZM491.843 26.04C493.173 26.04 493.903 25.46 493.903 24.61C493.903 22.62 490.443 23.73 490.443 22.16C490.443 21.6 490.893 21.18 491.913 21.18C492.473 21.18 493.043 21.33 493.483 21.65L493.713 21.25C493.303 20.94 492.583 20.74 491.923 20.74C490.603 20.74 489.943 21.38 489.943 22.17C489.943 24.22 493.403 23.1 493.403 24.62C493.403 25.21 492.963 25.6 491.863 25.6C491.093 25.6 490.383 25.31 489.983 24.97L489.753 25.37C490.163 25.75 490.983 26.04 491.843 26.04ZM495.748 19.51C495.978 19.51 496.158 19.33 496.158 19.1C496.158 18.88 495.978 18.7 495.748 18.7C495.518 18.7 495.338 18.89 495.338 19.11C495.338 19.33 495.518 19.51 495.748 19.51ZM495.498 26H495.998V20.78H495.498V26ZM502.526 20.78V21.96C502.106 21.18 501.296 20.74 500.336 20.74C498.856 20.74 497.736 21.78 497.736 23.27C497.736 24.76 498.856 25.81 500.336 25.81C501.276 25.81 502.076 25.38 502.506 24.62V25.5C502.506 26.89 501.856 27.53 500.466 27.53C499.626 27.53 498.876 27.25 498.356 26.77L498.086 27.15C498.616 27.68 499.526 27.98 500.476 27.98C502.156 27.98 503.006 27.19 503.006 25.44V20.78H502.526ZM500.376 25.36C499.146 25.36 498.246 24.5 498.246 23.27C498.246 22.04 499.146 21.19 500.376 21.19C501.616 21.19 502.516 22.04 502.516 23.27C502.516 24.5 501.616 25.36 500.376 25.36ZM507.872 20.74C506.882 20.74 506.152 21.18 505.802 21.91V20.78H505.322V26H505.822V23.22C505.822 21.98 506.572 21.19 507.802 21.19C508.862 21.19 509.492 21.81 509.492 22.99V26H509.992V22.95C509.992 21.49 509.142 20.74 507.872 20.74Z" fill="#555555"/>
<circle cx="897.2" cy="21.2" r="3.95" stroke="#555555" stroke-width="0.5" stroke-dasharray="4 4"/>
<rect x="919.71" y="17.25" width="7.48" height="7.48" stroke="#555555" stroke-width="0.5" stroke-dasharray="4 4"/>
<path d="M906.6 22.9062L908.873 18.9688L909.09 19.0938L910.01 17.5L910.93 19.0938L911.147 18.9688L913.42 22.9062L913.203 23.0312L914.124 24.625H912.283V24.875H907.737V24.625H905.896L906.817 23.0312L906.6 22.9062Z" stroke="#555555" stroke-width="0.5" stroke-dasharray="4 4"/>
<defs>
<filter id="filter0_b" x="-5" y="-5" width="954" height="470" filterUnits="userSpaceOnUse" color-interpolation-filters="sRGB">
<feFlood flood-opacity="0" result="BackgroundImageFix"/>
<feGaussianBlur in="BackgroundImage" stdDeviation="2.5"/>
<feComposite in2="SourceAlpha" operator="in" result="effect1_backgroundBlur"/>
<feBlend mode="normal" in="SourceGraphic" in2="effect1_backgroundBlur" result="shape"/>
</filter>
<linearGradient id="paint0_linear" x1="472" y1="0" x2="472" y2="460" gradientUnits="userSpaceOnUse">
<stop stop-color="#0A0A0A" stop-opacity="0.95"/>
<stop offset="1" stop-color="#010101" stop-opacity="0.6"/>
</linearGradient>
<linearGradient id="paint1_linear" x1="472" y1="0" x2="472" y2="460" gradientUnits="userSpaceOnUse">
<stop stop-color="#B6B6B6"/>
<stop offset="1" stop-color="#B6B6B6" stop-opacity="0"/>
</linearGradient>
</defs>
</svg>
