<svg width="54" height="53" viewBox="0 0 54 53" fill="none" xmlns="http://www.w3.org/2000/svg">
<path d="M1.01001 13.99H53" stroke="#E93CAC"/>
<path d="M52.99 4H1V52H52.99V4Z" stroke="#E93CAC"/>
<path d="M26.99 23.99H19V29.99H26.99V23.99Z" stroke="#E93CAC"/>
<path d="M34.98 23.99H26.99V29.99H34.98V23.99Z" stroke="#E93CAC"/>
<path d="M18.99 29.99H11V35.99H18.99V29.99Z" stroke="#E93CAC"/>
<path d="M26.99 29.99H19V35.99H26.99V29.99Z" stroke="#E93CAC"/>
<path d="M34.98 29.99H26.99V35.99H34.98V29.99Z" stroke="#E93CAC"/>
<path d="M42.97 29.99H34.98V35.99H42.97V29.99Z" stroke="#E93CAC"/>
<path d="M42.97 23.99H34.98V29.99H42.97V23.99Z" stroke="white"/>
<path d="M18.99 35.99H11V41.99H18.99V35.99Z" stroke="#E93CAC"/>
<path d="M34.98 35.99H26.99V41.99H34.98V35.99Z" stroke="#E93CAC"/>
<path d="M42.97 35.99H34.98V41.99H42.97V35.99Z" stroke="#E93CAC"/>
<path d="M26.99 35.99H19V41.99H26.99V35.99Z" stroke="white"/>
<path d="M18.99 23.99H11V29.99H18.99V23.99Z" stroke="white"/>
<path d="M11 8V0" stroke="white"/>
<path d="M19 8V0" stroke="white"/>
<path d="M26.99 8V0" stroke="white"/>
<path d="M34.98 8V0" stroke="white"/>
<path d="M42.98 8V0" stroke="white"/>
</svg>
