<svg width="54" height="54" viewBox="0 0 54 54" fill="none" xmlns="http://www.w3.org/2000/svg">
<path d="M27 46C37.4934 46 46 37.4934 46 27C46 16.5066 37.4934 8 27 8C16.5066 8 8 16.5066 8 27C8 37.4934 16.5066 46 27 46Z" stroke="white"/>
<path d="M27 53C41.3594 53 53 41.3594 53 27C53 12.6406 41.3594 1 27 1C12.6406 1 1 12.6406 1 27C1 41.3594 12.6406 53 27 53Z" stroke="#E93CAC"/>
<path d="M29.3599 29.36L19.9299 34.07L24.6399 24.64" stroke="white"/>
<path d="M29.3599 29.36L34.0699 19.93L24.6399 24.64L29.3599 29.36Z" stroke="#E93CAC"/>
</svg>
