<svg width="54" height="50" viewBox="0 0 54 50" fill="none" xmlns="http://www.w3.org/2000/svg">
<path d="M18.0339 39L21.0339 36V29H53.0339V49H21.0339V42L18.0339 39Z" stroke="#E93CAC"/>
<path d="M27.0339 36H47.0339" stroke="#E93CAC"/>
<path d="M27.0339 42H43.0339" stroke="#E93CAC"/>
<path d="M18.0339 11L21.0339 8V1H53.0339V21H21.0339V14L18.0339 11Z" stroke="white"/>
<path d="M27.0339 8H45.0339" stroke="white"/>
<path d="M27.0339 14H47.0339" stroke="white"/>
<path d="M7.03394 11C9.24307 11 11.0339 9.20914 11.0339 7C11.0339 4.79086 9.24307 3 7.03394 3C4.8248 3 3.03394 4.79086 3.03394 7C3.03394 9.20914 4.8248 11 7.03394 11Z" stroke="white"/>
<path d="M1.03394 17C1.03394 13.69 3.72394 11 7.03394 11C10.3439 11 13.0339 13.69 13.0339 17V21H1.03394V17Z" stroke="white"/>
<path d="M7.03394 39C9.24307 39 11.0339 37.2091 11.0339 35C11.0339 32.7909 9.24307 31 7.03394 31C4.8248 31 3.03394 32.7909 3.03394 35C3.03394 37.2091 4.8248 39 7.03394 39Z" stroke="#E93CAC"/>
<path d="M1.03394 45C1.03394 41.69 3.72394 39 7.03394 39C10.3439 39 13.0339 41.69 13.0339 45V49H1.03394V45Z" stroke="#E93CAC"/>
</svg>
