<svg width="54" height="54" viewBox="0 0 54 54" fill="none" xmlns="http://www.w3.org/2000/svg">
<path d="M1.03394 27L4.53394 25L8.03394 27" stroke="white"/>
<path d="M27.0339 46C37.5273 46 46.0339 37.4934 46.0339 27C46.0339 16.5066 37.5273 8 27.0339 8C16.5405 8 8.03394 16.5066 8.03394 27C8.03394 37.4934 16.5405 46 27.0339 46Z" stroke="white"/>
<path d="M27.0339 32C29.7954 32 32.0339 29.7614 32.0339 27C32.0339 24.2386 29.7954 22 27.0339 22C24.2725 22 22.0339 24.2386 22.0339 27C22.0339 29.7614 24.2725 32 27.0339 32Z" stroke="white"/>
<path d="M32.0339 27L35.5339 29L39.0339 27" stroke="white"/>
<path d="M27.0339 39.01L25.0339 42.51L27.0339 46.01" stroke="white"/>
<path d="M27.0339 53C41.3933 53 53.0339 41.3594 53.0339 27C53.0339 12.6406 41.3933 1 27.0339 1C12.6745 1 1.03394 12.6406 1.03394 27C1.03394 41.3594 12.6745 53 27.0339 53Z" stroke="#E93CAC"/>
<path d="M27.0339 39C33.6614 39 39.0339 33.6274 39.0339 27C39.0339 20.3726 33.6614 15 27.0339 15C20.4065 15 15.0339 20.3726 15.0339 27C15.0339 33.6274 20.4065 39 27.0339 39Z" stroke="#E93CAC"/>
</svg>
