<svg width="50" height="55" viewBox="0 0 50 55" fill="none" xmlns="http://www.w3.org/2000/svg">
<path d="M25.0339 28.01V46.02" stroke="white"/>
<path d="M35.0339 28.01V44.02H41.0339" stroke="white"/>
<path d="M15.0339 28.01V44.02H9.03394" stroke="white"/>
<path d="M9.03394 12C9.03394 5.92 13.9539 1 20.0339 1C26.1139 1 31.0339 5.92 31.0339 12" stroke="#E93CAC"/>
<path d="M35.3739 14.35C36.8239 12.9 38.8239 12.01 41.0339 12.01C45.4539 12.01 49.0339 15.59 49.0339 20.01C49.0339 24.43 45.4539 28.01 41.0339 28.01H9.03394C4.61394 28.01 1.03394 24.43 1.03394 20.01C1.03394 15.59 4.61394 12.01 9.03394 12.01C11.2439 12.01 13.2439 12.9 14.6939 14.35" stroke="#E93CAC"/>
<path d="M40.0338 12.01C40.0338 7.59001 36.4538 4.01001 32.0338 4.01001C30.7338 4.01001 29.4938 4.32001 28.4138 4.88001" stroke="#E93CAC"/>
<path d="M25.0339 54.02C27.2431 54.02 29.0339 52.2291 29.0339 50.02C29.0339 47.8108 27.2431 46.02 25.0339 46.02C22.8248 46.02 21.0339 47.8108 21.0339 50.02C21.0339 52.2291 22.8248 54.02 25.0339 54.02Z" stroke="#E93CAC"/>
<path d="M45.0339 48.02C47.2431 48.02 49.0339 46.2291 49.0339 44.02C49.0339 41.8108 47.2431 40.02 45.0339 40.02C42.8248 40.02 41.0339 41.8108 41.0339 44.02C41.0339 46.2291 42.8248 48.02 45.0339 48.02Z" stroke="#E93CAC"/>
<path d="M5.03394 48.02C7.24307 48.02 9.03394 46.2291 9.03394 44.02C9.03394 41.8108 7.24307 40.02 5.03394 40.02C2.8248 40.02 1.03394 41.8108 1.03394 44.02C1.03394 46.2291 2.8248 48.02 5.03394 48.02Z" stroke="#E93CAC"/>
</svg>
