<svg width="58" height="58" viewBox="0 0 58 58" fill="none" xmlns="http://www.w3.org/2000/svg">
<path d="M29.0339 11C31.7954 11 34.0339 8.76142 34.0339 6C34.0339 3.23858 31.7954 1 29.0339 1C26.2725 1 24.0339 3.23858 24.0339 6C24.0339 8.76142 26.2725 11 29.0339 11Z" stroke="white"/>
<path d="M29.0339 57.02C31.7954 57.02 34.0339 54.7814 34.0339 52.02C34.0339 49.2586 31.7954 47.02 29.0339 47.02C26.2725 47.02 24.0339 49.2586 24.0339 52.02C24.0339 54.7814 26.2725 57.02 29.0339 57.02Z" stroke="white"/>
<path d="M52.0439 34.01C54.8054 34.01 57.0439 31.7714 57.0439 29.01C57.0439 26.2486 54.8054 24.01 52.0439 24.01C49.2825 24.01 47.0439 26.2486 47.0439 29.01C47.0439 31.7714 49.2825 34.01 52.0439 34.01Z" stroke="white"/>
<path d="M6.02393 34.01C8.78535 34.01 11.0239 31.7714 11.0239 29.01C11.0239 26.2486 8.78535 24.01 6.02393 24.01C3.2625 24.01 1.02393 26.2486 1.02393 29.01C1.02393 31.7714 3.2625 34.01 6.02393 34.01Z" stroke="white"/>
<path d="M45.304 50.28C48.0654 50.28 50.304 48.0414 50.304 45.28C50.304 42.5186 48.0654 40.28 45.304 40.28C42.5425 40.28 40.304 42.5186 40.304 45.28C40.304 48.0414 42.5425 50.28 45.304 50.28Z" stroke="#E93CAC"/>
<path d="M12.7639 17.74C15.5253 17.74 17.7639 15.5014 17.7639 12.74C17.7639 9.97858 15.5253 7.74001 12.7639 7.74001C10.0025 7.74001 7.76392 9.97858 7.76392 12.74C7.76392 15.5014 10.0025 17.74 12.7639 17.74Z" stroke="#E93CAC"/>
<path d="M12.7639 50.28C15.5253 50.28 17.7639 48.0414 17.7639 45.28C17.7639 42.5186 15.5253 40.28 12.7639 40.28C10.0025 40.28 7.76392 42.5186 7.76392 45.28C7.76392 48.0414 10.0025 50.28 12.7639 50.28Z" stroke="#E93CAC"/>
<path d="M45.304 17.74C48.0654 17.74 50.304 15.5014 50.304 12.74C50.304 9.97858 48.0654 7.74001 45.304 7.74001C42.5425 7.74001 40.304 9.97858 40.304 12.74C40.304 15.5014 42.5425 17.74 45.304 17.74Z" stroke="#E93CAC"/>
<path d="M29.0339 35.01C32.3476 35.01 35.0339 32.3237 35.0339 29.01C35.0339 25.6963 32.3476 23.01 29.0339 23.01C25.7202 23.01 23.0339 25.6963 23.0339 29.01C23.0339 32.3237 25.7202 35.01 29.0339 35.01Z" stroke="#E93CAC"/>
<path d="M29.0339 41.02V47.02" stroke="white"/>
<path d="M29.0339 11V17" stroke="white"/>
<path d="M41.0339 29.01H47.0439" stroke="white"/>
<path d="M11.0239 29.01H17.0339" stroke="white"/>
<path d="M37.5239 37.5L41.7639 41.74" stroke="#E93CAC"/>
<path d="M16.304 16.28L20.544 20.52" stroke="#E93CAC"/>
<path d="M20.544 37.5L16.304 41.74" stroke="#E93CAC"/>
<path d="M41.7639 16.28L37.5239 20.52" stroke="#E93CAC"/>
</svg>
