<svg width="54" height="54" viewBox="0 0 54 54" fill="none" xmlns="http://www.w3.org/2000/svg">
<path d="M47.02 43.07V11.05L43.02 7.04999H11.02L7.02002 11.05V43.07L11.02 47.07H43.02L47.02 43.07Z" stroke="#E93CAC"/>
<path d="M27.02 47.07V53.07" stroke="#E93CAC"/>
<path d="M24.02 53.07H30.02" stroke="#E93CAC"/>
<path d="M39.02 47.07V53.07" stroke="#E93CAC"/>
<path d="M36.02 53.07H42.02" stroke="#E93CAC"/>
<path d="M15.02 47.07V53.07" stroke="#E93CAC"/>
<path d="M12.02 53.07H18.02" stroke="#E93CAC"/>
<path d="M27.02 7.01999V1.01999" stroke="#E93CAC"/>
<path d="M24.02 1.01999H30.02" stroke="#E93CAC"/>
<path d="M39.02 7.01999V1.01999" stroke="#E93CAC"/>
<path d="M36.02 1.01999H42.02" stroke="#E93CAC"/>
<path d="M15.02 7.01999V1.01999" stroke="#E93CAC"/>
<path d="M12.02 1.01999H18.02" stroke="#E93CAC"/>
<path d="M7 27.05H1" stroke="#E93CAC"/>
<path d="M1 24.05V30.05" stroke="#E93CAC"/>
<path d="M7 39.05H1" stroke="#E93CAC"/>
<path d="M1 36.05V42.05" stroke="#E93CAC"/>
<path d="M7 15.05H1" stroke="#E93CAC"/>
<path d="M1 12.05V18.05" stroke="#E93CAC"/>
<path d="M47.04 27.05H53.04" stroke="#E93CAC"/>
<path d="M53.04 24.05V30.05" stroke="#E93CAC"/>
<path d="M47.04 39.05H53.04" stroke="#E93CAC"/>
<path d="M53.04 36.05V42.05" stroke="#E93CAC"/>
<path d="M47.04 15.05H53.04" stroke="#E93CAC"/>
<path d="M53.04 12.05V18.05" stroke="#E93CAC"/>
<path d="M27.02 40.06L17.02 32.06V18.06L27.02 14.06L37.02 18.06V32.06L27.02 40.06Z" stroke="white"/>
<path d="M22.02 26.06L26.02 30.06L32.02 24.06" stroke="white"/>
</svg>
