<svg width="54" height="46" viewBox="0 0 54 46" fill="none" xmlns="http://www.w3.org/2000/svg">
<path d="M5.23389 27.26V42.02H21.0939" stroke="white"/>
<path d="M48.834 18.78V12.02" stroke="white"/>
<path d="M27.034 15.02L37.934 23.02L27.034 31.02L16.134 23.02L27.034 15.02Z" stroke="white"/>
<path d="M27.0339 7.01999V15.02" stroke="white"/>
<path d="M37.9338 23.02H44.6238" stroke="white"/>
<path d="M16.1338 23.02H9.44385" stroke="white"/>
<path d="M32.984 1.01999H21.094V7.01999H32.984V1.01999Z" stroke="#E93CAC"/>
<path d="M52.794 6.01999H44.864V12.02H52.794V6.01999Z" stroke="#E93CAC"/>
<path d="M48.824 27.26L44.624 23.02L48.834 18.78L53.034 23.02L48.824 27.26Z" stroke="#E93CAC"/>
<path d="M5.23394 27.26L1.03394 23.02L5.24394 18.78L9.44394 23.02L5.23394 27.26Z" stroke="#E93CAC"/>
<path d="M32.984 39.02H21.094V45.02H32.984V39.02Z" stroke="#E93CAC"/>
</svg>
