<svg width="55" height="50" viewBox="0 0 55 50" fill="none" xmlns="http://www.w3.org/2000/svg">
<path d="M29.074 33.02V19.02L35.064 15.02" stroke="white"/>
<path d="M25.074 33.02V19.02L19.084 15.02" stroke="white"/>
<path d="M29.074 49.02H25.074L23.084 45.02H31.064L29.074 49.02Z" stroke="white"/>
<path d="M33.064 39.02H21.084V45.02H33.064V39.02Z" stroke="#E93CAC"/>
<path d="M35.064 33.02H19.084V39.02H35.064V33.02Z" stroke="#E93CAC"/>
<path d="M19.074 33.02C13.724 30.16 10.084 24.51 10.084 18.02C10.084 8.62999 17.684 1.01999 27.064 1.01999C36.444 1.01999 44.044 8.62999 44.044 18.02C44.044 24.52 40.404 30.16 35.054 33.03" stroke="#E93CAC"/>
<path d="M49.0439 21.02L53.0339 23.02" stroke="white"/>
<path d="M49.0439 15.02H54.0339" stroke="white"/>
<path d="M53.0339 7.01999L49.0439 9.01999" stroke="white"/>
<path d="M5.03394 21.02L1.03394 23.02" stroke="white"/>
<path d="M5.03394 15.02H0.0339355" stroke="white"/>
<path d="M1.03394 7.01999L5.03394 9.01999" stroke="white"/>
</svg>
