<svg width="54" height="54" viewBox="0 0 54 54" fill="none" xmlns="http://www.w3.org/2000/svg">
<path d="M23.0339 12.02V23.02H12.0339C5.95394 23.02 1.03394 18.1 1.03394 12.02C1.03394 5.93999 5.95394 1.02999 12.0339 1.02999C18.1139 1.02999 23.0339 5.94999 23.0339 12.03V12.02Z" stroke="#E93CAC"/>
<path d="M12.0339 31.03H23.0339V42.03C23.0339 48.1 18.1139 53.03 12.0339 53.03C5.95394 53.03 1.03394 48.11 1.03394 42.03C1.03394 35.95 5.95394 31.03 12.0339 31.03Z" stroke="#E93CAC"/>
<path d="M31.0339 12.02V23.02H42.0339C48.1139 23.02 53.0339 18.1 53.0339 12.02C53.0339 5.94999 48.1139 1.01999 42.0339 1.01999C35.9539 1.01999 31.0339 5.93999 31.0339 12.02Z" stroke="#E93CAC"/>
<path d="M42.0339 31.03H31.0339V42.03C31.0339 48.1 35.9539 53.03 42.0339 53.03C48.1139 53.03 53.0339 48.11 53.0339 42.03C53.0339 35.95 48.1139 31.03 42.0339 31.03Z" stroke="#E93CAC"/>
<path d="M38.0339 10.03H46.0339" stroke="#E93CAC"/>
<path d="M38.0339 14.03H44.0339" stroke="#E93CAC"/>
<path d="M16.0339 10.03H8.03394" stroke="white"/>
<path d="M16.0339 14.03H10.0339" stroke="white"/>
<path d="M38.0339 43.03H46.0339" stroke="white"/>
<path d="M38.0339 39.03H44.0339" stroke="white"/>
<path d="M16.0339 43.03H8.03394" stroke="#E93CAC"/>
<path d="M16.0339 39.03H10.0339" stroke="#E93CAC"/>
</svg>
