<svg width="60" height="38" viewBox="0 0 60 38" fill="none" xmlns="http://www.w3.org/2000/svg">
<path d="M39.25 23.52L48.25 28.02L30.25 37.02L12.25 28.02L21.25 23.52" stroke="#E93CAC"/>
<path d="M39.25 14.52L48.25 19.02L30.25 28.02L12.25 19.02L21.25 14.52" stroke="white"/>
<path d="M12.25 19.02H7.75" stroke="white"/>
<path d="M30.25 1.01999L48.25 10.02L30.25 19.02L12.25 10.02L30.25 1.01999Z" stroke="#E93CAC"/>
<path d="M48.25 10.02H52.75" stroke="#E93CAC"/>
<path d="M48.25 28.02H52.75" stroke="#E93CAC"/>
<path d="M56.125 13.395C57.989 13.395 59.5 11.884 59.5 10.02C59.5 8.15603 57.989 6.64499 56.125 6.64499C54.261 6.64499 52.75 8.15603 52.75 10.02C52.75 11.884 54.261 13.395 56.125 13.395Z" stroke="#E93CAC"/>
<path d="M56.125 31.395C57.989 31.395 59.5 29.884 59.5 28.02C59.5 26.156 57.989 24.645 56.125 24.645C54.261 24.645 52.75 26.156 52.75 28.02C52.75 29.884 54.261 31.395 56.125 31.395Z" stroke="#E93CAC"/>
<path d="M4.375 22.395C6.23896 22.395 7.75 20.884 7.75 19.02C7.75 17.156 6.23896 15.645 4.375 15.645C2.51104 15.645 1 17.156 1 19.02C1 20.884 2.51104 22.395 4.375 22.395Z" stroke="white"/>
</svg>
