<svg width="54" height="54" viewBox="0 0 54 54" fill="none" xmlns="http://www.w3.org/2000/svg">
<path d="M13 47.04H21" stroke="white"/>
<path d="M43 11.04L31 23.04" stroke="white"/>
<path d="M7 13.04C10.3137 13.04 13 10.3537 13 7.03998C13 3.72627 10.3137 1.03998 7 1.03998C3.68629 1.03998 1 3.72627 1 7.03998C1 10.3537 3.68629 13.04 7 13.04Z" stroke="#E93CAC"/>
<path d="M27 13.04C30.3137 13.04 33 10.3537 33 7.03998C33 3.72627 30.3137 1.03998 27 1.03998C23.6863 1.03998 21 3.72627 21 7.03998C21 10.3537 23.6863 13.04 27 13.04Z" stroke="#E93CAC"/>
<path d="M47 13.04C50.3137 13.04 53 10.3537 53 7.03998C53 3.72627 50.3137 1.03998 47 1.03998C43.6863 1.03998 41 3.72627 41 7.03998C41 10.3537 43.6863 13.04 47 13.04Z" stroke="#E93CAC"/>
<path d="M7 33.04C10.3137 33.04 13 30.3537 13 27.04C13 23.7263 10.3137 21.04 7 21.04C3.68629 21.04 1 23.7263 1 27.04C1 30.3537 3.68629 33.04 7 33.04Z" stroke="#E93CAC"/>
<path d="M27 33.04C30.3137 33.04 33 30.3537 33 27.04C33 23.7263 30.3137 21.04 27 21.04C23.6863 21.04 21 23.7263 21 27.04C21 30.3537 23.6863 33.04 27 33.04Z" stroke="#E93CAC"/>
<path d="M47 33.04C50.3137 33.04 53 30.3537 53 27.04C53 23.7263 50.3137 21.04 47 21.04C43.6863 21.04 41 23.7263 41 27.04C41 30.3537 43.6863 33.04 47 33.04Z" stroke="#E93CAC"/>
<path d="M7 53.04C10.3137 53.04 13 50.3537 13 47.04C13 43.7263 10.3137 41.04 7 41.04C3.68629 41.04 1 43.7263 1 47.04C1 50.3537 3.68629 53.04 7 53.04Z" stroke="#E93CAC"/>
<path d="M27 53.04C30.3137 53.04 33 50.3537 33 47.04C33 43.7263 30.3137 41.04 27 41.04C23.6863 41.04 21 43.7263 21 47.04C21 50.3537 23.6863 53.04 27 53.04Z" stroke="#E93CAC"/>
<path d="M47 53.04C50.3137 53.04 53 50.3537 53 47.04C53 43.7263 50.3137 41.04 47 41.04C43.6863 41.04 41 43.7263 41 47.04C41 50.3537 43.6863 53.04 47 53.04Z" stroke="#E93CAC"/>
<path d="M7 7.53998C7.27614 7.53998 7.5 7.31612 7.5 7.03998C7.5 6.76384 7.27614 6.53998 7 6.53998C6.72386 6.53998 6.5 6.76384 6.5 7.03998C6.5 7.31612 6.72386 7.53998 7 7.53998Z" stroke="#E93CAC"/>
<path d="M27 7.53998C27.2761 7.53998 27.5 7.31612 27.5 7.03998C27.5 6.76384 27.2761 6.53998 27 6.53998C26.7239 6.53998 26.5 6.76384 26.5 7.03998C26.5 7.31612 26.7239 7.53998 27 7.53998Z" stroke="#E93CAC"/>
<path d="M47 7.53998C47.2761 7.53998 47.5 7.31612 47.5 7.03998C47.5 6.76384 47.2761 6.53998 47 6.53998C46.7239 6.53998 46.5 6.76384 46.5 7.03998C46.5 7.31612 46.7239 7.53998 47 7.53998Z" stroke="white"/>
<path d="M7 27.54C7.27614 27.54 7.5 27.3161 7.5 27.04C7.5 26.7638 7.27614 26.54 7 26.54C6.72386 26.54 6.5 26.7638 6.5 27.04C6.5 27.3161 6.72386 27.54 7 27.54Z" stroke="#E93CAC"/>
<path d="M27 27.54C27.2761 27.54 27.5 27.3161 27.5 27.04C27.5 26.7638 27.2761 26.54 27 26.54C26.7239 26.54 26.5 26.7638 26.5 27.04C26.5 27.3161 26.7239 27.54 27 27.54Z" stroke="white"/>
<path d="M47 27.54C47.2761 27.54 47.5 27.3161 47.5 27.04C47.5 26.7638 47.2761 26.54 47 26.54C46.7239 26.54 46.5 26.7638 46.5 27.04C46.5 27.3161 46.7239 27.54 47 27.54Z" stroke="#E93CAC"/>
<path d="M7 47.54C7.27614 47.54 7.5 47.3161 7.5 47.04C7.5 46.7638 7.27614 46.54 7 46.54C6.72386 46.54 6.5 46.7638 6.5 47.04C6.5 47.3161 6.72386 47.54 7 47.54Z" stroke="white"/>
<path d="M27 47.54C27.2761 47.54 27.5 47.3161 27.5 47.04C27.5 46.7638 27.2761 46.54 27 46.54C26.7239 46.54 26.5 46.7638 26.5 47.04C26.5 47.3161 26.7239 47.54 27 47.54Z" stroke="white"/>
<path d="M47 47.54C47.2761 47.54 47.5 47.3161 47.5 47.04C47.5 46.7638 47.2761 46.54 47 46.54C46.7239 46.54 46.5 46.7638 46.5 47.04C46.5 47.3161 46.7239 47.54 47 47.54Z" stroke="#E93CAC"/>
</svg>
