<svg width="58" height="56" viewBox="0 0 58 56" fill="none" xmlns="http://www.w3.org/2000/svg">
<path d="M29 13.04L15 33.04L23 49.04H35L43 33.04L29 13.04Z" stroke="white"/>
<path d="M29 13.04V31.04" stroke="white"/>
<path d="M29 35.04C30.1046 35.04 31 34.1445 31 33.04C31 31.9354 30.1046 31.04 29 31.04C27.8954 31.04 27 31.9354 27 33.04C27 34.1445 27.8954 35.04 29 35.04Z" stroke="white"/>
<path d="M39 55.04H18.99L17 53.04V49.04H41V53.04L39 55.04Z" stroke="white"/>
<path d="M31 1.56998V1.03998H27V5.03998H31V1.56998V1.56998Z" stroke="#E93CAC"/>
<path d="M55 5.03998C56.1046 5.03998 57 4.14455 57 3.03998C57 1.93541 56.1046 1.03998 55 1.03998C53.8954 1.03998 53 1.93541 53 3.03998C53 4.14455 53.8954 5.03998 55 5.03998Z" stroke="#E93CAC"/>
<path d="M3 5.05998C4.10457 5.05998 5 4.16455 5 3.05998C5 1.95541 4.10457 1.05998 3 1.05998C1.89543 1.05998 1 1.95541 1 3.05998C1 4.16455 1.89543 5.05998 3 5.05998Z" stroke="#E93CAC"/>
<path d="M3 33.04C4.10457 33.04 5 32.1445 5 31.04C5 29.9354 4.10457 29.04 3 29.04C1.89543 29.04 1 29.9354 1 31.04C1 32.1445 1.89543 33.04 3 33.04Z" stroke="#E93CAC"/>
<path d="M55 33.04C56.1046 33.04 57 32.1445 57 31.04C57 29.9354 56.1046 29.04 55 29.04C53.8954 29.04 53 29.9354 53 31.04C53 32.1445 53.8954 33.04 55 33.04Z" stroke="#E93CAC"/>
<path d="M3.02002 29.04C3.02002 15.36 13.59 4.15998 27 3.13998" stroke="#E93CAC"/>
<path d="M31 3.13998C44.41 4.15998 54.98 15.36 54.98 29.04" stroke="#E93CAC"/>
<path d="M31 3.03998H53" stroke="#E93CAC"/>
<path d="M5 3.03998H27" stroke="#E93CAC"/>
</svg>
