<svg width="62" height="58" viewBox="0 0 62 58" fill="none" xmlns="http://www.w3.org/2000/svg">
<path d="M30.5166 57.04C37.1606 57.04 42.5466 44.504 42.5466 29.04C42.5466 13.576 37.1606 1.03998 30.5166 1.03998C23.8726 1.03998 18.4866 13.576 18.4866 29.04C18.4866 44.504 23.8726 57.04 30.5166 57.04Z" stroke="#E93CAC"/>
<path d="M35.5218 39.944C49.6117 33.4782 58.7931 23.3537 56.029 17.3303C53.2649 11.3068 39.602 11.6653 25.5121 18.1311C11.4221 24.5968 2.24077 34.7213 5.00489 40.7448C7.76901 46.7683 21.4319 46.4097 35.5218 39.944Z" stroke="#E93CAC"/>
<path d="M10.0066 29.6C13.7166 33.31 19.0966 37 25.4766 39.94C39.5566 46.41 53.2366 46.78 56.0166 40.76C58.2766 35.88 52.6666 28.29 42.9366 22.14C42.3966 21.8 41.8466 21.46 41.2866 21.13C39.4866 20.07 37.5666 19.07 35.5466 18.14C21.4666 11.67 7.78656 11.3 5.00656 17.32C3.61656 20.33 5.21656 24.37 8.92656 28.47" stroke="white"/>
<path d="M30.5166 33.04C32.7313 33.04 34.5266 31.2491 34.5266 29.04C34.5266 26.8308 32.7313 25.04 30.5166 25.04C28.3019 25.04 26.5066 26.8308 26.5066 29.04C26.5066 31.2491 28.3019 33.04 30.5166 33.04Z" stroke="white"/>
</svg>
