<svg width="50" height="59" viewBox="0 0 50 59" fill="none" xmlns="http://www.w3.org/2000/svg">
<path d="M25.0339 32.04V58.04" stroke="#E93CAC"/>
<path d="M6.82397 35.42L25.034 44.04L43.244 35.42L38.074 25.95L25.034 32.04L11.994 25.95L6.82397 35.42Z" stroke="#E93CAC"/>
<path d="M6.82394 35.42L1.03394 46.04L25.0339 58.04L49.0339 46.04L43.2439 35.42L25.0339 44.04L6.82394 35.42Z" stroke="#E93CAC"/>
<path d="M25.034 2.03998L17.574 15.72L25.034 19.04L32.494 15.72L25.034 2.03998Z" stroke="white"/>
<path d="M11.9939 25.95L25.0339 32.04L38.0739 25.95L32.4939 15.72L25.0339 19.04L17.5739 15.72L11.9939 25.95Z" stroke="white"/>
<path d="M25.0339 2.03998V32.04" stroke="white"/>
</svg>
