<svg width="57" height="54" viewBox="0 0 57 54" fill="none" xmlns="http://www.w3.org/2000/svg">
<path d="M15.1638 43.04H30.8838" stroke="#E93CAC"/>
<path d="M18.0239 43.04V37.04" stroke="#E93CAC"/>
<path d="M28.0239 43.04V37.04" stroke="#E93CAC"/>
<path d="M38.0239 53.04H54.0239L56.0239 51.04V20.04L54.0239 18.04H38.0239L36.0239 20.04V51.04L38.0239 53.04Z" stroke="#E93CAC"/>
<path d="M36.0239 48.04H56.0239" stroke="#E93CAC"/>
<path d="M43.0239 22.04H49.0239" stroke="white"/>
<path d="M41.0239 33.04L45.0239 37.04L51.0239 31.04" stroke="white"/>
<path d="M36.0239 37.04H3.02393L1.02393 35.04V3.03998L3.02393 1.03998H43.0239L45.0239 3.03998V18.04" stroke="#E93CAC"/>
<path d="M1.02393 31.04H36.0239" stroke="#E93CAC"/>
<path d="M7.02393 16.04H21.0239" stroke="#E93CAC"/>
<path d="M7.02393 20.04H16.0239" stroke="white"/>
<path d="M7.02393 12.04H19.0239" stroke="white"/>
</svg>
