<svg width="56" height="50" viewBox="0 0 56 50" fill="none" xmlns="http://www.w3.org/2000/svg">
<path d="M22.1739 11.7C14.5839 13.82 9.02393 20.77 9.02393 29.03C9.02393 38.97 17.0839 47.02 27.0239 47.02H33.0239C42.9639 47.02 51.0239 38.96 51.0239 29.03C51.0239 21.46 46.3539 14.98 39.7339 12.33" stroke="#E93CAC"/>
<path d="M9.02393 29.03C4.60393 29.03 1.02393 25.45 1.02393 21.03" stroke="#E93CAC"/>
<path d="M40.7139 13.04C43.8339 9.91998 48.9039 9.91998 52.0239 13.04L47.0239 18.04" stroke="#E93CAC"/>
<path d="M50.0239 35.04H53.0239H55.0239V33.04V27.04H50.9139" stroke="#E93CAC"/>
<path d="M17.0239 43.99V49.04H23.0239V46.52" stroke="#E93CAC"/>
<path d="M37.0239 46.58V49.04H43.0239V44.04" stroke="#E93CAC"/>
<path d="M41.0239 26.54C41.3001 26.54 41.5239 26.3161 41.5239 26.04C41.5239 25.7638 41.3001 25.54 41.0239 25.54C40.7478 25.54 40.5239 25.7638 40.5239 26.04C40.5239 26.3161 40.7478 26.54 41.0239 26.54Z" stroke="white"/>
<path d="M26.0539 17.54C23.6239 15.93 22.0239 13.17 22.0239 10.04C22.0239 5.06998 26.0539 1.03998 31.0239 1.03998C35.9939 1.03998 40.0239 5.06998 40.0239 10.04C40.0239 13.15 38.4539 15.88 36.0539 17.5" stroke="white"/>
<path d="M31.0239 13.04C32.6808 13.04 34.0239 11.6968 34.0239 10.04C34.0239 8.38312 32.6808 7.03998 31.0239 7.03998C29.3671 7.03998 28.0239 8.38312 28.0239 10.04C28.0239 11.6968 29.3671 13.04 31.0239 13.04Z" stroke="white"/>
<path d="M23.0239 17.54H39.0239" stroke="#E93CAC"/>
</svg>
