<svg width="54" height="54" viewBox="0 0 54 54" fill="none" xmlns="http://www.w3.org/2000/svg">
<path d="M53 1.03998H1V53.04H53V1.03998Z" stroke="#E93CAC"/>
<path d="M12.99 7.04997H7.01001V13.05" stroke="white"/>
<path d="M7.01001 41.05V47.03H12.99" stroke="white"/>
<path d="M46.99 13.05V7.04997H40.99" stroke="white"/>
<path d="M40.99 47.03H46.99V41.05" stroke="white"/>
<path d="M26.99 31.05C29.1991 31.05 30.99 29.2591 30.99 27.05C30.99 24.8408 29.1991 23.05 26.99 23.05C24.7809 23.05 22.99 24.8408 22.99 27.05C22.99 29.2591 24.7809 31.05 26.99 31.05Z" stroke="white"/>
<path d="M26.99 36.05C31.9606 36.05 35.99 32.0205 35.99 27.05C35.99 22.0794 31.9606 18.05 26.99 18.05C22.0194 18.05 17.99 22.0794 17.99 27.05C17.99 32.0205 22.0194 36.05 26.99 36.05Z" stroke="#E93CAC"/>
<path d="M33.74 19.76L46.99 27.05L33.74 34.34C29.54 36.65 24.45 36.65 20.24 34.34L6.98999 27.05L20.24 19.76C24.44 17.45 29.53 17.45 33.74 19.76Z" stroke="#E93CAC"/>
</svg>
