<svg width="55" height="50" viewBox="0 0 55 50" fill="none" xmlns="http://www.w3.org/2000/svg">
<path d="M51.5 22.04H15" stroke="white"/>
<path d="M0 1.03998H9L18 33.04H49L54 11.04H11.81" stroke="#E93CAC"/>
<path d="M46 11.04L41 33.04" stroke="#E93CAC"/>
<path d="M26 33.04L20 11.04" stroke="#E93CAC"/>
<path d="M34 11.04V33.04" stroke="#E93CAC"/>
<path d="M24 49.04C26.2091 49.04 28 47.2491 28 45.04C28 42.8308 26.2091 41.04 24 41.04C21.7909 41.04 20 42.8308 20 45.04C20 47.2491 21.7909 49.04 24 49.04Z" stroke="white"/>
<path d="M18 41.04C15.79 41.04 14 39.25 14 37.04C14 34.83 15.79 33.04 18 33.04" stroke="#E93CAC"/>
<path d="M44.1599 49.04C46.3691 49.04 48.1599 47.2491 48.1599 45.04C48.1599 42.8308 46.3691 41.04 44.1599 41.04C41.9508 41.04 40.1599 42.8308 40.1599 45.04C40.1599 47.2491 41.9508 49.04 44.1599 49.04Z" stroke="white"/>
<path d="M50 41.04H18" stroke="#E93CAC"/>
</svg>
