<svg width="58" height="58" viewBox="0 0 58 58" fill="none" xmlns="http://www.w3.org/2000/svg">
<path d="M18.99 44.04V41.03C18.99 35.51 23.47 31.03 28.99 31.03C34.51 31.03 38.99 35.5 38.99 41.03V44.01" stroke="#E93CAC"/>
<path d="M28.99 31.04C32.3092 31.04 35 28.3492 35 25.03C35 21.7107 32.3092 19.02 28.99 19.02C25.6707 19.02 22.98 21.7107 22.98 25.03C22.98 28.3492 25.6707 31.04 28.99 31.04Z" stroke="#E93CAC"/>
<path d="M52 11.02C54.7559 11.02 56.99 8.78588 56.99 6.02998C56.99 3.27408 54.7559 1.03998 52 1.03998C49.2441 1.03998 47.01 3.27408 47.01 6.02998C47.01 8.78588 49.2441 11.02 52 11.02Z" stroke="#E93CAC"/>
<path d="M5.99 11.02C8.7459 11.02 10.98 8.78588 10.98 6.02998C10.98 3.27408 8.7459 1.03998 5.99 1.03998C3.2341 1.03998 1 3.27408 1 6.02998C1 8.78588 3.2341 11.02 5.99 11.02Z" stroke="#E93CAC"/>
<path d="M52 57.03C54.7559 57.03 56.99 54.7959 56.99 52.04C56.99 49.2841 54.7559 47.05 52 47.05C49.2441 47.05 47.01 49.2841 47.01 52.04C47.01 54.7959 49.2441 57.03 52 57.03Z" stroke="#E93CAC"/>
<path d="M5.99 57.03C8.7459 57.03 10.98 54.7959 10.98 52.04C10.98 49.2841 8.7459 47.05 5.99 47.05C3.2341 47.05 1 49.2841 1 52.04C1 54.7959 3.2341 57.03 5.99 57.03Z" stroke="#E93CAC"/>
<path d="M9.52002 9.55998L16.26 16.29" stroke="#E93CAC"/>
<path d="M48.46 9.54997L41.72 16.29" stroke="#E93CAC"/>
<path d="M17.3001 42.73L10.3701 49.65" stroke="#E93CAC"/>
<path d="M40.7 42.74L47.61 49.66" stroke="#E93CAC"/>
<path d="M28.99 47.04C38.9366 47.04 47 38.9766 47 29.03C47 19.0833 38.9366 11.02 28.99 11.02C19.0433 11.02 10.98 19.0833 10.98 29.03C10.98 38.9766 19.0433 47.04 28.99 47.04Z" stroke="white"/>
</svg>
