<svg width="53" height="53" viewBox="0 0 53 53" fill="none" xmlns="http://www.w3.org/2000/svg">
<path d="M32.9238 9.39999L35.2138 3.85999" stroke="white"/>
<path d="M16.844 48.21L19.144 42.67" stroke="white"/>
<path d="M42.6638 32.93L48.2038 35.22" stroke="white"/>
<path d="M3.854 16.85L9.404 19.15" stroke="white"/>
<path d="M19.144 9.40999L16.844 3.85999" stroke="white"/>
<path d="M35.2138 48.21L32.9238 42.67" stroke="white"/>
<path d="M42.6638 19.15L48.2038 16.85" stroke="white"/>
<path d="M3.854 35.22L9.394 32.93" stroke="white"/>
<path d="M26.0339 44.04C35.9751 44.04 44.0339 35.9811 44.0339 26.04C44.0339 16.0989 35.9751 8.03998 26.0339 8.03998C16.0928 8.03998 8.03394 16.0989 8.03394 26.04C8.03394 35.9811 16.0928 44.04 26.0339 44.04Z" stroke="#E93CAC"/>
<path d="M13.304 38.76L7.64404 44.42" stroke="#E93CAC"/>
<path d="M44.4139 7.64998L38.7539 13.31" stroke="#E93CAC"/>
<path d="M13.304 13.31L7.64404 7.64998" stroke="#E93CAC"/>
<path d="M44.4139 44.42L38.7639 38.77" stroke="#E93CAC"/>
<path d="M26.0339 44.04V52.04" stroke="#E93CAC"/>
<path d="M26.0339 0.039978V8.03998" stroke="#E93CAC"/>
<path d="M8.03394 26.04H0.0339355" stroke="#E93CAC"/>
<path d="M52.0339 26.04H44.0339" stroke="#E93CAC"/>
<path d="M26.0339 36.04C31.5568 36.04 36.0339 31.5628 36.0339 26.04C36.0339 20.5171 31.5568 16.04 26.0339 16.04C20.5111 16.04 16.0339 20.5171 16.0339 26.04C16.0339 31.5628 20.5111 36.04 26.0339 36.04Z" stroke="white"/>
</svg>
