<svg width="57" height="56" viewBox="0 0 57 56" fill="none" xmlns="http://www.w3.org/2000/svg">
<path d="M53.0339 29.05C53.0339 43.41 41.3939 55.04 27.0339 55.04C12.6739 55.04 1.03394 43.41 1.03394 29.05" stroke="#E93CAC"/>
<path d="M27.034 12.34C17.804 12.34 10.324 19.82 10.324 29.05C10.324 38.28 17.804 45.76 27.034 45.76C36.264 45.76 43.744 38.28 43.744 29.05" stroke="white"/>
<path d="M23.0939 25.11C22.0839 26.12 21.4639 27.51 21.4639 29.05C21.4639 32.13 23.9539 34.62 27.0339 34.62C28.5739 34.62 29.9639 34 30.9739 32.99" stroke="#E93CAC"/>
<path d="M53.0339 29.05C53.0339 43.41 41.3939 55.04 27.0339 55.04C12.6739 55.04 1.03394 43.41 1.03394 29.05C1.03394 21.88 3.94394 15.38 8.64394 10.68" stroke="#E93CAC"/>
<path d="M39.0339 17.05H47.0339L55.0339 9.04997H47.0339L39.0339 17.05Z" stroke="white"/>
<path d="M47.0339 9.03998L27.0339 29.05" stroke="white"/>
<path d="M47.0339 1.03998V9.03998L39.0339 17.04V9.03998L47.0339 1.03998V1.03998Z" stroke="white"/>
</svg>
