<svg width="54" height="54" viewBox="0 0 54 54" fill="none" xmlns="http://www.w3.org/2000/svg">
<path d="M27.034 34.46C36.2627 34.46 43.744 26.9787 43.744 17.75C43.744 8.5213 36.2627 1.03998 27.034 1.03998C17.8053 1.03998 10.324 8.5213 10.324 17.75C10.324 26.9787 17.8053 34.46 27.034 34.46Z" stroke="#E93CAC"/>
<path d="M36.324 53.03C45.5527 53.03 53.034 45.5487 53.034 36.32C53.034 27.0913 45.5527 19.61 36.324 19.61C27.0953 19.61 19.614 27.0913 19.614 36.32C19.614 45.5487 27.0953 53.03 36.324 53.03Z" stroke="#E93CAC"/>
<path d="M17.7439 53.03C26.9726 53.03 34.4539 45.5487 34.4539 36.32C34.4539 27.0913 26.9726 19.61 17.7439 19.61C8.51526 19.61 1.03394 27.0913 1.03394 36.32C1.03394 45.5487 8.51526 53.03 17.7439 53.03Z" stroke="#E93CAC"/>
<path d="M21.0339 9.02998H33.0339" stroke="white"/>
<path d="M23.0339 13.03H31.0339" stroke="white"/>
<path d="M7.03394 37.03H15.0339" stroke="white"/>
<path d="M9.03394 41.03H15.0339" stroke="white"/>
<path d="M39.0339 37.03H47.0339" stroke="white"/>
<path d="M39.0339 41.03H45.0339" stroke="white"/>
</svg>
