<svg width="58" height="58" viewBox="0 0 58 58" fill="none" xmlns="http://www.w3.org/2000/svg">
<path d="M18.0239 40.04L7.02393 51.04" stroke="white"/>
<path d="M25.0239 41.04L9.02394 57.04H7.02394L1.03394 51.04V49.04L17.0239 33.04L25.0239 41.04Z" stroke="#E93CAC"/>
<path d="M26.7339 35.33L23.0239 39.04" stroke="#E93CAC"/>
<path d="M19.0239 35.04L22.7339 31.33" stroke="#E93CAC"/>
<path d="M35.0239 15.03V13.2C35.0239 11.45 36.3639 10.03 38.0239 10.03C39.6839 10.03 41.0239 11.45 41.0239 13.2V15.03" stroke="white"/>
<path d="M32.0239 17.03L34.0239 15.03H42.0239L44.0239 17.03V24.03C44.0239 27.39 41.3839 30.04 38.0239 30.04C34.6639 30.04 32.0239 27.39 32.0239 24.03V17.03V17.03Z" stroke="white"/>
<path d="M44.0239 19.03H46.0239L48.0239 17.03V15.03" stroke="white"/>
<path d="M44.0239 25.03H46.0239L48.0239 27.03V29.03" stroke="white"/>
<path d="M32.0239 19.03H30.0239L28.0239 17.03V15.03" stroke="white"/>
<path d="M32.0239 25.03H30.0239L28.0239 27.03V29.03" stroke="white"/>
<path d="M38.0239 39.04C48.5173 39.04 57.0239 30.5334 57.0239 20.04C57.0239 9.54657 48.5173 1.03998 38.0239 1.03998C27.5305 1.03998 19.0239 9.54657 19.0239 20.04C19.0239 30.5334 27.5305 39.04 38.0239 39.04Z" stroke="#E93CAC"/>
</svg>
