<svg width="54" height="54" viewBox="0 0 54 54" fill="none" xmlns="http://www.w3.org/2000/svg">
<path d="M19.0239 27.04H1.02393" stroke="#E93CAC"/>
<path d="M33.0239 27.04H21.0239" stroke="white"/>
<path d="M53.0239 27.04H35.0239" stroke="#E93CAC"/>
<path d="M27.0239 36.05V51.05" stroke="#E93CAC"/>
<path d="M27.0239 3.02998V18.03" stroke="#E93CAC"/>
<path d="M22.0239 52.55C33.9939 50.22 43.0239 39.68 43.0239 27.04C43.0239 14.4 33.9939 3.85998 22.0239 1.52998" stroke="#E93CAC"/>
<path d="M32.0239 1.52998C20.0539 3.85998 11.0239 14.4 11.0239 27.04C11.0239 39.68 20.0539 50.22 32.0239 52.55" stroke="#E93CAC"/>
<path d="M7.80396 44.55C12.554 39.33 19.404 36.05 27.024 36.05C34.644 36.05 41.494 39.33 46.244 44.55" stroke="#E93CAC"/>
<path d="M46.244 9.52998C41.494 14.75 34.644 18.03 27.024 18.03C19.404 18.03 12.554 14.75 7.80396 9.52998" stroke="#E93CAC"/>
<path d="M27.0239 53.04C41.3833 53.04 53.0239 41.3994 53.0239 27.04C53.0239 12.6806 41.3833 1.03998 27.0239 1.03998C12.6645 1.03998 1.02393 12.6806 1.02393 27.04C1.02393 41.3994 12.6645 53.04 27.0239 53.04Z" stroke="#E93CAC"/>
<path d="M27.0239 33.04V21.04" stroke="white"/>
</svg>
