<svg width="100" height="180" viewBox="0 0 100 180" fill="none" xmlns="http://www.w3.org/2000/svg">
<g opacity="0.7" filter="url(#filter0_b)">
<rect width="100" height="180" rx="2" fill="#010101"/>
<rect x="0.25" y="0.25" width="99.5" height="179.5" rx="1.75" stroke="url(#paint0_linear)" stroke-width="0.5"/>
</g>
<rect x="11.4324" y="149.892" width="2.59459" height="17.2973" transform="rotate(-90 11.4324 149.892)" fill="#555555"/>
<path d="M15.5904 159.236C15.5904 158.263 14.7434 158.018 13.9664 157.829V156.415C14.3374 156.457 14.7294 156.576 15.1004 156.793L15.3874 156.086C15.0094 155.841 14.4844 155.687 13.9664 155.659V154.882H13.3924V155.673C12.3004 155.778 11.7824 156.401 11.7824 157.115C11.7824 158.088 12.6154 158.34 13.3924 158.529V159.929C12.8604 159.88 12.3354 159.677 11.9924 159.397L11.6774 160.104C12.0414 160.419 12.7064 160.643 13.3924 160.685V161.462H13.9664V160.678C15.0654 160.566 15.5904 159.95 15.5904 159.236ZM12.6854 157.073C12.6854 156.765 12.8954 156.513 13.3924 156.436V157.682C12.9864 157.563 12.6854 157.409 12.6854 157.073ZM13.9664 159.915V158.676C14.3864 158.795 14.6944 158.956 14.6944 159.299C14.6944 159.6 14.4774 159.838 13.9664 159.915ZM19.2858 156.884V157.381C18.9778 157.01 18.5158 156.842 17.9908 156.842C16.9198 156.842 16.1008 157.556 16.1008 158.641C16.1008 159.726 16.9198 160.454 17.9908 160.454C18.4948 160.454 18.9358 160.293 19.2438 159.957V160.153C19.2438 160.909 18.8798 161.287 18.0538 161.287C17.5358 161.287 17.0038 161.112 16.6748 160.839L16.2828 161.497C16.7098 161.847 17.4028 162.029 18.1028 162.029C19.4118 162.029 20.1188 161.413 20.1188 160.055V156.884H19.2858ZM18.1238 159.712C17.4588 159.712 16.9828 159.278 16.9828 158.641C16.9828 158.011 17.4588 157.584 18.1238 157.584C18.7818 157.584 19.2578 158.011 19.2578 158.641C19.2578 159.278 18.7818 159.712 18.1238 159.712ZM22.1021 157.43V156.884H21.2691V160.622H22.1441V158.809C22.1441 158.046 22.5641 157.654 23.2291 157.654C23.2921 157.654 23.3551 157.661 23.4321 157.675V156.842C22.8091 156.842 22.3541 157.038 22.1021 157.43ZM25.5819 156.842C24.9799 156.842 24.3989 156.996 23.9999 157.304L24.3429 157.941C24.6229 157.71 25.0569 157.57 25.4769 157.57C26.0999 157.57 26.4079 157.871 26.4079 158.382V158.438H25.4419C24.3079 158.438 23.8879 158.928 23.8879 159.551C23.8879 160.202 24.4269 160.671 25.2809 160.671C25.8409 160.671 26.2469 160.489 26.4569 160.167V160.622H27.2829V158.431C27.2829 157.353 26.6599 156.842 25.5819 156.842ZM25.4629 160.034C25.0149 160.034 24.7489 159.831 24.7489 159.516C24.7489 159.243 24.9099 159.019 25.5049 159.019H26.4079V159.453C26.2609 159.838 25.8899 160.034 25.4629 160.034ZM30.4778 156.842C29.9668 156.842 29.5328 157.017 29.2388 157.374V156.884H28.4058V161.98H29.2808V160.167C29.5818 160.51 30.0018 160.671 30.4778 160.671C31.5698 160.671 32.3748 159.915 32.3748 158.753C32.3748 157.598 31.5698 156.842 30.4778 156.842ZM30.3798 159.922C29.7498 159.922 29.2668 159.467 29.2668 158.753C29.2668 158.039 29.7498 157.584 30.3798 157.584C31.0098 157.584 31.4858 158.039 31.4858 158.753C31.4858 159.467 31.0098 159.922 30.3798 159.922ZM35.3257 156.842C34.8077 156.842 34.3667 157.01 34.0797 157.318V155.428H33.2047V160.622H34.0797V158.732C34.0797 157.983 34.4997 157.605 35.1227 157.605C35.6827 157.605 36.0117 157.927 36.0117 158.592V160.622H36.8867V158.48C36.8867 157.353 36.2217 156.842 35.3257 156.842ZM38.4377 156.268C38.7667 156.268 38.9977 156.03 38.9977 155.722C38.9977 155.435 38.7597 155.218 38.4377 155.218C38.1157 155.218 37.8777 155.449 37.8777 155.743C37.8777 156.037 38.1157 156.268 38.4377 156.268ZM37.9967 160.622H38.8717V156.884H37.9967V160.622ZM42.0221 159.796C41.8891 159.901 41.7141 159.95 41.5321 159.95C41.1961 159.95 41.0141 159.754 41.0141 159.39V157.612H42.0151V156.912H41.0141V156.058H40.1391V156.912H39.5231V157.612H40.1391V159.411C40.1391 160.237 40.6081 160.671 41.4271 160.671C41.7421 160.671 42.0571 160.587 42.2671 160.419L42.0221 159.796ZM46.3779 158.774C46.3779 157.605 45.5799 156.842 44.4879 156.842C43.3749 156.842 42.5559 157.64 42.5559 158.753C42.5559 159.866 43.3679 160.671 44.6209 160.671C45.2649 160.671 45.7899 160.461 46.1259 160.062L45.6569 159.523C45.3909 159.796 45.0619 159.929 44.6419 159.929C43.9909 159.929 43.5359 159.579 43.4309 159.033H46.3639C46.3709 158.949 46.3779 158.844 46.3779 158.774ZM44.4879 157.542C45.0619 157.542 45.4749 157.913 45.5449 158.452H43.4239C43.5079 157.906 43.9209 157.542 44.4879 157.542ZM49.2592 161.98H49.8822V155.428H49.2592V161.98ZM57.2279 157.493V156.982H56.2619L56.4159 155.722H55.9189L55.7649 156.982H54.4489L54.6029 155.722H54.1059L53.9519 156.982H52.9089V157.493H53.8889L53.7139 158.851H52.6849V159.362H53.6509L53.4969 160.622H53.9939L54.1479 159.362H55.4709L55.3169 160.622H55.8139L55.9679 159.362H57.0039V158.851H56.0309L56.1989 157.493H57.2279ZM55.5339 158.851H54.2109L54.3859 157.493H55.7019L55.5339 158.851ZM59.1538 157.675H58.6078L58.7408 156.331H60.9178V155.722H58.1528L57.8938 158.284H59.0068C60.1408 158.284 60.4908 158.627 60.4908 159.18C60.4908 159.712 60.0708 160.055 59.3288 160.055C58.7338 160.055 58.1878 159.838 57.8588 159.53L57.5368 160.083C57.9568 160.454 58.6428 160.678 59.3358 160.678C60.5888 160.678 61.1908 159.999 61.1908 159.152C61.1908 158.284 60.6168 157.675 59.1538 157.675ZM63.1391 157.675H62.5931L62.7261 156.331H64.9031V155.722H62.1381L61.8791 158.284H62.9921C64.1261 158.284 64.4761 158.627 64.4761 159.18C64.4761 159.712 64.0561 160.055 63.3141 160.055C62.7191 160.055 62.1731 159.838 61.8441 159.53L61.5221 160.083C61.9421 160.454 62.6281 160.678 63.3211 160.678C64.5741 160.678 65.1761 159.999 65.1761 159.152C65.1761 158.284 64.6021 157.675 63.1391 157.675ZM67.1245 157.675H66.5785L66.7115 156.331H68.8885V155.722H66.1235L65.8645 158.284H66.9775C68.1115 158.284 68.4615 158.627 68.4615 159.18C68.4615 159.712 68.0415 160.055 67.2995 160.055C66.7045 160.055 66.1585 159.838 65.8295 159.53L65.5075 160.083C65.9275 160.454 66.6135 160.678 67.3065 160.678C68.5595 160.678 69.1615 159.999 69.1615 159.152C69.1615 158.284 68.5875 157.675 67.1245 157.675ZM71.1098 157.675H70.5638L70.6968 156.331H72.8738V155.722H70.1088L69.8498 158.284H70.9628C72.0968 158.284 72.4468 158.627 72.4468 159.18C72.4468 159.712 72.0268 160.055 71.2848 160.055C70.6898 160.055 70.1438 159.838 69.8148 159.53L69.4928 160.083C69.9128 160.454 70.5988 160.678 71.2918 160.678C72.5448 160.678 73.1468 159.999 73.1468 159.152C73.1468 158.284 72.5728 157.675 71.1098 157.675ZM75.0952 157.675H74.5492L74.6822 156.331H76.8592V155.722H74.0942L73.8352 158.284H74.9482C76.0822 158.284 76.4322 158.627 76.4322 159.18C76.4322 159.712 76.0122 160.055 75.2702 160.055C74.6752 160.055 74.1292 159.838 73.8002 159.53L73.4782 160.083C73.8982 160.454 74.5842 160.678 75.2772 160.678C76.5302 160.678 77.1322 159.999 77.1322 159.152C77.1322 158.284 76.5582 157.675 75.0952 157.675ZM79.0805 157.675H78.5345L78.6675 156.331H80.8445V155.722H78.0795L77.8205 158.284H78.9335C80.0675 158.284 80.4175 158.627 80.4175 159.18C80.4175 159.712 79.9975 160.055 79.2555 160.055C78.6605 160.055 78.1145 159.838 77.7855 159.53L77.4635 160.083C77.8835 160.454 78.5695 160.678 79.2625 160.678C80.5155 160.678 81.1175 159.999 81.1175 159.152C81.1175 158.284 80.5435 157.675 79.0805 157.675Z" fill="#555555"/>
<rect x="11" y="116.568" width="2.59459" height="17.2973" transform="rotate(-90 11 116.568)" fill="#B6B6B6"/>
<path d="M15.5904 125.911C15.5904 124.938 14.7434 124.693 13.9664 124.504V123.09C14.3374 123.132 14.7294 123.251 15.1004 123.468L15.3874 122.761C15.0094 122.516 14.4844 122.362 13.9664 122.334V121.557H13.3924V122.348C12.3004 122.453 11.7824 123.076 11.7824 123.79C11.7824 124.763 12.6154 125.015 13.3924 125.204V126.604C12.8604 126.555 12.3354 126.352 11.9924 126.072L11.6774 126.779C12.0414 127.094 12.7064 127.318 13.3924 127.36V128.137H13.9664V127.353C15.0654 127.241 15.5904 126.625 15.5904 125.911ZM12.6854 123.748C12.6854 123.44 12.8954 123.188 13.3924 123.111V124.357C12.9864 124.238 12.6854 124.084 12.6854 123.748ZM13.9664 126.59V125.351C14.3864 125.47 14.6944 125.631 14.6944 125.974C14.6944 126.275 14.4774 126.513 13.9664 126.59ZM19.1948 122.103V124.021C18.9008 123.678 18.4738 123.517 17.9908 123.517C16.9058 123.517 16.1008 124.266 16.1008 125.428C16.1008 126.59 16.9058 127.346 17.9908 127.346C18.5018 127.346 18.9358 127.171 19.2298 126.814V127.297H20.0698V122.103H19.1948ZM18.0958 126.597C17.4658 126.597 16.9828 126.142 16.9828 125.428C16.9828 124.714 17.4658 124.259 18.0958 124.259C18.7258 124.259 19.2088 124.714 19.2088 125.428C19.2088 126.142 18.7258 126.597 18.0958 126.597ZM22.6424 123.517C22.0404 123.517 21.4594 123.671 21.0604 123.979L21.4034 124.616C21.6834 124.385 22.1174 124.245 22.5374 124.245C23.1604 124.245 23.4684 124.546 23.4684 125.057V125.113H22.5024C21.3684 125.113 20.9484 125.603 20.9484 126.226C20.9484 126.877 21.4874 127.346 22.3414 127.346C22.9014 127.346 23.3074 127.164 23.5174 126.842V127.297H24.3434V125.106C24.3434 124.028 23.7204 123.517 22.6424 123.517ZM22.5234 126.709C22.0754 126.709 21.8094 126.506 21.8094 126.191C21.8094 125.918 21.9704 125.694 22.5654 125.694H23.4684V126.128C23.3214 126.513 22.9504 126.709 22.5234 126.709ZM26.2994 124.105V123.559H25.4664V127.297H26.3414V125.484C26.3414 124.721 26.7614 124.329 27.4264 124.329C27.4894 124.329 27.5524 124.336 27.6294 124.35V123.517C27.0064 123.517 26.5514 123.713 26.2994 124.105ZM31.1927 127.297H32.2567L30.5487 125.127L32.1097 123.559H31.0597L29.2467 125.239V122.103H28.3717V127.297H29.2467V126.31L29.8977 125.694L31.1927 127.297ZM35.5416 123.559V124.056C35.2336 123.685 34.7716 123.517 34.2466 123.517C33.1756 123.517 32.3566 124.231 32.3566 125.316C32.3566 126.401 33.1756 127.129 34.2466 127.129C34.7506 127.129 35.1916 126.968 35.4996 126.632V126.828C35.4996 127.584 35.1356 127.962 34.3096 127.962C33.7916 127.962 33.2596 127.787 32.9306 127.514L32.5386 128.172C32.9656 128.522 33.6586 128.704 34.3586 128.704C35.6676 128.704 36.3746 128.088 36.3746 126.73V123.559H35.5416ZM34.3796 126.387C33.7146 126.387 33.2386 125.953 33.2386 125.316C33.2386 124.686 33.7146 124.259 34.3796 124.259C35.0376 124.259 35.5136 124.686 35.5136 125.316C35.5136 125.953 35.0376 126.387 34.3796 126.387ZM38.358 124.105V123.559H37.525V127.297H38.4V125.484C38.4 124.721 38.82 124.329 39.485 124.329C39.548 124.329 39.611 124.336 39.688 124.35V123.517C39.065 123.517 38.61 123.713 38.358 124.105ZM41.8378 123.517C41.2358 123.517 40.6548 123.671 40.2558 123.979L40.5988 124.616C40.8788 124.385 41.3128 124.245 41.7328 124.245C42.3558 124.245 42.6638 124.546 42.6638 125.057V125.113H41.6978C40.5638 125.113 40.1438 125.603 40.1438 126.226C40.1438 126.877 40.6828 127.346 41.5368 127.346C42.0968 127.346 42.5028 127.164 42.7128 126.842V127.297H43.5388V125.106C43.5388 124.028 42.9158 123.517 41.8378 123.517ZM41.7188 126.709C41.2708 126.709 41.0048 126.506 41.0048 126.191C41.0048 125.918 41.1658 125.694 41.7608 125.694H42.6638V126.128C42.5168 126.513 42.1458 126.709 41.7188 126.709ZM47.2533 123.559L46.0703 126.324L44.8943 123.559H43.9843L45.6153 127.311L45.5523 127.458C45.3843 127.829 45.2023 127.976 44.8943 127.976C44.6563 127.976 44.4183 127.878 44.2503 127.717L43.9003 128.361C44.1383 128.578 44.5303 128.704 44.9013 128.704C45.5243 128.704 46.0003 128.445 46.3433 127.598L48.0933 123.559H47.2533ZM50.6811 128.655H51.3041V122.103H50.6811V128.655ZM58.6498 124.168V123.657H57.6838L57.8378 122.397H57.3408L57.1868 123.657H55.8708L56.0248 122.397H55.5278L55.3738 123.657H54.3308V124.168H55.3108L55.1358 125.526H54.1068V126.037H55.0728L54.9188 127.297H55.4158L55.5698 126.037H56.8928L56.7388 127.297H57.2358L57.3898 126.037H58.4258V125.526H57.4528L57.6208 124.168H58.6498ZM56.9558 125.526H55.6328L55.8078 124.168H57.1238L56.9558 125.526ZM62.8717 124.756C63.2567 124.567 63.5297 124.196 63.5297 123.664C63.5297 122.873 62.8997 122.397 61.7727 122.397H59.5747V127.297H61.9127C63.1517 127.297 63.7887 126.814 63.7887 125.974C63.7887 125.323 63.4247 124.91 62.8717 124.756ZM61.7097 122.964C62.4237 122.964 62.8297 123.23 62.8297 123.748C62.8297 124.266 62.4237 124.532 61.7097 124.532H60.2747V122.964H61.7097ZM61.8847 126.73H60.2747V125.099H61.8847C62.6617 125.099 63.0817 125.351 63.0817 125.918C63.0817 126.485 62.6617 126.73 61.8847 126.73ZM66.5875 124.322C65.9785 124.322 65.4605 124.546 65.1805 124.966C65.1735 124.903 65.1735 124.847 65.1735 124.791C65.1735 123.566 65.8105 122.943 66.8045 122.943C67.1545 122.943 67.4905 123.006 67.7425 123.174L68.0085 122.628C67.6935 122.432 67.2525 122.341 66.7905 122.341C65.4185 122.341 64.4735 123.237 64.4735 124.91C64.4735 126.471 65.2155 127.353 66.5315 127.353C67.5045 127.353 68.2675 126.751 68.2675 125.806C68.2675 124.903 67.5605 124.322 66.5875 124.322ZM66.5035 126.786C65.7475 126.786 65.3415 126.345 65.3415 125.841C65.3415 125.302 65.8035 124.889 66.4685 124.889C67.1545 124.889 67.5885 125.26 67.5885 125.834C67.5885 126.415 67.1405 126.786 66.5035 126.786ZM72.4898 124.756C72.8748 124.567 73.1478 124.196 73.1478 123.664C73.1478 122.873 72.5178 122.397 71.3908 122.397H69.1928V127.297H71.5308C72.7698 127.297 73.4068 126.814 73.4068 125.974C73.4068 125.323 73.0428 124.91 72.4898 124.756ZM71.3278 122.964C72.0418 122.964 72.4478 123.23 72.4478 123.748C72.4478 124.266 72.0418 124.532 71.3278 124.532H69.8928V122.964H71.3278ZM71.5028 126.73H69.8928V125.099H71.5028C72.2798 125.099 72.6998 125.351 72.6998 125.918C72.6998 126.485 72.2798 126.73 71.5028 126.73ZM76.2057 124.322C75.5967 124.322 75.0787 124.546 74.7987 124.966C74.7917 124.903 74.7917 124.847 74.7917 124.791C74.7917 123.566 75.4287 122.943 76.4227 122.943C76.7727 122.943 77.1087 123.006 77.3607 123.174L77.6267 122.628C77.3117 122.432 76.8707 122.341 76.4087 122.341C75.0367 122.341 74.0917 123.237 74.0917 124.91C74.0917 126.471 74.8337 127.353 76.1497 127.353C77.1227 127.353 77.8857 126.751 77.8857 125.806C77.8857 124.903 77.1787 124.322 76.2057 124.322ZM76.1217 126.786C75.3657 126.786 74.9597 126.345 74.9597 125.841C74.9597 125.302 75.4217 124.889 76.0867 124.889C76.7727 124.889 77.2067 125.26 77.2067 125.834C77.2067 126.415 76.7587 126.786 76.1217 126.786ZM82.108 124.756C82.493 124.567 82.766 124.196 82.766 123.664C82.766 122.873 82.136 122.397 81.009 122.397H78.811V127.297H81.149C82.388 127.297 83.025 126.814 83.025 125.974C83.025 125.323 82.661 124.91 82.108 124.756ZM80.946 122.964C81.66 122.964 82.066 123.23 82.066 123.748C82.066 124.266 81.66 124.532 80.946 124.532H79.511V122.964H80.946ZM81.121 126.73H79.511V125.099H81.121C81.898 125.099 82.318 125.351 82.318 125.918C82.318 126.485 81.898 126.73 81.121 126.73ZM85.8238 124.322C85.2148 124.322 84.6968 124.546 84.4168 124.966C84.4098 124.903 84.4098 124.847 84.4098 124.791C84.4098 123.566 85.0468 122.943 86.0408 122.943C86.3908 122.943 86.7268 123.006 86.9788 123.174L87.2448 122.628C86.9298 122.432 86.4888 122.341 86.0268 122.341C84.6548 122.341 83.7098 123.237 83.7098 124.91C83.7098 126.471 84.4518 127.353 85.7678 127.353C86.7408 127.353 87.5038 126.751 87.5038 125.806C87.5038 124.903 86.7968 124.322 85.8238 124.322ZM85.7398 126.786C84.9838 126.786 84.5778 126.345 84.5778 125.841C84.5778 125.302 85.0398 124.889 85.7048 124.889C86.3908 124.889 86.8248 125.26 86.8248 125.834C86.8248 126.415 86.3768 126.786 85.7398 126.786Z" fill="#B6B6B6"/>
<rect x="11" y="83.2433" width="2.59459" height="17.2973" transform="rotate(-90 11 83.2433)" fill="#D5D5D5"/>
<path d="M15.5904 92.587C15.5904 91.614 14.7434 91.369 13.9664 91.18V89.766C14.3374 89.808 14.7294 89.927 15.1004 90.144L15.3874 89.437C15.0094 89.192 14.4844 89.038 13.9664 89.01V88.233H13.3924V89.024C12.3004 89.129 11.7824 89.752 11.7824 90.466C11.7824 91.439 12.6154 91.691 13.3924 91.88V93.28C12.8604 93.231 12.3354 93.028 11.9924 92.748L11.6774 93.455C12.0414 93.77 12.7064 93.994 13.3924 94.036V94.813H13.9664V94.029C15.0654 93.917 15.5904 93.301 15.5904 92.587ZM12.6854 90.424C12.6854 90.116 12.8954 89.864 13.3924 89.787V91.033C12.9864 90.914 12.6854 90.76 12.6854 90.424ZM13.9664 93.266V92.027C14.3864 92.146 14.6944 92.307 14.6944 92.65C14.6944 92.951 14.4774 93.189 13.9664 93.266ZM19.2858 90.235V90.732C18.9778 90.361 18.5158 90.193 17.9908 90.193C16.9198 90.193 16.1008 90.907 16.1008 91.992C16.1008 93.077 16.9198 93.805 17.9908 93.805C18.4948 93.805 18.9358 93.644 19.2438 93.308V93.504C19.2438 94.26 18.8798 94.638 18.0538 94.638C17.5358 94.638 17.0038 94.463 16.6748 94.19L16.2828 94.848C16.7098 95.198 17.4028 95.38 18.1028 95.38C19.4118 95.38 20.1188 94.764 20.1188 93.406V90.235H19.2858ZM18.1238 93.063C17.4588 93.063 16.9828 92.629 16.9828 91.992C16.9828 91.362 17.4588 90.935 18.1238 90.935C18.7818 90.935 19.2578 91.362 19.2578 91.992C19.2578 92.629 18.7818 93.063 18.1238 93.063ZM22.1021 90.781V90.235H21.2691V93.973H22.1441V92.16C22.1441 91.397 22.5641 91.005 23.2291 91.005C23.2921 91.005 23.3551 91.012 23.4321 91.026V90.193C22.8091 90.193 22.3541 90.389 22.1021 90.781ZM25.5819 90.193C24.9799 90.193 24.3989 90.347 23.9999 90.655L24.3429 91.292C24.6229 91.061 25.0569 90.921 25.4769 90.921C26.0999 90.921 26.4079 91.222 26.4079 91.733V91.789H25.4419C24.3079 91.789 23.8879 92.279 23.8879 92.902C23.8879 93.553 24.4269 94.022 25.2809 94.022C25.8409 94.022 26.2469 93.84 26.4569 93.518V93.973H27.2829V91.782C27.2829 90.704 26.6599 90.193 25.5819 90.193ZM25.4629 93.385C25.0149 93.385 24.7489 93.182 24.7489 92.867C24.7489 92.594 24.9099 92.37 25.5049 92.37H26.4079V92.804C26.2609 93.189 25.8899 93.385 25.4629 93.385ZM30.9975 90.235L29.8145 93L28.6385 90.235H27.7285L29.3595 93.987L29.2965 94.134C29.1285 94.505 28.9465 94.652 28.6385 94.652C28.4005 94.652 28.1625 94.554 27.9945 94.393L27.6445 95.037C27.8825 95.254 28.2745 95.38 28.6455 95.38C29.2685 95.38 29.7445 95.121 30.0875 94.274L31.8375 90.235H30.9975ZM34.4252 95.331H35.0482V88.779H34.4252V95.331ZM42.3939 90.844V90.333H41.4279L41.5819 89.073H41.0849L40.9309 90.333H39.6149L39.7689 89.073H39.2719L39.1179 90.333H38.0749V90.844H39.0549L38.8799 92.202H37.8509V92.713H38.8169L38.6629 93.973H39.1599L39.3139 92.713H40.6369L40.4829 93.973H40.9799L41.1339 92.713H42.1699V92.202H41.1969L41.3649 90.844H42.3939ZM40.6999 92.202H39.3769L39.5519 90.844H40.8679L40.6999 92.202ZM43.3188 93.973H45.3838C46.9588 93.973 48.0298 92.979 48.0298 91.523C48.0298 90.067 46.9588 89.073 45.3838 89.073H43.3188V93.973ZM44.0188 93.364V89.682H45.3418C46.5528 89.682 47.3298 90.424 47.3298 91.523C47.3298 92.622 46.5528 93.364 45.3418 93.364H44.0188ZM50.103 91.026H49.557L49.69 89.682H51.867V89.073H49.102L48.843 91.635H49.956C51.09 91.635 51.44 91.978 51.44 92.531C51.44 93.063 51.02 93.406 50.278 93.406C49.683 93.406 49.137 93.189 48.808 92.881L48.486 93.434C48.906 93.805 49.592 94.029 50.285 94.029C51.538 94.029 52.14 93.35 52.14 92.503C52.14 91.635 51.566 91.026 50.103 91.026ZM53.1215 93.973H55.1865C56.7615 93.973 57.8325 92.979 57.8325 91.523C57.8325 90.067 56.7615 89.073 55.1865 89.073H53.1215V93.973ZM53.8215 93.364V89.682H55.1445C56.3555 89.682 57.1325 90.424 57.1325 91.523C57.1325 92.622 56.3555 93.364 55.1445 93.364H53.8215ZM59.9057 91.026H59.3597L59.4927 89.682H61.6697V89.073H58.9047L58.6457 91.635H59.7587C60.8927 91.635 61.2427 91.978 61.2427 92.531C61.2427 93.063 60.8227 93.406 60.0807 93.406C59.4857 93.406 58.9397 93.189 58.6107 92.881L58.2887 93.434C58.7087 93.805 59.3947 94.029 60.0877 94.029C61.3407 94.029 61.9427 93.35 61.9427 92.503C61.9427 91.635 61.3687 91.026 59.9057 91.026ZM62.9243 93.973H64.9893C66.5643 93.973 67.6353 92.979 67.6353 91.523C67.6353 90.067 66.5643 89.073 64.9893 89.073H62.9243V93.973ZM63.6243 93.364V89.682H64.9473C66.1583 89.682 66.9353 90.424 66.9353 91.523C66.9353 92.622 66.1583 93.364 64.9473 93.364H63.6243ZM69.7085 91.026H69.1625L69.2955 89.682H71.4725V89.073H68.7075L68.4485 91.635H69.5615C70.6955 91.635 71.0455 91.978 71.0455 92.531C71.0455 93.063 70.6255 93.406 69.8835 93.406C69.2885 93.406 68.7425 93.189 68.4135 92.881L68.0915 93.434C68.5115 93.805 69.1975 94.029 69.8905 94.029C71.1435 94.029 71.7455 93.35 71.7455 92.503C71.7455 91.635 71.1715 91.026 69.7085 91.026Z" fill="#D5D5D5"/>
<rect x="11" y="49.9189" width="2.59459" height="17.2973" transform="rotate(-90 11 49.9189)" fill="#E7E7E7"/>
<path d="M15.5904 59.2627C15.5904 58.2897 14.7434 58.0447 13.9664 57.8557V56.4417C14.3374 56.4837 14.7294 56.6027 15.1004 56.8197L15.3874 56.1127C15.0094 55.8677 14.4844 55.7137 13.9664 55.6857V54.9087H13.3924V55.6997C12.3004 55.8047 11.7824 56.4277 11.7824 57.1417C11.7824 58.1147 12.6154 58.3667 13.3924 58.5557V59.9557C12.8604 59.9067 12.3354 59.7037 11.9924 59.4237L11.6774 60.1307C12.0414 60.4457 12.7064 60.6697 13.3924 60.7117V61.4887H13.9664V60.7047C15.0654 60.5927 15.5904 59.9767 15.5904 59.2627ZM12.6854 57.0997C12.6854 56.7917 12.8954 56.5397 13.3924 56.4627V57.7087C12.9864 57.5897 12.6854 57.4357 12.6854 57.0997ZM13.9664 59.9417V58.7027C14.3864 58.8217 14.6944 58.9827 14.6944 59.3257C14.6944 59.6267 14.4774 59.8647 13.9664 59.9417ZM16.4088 60.6487H17.2838V55.4547H16.4088V60.6487ZM18.8732 56.2947C19.2022 56.2947 19.4332 56.0567 19.4332 55.7487C19.4332 55.4617 19.1952 55.2447 18.8732 55.2447C18.5512 55.2447 18.3132 55.4757 18.3132 55.7697C18.3132 56.0637 18.5512 56.2947 18.8732 56.2947ZM18.4322 60.6487H19.3072V56.9107H18.4322V60.6487ZM23.3327 56.9107V57.4077C23.0247 57.0367 22.5627 56.8687 22.0377 56.8687C20.9667 56.8687 20.1477 57.5827 20.1477 58.6677C20.1477 59.7527 20.9667 60.4807 22.0377 60.4807C22.5417 60.4807 22.9827 60.3197 23.2907 59.9837V60.1797C23.2907 60.9357 22.9267 61.3137 22.1007 61.3137C21.5827 61.3137 21.0507 61.1387 20.7217 60.8657L20.3297 61.5237C20.7567 61.8737 21.4497 62.0557 22.1497 62.0557C23.4587 62.0557 24.1657 61.4397 24.1657 60.0817V56.9107H23.3327ZM22.1707 59.7387C21.5057 59.7387 21.0297 59.3047 21.0297 58.6677C21.0297 58.0377 21.5057 57.6107 22.1707 57.6107C22.8287 57.6107 23.3047 58.0377 23.3047 58.6677C23.3047 59.3047 22.8287 59.7387 22.1707 59.7387ZM27.437 56.8687C26.919 56.8687 26.478 57.0367 26.191 57.3447V55.4547H25.316V60.6487H26.191V58.7587C26.191 58.0097 26.611 57.6317 27.234 57.6317C27.794 57.6317 28.123 57.9537 28.123 58.6187V60.6487H28.998V58.5067C28.998 57.3797 28.333 56.8687 27.437 56.8687ZM32.11 59.8227C31.977 59.9277 31.802 59.9767 31.62 59.9767C31.284 59.9767 31.102 59.7807 31.102 59.4167V57.6387H32.103V56.9387H31.102V56.0847H30.227V56.9387H29.611V57.6387H30.227V59.4377C30.227 60.2637 30.696 60.6977 31.515 60.6977C31.83 60.6977 32.145 60.6137 32.355 60.4457L32.11 59.8227ZM35.8287 56.9107V57.4077C35.5207 57.0367 35.0587 56.8687 34.5337 56.8687C33.4627 56.8687 32.6437 57.5827 32.6437 58.6677C32.6437 59.7527 33.4627 60.4807 34.5337 60.4807C35.0377 60.4807 35.4787 60.3197 35.7867 59.9837V60.1797C35.7867 60.9357 35.4227 61.3137 34.5967 61.3137C34.0787 61.3137 33.5467 61.1387 33.2177 60.8657L32.8257 61.5237C33.2527 61.8737 33.9457 62.0557 34.6457 62.0557C35.9547 62.0557 36.6617 61.4397 36.6617 60.0817V56.9107H35.8287ZM34.6667 59.7387C34.0017 59.7387 33.5257 59.3047 33.5257 58.6677C33.5257 58.0377 34.0017 57.6107 34.6667 57.6107C35.3247 57.6107 35.8007 58.0377 35.8007 58.6677C35.8007 59.3047 35.3247 59.7387 34.6667 59.7387ZM38.6451 57.4567V56.9107H37.8121V60.6487H38.6871V58.8357C38.6871 58.0727 39.1071 57.6807 39.7721 57.6807C39.8351 57.6807 39.8981 57.6877 39.9751 57.7017V56.8687C39.3521 56.8687 38.8971 57.0647 38.6451 57.4567ZM42.1249 56.8687C41.5229 56.8687 40.9419 57.0227 40.5429 57.3307L40.8859 57.9677C41.1659 57.7367 41.5999 57.5967 42.0199 57.5967C42.6429 57.5967 42.9509 57.8977 42.9509 58.4087V58.4647H41.9849C40.8509 58.4647 40.4309 58.9547 40.4309 59.5777C40.4309 60.2287 40.9699 60.6977 41.8239 60.6977C42.3839 60.6977 42.7899 60.5157 42.9999 60.1937V60.6487H43.8259V58.4577C43.8259 57.3797 43.2029 56.8687 42.1249 56.8687ZM42.0059 60.0607C41.5579 60.0607 41.2919 59.8577 41.2919 59.5427C41.2919 59.2697 41.4529 59.0457 42.0479 59.0457H42.9509V59.4797C42.8039 59.8647 42.4329 60.0607 42.0059 60.0607ZM47.5405 56.9107L46.3575 59.6757L45.1815 56.9107H44.2715L45.9025 60.6627L45.8395 60.8097C45.6715 61.1807 45.4895 61.3277 45.1815 61.3277C44.9435 61.3277 44.7055 61.2297 44.5375 61.0687L44.1875 61.7127C44.4255 61.9297 44.8175 62.0557 45.1885 62.0557C45.8115 62.0557 46.2875 61.7967 46.6305 60.9497L48.3805 56.9107H47.5405ZM50.9682 62.0067H51.5912V55.4547H50.9682V62.0067ZM58.9369 57.5197V57.0087H57.9709L58.1249 55.7487H57.6279L57.4739 57.0087H56.1579L56.3119 55.7487H55.8149L55.6609 57.0087H54.6179V57.5197H55.5979L55.4229 58.8777H54.3939V59.3887H55.3599L55.2059 60.6487H55.7029L55.8569 59.3887H57.1799L57.0259 60.6487H57.5229L57.6769 59.3887H58.7129V58.8777H57.7399L57.9079 57.5197H58.9369ZM57.2429 58.8777H55.9199L56.0949 57.5197H57.4109L57.2429 58.8777ZM60.5618 60.0397V58.4577H63.0188V57.8627H60.5618V56.3577H63.3198V55.7487H59.8618V60.6487H63.4178V60.0397H60.5618ZM63.9784 55.7487V57.2327H64.6504V56.3577H66.8904L64.9514 60.6487H65.6934L67.6744 56.2247V55.7487H63.9784ZM69.387 60.0397V58.4577H71.844V57.8627H69.387V56.3577H72.145V55.7487H68.687V60.6487H72.243V60.0397H69.387ZM72.8036 55.7487V57.2327H73.4756V56.3577H75.7156L73.7766 60.6487H74.5186L76.4996 56.2247V55.7487H72.8036ZM78.2122 60.0397V58.4577H80.6692V57.8627H78.2122V56.3577H80.9702V55.7487H77.5122V60.6487H81.0682V60.0397H78.2122ZM81.6288 55.7487V57.2327H82.3008V56.3577H84.5408L82.6018 60.6487H83.3438L85.3248 56.2247V55.7487H81.6288Z" fill="#E7E7E7"/>
<rect x="11" y="16.5945" width="2.59459" height="17.2973" transform="rotate(-90 11 16.5945)" fill="white"/>
<path d="M15.5904 25.9382C15.5904 24.9652 14.7434 24.7202 13.9664 24.5312V23.1172C14.3374 23.1592 14.7294 23.2782 15.1004 23.4952L15.3874 22.7882C15.0094 22.5432 14.4844 22.3892 13.9664 22.3612V21.5842H13.3924V22.3752C12.3004 22.4802 11.7824 23.1032 11.7824 23.8172C11.7824 24.7902 12.6154 25.0422 13.3924 25.2312V26.6312C12.8604 26.5822 12.3354 26.3792 11.9924 26.0992L11.6774 26.8062C12.0414 27.1212 12.7064 27.3452 13.3924 27.3872V28.1642H13.9664V27.3802C15.0654 27.2682 15.5904 26.6522 15.5904 25.9382ZM12.6854 23.7752C12.6854 23.4672 12.8954 23.2152 13.3924 23.1382V24.3842C12.9864 24.2652 12.6854 24.1112 12.6854 23.7752ZM13.9664 26.6172V25.3782C14.3864 25.4972 14.6944 25.6582 14.6944 26.0012C14.6944 26.3022 14.4774 26.5402 13.9664 26.6172ZM21.3944 23.5862L20.3794 26.3582L19.3714 23.5862H18.6364L17.6074 26.3442L16.6204 23.5862H15.7944L17.1664 27.3242H18.0064L18.9864 24.7482L19.9524 27.3242H20.7924L22.1714 23.5862H21.3944ZM24.894 23.5442C24.376 23.5442 23.935 23.7122 23.648 24.0202V22.1302H22.773V27.3242H23.648V25.4342C23.648 24.6852 24.068 24.3072 24.691 24.3072C25.251 24.3072 25.58 24.6292 25.58 25.2942V27.3242H26.455V25.1822C26.455 24.0552 25.79 23.5442 24.894 23.5442ZM28.006 22.9702C28.335 22.9702 28.566 22.7322 28.566 22.4242C28.566 22.1372 28.328 21.9202 28.006 21.9202C27.684 21.9202 27.446 22.1512 27.446 22.4452C27.446 22.7392 27.684 22.9702 28.006 22.9702ZM27.565 27.3242H28.44V23.5862H27.565V27.3242ZM31.5905 26.4982C31.4575 26.6032 31.2825 26.6522 31.1005 26.6522C30.7645 26.6522 30.5825 26.4562 30.5825 26.0922V24.3142H31.5835V23.6142H30.5825V22.7602H29.7075V23.6142H29.0915V24.3142H29.7075V26.1132C29.7075 26.9392 30.1765 27.3732 30.9955 27.3732C31.3105 27.3732 31.6255 27.2892 31.8355 27.1212L31.5905 26.4982ZM35.9462 25.4762C35.9462 24.3072 35.1482 23.5442 34.0562 23.5442C32.9432 23.5442 32.1242 24.3422 32.1242 25.4552C32.1242 26.5682 32.9362 27.3732 34.1892 27.3732C34.8332 27.3732 35.3582 27.1632 35.6942 26.7642L35.2252 26.2252C34.9592 26.4982 34.6302 26.6312 34.2102 26.6312C33.5592 26.6312 33.1042 26.2812 32.9992 25.7352H35.9322C35.9392 25.6512 35.9462 25.5462 35.9462 25.4762ZM34.0562 24.2442C34.6302 24.2442 35.0432 24.6152 35.1132 25.1542H32.9922C33.0762 24.6082 33.4892 24.2442 34.0562 24.2442ZM38.8276 28.6822H39.4506V22.1302H38.8276V28.6822ZM46.7963 24.1952V23.6842H45.8303L45.9843 22.4242H45.4873L45.3333 23.6842H44.0173L44.1713 22.4242H43.6743L43.5203 23.6842H42.4773V24.1952H43.4573L43.2823 25.5532H42.2533V26.0642H43.2193L43.0653 27.3242H43.5623L43.7163 26.0642H45.0393L44.8853 27.3242H45.3823L45.5363 26.0642H46.5723V25.5532H45.5993L45.7673 24.1952H46.7963ZM45.1023 25.5532H43.7793L43.9543 24.1952H45.2703L45.1023 25.5532ZM51.1791 23.0332V22.4242H47.7211V27.3242H48.4211V25.3432H50.8781V24.7412H48.4211V23.0332H51.1791ZM55.6225 23.0332V22.4242H52.1645V27.3242H52.8645V25.3432H55.3215V24.7412H52.8645V23.0332H55.6225ZM60.0659 23.0332V22.4242H56.6079V27.3242H57.3079V25.3432H59.7649V24.7412H57.3079V23.0332H60.0659ZM64.5092 23.0332V22.4242H61.0512V27.3242H61.7512V25.3432H64.2082V24.7412H61.7512V23.0332H64.5092ZM68.9526 23.0332V22.4242H65.4946V27.3242H66.1946V25.3432H68.6516V24.7412H66.1946V23.0332H68.9526ZM73.3959 23.0332V22.4242H69.9379V27.3242H70.6379V25.3432H73.0949V24.7412H70.6379V23.0332H73.3959Z" fill="white"/>
<defs>
<filter id="filter0_b" x="-5" y="-5" width="110" height="190" filterUnits="userSpaceOnUse" color-interpolation-filters="sRGB">
<feFlood flood-opacity="0" result="BackgroundImageFix"/>
<feGaussianBlur in="BackgroundImage" stdDeviation="2.5"/>
<feComposite in2="SourceAlpha" operator="in" result="effect1_backgroundBlur"/>
<feBlend mode="normal" in="SourceGraphic" in2="effect1_backgroundBlur" result="shape"/>
</filter>
<linearGradient id="paint0_linear" x1="50" y1="0" x2="50" y2="180" gradientUnits="userSpaceOnUse">
<stop stop-color="#B6B6B6"/>
<stop offset="1" stop-color="#B6B6B6" stop-opacity="0"/>
</linearGradient>
</defs>
</svg>
