<svg width="356" height="67" viewBox="0 0 356 67" fill="none" xmlns="http://www.w3.org/2000/svg">
<mask id="mask0" maskUnits="userSpaceOnUse" x="-1" y="0" width="357" height="67">
<line x1="290.407" y1="65.8767" x2="355.461" y2="0.822867" stroke="white" stroke-width="0.5"/>
<line x1="96.6846" y1="65.8767" x2="161.738" y2="0.822867" stroke="white" stroke-width="0.5"/>
<line x1="193.546" y1="65.8767" x2="258.6" y2="0.822867" stroke="white" stroke-width="0.5"/>
<line x1="-0.176777" y1="65.8782" x2="64.877" y2="0.824332" stroke="white" stroke-width="0.5"/>
<line x1="266.192" y1="65.8767" x2="331.246" y2="0.822867" stroke="white" stroke-width="0.5"/>
<line x1="72.4692" y1="65.8764" x2="137.523" y2="0.822623" stroke="white" stroke-width="0.5"/>
<line x1="169.331" y1="65.8767" x2="234.384" y2="0.822867" stroke="white" stroke-width="0.5"/>
<line x1="241.977" y1="65.8767" x2="307.03" y2="0.822867" stroke="white" stroke-width="0.5"/>
<line x1="48.2539" y1="65.8767" x2="113.308" y2="0.822867" stroke="white" stroke-width="0.5"/>
<line x1="145.115" y1="65.8767" x2="210.169" y2="0.822867" stroke="white" stroke-width="0.5"/>
<line x1="217.761" y1="65.8767" x2="282.815" y2="0.822867" stroke="white" stroke-width="0.5"/>
<line x1="24.0386" y1="65.8764" x2="89.0924" y2="0.822623" stroke="white" stroke-width="0.5"/>
<line x1="120.9" y1="65.8767" x2="185.954" y2="0.822867" stroke="white" stroke-width="0.5"/>
<line x1="284.353" y1="65.8767" x2="349.407" y2="0.822867" stroke="white" stroke-width="0.5"/>
<line x1="90.6307" y1="65.8767" x2="155.685" y2="0.822867" stroke="white" stroke-width="0.5"/>
<line x1="187.492" y1="65.8767" x2="252.546" y2="0.822867" stroke="white" stroke-width="0.5"/>
<line x1="260.138" y1="65.8767" x2="325.192" y2="0.822867" stroke="white" stroke-width="0.5"/>
<line x1="66.4154" y1="65.8767" x2="131.469" y2="0.822867" stroke="white" stroke-width="0.5"/>
<line x1="163.277" y1="65.8764" x2="228.331" y2="0.822623" stroke="white" stroke-width="0.5"/>
<line x1="235.923" y1="65.8767" x2="300.977" y2="0.822867" stroke="white" stroke-width="0.5"/>
<line x1="42.2001" y1="65.8762" x2="107.254" y2="0.822379" stroke="white" stroke-width="0.5"/>
<line x1="139.061" y1="65.8767" x2="204.115" y2="0.822867" stroke="white" stroke-width="0.5"/>
<line x1="211.707" y1="65.8767" x2="276.761" y2="0.822867" stroke="white" stroke-width="0.5"/>
<line x1="17.9847" y1="65.8764" x2="83.0385" y2="0.822623" stroke="white" stroke-width="0.5"/>
<line x1="114.846" y1="65.8767" x2="179.9" y2="0.822867" stroke="white" stroke-width="0.5"/>
<line x1="278.3" y1="65.8767" x2="343.353" y2="0.822867" stroke="white" stroke-width="0.5"/>
<line x1="84.5769" y1="65.8767" x2="149.631" y2="0.822867" stroke="white" stroke-width="0.5"/>
<line x1="181.438" y1="65.8767" x2="246.492" y2="0.822867" stroke="white" stroke-width="0.5"/>
<line x1="254.084" y1="65.8767" x2="319.138" y2="0.822867" stroke="white" stroke-width="0.5"/>
<line x1="60.3616" y1="65.8764" x2="125.415" y2="0.822623" stroke="white" stroke-width="0.5"/>
<line x1="157.223" y1="65.8767" x2="222.277" y2="0.822867" stroke="white" stroke-width="0.5"/>
<line x1="229.869" y1="65.8767" x2="294.923" y2="0.822867" stroke="white" stroke-width="0.5"/>
<line x1="36.1462" y1="65.8764" x2="101.2" y2="0.822623" stroke="white" stroke-width="0.5"/>
<line x1="133.008" y1="65.8767" x2="198.061" y2="0.822867" stroke="white" stroke-width="0.5"/>
<line x1="205.654" y1="65.8767" x2="270.707" y2="0.822867" stroke="white" stroke-width="0.5"/>
<line x1="11.9309" y1="65.8764" x2="76.9847" y2="0.822623" stroke="white" stroke-width="0.5"/>
<line x1="108.792" y1="65.8767" x2="173.846" y2="0.822867" stroke="white" stroke-width="0.5"/>
<line x1="272.246" y1="65.8767" x2="337.3" y2="0.822867" stroke="white" stroke-width="0.5"/>
<line x1="78.5231" y1="65.8767" x2="143.577" y2="0.822867" stroke="white" stroke-width="0.5"/>
<line x1="175.384" y1="65.8767" x2="240.438" y2="0.822867" stroke="white" stroke-width="0.5"/>
<line x1="248.03" y1="65.8767" x2="313.084" y2="0.822867" stroke="white" stroke-width="0.5"/>
<line x1="54.3077" y1="65.8767" x2="119.362" y2="0.822867" stroke="white" stroke-width="0.5"/>
<line x1="151.169" y1="65.8767" x2="216.223" y2="0.822867" stroke="white" stroke-width="0.5"/>
<line x1="223.815" y1="65.8767" x2="288.869" y2="0.822867" stroke="white" stroke-width="0.5"/>
<line x1="30.0924" y1="65.8764" x2="95.1462" y2="0.822623" stroke="white" stroke-width="0.5"/>
<line x1="126.954" y1="65.8767" x2="192.008" y2="0.822867" stroke="white" stroke-width="0.5"/>
<line x1="199.6" y1="65.8767" x2="264.654" y2="0.822867" stroke="white" stroke-width="0.5"/>
<line x1="5.87706" y1="65.8764" x2="70.9309" y2="0.822623" stroke="white" stroke-width="0.5"/>
<line x1="102.738" y1="65.8764" x2="167.792" y2="0.822623" stroke="white" stroke-width="0.5"/>
</mask>
<g mask="url(#mask0)">
<path d="M138 30.0002C124 25.5 117.333 10.3333 114.5 5.00001L124 2.00001C124 5.50001 125.833 10.3333 128 12C147 21 157.667 23.3333 163 23C167.5 22.3333 177 23.5 177 14.5C177 9.3 169.667 4.66662 166 3C168 2 173.6 0.200153 182 1.00015C192.5 2.00015 199.5 10.5002 197.5 17.5002C195.9 23.1002 196.833 27.1668 197.5 28.5002C198.5 34.5002 202.6 47.9002 211 53.5002C219.4 59.1002 221.833 64.5002 222 66.5002C213.5 61.5 205.5 58.5002 195 56.0002C184.5 53.5002 170 48.4998 160.5 41C149.119 32.0153 152.265 34.5853 138 30.0002Z" fill="white"/>
</g>
</svg>
