<svg width="160" height="137" viewBox="0 0 160 137" fill="none" xmlns="http://www.w3.org/2000/svg">
<g opacity="0.8" filter="url(#filter0_b)">
<rect width="160" height="137" rx="2" fill="#010101"/>
<rect x="0.25" y="0.25" width="159.5" height="136.5" rx="1.75" stroke="url(#paint0_linear)" stroke-width="0.5"/>
</g>
<g clip-path="url(#clip0)">
<rect x="10" y="27" width="90" height="100" fill="url(#paint1_linear)"/>
<g filter="url(#filter1_f)">
<ellipse cx="36" cy="55" rx="31" ry="56" fill="white"/>
</g>
<g filter="url(#filter2_f)">
<ellipse cx="84.5" cy="46.5" rx="39.5" ry="80.5" fill="#00CBFF"/>
</g>
<g filter="url(#filter3_f)">
<ellipse cx="64.5" cy="126" rx="59.5" ry="15" transform="rotate(-12.9598 64.5 126)" fill="#010101"/>
</g>
<g filter="url(#filter4_f)">
<ellipse cx="12" cy="28.5" rx="30" ry="33.5" fill="white"/>
</g>
<rect x="10.15" y="27.15" width="89.7" height="99.7" stroke="url(#paint2_linear)" stroke-width="0.3"/>
<circle cx="59" cy="35" r="3.75" stroke="white" stroke-width="0.5"/>
</g>
<rect x="110" y="27" width="30" height="25" fill="#59CBE8"/>
<path d="M113.252 59.366H114.128L114.122 58.82H113.318L113.444 57.8H112.898L112.772 58.82H111.764L111.89 57.8H111.344L111.218 58.82H110.342V59.366H111.152L111.014 60.434H110.138V60.98H110.948L110.822 62H111.368L111.494 60.98H112.508L112.382 62H112.928L113.054 60.98H113.93V60.434H113.12L113.252 59.366ZM111.56 60.434L111.698 59.366H112.706L112.574 60.434H111.56ZM115.844 59.426H115.442L115.532 58.454H117.338V57.8H114.872L114.656 60.086H115.67C116.54 60.086 116.798 60.338 116.798 60.74C116.798 61.136 116.468 61.382 115.91 61.382C115.436 61.382 114.98 61.22 114.674 60.968L114.344 61.574C114.728 61.88 115.328 62.06 115.922 62.06C117.05 62.06 117.584 61.448 117.584 60.71C117.584 59.966 117.086 59.426 115.844 59.426ZM119.45 57.74C118.592 57.74 117.914 58.268 117.914 59.102C117.914 59.888 118.532 60.392 119.36 60.392C119.828 60.392 120.23 60.248 120.482 59.954V59.96C120.482 60.914 119.984 61.406 119.192 61.406C118.898 61.406 118.622 61.352 118.394 61.202L118.106 61.79C118.388 61.97 118.79 62.06 119.21 62.06C120.428 62.06 121.268 61.268 121.268 59.828C121.268 58.478 120.596 57.74 119.45 57.74ZM119.51 59.78C119 59.78 118.67 59.504 118.67 59.066C118.67 58.628 119.006 58.352 119.492 58.352C120.05 58.352 120.362 58.664 120.362 59.06C120.362 59.474 120.014 59.78 119.51 59.78ZM124.039 62.06C124.729 62.06 125.317 61.814 125.707 61.358L125.203 60.878C124.897 61.214 124.519 61.376 124.081 61.376C123.211 61.376 122.581 60.764 122.581 59.9C122.581 59.036 123.211 58.424 124.081 58.424C124.519 58.424 124.897 58.586 125.203 58.916L125.707 58.442C125.317 57.986 124.729 57.74 124.045 57.74C122.755 57.74 121.795 58.646 121.795 59.9C121.795 61.154 122.755 62.06 124.039 62.06ZM129.431 59.816C129.755 59.642 129.971 59.324 129.971 58.892C129.971 58.226 129.431 57.8 128.423 57.8H126.455V62H128.543C129.623 62 130.187 61.58 130.187 60.86C130.187 60.314 129.881 59.96 129.431 59.816ZM128.339 58.412C128.879 58.412 129.185 58.604 129.185 58.994C129.185 59.378 128.879 59.57 128.339 59.57H127.235V58.412H128.339ZM128.495 61.388H127.235V60.176H128.495C129.083 60.176 129.401 60.362 129.401 60.782C129.401 61.202 129.083 61.388 128.495 61.388ZM131.799 61.346V60.188H133.827V59.546H131.799V58.454H134.085V57.8H131.019V62H134.169V61.346H131.799ZM137.433 59.792C137.775 59.606 137.967 59.306 137.967 58.91C137.967 58.19 137.331 57.74 136.395 57.74C135.465 57.74 134.835 58.19 134.835 58.91C134.835 59.306 135.021 59.606 135.357 59.792C134.925 59.99 134.685 60.332 134.685 60.794C134.685 61.574 135.351 62.06 136.395 62.06C137.439 62.06 138.117 61.574 138.117 60.794C138.117 60.332 137.871 59.99 137.433 59.792ZM136.395 58.352C136.875 58.352 137.199 58.568 137.199 58.946C137.199 59.306 136.893 59.534 136.395 59.534C135.903 59.534 135.603 59.306 135.603 58.946C135.603 58.568 135.915 58.352 136.395 58.352ZM136.395 61.448C135.819 61.448 135.471 61.196 135.471 60.77C135.471 60.356 135.819 60.098 136.395 60.098C136.971 60.098 137.331 60.356 137.331 60.77C137.331 61.196 136.971 61.448 136.395 61.448Z" fill="#E7E7E7"/>
<line x1="110" y1="101.75" x2="151" y2="101.75" stroke="url(#paint3_linear)" stroke-width="0.5"/>
<path d="M114.218 84L113.276 82.65C113.822 82.416 114.14 81.954 114.14 81.324C114.14 80.382 113.438 79.8 112.316 79.8H110.498V84H111.47V82.83H112.316H112.364L113.174 84H114.218ZM113.156 81.324C113.156 81.78 112.856 82.056 112.262 82.056H111.47V80.592H112.262C112.856 80.592 113.156 80.862 113.156 81.324ZM117.748 83.064C117.502 83.196 117.256 83.244 116.992 83.244C116.188 83.244 115.63 82.686 115.63 81.9C115.63 81.102 116.188 80.556 117.004 80.556C117.43 80.556 117.784 80.706 118.09 81.03L118.714 80.454C118.306 79.98 117.694 79.728 116.956 79.728C115.618 79.728 114.646 80.634 114.646 81.9C114.646 83.166 115.618 84.072 116.938 84.072C117.538 84.072 118.174 83.886 118.636 83.538V81.834H117.748V83.064ZM122.623 81.816C122.965 81.636 123.181 81.312 123.181 80.892C123.181 80.238 122.641 79.8 121.591 79.8H119.539V84H121.711C122.815 84 123.391 83.58 123.391 82.854C123.391 82.326 123.091 81.966 122.623 81.816ZM121.471 80.532C121.945 80.532 122.203 80.694 122.203 81.024C122.203 81.354 121.945 81.522 121.471 81.522H120.505V80.532H121.471ZM121.639 83.268H120.505V82.23H121.639C122.143 82.23 122.413 82.398 122.413 82.752C122.413 83.112 122.143 83.268 121.639 83.268ZM124.415 81.894C124.739 81.894 124.997 81.648 124.997 81.306C124.997 80.958 124.739 80.73 124.415 80.73C124.091 80.73 123.833 80.958 123.833 81.306C123.833 81.648 124.091 81.894 124.415 81.894ZM124.415 84.048C124.739 84.048 124.997 83.802 124.997 83.46C124.997 83.112 124.739 82.884 124.415 82.884C124.091 82.884 123.833 83.112 123.833 83.46C123.833 83.802 124.091 84.048 124.415 84.048ZM112.856 90.798C113.24 90.618 113.45 90.306 113.45 89.892C113.45 89.19 112.838 88.752 111.926 88.752C111.02 88.752 110.414 89.19 110.414 89.892C110.414 90.306 110.618 90.618 111.002 90.798C110.528 90.978 110.264 91.332 110.264 91.812C110.264 92.574 110.906 93.048 111.926 93.048C112.952 93.048 113.6 92.574 113.6 91.812C113.6 91.332 113.336 90.984 112.856 90.798ZM111.926 89.238C112.49 89.238 112.862 89.496 112.862 89.916C112.862 90.33 112.508 90.588 111.926 90.588C111.35 90.588 111.008 90.33 111.008 89.916C111.008 89.496 111.362 89.238 111.926 89.238ZM111.926 92.562C111.26 92.562 110.864 92.268 110.864 91.794C110.864 91.332 111.26 91.044 111.926 91.044C112.592 91.044 113 91.332 113 91.794C113 92.268 112.592 92.562 111.926 92.562ZM115.511 88.752C114.677 88.752 114.029 89.268 114.029 90.078C114.029 90.852 114.629 91.35 115.463 91.35C115.985 91.35 116.429 91.164 116.675 90.798V90.948C116.675 91.998 116.135 92.532 115.283 92.532C114.977 92.532 114.695 92.478 114.473 92.334L114.245 92.802C114.515 92.97 114.893 93.048 115.289 93.048C116.465 93.048 117.275 92.28 117.275 90.846C117.275 89.508 116.639 88.752 115.511 88.752ZM115.565 90.864C114.977 90.864 114.611 90.546 114.611 90.054C114.611 89.556 114.989 89.238 115.535 89.238C116.189 89.238 116.537 89.616 116.537 90.048C116.537 90.51 116.141 90.864 115.565 90.864ZM121.873 92.478L123.157 91.242C123.727 90.696 123.847 90.33 123.847 89.922C123.847 89.202 123.283 88.752 122.407 88.752C121.753 88.752 121.195 88.986 120.871 89.388L121.279 89.742C121.537 89.43 121.903 89.286 122.353 89.286C122.941 89.286 123.247 89.55 123.247 89.982C123.247 90.246 123.163 90.51 122.719 90.942L121.009 92.592V93H124.027V92.478H121.873ZM126.219 93.048C127.197 93.048 127.929 92.268 127.929 90.9C127.929 89.532 127.197 88.752 126.219 88.752C125.235 88.752 124.503 89.532 124.503 90.9C124.503 92.268 125.235 93.048 126.219 93.048ZM126.219 92.514C125.559 92.514 125.103 91.974 125.103 90.9C125.103 89.826 125.559 89.286 126.219 89.286C126.873 89.286 127.329 89.826 127.329 90.9C127.329 91.974 126.873 92.514 126.219 92.514ZM130.054 90.564L131.152 89.208V88.8H128.38V89.322H130.402L129.346 90.618V91.038H129.682C130.402 91.038 130.72 91.326 130.72 91.77C130.72 92.226 130.36 92.514 129.73 92.514C129.214 92.514 128.746 92.328 128.464 92.064L128.188 92.538C128.542 92.856 129.13 93.048 129.73 93.048C130.798 93.048 131.32 92.472 131.32 91.764C131.32 91.116 130.894 90.642 130.054 90.564ZM135.9 92.478L137.184 91.242C137.754 90.696 137.874 90.33 137.874 89.922C137.874 89.202 137.31 88.752 136.434 88.752C135.78 88.752 135.222 88.986 134.898 89.388L135.306 89.742C135.564 89.43 135.93 89.286 136.38 89.286C136.968 89.286 137.274 89.55 137.274 89.982C137.274 90.246 137.19 90.51 136.746 90.942L135.036 92.592V93H138.054V92.478H135.9ZM140.156 90.564L141.254 89.208V88.8H138.482V89.322H140.504L139.448 90.618V91.038H139.784C140.504 91.038 140.822 91.326 140.822 91.77C140.822 92.226 140.462 92.514 139.832 92.514C139.316 92.514 138.848 92.328 138.566 92.064L138.29 92.538C138.644 92.856 139.232 93.048 139.832 93.048C140.9 93.048 141.422 92.472 141.422 91.764C141.422 91.116 140.996 90.642 140.156 90.564ZM142.75 92.478L144.034 91.242C144.604 90.696 144.724 90.33 144.724 89.922C144.724 89.202 144.16 88.752 143.284 88.752C142.63 88.752 142.072 88.986 141.748 89.388L142.156 89.742C142.414 89.43 142.78 89.286 143.23 89.286C143.818 89.286 144.124 89.55 144.124 89.982C144.124 90.246 144.04 90.51 143.596 90.942L141.886 92.592V93H144.904V92.478H142.75Z" fill="#D5D5D5"/>
<line x1="110" y1="69.75" x2="151" y2="69.75" stroke="url(#paint4_linear)" stroke-width="0.5"/>
<path d="M112.508 116.072C112.08 116.072 111.692 115.98 111.344 115.796C111 115.608 110.728 115.35 110.528 115.022C110.332 114.69 110.234 114.316 110.234 113.9C110.234 113.484 110.332 113.112 110.528 112.784C110.728 112.452 111 112.194 111.344 112.01C111.692 111.822 112.082 111.728 112.514 111.728C112.878 111.728 113.206 111.792 113.498 111.92C113.794 112.048 114.042 112.232 114.242 112.472L113.618 113.048C113.334 112.72 112.982 112.556 112.562 112.556C112.302 112.556 112.07 112.614 111.866 112.73C111.662 112.842 111.502 113 111.386 113.204C111.274 113.408 111.218 113.64 111.218 113.9C111.218 114.16 111.274 114.392 111.386 114.596C111.502 114.8 111.662 114.96 111.866 115.076C112.07 115.188 112.302 115.244 112.562 115.244C112.982 115.244 113.334 115.078 113.618 114.746L114.242 115.322C114.042 115.566 113.794 115.752 113.498 115.88C113.202 116.008 112.872 116.072 112.508 116.072ZM118.72 116L118.714 113.48L117.478 115.556H117.04L115.81 113.534V116H114.898V111.8H115.702L117.274 114.41L118.822 111.8H119.62L119.632 116H118.72ZM122.645 114.512V116H121.673V114.5L120.047 111.8H121.079L122.201 113.666L123.323 111.8H124.277L122.645 114.512ZM126.173 114.35L125.609 114.938V116H124.643V111.8H125.609V113.762L127.469 111.8H128.549L126.809 113.672L128.651 116H127.517L126.173 114.35ZM129.372 113.894C129.208 113.894 129.07 113.838 128.958 113.726C128.846 113.614 128.79 113.474 128.79 113.306C128.79 113.134 128.846 112.996 128.958 112.892C129.07 112.784 129.208 112.73 129.372 112.73C129.536 112.73 129.674 112.784 129.786 112.892C129.898 112.996 129.954 113.134 129.954 113.306C129.954 113.474 129.898 113.614 129.786 113.726C129.674 113.838 129.536 113.894 129.372 113.894ZM129.372 116.048C129.208 116.048 129.07 115.992 128.958 115.88C128.846 115.768 128.79 115.628 128.79 115.46C128.79 115.288 128.846 115.15 128.958 115.046C129.07 114.938 129.208 114.884 129.372 114.884C129.536 114.884 129.674 114.938 129.786 115.046C129.898 115.15 129.954 115.288 129.954 115.46C129.954 115.628 129.898 115.768 129.786 115.88C129.674 115.992 129.536 116.048 129.372 116.048ZM112.1 122.45C112.376 122.45 112.622 122.502 112.838 122.606C113.058 122.71 113.23 122.86 113.354 123.056C113.478 123.248 113.54 123.47 113.54 123.722C113.54 123.986 113.474 124.218 113.342 124.418C113.214 124.618 113.036 124.774 112.808 124.886C112.584 124.994 112.332 125.048 112.052 125.048C111.488 125.048 111.052 124.866 110.744 124.502C110.44 124.138 110.288 123.622 110.288 122.954C110.288 122.486 110.37 122.088 110.534 121.76C110.702 121.428 110.934 121.178 111.23 121.01C111.53 120.838 111.878 120.752 112.274 120.752C112.478 120.752 112.67 120.774 112.85 120.818C113.03 120.858 113.186 120.918 113.318 120.998L113.09 121.466C112.89 121.334 112.622 121.268 112.286 121.268C111.85 121.268 111.508 121.404 111.26 121.676C111.012 121.944 110.888 122.336 110.888 122.852C110.888 122.916 110.89 122.966 110.894 123.002C111.014 122.822 111.178 122.686 111.386 122.594C111.598 122.498 111.836 122.45 112.1 122.45ZM112.028 124.562C112.304 124.562 112.528 124.488 112.7 124.34C112.872 124.192 112.958 123.994 112.958 123.746C112.958 123.498 112.87 123.302 112.694 123.158C112.522 123.01 112.29 122.936 111.998 122.936C111.81 122.936 111.642 122.972 111.494 123.044C111.35 123.116 111.236 123.214 111.152 123.338C111.072 123.462 111.032 123.6 111.032 123.752C111.032 123.9 111.07 124.036 111.146 124.16C111.226 124.28 111.34 124.378 111.488 124.454C111.64 124.526 111.82 124.562 112.028 124.562ZM116.943 124.478V125H113.925V124.592L115.635 122.942C115.843 122.742 115.983 122.57 116.055 122.426C116.127 122.278 116.163 122.13 116.163 121.982C116.163 121.762 116.085 121.592 115.929 121.472C115.777 121.348 115.557 121.286 115.269 121.286C114.805 121.286 114.447 121.438 114.195 121.742L113.787 121.388C113.951 121.188 114.165 121.032 114.429 120.92C114.697 120.808 114.995 120.752 115.323 120.752C115.763 120.752 116.113 120.858 116.373 121.07C116.633 121.278 116.763 121.562 116.763 121.922C116.763 122.146 116.715 122.358 116.619 122.558C116.523 122.758 116.341 122.986 116.073 123.242L114.789 124.478H116.943ZM121.961 120.8V125H121.367V121.322H120.419V120.8H121.961ZM124.488 122.564C124.9 122.604 125.214 122.732 125.43 122.948C125.646 123.16 125.754 123.432 125.754 123.764C125.754 124.004 125.694 124.222 125.574 124.418C125.454 124.61 125.274 124.764 125.034 124.88C124.798 124.992 124.508 125.048 124.164 125.048C123.864 125.048 123.576 125.004 123.3 124.916C123.024 124.824 122.798 124.698 122.622 124.538L122.898 124.064C123.042 124.2 123.226 124.31 123.45 124.394C123.674 124.474 123.912 124.514 124.164 124.514C124.476 124.514 124.718 124.448 124.89 124.316C125.066 124.184 125.154 124.002 125.154 123.77C125.154 123.538 125.068 123.358 124.896 123.23C124.724 123.102 124.464 123.038 124.116 123.038H123.78V122.618L124.836 121.322H122.814V120.8H125.586V121.208L124.488 122.564ZM131.252 125.048C130.92 125.048 130.624 124.964 130.364 124.796C130.108 124.624 129.906 124.376 129.758 124.052C129.61 123.728 129.536 123.344 129.536 122.9C129.536 122.456 129.61 122.072 129.758 121.748C129.906 121.424 130.108 121.178 130.364 121.01C130.624 120.838 130.92 120.752 131.252 120.752C131.58 120.752 131.872 120.838 132.128 121.01C132.388 121.178 132.592 121.424 132.74 121.748C132.888 122.072 132.962 122.456 132.962 122.9C132.962 123.344 132.888 123.728 132.74 124.052C132.592 124.376 132.388 124.624 132.128 124.796C131.872 124.964 131.58 125.048 131.252 125.048ZM131.252 124.514C131.588 124.514 131.856 124.376 132.056 124.1C132.26 123.824 132.362 123.424 132.362 122.9C132.362 122.376 132.26 121.976 132.056 121.7C131.856 121.424 131.588 121.286 131.252 121.286C130.912 121.286 130.64 121.424 130.436 121.7C130.236 121.976 130.136 122.376 130.136 122.9C130.136 123.424 130.236 123.824 130.436 124.1C130.64 124.376 130.912 124.514 131.252 124.514ZM138.123 120.752C138.687 120.752 139.121 120.934 139.425 121.298C139.733 121.662 139.887 122.178 139.887 122.846C139.887 123.314 139.803 123.714 139.635 124.046C139.471 124.374 139.239 124.624 138.939 124.796C138.643 124.964 138.297 125.048 137.901 125.048C137.697 125.048 137.505 125.028 137.325 124.988C137.145 124.944 136.989 124.882 136.857 124.802L137.085 124.334C137.289 124.466 137.559 124.532 137.895 124.532C138.331 124.532 138.671 124.398 138.915 124.13C139.163 123.858 139.287 123.464 139.287 122.948V122.798C139.167 122.978 139.001 123.116 138.789 123.212C138.577 123.304 138.339 123.35 138.075 123.35C137.799 123.35 137.551 123.298 137.331 123.194C137.115 123.09 136.945 122.942 136.821 122.75C136.701 122.554 136.641 122.33 136.641 122.078C136.641 121.814 136.705 121.582 136.833 121.382C136.965 121.182 137.143 121.028 137.367 120.92C137.591 120.808 137.843 120.752 138.123 120.752ZM138.177 122.864C138.365 122.864 138.533 122.828 138.681 122.756C138.829 122.684 138.943 122.586 139.023 122.462C139.107 122.338 139.149 122.2 139.149 122.048C139.149 121.9 139.109 121.766 139.029 121.646C138.953 121.522 138.839 121.424 138.687 121.352C138.539 121.276 138.359 121.238 138.147 121.238C137.871 121.238 137.647 121.312 137.475 121.46C137.307 121.608 137.223 121.806 137.223 122.054C137.223 122.302 137.309 122.5 137.481 122.648C137.653 122.792 137.885 122.864 138.177 122.864Z" fill="#555555"/>
<line y1="16.75" x2="160" y2="16.75" stroke="#555555" stroke-width="0.5"/>
<path d="M12.508 11.048C13.162 11.048 13.726 10.82 14.11 10.388L13.72 10.01C13.396 10.352 13 10.514 12.538 10.514C11.59 10.514 10.888 9.83 10.888 8.9C10.888 7.97 11.59 7.286 12.538 7.286C13 7.286 13.396 7.442 13.72 7.784L14.11 7.406C13.726 6.974 13.162 6.752 12.514 6.752C11.236 6.752 10.288 7.658 10.288 8.9C10.288 10.142 11.236 11.048 12.508 11.048ZM16.1092 11.036C17.0632 11.036 17.7592 10.358 17.7592 9.41C17.7592 8.462 17.0632 7.79 16.1092 7.79C15.1552 7.79 14.4532 8.462 14.4532 9.41C14.4532 10.358 15.1552 11.036 16.1092 11.036ZM16.1092 10.532C15.4972 10.532 15.0352 10.088 15.0352 9.41C15.0352 8.732 15.4972 8.294 16.1092 8.294C16.7212 8.294 17.1772 8.732 17.1772 9.41C17.1772 10.088 16.7212 10.532 16.1092 10.532ZM18.5558 11H19.1318V6.548H18.5558V11ZM21.5935 11.036C22.5475 11.036 23.2435 10.358 23.2435 9.41C23.2435 8.462 22.5475 7.79 21.5935 7.79C20.6395 7.79 19.9375 8.462 19.9375 9.41C19.9375 10.358 20.6395 11.036 21.5935 11.036ZM21.5935 10.532C20.9815 10.532 20.5195 10.088 20.5195 9.41C20.5195 8.732 20.9815 8.294 21.5935 8.294C22.2055 8.294 22.6615 8.732 22.6615 9.41C22.6615 10.088 22.2055 10.532 21.5935 10.532ZM24.5921 8.354V7.82H24.0401V11H24.6161V9.416C24.6161 8.72 25.0001 8.342 25.6181 8.342C25.6601 8.342 25.7021 8.342 25.7501 8.348V7.79C25.1921 7.79 24.7961 7.982 24.5921 8.354ZM29.8344 6.8H28.1964V11H28.7964V9.728H29.8344C30.9264 9.728 31.5864 9.176 31.5864 8.264C31.5864 7.352 30.9264 6.8 29.8344 6.8ZM29.8164 9.206H28.7964V7.322H29.8164C30.5844 7.322 30.9864 7.664 30.9864 8.264C30.9864 8.864 30.5844 9.206 29.8164 9.206ZM32.6192 7.208C32.8472 7.208 33.0092 7.04 33.0092 6.824C33.0092 6.62 32.8412 6.458 32.6192 6.458C32.3972 6.458 32.2292 6.626 32.2292 6.836C32.2292 7.046 32.3972 7.208 32.6192 7.208ZM32.3312 11H32.9072V7.82H32.3312V11ZM35.3929 11.036C35.9629 11.036 36.4369 10.796 36.6889 10.352L36.2509 10.076C36.0469 10.388 35.7349 10.532 35.3869 10.532C34.7629 10.532 34.2949 10.1 34.2949 9.41C34.2949 8.732 34.7629 8.294 35.3869 8.294C35.7349 8.294 36.0469 8.438 36.2509 8.75L36.6889 8.468C36.4369 8.024 35.9629 7.79 35.3929 7.79C34.4149 7.79 33.7129 8.462 33.7129 9.41C33.7129 10.358 34.4149 11.036 35.3929 11.036ZM39.8237 11H40.5317L39.0617 9.134L40.3997 7.82H39.7037L37.9697 9.404V6.548H37.3937V11H37.9697V10.13L38.6297 9.518L39.8237 11ZM43.8302 9.428C43.8302 8.45 43.1762 7.79 42.2582 7.79C41.3402 7.79 40.6622 8.468 40.6622 9.41C40.6622 10.358 41.3462 11.036 42.3722 11.036C42.9002 11.036 43.3382 10.856 43.6262 10.52L43.3082 10.148C43.0742 10.406 42.7622 10.532 42.3902 10.532C41.7602 10.532 41.3102 10.16 41.2382 9.602H43.8182C43.8242 9.548 43.8302 9.476 43.8302 9.428ZM42.2582 8.276C42.8162 8.276 43.2182 8.654 43.2782 9.188H41.2382C41.2982 8.648 41.7062 8.276 42.2582 8.276ZM45.182 8.354V7.82H44.63V11H45.206V9.416C45.206 8.72 45.59 8.342 46.208 8.342C46.25 8.342 46.292 8.342 46.34 8.348V7.79C45.782 7.79 45.386 7.982 45.182 8.354Z" fill="#555555"/>
<path d="M151.5 10.18L150.091 8.554L151.427 7H150.725L149.757 8.146L148.781 7H148.067L149.396 8.554L148 10.18H148.715L149.75 8.962L150.772 10.18H151.5Z" fill="#555555"/>
<defs>
<filter id="filter0_b" x="-5" y="-5" width="170" height="147" filterUnits="userSpaceOnUse" color-interpolation-filters="sRGB">
<feFlood flood-opacity="0" result="BackgroundImageFix"/>
<feGaussianBlur in="BackgroundImage" stdDeviation="2.5"/>
<feComposite in2="SourceAlpha" operator="in" result="effect1_backgroundBlur"/>
<feBlend mode="normal" in="SourceGraphic" in2="effect1_backgroundBlur" result="shape"/>
</filter>
<filter id="filter1_f" x="-35" y="-41" width="142" height="192" filterUnits="userSpaceOnUse" color-interpolation-filters="sRGB">
<feFlood flood-opacity="0" result="BackgroundImageFix"/>
<feBlend mode="normal" in="SourceGraphic" in2="BackgroundImageFix" result="shape"/>
<feGaussianBlur stdDeviation="20" result="effect1_foregroundBlur"/>
</filter>
<filter id="filter2_f" x="5" y="-74" width="159" height="241" filterUnits="userSpaceOnUse" color-interpolation-filters="sRGB">
<feFlood flood-opacity="0" result="BackgroundImageFix"/>
<feBlend mode="normal" in="SourceGraphic" in2="BackgroundImageFix" result="shape"/>
<feGaussianBlur stdDeviation="20" result="effect1_foregroundBlur"/>
</filter>
<filter id="filter3_f" x="-33.5836" y="66.2074" width="196.167" height="119.585" filterUnits="userSpaceOnUse" color-interpolation-filters="sRGB">
<feFlood flood-opacity="0" result="BackgroundImageFix"/>
<feBlend mode="normal" in="SourceGraphic" in2="BackgroundImageFix" result="shape"/>
<feGaussianBlur stdDeviation="20" result="effect1_foregroundBlur"/>
</filter>
<filter id="filter4_f" x="-48" y="-35" width="120" height="127" filterUnits="userSpaceOnUse" color-interpolation-filters="sRGB">
<feFlood flood-opacity="0" result="BackgroundImageFix"/>
<feBlend mode="normal" in="SourceGraphic" in2="BackgroundImageFix" result="shape"/>
<feGaussianBlur stdDeviation="15" result="effect1_foregroundBlur"/>
</filter>
<linearGradient id="paint0_linear" x1="80" y1="0" x2="80" y2="137" gradientUnits="userSpaceOnUse">
<stop stop-color="#B6B6B6"/>
<stop offset="1" stop-color="#B6B6B6" stop-opacity="0"/>
</linearGradient>
<linearGradient id="paint1_linear" x1="55" y1="27" x2="55" y2="127" gradientUnits="userSpaceOnUse">
<stop stop-color="#010101"/>
<stop offset="1" stop-color="#010101" stop-opacity="0.75"/>
</linearGradient>
<linearGradient id="paint2_linear" x1="55" y1="27" x2="55" y2="127" gradientUnits="userSpaceOnUse">
<stop stop-color="#B6B6B6"/>
<stop offset="1" stop-color="#B6B6B6" stop-opacity="0"/>
</linearGradient>
<linearGradient id="paint3_linear" x1="148" y1="103" x2="110" y2="103" gradientUnits="userSpaceOnUse">
<stop stop-color="#D5D5D5" stop-opacity="0"/>
<stop offset="1" stop-color="#555555"/>
</linearGradient>
<linearGradient id="paint4_linear" x1="148" y1="71.0001" x2="110" y2="71.0001" gradientUnits="userSpaceOnUse">
<stop stop-color="#D5D5D5" stop-opacity="0"/>
<stop offset="1" stop-color="#B6B6B6" stop-opacity="0.75"/>
</linearGradient>
<clipPath id="clip0">
<rect width="90" height="100" fill="white" transform="translate(10 27)"/>
</clipPath>
</defs>
</svg>
