<svg width="120" height="53" viewBox="0 0 120 53" fill="none" xmlns="http://www.w3.org/2000/svg">
<path d="M5.24068 11.9258H6.54068V6.02578H8.86068V4.92578H2.92068V6.02578H5.24068V11.9258ZM11.1363 10.8358V8.90578H14.5163V7.83578H11.1363V6.01578H14.9463V4.92578H9.8363V11.9258H15.0863V10.8358H11.1363ZM19.7462 12.0258C20.8962 12.0258 21.8762 11.6158 22.5262 10.8558L21.6862 10.0558C21.1762 10.6158 20.5462 10.8858 19.8162 10.8858C18.3662 10.8858 17.3162 9.86578 17.3162 8.42578C17.3162 6.98578 18.3662 5.96578 19.8162 5.96578C20.5462 5.96578 21.1762 6.23578 21.6862 6.78578L22.5262 5.99578C21.8762 5.23578 20.8962 4.82578 19.7562 4.82578C17.6062 4.82578 16.0062 6.33578 16.0062 8.42578C16.0062 10.5158 17.6062 12.0258 19.7462 12.0258ZM28.6918 4.92578V7.81578H25.0718V4.92578H23.7718V11.9258H25.0718V8.92578H28.6918V11.9258H29.9918V4.92578H28.6918ZM40.5712 11.2258L39.6912 10.3858C39.9812 9.93578 40.1912 9.39578 40.3212 8.78578L39.3112 8.45578C39.2212 8.90578 39.0912 9.30578 38.9212 9.63578L37.4112 8.19578C38.4212 7.62578 38.8412 7.10578 38.8412 6.38578C38.8412 5.43578 38.1012 4.84578 36.9712 4.84578C35.7412 4.84578 34.9412 5.51578 34.9412 6.49578C34.9412 7.00578 35.1512 7.46578 35.7212 8.03578C34.5812 8.67578 34.1012 9.28578 34.1012 10.1558C34.1012 11.2558 35.1712 12.0258 36.6512 12.0258C37.5712 12.0258 38.3712 11.7258 39.0012 11.1858L39.8812 12.0358L40.5712 11.2258ZM36.9712 5.73578C37.4912 5.73578 37.7812 6.00578 37.7812 6.40578C37.7812 6.78578 37.5212 7.07578 36.7112 7.51578C36.2112 7.01578 36.0812 6.78578 36.0812 6.47578C36.0812 6.04578 36.4112 5.73578 36.9712 5.73578ZM36.7412 11.0058C35.8812 11.0058 35.3212 10.6058 35.3212 10.0258C35.3212 9.52578 35.6012 9.15578 36.4112 8.70578L38.2612 10.4758C37.8312 10.8258 37.3212 11.0058 36.7412 11.0058Z" fill="#E7E7E7"/>
<path d="M2.58936 29.6296C2.61585 30.2146 2.75822 30.7885 3.0082 31.3181C3.26791 31.8048 3.70091 32.1763 4.22149 32.359C4.66124 32.5958 5.17549 32.6536 5.65686 32.5203C6.63421 32.2222 7.54406 31.7364 8.33552 31.0901C9.46948 30.2618 10.5263 29.3328 11.4931 28.3143C11.742 28.0489 11.9925 27.8335 12.2417 27.5752L14.3161 25.3634L14.3732 25.3616C14.4427 25.2298 14.545 25.1181 14.6703 25.0374C14.7914 24.9399 14.9386 24.8804 15.0935 24.8665C15.2483 24.8527 15.4038 24.885 15.5402 24.9595C15.6681 25.0483 15.7677 25.1721 15.8269 25.3161C15.886 25.4601 15.9023 25.6181 15.8738 25.7712C15.8216 26.1455 15.6526 26.4938 15.3908 26.7663L14.9485 27.2453L13.39 28.8185C13.1273 29.0365 12.8769 29.269 12.64 29.5147C11.4661 30.7566 10.1756 31.8828 8.78616 32.8777C7.94788 33.4487 7.02211 33.8794 6.04529 34.1526C5.21601 34.3569 4.34312 34.2906 3.55423 33.9634C2.76533 33.6361 2.10181 33.0651 1.66064 32.3338C1.26817 31.7037 1.00412 31.0023 0.883682 30.2698C0.763246 29.5374 0.788791 28.7883 0.958857 28.0657C1.50179 25.1137 3.0543 22.4424 5.35043 20.5093C6.0087 19.911 6.81083 19.4936 7.67856 19.2977C8.28822 19.1032 8.94236 19.0972 9.55551 19.2804C10.1687 19.4636 10.7123 19.8275 11.1154 20.3245C11.5469 20.7956 11.839 21.3775 11.9588 22.0051C12.0787 22.6326 12.0217 23.2812 11.7942 23.8782C11.5996 24.356 11.3554 24.812 11.0655 25.2388C10.9213 25.4974 10.7144 25.7155 10.4637 25.8731C10.0164 26.195 9.65206 26.2066 9.33503 25.9093C9.01801 25.612 9.05497 25.2032 9.39886 24.7774C9.83359 24.3657 10.1395 23.8367 10.2797 23.2546C10.3628 22.929 10.3683 22.5885 10.2957 22.2604C10.2231 21.9323 10.0744 21.6259 9.86155 21.3658C9.60774 21.1487 9.30157 21.0018 8.97343 20.9396C8.6453 20.8773 8.30659 20.902 7.99092 21.0111C7.13618 21.2701 6.36814 21.757 5.76922 22.4195C4.28856 23.9302 3.24656 25.815 2.75472 27.8723C2.61249 28.4466 2.55675 29.0388 2.58936 29.6296Z" fill="#E93CAC"/>
<path d="M25.7381 19.8487C25.6911 19.737 25.6562 19.6207 25.634 19.5016C25.318 19.447 25.0183 19.3222 24.757 19.1364C24.6626 19.1002 24.5742 19.05 24.4948 18.9875L24.1222 18.742C23.8583 18.5661 23.5541 18.4602 23.2381 18.434C22.922 18.4079 22.6046 18.4625 22.3154 18.5926C21.971 18.7085 21.6461 18.8756 21.3516 19.0883C20.4087 19.7821 19.5533 20.5875 18.8041 21.4869C18.1644 22.2797 17.5677 23.0711 16.9797 23.9123C16.9531 23.8569 16.9383 23.7965 16.9363 23.735C16.9344 23.6735 16.9452 23.6122 16.9682 23.5552C17.0265 23.4743 17.0742 23.3862 17.11 23.2932L17.1084 23.2432C17.448 22.46 17.8304 21.6754 18.22 20.8906C18.4623 20.4181 18.703 19.8955 18.8886 19.439C18.9315 19.3534 18.9568 19.2601 18.9629 19.1646C18.969 19.0691 18.9559 18.9733 18.9244 18.8829C18.8928 18.7926 18.8434 18.7095 18.7791 18.6386C18.7148 18.5677 18.6369 18.5104 18.55 18.4702C18.3763 18.3961 18.1835 18.3794 17.9996 18.4226C17.8158 18.4658 17.6505 18.5666 17.528 18.7103C17.4253 18.8556 17.3438 19.0147 17.2857 19.1829C17.1831 19.3282 17.1015 19.4873 17.0434 19.6555L16.7488 20.2799C14.8991 24.0214 13.2863 27.8754 11.92 31.8191L11.7259 32.2329C11.6319 32.5176 11.5906 32.817 11.604 33.1164C11.6218 33.2717 11.6752 33.4207 11.76 33.552C11.8449 33.6832 11.9588 33.7931 12.0931 33.873C12.2332 33.9345 12.3868 33.959 12.5391 33.9441C12.6914 33.9292 12.8373 33.8754 12.9628 33.7879C13.1998 33.6113 13.3869 33.3761 13.5059 33.1055C13.7048 32.8387 13.8846 32.5581 14.0439 32.2659C14.4835 31.4795 14.9747 30.7415 15.4016 30.0055C15.5489 29.6933 15.7391 29.3797 15.9346 29.0088C17.1016 26.8443 18.4287 24.77 19.9046 22.8031C20.5977 21.9718 21.3876 21.2262 22.2576 20.5824C22.4453 20.3839 22.6916 20.2507 22.9605 20.2023C23.216 20.2816 23.46 20.394 23.6863 20.5366L23.7379 20.585C23.8914 20.6873 24.0518 20.7823 24.2121 20.8773C24.3646 20.954 24.5221 21.0206 24.6833 21.0767L24.7691 21.074C24.9405 21.0685 25.1119 21.063 25.2905 21.0572C25.3688 20.966 25.4634 20.8902 25.5694 20.8338C25.5903 20.724 25.6178 20.6157 25.652 20.5093C25.6478 20.3807 25.6937 20.2505 25.711 20.1213C25.7126 20.0593 25.7106 19.9973 25.7051 19.9355C25.6905 19.8675 25.6692 19.8012 25.6415 19.7374L25.7381 19.8487Z" fill="#E93CAC"/>
<path d="M27.1624 27.2467C26.4429 27.2983 25.7196 27.2517 25.0127 27.1083C24.7539 27.0665 24.5449 27.016 24.4467 27.0764C24.3485 27.1367 24.2978 27.3386 24.256 27.5974C24.1357 28.2597 24.1405 28.9387 24.2702 29.5992C24.3631 30.2987 24.6945 30.9448 25.2084 31.4284C25.5488 31.7834 25.9819 32.0358 26.4585 32.157C26.9351 32.2783 27.4362 32.2634 27.9048 32.1142C28.5876 31.9137 29.238 31.6159 29.8359 31.2299C30.5376 30.7156 31.2075 30.1592 31.8419 29.5638C31.9446 29.4442 32.0612 29.3372 32.1893 29.2452C33.4923 28.0604 34.7084 26.7835 35.8282 25.4243C35.8263 25.3672 35.8263 25.3671 35.8764 25.3655C35.9264 25.3639 35.8748 25.3155 35.9232 25.2639C36.3226 24.7863 36.7282 24.7232 37.1007 24.9687C37.4733 25.2142 37.5295 25.6272 37.2904 26.1998C37.1904 26.4107 37.0593 26.6054 36.9013 26.7772C35.3678 28.5684 33.7002 30.2403 31.9129 31.7783C30.9557 32.5886 29.8587 33.2175 28.6758 33.6341C28.0093 33.9058 27.2845 34.0033 26.5699 33.9174C25.8553 33.8314 25.1743 33.5649 24.5912 33.1429C23.5577 32.3996 22.827 31.3084 22.5333 30.0696C22.2756 29.0431 22.3079 27.9652 22.6265 26.956C23.0412 25.3469 23.7952 23.8451 24.8378 22.5512C25.8804 21.2573 27.1876 20.2012 28.6717 19.4538C29.6094 18.944 30.6796 18.7301 31.7412 18.8406C32.4012 18.8906 33.0242 19.1647 33.507 19.6175C33.9897 20.0702 34.3032 20.6744 34.3954 21.3298C34.4792 22.0674 34.3225 22.8123 33.9486 23.4537C33.1675 24.8328 31.9413 25.9058 30.4707 26.4971C29.441 27.0001 28.3084 27.2567 27.1624 27.2467ZM26.6968 25.6599C27.6282 25.6805 28.5542 25.5128 29.4193 25.1668C30.2843 24.8208 31.0706 24.3036 31.7309 23.6464C32.1427 23.2586 32.4473 22.7709 32.6151 22.2307C32.6949 22.0457 32.7265 21.8435 32.7071 21.6429C32.6876 21.4424 32.6177 21.25 32.5039 21.0838C32.39 20.9175 32.236 20.7828 32.056 20.6921C31.8761 20.6015 31.6761 20.5579 31.4748 20.5653C30.7389 20.5241 30.0048 20.6733 29.3433 20.9984C28.0143 21.6851 26.8633 22.672 25.9818 23.8807C25.7419 24.2031 25.5462 24.5669 25.3004 24.9323C25.1499 25.1445 25.155 25.3017 25.2082 25.4001C25.2614 25.4985 25.3704 25.5522 25.6292 25.594C25.8879 25.6357 26.1951 25.6259 26.4539 25.6676L26.6968 25.6599Z" fill="#E93CAC"/>
<path d="M63.2144 6.62608C63.3869 6.72253 63.5891 6.75171 63.7819 6.708C66.6428 6.72353 67.2018 6.76282 69.2789 7.31121C69.8526 7.42017 70.3909 7.66808 70.8467 8.03325C71.0092 8.15526 71.1377 8.317 71.2198 8.50294C71.3019 8.68888 71.3348 8.89279 71.3155 9.09512C71.2961 9.29745 71.2251 9.49142 71.1093 9.65843C70.9934 9.82543 70.8366 9.95987 70.6539 10.0489C70.558 10.1376 70.4396 10.1984 70.3116 10.2246C70.1836 10.2508 70.0508 10.2414 69.9277 10.1975C69.8047 10.1535 69.696 10.0766 69.6136 9.97522C69.5312 9.87382 69.4782 9.75176 69.4603 9.62231C69.335 9.0614 68.7033 8.3165 63.0638 8.3972C62.8263 8.37217 62.5874 8.42764 62.3852 8.55473C62.1831 8.68182 62.0296 8.87314 61.9492 9.09797C60.9893 11.274 59.9436 13.4529 58.9211 15.6882C55.8742 22.4416 53.2309 29.37 51.0052 36.4367C50.5137 37.9893 50.1012 39.5658 49.7693 41.1602C49.6351 41.8796 49.6351 41.8796 50.2683 42.224C50.3655 42.267 50.4519 42.3311 50.5212 42.4117C50.5905 42.4922 50.641 42.5872 50.6689 42.6898C50.6969 42.7923 50.7016 42.8998 50.6828 43.0044C50.6639 43.109 50.622 43.2081 50.56 43.2945C50.4161 43.5252 50.2239 43.722 49.9966 43.8713C49.7693 44.0206 49.5123 44.1187 49.2434 44.159C49.0986 44.1993 48.9468 44.2078 48.7984 44.1839C48.65 44.1601 48.5085 44.1045 48.3836 44.0209C48.2586 43.9373 48.1533 43.8277 48.0746 43.6996C47.996 43.5715 47.946 43.4279 47.9279 43.2787C47.8382 42.8198 47.8231 42.3494 47.8833 41.8857C48.1011 40.6488 48.3758 39.4028 48.6949 38.2055C50.2901 32.7429 52.1803 27.3709 54.3574 22.113C54.9273 20.7075 55.506 19.3517 56.1225 17.8374C55.8685 17.9456 55.8235 18.1044 55.7267 18.2076C53.811 21.1294 51.8968 24.1013 49.8783 26.9406C48.7225 28.5382 47.4647 30.0594 46.1128 31.4949C45.6582 31.9796 45.134 32.3941 44.5575 32.7247C44.3321 32.8822 44.0707 32.9807 43.7973 33.011C43.524 33.0413 43.2474 33.0026 42.9928 32.8984C42.7383 32.7941 42.514 32.6276 42.3405 32.4142C42.167 32.2008 42.0498 31.9473 41.9997 31.6768C41.8996 31.152 41.8301 30.6217 41.7914 30.0888C41.5843 30.0955 41.4909 30.3058 41.3885 30.4593C40.9425 31.1137 40.4459 31.7322 39.9032 32.309C39.5979 32.633 39.2419 32.9052 38.8493 33.1151C38.5791 33.3092 38.2676 33.4378 37.9392 33.4907C37.6108 33.5436 37.2746 33.5194 36.9571 33.42C36.6397 33.3206 36.3498 33.1487 36.1102 32.9178C35.8707 32.687 35.6881 32.4037 35.577 32.0901C35.1657 31.1734 35.024 30.1585 35.1686 29.1642C35.4475 26.5212 36.3952 23.9929 37.9221 21.8176C38.6783 20.742 39.6967 19.8774 40.8808 19.3057C41.3676 19.028 41.9254 18.8995 42.4848 18.9362C43.0441 18.973 43.5803 19.1733 44.0267 19.5124C44.365 19.777 44.6537 20.0994 44.8796 20.4647C45.0966 20.7653 45.2037 20.7618 45.3939 20.4482C45.677 20.0757 45.9391 19.6877 46.179 19.286C46.2754 19.0835 46.4325 18.916 46.6284 18.8068C46.7697 18.7042 46.9385 18.6464 47.113 18.6408C47.2875 18.6352 47.4596 18.6821 47.6071 18.7754C47.7342 18.877 47.8289 19.0135 47.8796 19.1681C47.9303 19.3227 47.9348 19.4888 47.8925 19.6459C47.8115 19.9007 47.6992 20.1445 47.5582 20.3717C46.9229 21.5219 46.2376 22.6737 45.608 23.7809C44.5169 25.8339 43.8198 28.0732 43.5528 30.3828L43.5611 30.6399C43.5661 30.7971 43.5728 31.0043 43.726 31.0995C43.8792 31.1947 44.0387 31.0394 44.1853 30.9274C44.9299 30.2717 45.6242 29.561 46.2624 28.8013C48.4247 26.1571 50.416 23.3775 52.2241 20.4795C54.6813 16.8252 57.0866 13.1154 59.4839 9.37726C59.6344 9.16505 59.9905 8.8962 59.8235 8.59406C59.6565 8.29192 59.306 8.51054 58.9988 8.52039C51.2908 8.76752 49.4718 9.5767 49.0774 10.2115C49.0322 10.3631 48.8266 10.4197 48.6179 10.3764C47.9245 10.4315 47.2385 10.5565 46.5703 10.7495C46.4703 10.7527 46.315 10.8149 46.165 10.8197C45.9877 10.8141 45.8152 10.7605 45.6661 10.6645C45.5169 10.5685 45.3966 10.4338 45.318 10.2748C45.2714 10.1037 45.2785 9.92239 45.3384 9.75546C45.3983 9.58853 45.508 9.44405 45.6528 9.34159L46.3651 9.03271C48.1742 8.28789 50.0537 7.72693 51.975 7.35829C54.8874 6.75004 58.0647 6.8198 60.3848 6.69535C60.6473 6.71977 60.9107 6.65965 61.1366 6.52376C61.3626 6.38787 61.5391 6.18333 61.6406 5.93999C61.9575 5.2975 62.2301 4.63411 62.4565 3.95445C62.5864 3.44891 62.8364 2.98218 63.1852 2.59386C63.2281 2.49665 63.2923 2.41024 63.3728 2.34093C63.4534 2.27162 63.5484 2.22115 63.651 2.1932C63.7535 2.16525 63.861 2.16053 63.9656 2.17937C64.0702 2.19821 64.1693 2.24014 64.2556 2.3021C64.3483 2.34983 64.4306 2.41534 64.4979 2.49489C64.5652 2.57444 64.6162 2.66647 64.6479 2.76573C64.6797 2.86498 64.6915 2.96951 64.6829 3.07336C64.6742 3.1772 64.6451 3.27832 64.5974 3.37094C64.3071 4.15626 63.9712 4.92395 63.5913 5.67007C63.4119 5.96483 63.2844 6.28819 63.2144 6.62608ZM36.8216 29.8692C36.8224 30.3755 36.9087 30.878 37.0766 31.3556C37.3503 31.8617 37.6107 31.9534 38.058 31.6316C38.5842 31.2526 39.041 30.7855 39.4082 30.2511C40.8549 28.27 42.1973 26.2148 43.4299 24.0938C43.6359 23.728 43.7588 23.3212 43.7899 22.9025C43.821 22.4838 43.7594 22.0633 43.6096 21.671C43.5612 21.484 43.4723 21.3099 43.3494 21.1609C43.2264 21.0119 43.0723 20.8916 42.8978 20.8086C42.7234 20.7256 42.5329 20.6818 42.3397 20.6803C42.1465 20.6789 41.9553 20.7197 41.7796 20.8001C40.99 21.0971 40.2948 21.601 39.7669 22.2591C38.5141 23.7954 37.6389 25.604 37.2117 27.5398C36.9963 28.2995 36.8654 29.0807 36.8216 29.8692Z" fill="#E93CAC"/>
<path d="M56.2677 29.5031C56.3074 27.8553 56.6225 26.2257 57.2001 24.682C57.9747 22.51 58.977 20.426 60.1901 18.4649C60.5861 17.8801 60.9887 17.7242 61.461 17.9593C61.9334 18.1945 61.8983 18.6604 61.5523 19.2436C60.2218 21.5092 59.1754 23.9301 58.4367 26.4515C58.1136 27.5397 57.9925 28.6779 58.0796 29.8096C58.1729 30.9365 58.6384 31.179 59.5312 30.4782C59.7775 30.3176 60.0109 30.138 60.2291 29.941C61.925 28.1918 63.5119 26.3889 65.0615 24.5372C65.1115 24.5356 65.1115 24.5356 65.1099 24.4856L65.5594 24.0064C65.6926 23.8883 65.8617 23.8184 66.0394 23.808C66.2171 23.7977 66.3932 23.8474 66.5392 23.9492C66.6853 24.051 66.7929 24.1989 66.8447 24.3693C66.8964 24.5396 66.8894 24.7224 66.8248 24.8883C66.6289 25.2581 66.4009 25.61 66.1434 25.9399C64.7073 27.6878 63.1671 29.3867 61.5228 31.0365C61.0932 31.4529 60.6265 31.8292 60.1286 32.161C59.8579 32.3537 59.5512 32.49 59.2267 32.5618C58.9022 32.6336 58.5667 32.6395 58.2399 32.5791C57.9243 32.517 57.6275 32.3823 57.373 32.1857C57.1184 31.989 56.9131 31.7359 56.7734 31.4462C56.4838 30.8362 56.3122 30.1769 56.2677 29.5031ZM61.023 15.4491C61.0095 15.1786 61.0701 14.9096 61.1983 14.6711C61.3417 14.2464 61.5377 13.8414 61.7818 13.4654C62.018 13.0342 62.2095 12.58 62.3533 12.1098C62.4637 11.8879 62.6368 11.7033 62.8512 11.579C63.0368 11.516 63.2397 11.5274 63.4171 11.6109C63.6052 11.6857 63.758 11.829 63.8447 12.0119C63.9021 12.2313 63.9094 12.4608 63.8662 12.6834C63.4331 13.6699 63.0001 14.6634 62.5314 15.6581C62.483 15.7097 62.4846 15.7597 62.4365 15.8185C62.1907 16.1839 61.9386 16.3493 61.578 16.2536C61.4076 16.203 61.2596 16.0956 61.1586 15.9492C61.0577 15.8028 61.0098 15.6264 61.023 15.4491Z" fill="#E93CAC"/>
<path d="M64.611 29.4432C64.6461 27.4252 64.8908 25.4162 65.3413 23.4488C65.7577 21.9408 66.1758 20.4829 66.6957 19.079C66.7375 18.8202 66.838 18.6096 66.8813 18.4008C67.1204 17.8282 67.4209 17.6112 67.8887 17.7035C68.3565 17.7958 68.5196 18.1981 68.4376 18.7657C68.4106 18.9976 68.348 19.2239 68.2518 19.4367C67.3388 21.9314 66.7305 24.5272 66.4402 27.1678L66.4484 27.4249C66.268 28.5165 66.2699 29.6304 66.454 30.7214C66.637 31.7453 67.158 31.9359 67.9008 31.2399C68.6473 30.5677 69.3298 29.8276 69.9395 29.0293C71.2313 27.3457 72.3703 25.5502 73.343 23.6642C73.4392 23.4993 73.4871 23.3106 73.4809 23.1198C73.4748 22.929 73.415 22.7438 73.3084 22.5855C72.8573 21.7099 72.6834 20.7179 72.8096 19.7411C72.8934 18.8093 73.2796 17.9306 73.9092 17.2387C74.1412 16.9795 74.4145 16.7606 74.718 16.5907C74.8577 16.515 75.0114 16.4689 75.1697 16.4552C75.3279 16.4415 75.4873 16.4605 75.6379 16.5111C75.9771 16.6356 76.2688 16.8632 76.472 17.1619C76.6753 17.4606 76.7798 17.8155 76.7711 18.1767C76.84 18.8196 76.7732 19.4698 76.5749 20.0852C76.3945 20.7059 76.2073 21.3341 75.9698 21.9567C75.8244 22.326 75.8308 22.526 75.8842 22.6316C75.9377 22.7371 76.1496 22.8805 76.5156 22.9188C77.291 23.1513 78.1211 23.1247 78.8801 22.843C79.0003 22.8134 79.1185 22.7761 79.2341 22.7316C79.3894 22.6694 79.595 22.6127 79.7434 22.5579C79.9073 22.5071 80.0834 22.5118 80.2443 22.5713C80.4053 22.6308 80.5421 22.7417 80.6335 22.8869C80.724 23.0374 80.7559 23.2159 80.7232 23.3884C80.6905 23.5609 80.5954 23.7153 80.4561 23.8222C80.1589 24.1439 79.7729 24.3703 79.3471 24.4728C78.1514 24.9182 76.8365 24.9248 75.6363 24.4916C75.426 24.3983 75.2741 24.346 75.1654 24.2994C75.0694 24.3049 74.9789 24.346 74.9116 24.4148C74.829 24.5793 74.731 24.7356 74.6191 24.8818C73.3319 27.3817 71.7235 29.7026 69.8348 31.7857C69.382 32.3109 68.8359 32.7479 68.2242 33.0745C66.7596 33.7865 65.7108 33.4125 65.0986 31.9376C64.7595 31.1506 64.5932 30.3 64.611 29.4432ZM74.5218 20.7302C74.7186 20.4362 74.8553 20.1062 74.924 19.7591C74.9926 19.412 74.9918 19.0548 74.9217 18.708C74.6323 19.3416 74.4953 20.0341 74.5218 20.7302Z" fill="#E93CAC"/>
<path d="M95.0294 14.6665C93.6024 16.7717 92.2237 18.8253 90.8506 20.8287C89.0239 23.4044 87.2545 25.9855 85.3764 28.5199C84.6072 29.6082 83.7071 30.5978 82.6963 31.4663C82.4129 31.6936 82.108 31.8926 81.7857 32.0604C81.3355 32.2962 80.8107 32.3457 80.3244 32.1981C79.8381 32.0504 79.4292 31.7176 79.1861 31.2713C78.693 30.4106 78.4811 29.4174 78.5801 28.4304C78.7724 25.4757 79.6128 22.5995 81.0417 20.0062C81.3776 19.3304 81.8204 18.644 82.1044 17.9127C82.1922 17.6245 82.3864 17.3805 82.6475 17.2302C82.7704 17.1488 82.9154 17.1074 83.0628 17.1116C83.2101 17.1158 83.3526 17.1655 83.4706 17.2539C83.5984 17.3429 83.6984 17.4665 83.7587 17.6102C83.819 17.7538 83.8372 17.9117 83.8112 18.0653C83.6948 18.408 83.55 18.7403 83.3783 19.0589C82.5558 20.4643 81.8844 21.9528 81.3754 23.4995C80.6882 25.1944 80.3453 27.0091 80.3666 28.8379C80.3693 29.2151 80.3981 29.5917 80.4528 29.965C80.6281 30.5243 80.9401 30.6644 81.443 30.2908C82.1474 29.7668 82.7686 29.1393 83.2854 28.4297C85.5611 25.5821 87.5813 22.5711 89.597 19.6461C92.2554 15.7995 94.8069 11.9634 97.3637 8.06994C97.4603 7.95958 97.5055 7.80795 97.6092 7.69736C97.4438 7.44523 97.2382 7.50188 97.0311 7.50852C94.2593 7.59739 91.4855 7.84365 88.7149 8.18992C86.2342 8.5114 83.7733 8.96988 81.3433 9.56327C81.0346 9.57033 80.7308 9.64227 80.4516 9.77442C80.1725 9.90657 79.9243 10.096 79.7232 10.3303C79.6737 10.4049 79.6051 10.4648 79.5246 10.5039C79.4441 10.5429 79.3547 10.5597 79.2655 10.5524C78.5731 10.5893 77.8864 10.6975 77.2163 10.8755C77.0385 10.9493 76.8439 10.9729 76.6536 10.9436C76.4897 10.9331 76.3337 10.8696 76.209 10.7626C76.0843 10.6557 75.9978 10.5112 75.9624 10.3508C75.9222 10.2073 75.9278 10.0549 75.9784 9.91484C76.0291 9.77475 76.1222 9.65398 76.2449 9.56941C76.4673 9.376 76.7246 9.22696 77.0031 9.13035C79.1026 8.3246 81.2742 7.721 83.4884 7.32774C87.4095 6.53185 91.3866 6.04331 95.3837 5.86656C96.4624 5.83197 97.5234 5.69069 98.6753 5.71096C98.8829 5.71415 99.0865 5.65314 99.2581 5.53628C99.4297 5.41942 99.561 5.25242 99.6341 5.05809C100.029 4.37483 100.334 3.64413 100.544 2.88362C100.659 2.43907 100.873 2.02634 101.17 1.67647C101.28 1.47406 101.462 1.32067 101.68 1.24731C101.898 1.17395 102.135 1.18608 102.345 1.28126C102.526 1.40844 102.659 1.59322 102.721 1.80548C102.784 2.01775 102.773 2.24498 102.69 2.45012C102.407 3.23149 101.966 3.96788 101.634 4.75084C101.5 5.00249 101.386 5.26439 101.294 5.53404C101.409 5.78778 101.615 5.73112 101.765 5.72631C104.624 5.6847 107.379 5.75368 110.217 5.92015C112.392 5.98673 114.556 6.26218 116.679 6.7427C117.226 6.85449 117.743 7.08172 118.195 7.40919C118.351 7.51935 118.478 7.66504 118.566 7.8342C118.654 8.00335 118.701 8.1911 118.702 8.38189C118.703 8.57268 118.659 8.761 118.573 8.93128C118.487 9.10155 118.362 9.24886 118.207 9.36101C117.601 9.84527 116.98 9.65781 116.801 8.99849C116.766 8.82047 116.676 8.65792 116.544 8.53384C116.412 8.40975 116.244 8.3304 116.064 8.30703C114.922 8.05876 113.765 7.88801 112.601 7.79593C109.505 7.5877 106.411 7.42948 103.294 7.47933C102.578 7.45223 101.862 7.42513 101.077 7.45033C100.873 7.42504 100.666 7.47034 100.491 7.57871C100.316 7.68709 100.184 7.852 100.116 8.04605C98.4329 11.7542 96.6981 15.4139 95.115 19.1188C93.5318 22.8237 92.0664 26.6321 90.7455 30.4859C89.6335 33.4611 88.6994 36.4998 87.948 39.5859C87.9063 39.8446 87.8645 40.1034 87.8138 40.3053C87.7335 40.9228 87.7335 40.9228 88.2579 41.2207C88.7823 41.5185 88.8951 41.9153 88.5544 42.4411C88.5079 42.5499 88.4023 42.6033 88.3058 42.7137C87.8029 43.0874 87.3484 43.4094 86.667 43.1238C86.4038 42.99 86.1916 42.7737 86.063 42.5079C85.9343 42.2421 85.8963 41.9415 85.9548 41.6521C85.9801 40.7615 86.1077 39.8769 86.3351 39.0155C87.2091 35.5455 88.2667 32.1244 89.5033 28.7666C91.1601 24.237 92.9757 19.7523 94.8945 15.3644C95.0017 15.1482 95.0483 14.907 95.0294 14.6665ZM82.8403 15.2146C82.822 14.9489 82.8674 14.6827 82.9727 14.4381C83.4073 13.4945 83.8421 12.5581 84.2695 11.6147C84.5673 11.0903 84.9623 10.9203 85.3904 11.114C85.4894 11.1628 85.5772 11.2313 85.6487 11.3153C85.7201 11.3994 85.7736 11.4972 85.8058 11.6027C85.838 11.7082 85.8482 11.8191 85.8359 11.9288C85.8235 12.0384 85.7889 12.1443 85.734 12.24C85.3027 13.2836 84.8213 14.3287 84.3381 15.3167C84.2865 15.4584 84.2024 15.586 84.0926 15.6893C83.9864 15.7918 83.8536 15.8626 83.7094 15.8937C83.5651 15.9249 83.415 15.9152 83.2759 15.8657C83.1478 15.8113 83.0383 15.7208 82.9609 15.6051C82.8836 15.4895 82.8416 15.3538 82.8403 15.2146Z" fill="#E93CAC"/>
<path d="M103.664 23.9146C103.578 24.0491 103.479 24.1745 103.368 24.2888C103.17 24.5526 102.969 24.7593 102.825 24.9713C102.034 25.9915 101.131 26.9199 100.132 27.7392C99.8069 28.0391 99.4292 28.2766 99.0179 28.44C98.7981 28.5283 98.5626 28.5709 98.3258 28.5651C98.0889 28.5594 97.8558 28.5055 97.6405 28.4066C97.4252 28.3078 97.2323 28.1661 97.0735 27.9903C96.9148 27.8145 96.7936 27.6082 96.7172 27.3839C96.4205 26.5634 96.3236 25.684 96.4347 24.8186C96.7175 22.6101 97.3256 20.4555 98.2391 18.425C98.475 17.9331 98.6809 17.4274 98.8556 16.9107C99.0963 16.3881 99.287 15.8671 99.5189 15.2947C99.7151 14.9113 99.7571 14.4673 99.6364 14.0538C99.5958 13.9264 99.5815 13.7919 99.5944 13.6587C99.6074 13.5255 99.6473 13.3964 99.7117 13.2791C99.7709 13.1607 99.8552 13.0567 99.9588 12.9743C100.062 12.8919 100.183 12.8332 100.311 12.8022C100.433 12.7716 100.561 12.767 100.685 12.7889C100.809 12.8108 100.926 12.8587 101.031 12.9293C101.26 13.0994 101.416 13.3499 101.468 13.6304C101.524 13.8645 101.532 14.1076 101.491 14.3448C101.356 14.9667 101.167 15.5758 100.927 16.1649C100.742 16.6357 100.549 17.0995 100.407 17.5689C99.7235 19.1861 99.1248 20.838 98.6135 22.5177C98.3748 23.4615 98.2143 24.4233 98.1336 25.3934C98.0757 25.6277 98.0665 25.8714 98.1065 26.1094C98.1024 26.2177 98.1255 26.3253 98.1735 26.4224C98.2216 26.5195 98.2932 26.6031 98.3818 26.6655C98.4589 26.7156 98.5496 26.7409 98.6415 26.738C98.7335 26.735 98.8224 26.704 98.8961 26.649C99.0591 26.5224 99.2102 26.3811 99.3474 26.2269L99.4995 26.0647C100.741 24.7889 101.892 23.4282 102.944 21.9926C103.982 20.6037 104.915 19.1397 105.736 17.6126C105.815 17.4261 105.962 17.2765 106.146 17.1939C106.331 17.1113 106.54 17.1017 106.732 17.1672C106.924 17.2327 107.083 17.3683 107.179 17.5468C107.274 17.7252 107.299 17.9333 107.247 18.129C107.1 18.8877 106.9 19.635 106.647 20.3651C106.546 20.6177 106.469 20.8786 106.414 21.1448C106.133 21.9762 105.852 22.8076 105.622 23.6373C105.245 24.8365 104.876 26.0354 104.5 27.2488C104.505 27.2769 104.503 27.3058 104.496 27.3332C104.488 27.3607 104.474 27.3861 104.455 27.4075C104.413 27.4867 104.398 27.5778 104.414 27.6663C104.387 27.7225 104.374 27.7842 104.376 27.8463C104.378 27.9084 104.395 27.9691 104.425 28.0235C104.468 28.0423 104.516 28.0467 104.562 28.0362C104.608 28.0258 104.65 28.0009 104.681 27.9653C104.729 27.9136 104.827 27.8604 104.876 27.8017C104.924 27.7429 104.874 27.7517 104.931 27.7498C106.476 26.2057 108.026 24.7902 109.68 23.307C110.027 22.9812 110.431 22.6608 110.829 22.3405L110.879 22.3389C111.033 22.1812 111.227 22.0687 111.44 22.0134C111.586 21.9679 111.742 21.9655 111.889 22.0064C112.037 22.0474 112.169 22.13 112.27 22.2443C112.348 22.3663 112.391 22.5069 112.396 22.6514C112.4 22.7959 112.366 22.939 112.297 23.0658C112.102 23.4203 111.831 23.727 111.503 23.9636C109.414 25.7325 107.5 27.596 105.551 29.4605L103.757 31.27C103.435 31.5695 103.2 31.95 103.077 32.3716C102.202 35.8383 101.036 39.2247 99.5901 42.4948C98.9092 44 98.0938 45.4406 97.1537 46.7991C96.6475 47.4353 96.0981 48.0359 95.5095 48.5967C95.0559 48.9831 94.5448 49.2963 93.9946 49.5249C93.7202 49.6454 93.4236 49.7071 93.124 49.706C92.8243 49.7049 92.5281 49.6409 92.2547 49.5183C91.9812 49.3957 91.7365 49.2171 91.5363 48.994C91.3362 48.771 91.185 48.5085 91.0925 48.2235C90.9008 47.5555 90.8612 46.853 90.9765 46.1677C91.2811 44.4417 91.9286 42.7942 92.8807 41.3226C93.9246 39.6356 95.0947 38.0299 96.3808 36.5194C97.9267 34.775 99.5168 33.0721 101.223 31.4228C101.553 31.1106 101.788 30.7113 101.901 30.2712C102.266 28.9223 102.637 27.566 103.003 26.2671L103.563 24.3469L103.562 24.2969C103.58 24.2749 103.593 24.2495 103.601 24.2222C103.609 24.1949 103.611 24.1663 103.607 24.1382L103.664 23.9146ZM100.611 34.6246C100.602 34.6116 100.59 34.601 100.576 34.5939C100.562 34.5867 100.546 34.5832 100.531 34.5837C100.515 34.5842 100.5 34.5887 100.486 34.5968C100.473 34.6048 100.461 34.6161 100.453 34.6296L100.357 34.7328C98.3645 36.7545 96.5563 38.9496 94.9534 41.2919C94.0802 42.615 93.4038 44.0579 92.9455 45.5754C92.7564 46.1238 92.6873 46.7064 92.7428 47.2838C92.8197 47.8963 93.1335 48.0937 93.6896 47.8184C94.0326 47.6665 94.3416 47.4475 94.5986 47.1743C95.6409 46.0758 96.5343 44.845 97.2558 43.5136C98.6444 40.8128 99.7633 37.9817 100.596 35.0613C100.594 35.0113 100.594 35.0113 100.643 34.9597C100.661 34.9379 100.675 34.9125 100.682 34.8851C100.69 34.8578 100.692 34.829 100.688 34.8009C100.692 34.7673 100.687 34.7331 100.674 34.702C100.66 34.6709 100.638 34.6441 100.611 34.6246Z" fill="#E93CAC"/>
</svg>
