<svg xmlns="http://www.w3.org/2000/svg" viewBox="0 0 117.79 47.9" width="117.79000091552734" height="47.900001525878906"><style>svg .tech-svg-elem-1{stroke-dashoffset:27.8799991607666px;stroke-dasharray:27.8799991607666px;fill:transparent;-webkit-transition:stroke-dashoffset 1.3s cubic-bezier(0.47,0,0.745,0.715) 0s,fill 0.5s cubic-bezier(0.47,0,0.745,0.715) 3.5s;transition:stroke-dashoffset 1.3s cubic-bezier(0.47,0,0.745,0.715) 0s,fill 0.5s cubic-bezier(0.47,0,0.745,0.715) 3.5s}svg.active .tech-svg-elem-1{stroke-dashoffset:0;fill:rgb(231,231,231)}svg .tech-svg-elem-2{stroke-dashoffset:40.96000289916992px;stroke-dasharray:40.96000289916992px;fill:transparent;-webkit-transition:stroke-dashoffset 1.3s cubic-bezier(0.47,0,0.745,0.715) 0.12s,fill 0.5s cubic-bezier(0.47,0,0.745,0.715) 3.6s;transition:stroke-dashoffset 1.3s cubic-bezier(0.47,0,0.745,0.715) 0.12s,fill 0.5s cubic-bezier(0.47,0,0.745,0.715) 3.6s}svg.active .tech-svg-elem-2{stroke-dashoffset:0;fill:rgb(231,231,231)}svg .tech-svg-elem-3{stroke-dashoffset:34.385353088378906px;stroke-dasharray:34.385353088378906px;fill:transparent;-webkit-transition:stroke-dashoffset 1.3s cubic-bezier(0.47,0,0.745,0.715) 0.24s,fill 0.5s cubic-bezier(0.47,0,0.745,0.715) 3.7s;transition:stroke-dashoffset 1.3s cubic-bezier(0.47,0,0.745,0.715) 0.24s,fill 0.5s cubic-bezier(0.47,0,0.745,0.715) 3.7s}svg.active .tech-svg-elem-3{stroke-dashoffset:0;fill:rgb(231,231,231)}svg .tech-svg-elem-4{stroke-dashoffset:40.19999694824219px;stroke-dasharray:40.19999694824219px;fill:transparent;-webkit-transition:stroke-dashoffset 1.3s cubic-bezier(0.47,0,0.745,0.715) 0.36s,fill 0.5s cubic-bezier(0.47,0,0.745,0.715) 3.8s;transition:stroke-dashoffset 1.3s cubic-bezier(0.47,0,0.745,0.715) 0.36s,fill 0.5s cubic-bezier(0.47,0,0.745,0.715) 3.8s}svg.active .tech-svg-elem-4{stroke-dashoffset:0;fill:rgb(231,231,231)}svg .tech-svg-elem-5{stroke-dashoffset:43.625423431396484px;stroke-dasharray:43.625423431396484px;fill:transparent;-webkit-transition:stroke-dashoffset 1.3s cubic-bezier(0.47,0,0.745,0.715) 0.48s,fill 0.5s cubic-bezier(0.47,0,0.745,0.715) 3.9s;transition:stroke-dashoffset 1.3s cubic-bezier(0.47,0,0.745,0.715) 0.48s,fill 0.5s cubic-bezier(0.47,0,0.745,0.715) 3.9s}svg.active .tech-svg-elem-5{stroke-dashoffset:0;fill:rgb(231,231,231)}svg .tech-svg-elem-6{stroke-dashoffset:39.880516052246094px;stroke-dasharray:39.880516052246094px;-webkit-transition:stroke-dashoffset 1.3s cubic-bezier(0.47,0,0.745,0.715) 0.6s,fill 0.5s cubic-bezier(0.47,0,0.745,0.715) 4s;transition:stroke-dashoffset 1.3s cubic-bezier(0.47,0,0.745,0.715) 0.6s,fill 0.5s cubic-bezier(0.47,0,0.745,0.715) 4s}svg.active .tech-svg-elem-6{stroke-dashoffset:0}svg .tech-svg-elem-7{stroke-dashoffset:42.70979690551758px;stroke-dasharray:42.70979690551758px;-webkit-transition:stroke-dashoffset 1.3s cubic-bezier(0.47,0,0.745,0.715) 0.72s,fill 0.5s cubic-bezier(0.47,0,0.745,0.715) 4.1s;transition:stroke-dashoffset 1.3s cubic-bezier(0.47,0,0.745,0.715) 0.72s,fill 0.5s cubic-bezier(0.47,0,0.745,0.715) 4.1s}svg.active .tech-svg-elem-7{stroke-dashoffset:0}svg .tech-svg-elem-8{stroke-dashoffset:48.513851165771484px;stroke-dasharray:48.513851165771484px;-webkit-transition:stroke-dashoffset 1.3s cubic-bezier(0.47,0,0.745,0.715) 0.84s,fill 0.5s cubic-bezier(0.47,0,0.745,0.715) 4.2s;transition:stroke-dashoffset 1.3s cubic-bezier(0.47,0,0.745,0.715) 0.84s,fill 0.5s cubic-bezier(0.47,0,0.745,0.715) 4.2s}svg.active .tech-svg-elem-8{stroke-dashoffset:0}svg .tech-svg-elem-9{stroke-dashoffset:129.55231475830078px;stroke-dasharray:129.55231475830078px;-webkit-transition:stroke-dashoffset 1.3s cubic-bezier(0.47,0,0.745,0.715) 0.96s,fill 0.5s cubic-bezier(0.47,0,0.745,0.715) 4.3s;transition:stroke-dashoffset 1.3s cubic-bezier(0.47,0,0.745,0.715) 0.96s,fill 0.5s cubic-bezier(0.47,0,0.745,0.715) 4.3s}svg.active .tech-svg-elem-9{stroke-dashoffset:0}svg .tech-svg-elem-10{stroke-dashoffset:25.683862686157227px;stroke-dasharray:25.683862686157227px;-webkit-transition:stroke-dashoffset 1.3s cubic-bezier(0.47,0,0.745,0.715) 1.08s,fill 0.5s cubic-bezier(0.47,0,0.745,0.715) 4.4s;transition:stroke-dashoffset 1.3s cubic-bezier(0.47,0,0.745,0.715) 1.08s,fill 0.5s cubic-bezier(0.47,0,0.745,0.715) 4.4s}svg.active .tech-svg-elem-10{stroke-dashoffset:0}svg .tech-svg-elem-11{stroke-dashoffset:4.263185024261475px;stroke-dasharray:4.263185024261475px;-webkit-transition:stroke-dashoffset 1.3s cubic-bezier(0.47,0,0.745,0.715) 1.2s,fill 0.5s cubic-bezier(0.47,0,0.745,0.715) 4.5s;transition:stroke-dashoffset 1.3s cubic-bezier(0.47,0,0.745,0.715) 1.2s,fill 0.5s cubic-bezier(0.47,0,0.745,0.715) 4.5s}svg.active .tech-svg-elem-11{stroke-dashoffset:0}svg .tech-svg-elem-12{stroke-dashoffset:27.37825584411621px;stroke-dasharray:27.37825584411621px;-webkit-transition:stroke-dashoffset 1.3s cubic-bezier(0.47,0,0.745,0.715) 1.3199999999999998s,fill 0.5s cubic-bezier(0.47,0,0.745,0.715) 4.6s;transition:stroke-dashoffset 1.3s cubic-bezier(0.47,0,0.745,0.715) 1.3199999999999998s,fill 0.5s cubic-bezier(0.47,0,0.745,0.715) 4.6s}svg.active .tech-svg-elem-12{stroke-dashoffset:0}svg .tech-svg-elem-13{stroke-dashoffset:49.439517974853516px;stroke-dasharray:49.439517974853516px;-webkit-transition:stroke-dashoffset 1.3s cubic-bezier(0.47,0,0.745,0.715) 1.44s,fill 0.5s cubic-bezier(0.47,0,0.745,0.715) 4.7s;transition:stroke-dashoffset 1.3s cubic-bezier(0.47,0,0.745,0.715) 1.44s,fill 0.5s cubic-bezier(0.47,0,0.745,0.715) 4.7s}svg.active .tech-svg-elem-13{stroke-dashoffset:0}svg .tech-svg-elem-14{stroke-dashoffset:95.83932495117188px;stroke-dasharray:95.83932495117188px;-webkit-transition:stroke-dashoffset 1.3s cubic-bezier(0.47,0,0.745,0.715) 1.56s,fill 0.5s cubic-bezier(0.47,0,0.745,0.715) 4.8s;transition:stroke-dashoffset 1.3s cubic-bezier(0.47,0,0.745,0.715) 1.56s,fill 0.5s cubic-bezier(0.47,0,0.745,0.715) 4.8s}svg.active .tech-svg-elem-14{stroke-dashoffset:0}svg .tech-svg-elem-15{stroke-dashoffset:4.633190870285034px;stroke-dasharray:4.633190870285034px;-webkit-transition:stroke-dashoffset 1.3s cubic-bezier(0.47,0,0.745,0.715) 1.68s,fill 0.5s cubic-bezier(0.47,0,0.745,0.715) 4.9s;transition:stroke-dashoffset 1.3s cubic-bezier(0.47,0,0.745,0.715) 1.68s,fill 0.5s cubic-bezier(0.47,0,0.745,0.715) 4.9s}svg.active .tech-svg-elem-15{stroke-dashoffset:0}svg .tech-svg-elem-16{stroke-dashoffset:96.57675170898438px;stroke-dasharray:96.57675170898438px;-webkit-transition:stroke-dashoffset 1.3s cubic-bezier(0.47,0,0.745,0.715) 1.7999999999999998s,fill 0.5s cubic-bezier(0.47,0,0.745,0.715) 5s;transition:stroke-dashoffset 1.3s cubic-bezier(0.47,0,0.745,0.715) 1.7999999999999998s,fill 0.5s cubic-bezier(0.47,0,0.745,0.715) 5s}svg.active .tech-svg-elem-16{stroke-dashoffset:0}svg .tech-svg-elem-17{stroke-dashoffset:42.688072204589844px;stroke-dasharray:42.688072204589844px;-webkit-transition:stroke-dashoffset 1.3s cubic-bezier(0.47,0,0.745,0.715) 1.92s,fill 0.5s cubic-bezier(0.47,0,0.745,0.715) 5.1s;transition:stroke-dashoffset 1.3s cubic-bezier(0.47,0,0.745,0.715) 1.92s,fill 0.5s cubic-bezier(0.47,0,0.745,0.715) 5.1s}svg.active .tech-svg-elem-17{stroke-dashoffset:0}</style><defs><style>.cls-1{fill:#e7e7e7;}.cls-2,.cls-3{fill:none;stroke:#e93cac;stroke-linecap:round;stroke-width:1.75px;}.cls-2{stroke-miterlimit:10;}.cls-3{stroke-linejoin:round;}</style></defs><g id="Camada_2" data-name="Camada 2"><g id="Camada_1-2" data-name="Camada 1"><path class="cls-1 tech-svg-elem-1" d="M4.26,10.11h1.3V4.21H7.88V3.11H1.94v1.1H4.26Z"></path><path class="cls-1 tech-svg-elem-2" d="M10.15,9V7.09h3.38V6H10.15V4.2H14V3.11H8.85v7H14.1V9Z"></path><path class="cls-1 tech-svg-elem-3" d="M18.76,10.21A3.55,3.55,0,0,0,21.54,9l-.84-.8a2.43,2.43,0,0,1-1.87.83,2.39,2.39,0,0,1-2.5-2.46,2.39,2.39,0,0,1,2.5-2.46A2.46,2.46,0,0,1,20.7,5l.84-.79A3.55,3.55,0,0,0,18.77,3,3.57,3.57,0,0,0,15,6.61,3.56,3.56,0,0,0,18.76,10.21Z"></path><path class="cls-1 tech-svg-elem-4" d="M27.71,3.11V6H24.09V3.11h-1.3v7h1.3v-3h3.62v3H29v-7Z"></path><path class="cls-1 tech-svg-elem-5" d="M39.59,9.41l-.88-.84A4.78,4.78,0,0,0,39.34,7l-1-.33a4.54,4.54,0,0,1-.39,1.18L36.43,6.38c1-.57,1.43-1.09,1.43-1.81,0-1-.74-1.54-1.87-1.54s-2,.67-2,1.65a2.12,2.12,0,0,0,.78,1.54c-1.14.64-1.62,1.25-1.62,2.12,0,1.1,1.07,1.87,2.55,1.87A3.54,3.54,0,0,0,38,9.37l.88.85ZM36,3.92c.52,0,.81.27.81.67s-.26.67-1.07,1.11c-.5-.5-.63-.73-.63-1S35.43,3.92,36,3.92Zm-.23,5.27c-.86,0-1.42-.4-1.42-1s.28-.87,1.09-1.32l1.85,1.77A2.34,2.34,0,0,1,35.76,9.19Z"></path><path class="cls-2 tech-svg-elem-6" d="M9,23.51s3-4.57-1.26-5.16S1.08,24.54.88,27.43s2.36,6.78,8.45,1.39l5.11-4.52"></path><path class="cls-3 tech-svg-elem-7" d="M11.55,31.36l5.62-14L13.31,27s8.17-13,10.56-8.55"></path><path class="cls-3 tech-svg-elem-8" d="M24.08,24.36s6.45,1.58,8.37-3.84c1.35-3.81-5.42-3.79-8.11,1.12-2.28,4.14-2.89,11.73,4.09,9.06,2.9-1.11,5.75-4.14,7.6-6.94"></path><path class="cls-3 tech-svg-elem-9" d="M44.22,19.65S40.07,14.44,35.93,24A10.55,10.55,0,0,0,35,28.12c0,1.8.5,3.7,3,1.89,4.24-3,7.64-12.21,7.64-12.21S37.88,33.22,43.8,29.66s19.11-28,19.11-28S44.72,39.29,48.39,41.32"></path><path class="cls-3 tech-svg-elem-10" d="M46.13,8S58.67,3.15,69.37,6.89"></path><line class="cls-3 tech-svg-elem-11" x1="62.15" y1="10.96" x2="61.17" y2="13"></line><path class="cls-3 tech-svg-elem-12" d="M60,17.11s-7.13,13.25-2.29,12.67c3.32-.41,7.73-7.24,7.73-7.24"></path><path class="cls-3 tech-svg-elem-13" d="M66.67,16.89s-4.4,12.42-.59,13.92c3.25,1.27,7.42-9.62,8.57-12.83a2.61,2.61,0,0,0-.1-2.07c-.4-.78-1.58-1.31-2.06,1.6-.8,4.93,4.61,5.71,7.16,4.29"></path><path class="cls-3 tech-svg-elem-14" d="M81.85,16S66.08,54.88,100.67.88c-.48-.7-20.18,39.69-13.84,39.29"></path><line class="cls-3 tech-svg-elem-15" x1="83.85" y1="10.29" x2="82.86" y2="12.73"></line><path class="cls-3 tech-svg-elem-16" d="M110.34,21.37c-4.44,2.86-24.07,23-18.6,25.49,6.06,2.75,13.48-29.73,13.48-29.73-16.8,22.36-6.94-4.07-5.58-4.12"></path><path class="cls-3 tech-svg-elem-17" d="M77.47,8c-1.39-1.43,38.06-6.43,39.44-.73"></path></g></g></svg>