<svg width="315" height="220" viewBox="0 0 315 220" fill="none" xmlns="http://www.w3.org/2000/svg">
<g filter="url(#filter0_b_2500_2637)">
<rect y="2" width="285" height="180" rx="2" fill="url(#paint0_linear_2500_2637)" fill-opacity="0.75"/>
<rect x="0.375" y="2.375" width="284.25" height="179.25" rx="1.625" stroke="url(#paint1_linear_2500_2637)" stroke-width="0.75"/>
</g>
<rect opacity="0.5" x="19.75" y="115.75" width="20.5" height="6.5" rx="0.5" stroke="#555555" stroke-width="0.5"/>
<line opacity="0.75" x1="20" y1="87.625" x2="92" y2="87.625" stroke="#B6B6B6" stroke-width="0.75"/>
<line opacity="0.8" x1="20" y1="95.625" x2="105" y2="95.625" stroke="#555555" stroke-width="0.75"/>
<line opacity="0.6" x1="20" y1="103.625" x2="68.5714" y2="103.625" stroke="#555555" stroke-width="0.75"/>
<path d="M24.429 69.112C24.829 69.1867 25.133 69.344 25.341 69.584C25.5543 69.824 25.661 70.136 25.661 70.52C25.661 70.9947 25.4877 71.36 25.141 71.616C24.7943 71.872 24.2797 72 23.597 72H21.101V66.4H23.437C24.045 66.4 24.517 66.5253 24.853 66.776C25.1943 67.0213 25.365 67.3733 25.365 67.832C25.365 68.152 25.2797 68.4213 25.109 68.64C24.9437 68.8587 24.717 69.016 24.429 69.112ZM21.509 66.752V68.984H23.421C23.9117 68.984 24.2877 68.8907 24.549 68.704C24.8157 68.512 24.949 68.232 24.949 67.864C24.949 67.5013 24.8157 67.2267 24.549 67.04C24.2877 66.848 23.9117 66.752 23.421 66.752H21.509ZM23.597 71.648C24.141 71.648 24.5517 71.5547 24.829 71.368C25.1117 71.176 25.253 70.8827 25.253 70.488C25.253 70.0933 25.1117 69.8027 24.829 69.616C24.5517 69.4293 24.141 69.336 23.597 69.336H21.509V71.648H23.597ZM30.5166 70.008H26.9246C26.9353 70.3333 27.018 70.624 27.1726 70.88C27.3273 71.1307 27.5353 71.3253 27.7966 71.464C28.0633 71.6027 28.362 71.672 28.6926 71.672C28.9646 71.672 29.2153 71.624 29.4446 71.528C29.6793 71.4267 29.874 71.28 30.0286 71.088L30.2606 71.352C30.0793 71.5707 29.85 71.7387 29.5726 71.856C29.3006 71.9733 29.0046 72.032 28.6846 72.032C28.2686 72.032 27.898 71.9413 27.5726 71.76C27.2473 71.5787 26.9913 71.328 26.8046 71.008C26.6233 70.688 26.5326 70.3227 26.5326 69.912C26.5326 69.5067 26.618 69.144 26.7886 68.824C26.9646 68.4987 27.2046 68.2453 27.5086 68.064C27.8126 67.8827 28.154 67.792 28.5326 67.792C28.9113 67.792 29.25 67.8827 29.5486 68.064C29.8526 68.24 30.09 68.488 30.2606 68.808C30.4366 69.128 30.5246 69.4907 30.5246 69.896L30.5166 70.008ZM28.5326 68.144C28.2393 68.144 27.9753 68.2107 27.7406 68.344C27.506 68.472 27.3166 68.656 27.1726 68.896C27.034 69.1307 26.954 69.3973 26.9326 69.696H30.1326C30.1166 69.3973 30.0366 69.1307 29.8926 68.896C29.7486 68.6613 29.5593 68.4773 29.3246 68.344C29.09 68.2107 28.826 68.144 28.5326 68.144ZM39.2408 72L39.2328 67.208L36.8888 71.256H36.6888L34.3448 67.224V72H33.9448V66.4H34.2888L36.7928 70.728L39.2968 66.4H39.6328L39.6408 72H39.2408ZM44.9932 70.008H41.4012C41.4119 70.3333 41.4945 70.624 41.6492 70.88C41.8039 71.1307 42.0119 71.3253 42.2732 71.464C42.5399 71.6027 42.8385 71.672 43.1692 71.672C43.4412 71.672 43.6919 71.624 43.9212 71.528C44.1559 71.4267 44.3505 71.28 44.5052 71.088L44.7372 71.352C44.5559 71.5707 44.3265 71.7387 44.0492 71.856C43.7772 71.9733 43.4812 72.032 43.1612 72.032C42.7452 72.032 42.3745 71.9413 42.0492 71.76C41.7239 71.5787 41.4679 71.328 41.2812 71.008C41.0999 70.688 41.0092 70.3227 41.0092 69.912C41.0092 69.5067 41.0945 69.144 41.2652 68.824C41.4412 68.4987 41.6812 68.2453 41.9852 68.064C42.2892 67.8827 42.6305 67.792 43.0092 67.792C43.3879 67.792 43.7265 67.8827 44.0252 68.064C44.3292 68.24 44.5665 68.488 44.7372 68.808C44.9132 69.128 45.0012 69.4907 45.0012 69.896L44.9932 70.008ZM43.0092 68.144C42.7159 68.144 42.4519 68.2107 42.2172 68.344C41.9825 68.472 41.7932 68.656 41.6492 68.896C41.5105 69.1307 41.4305 69.3973 41.4092 69.696H44.6092C44.5932 69.3973 44.5132 69.1307 44.3692 68.896C44.2252 68.6613 44.0359 68.4773 43.8012 68.344C43.5665 68.2107 43.3025 68.144 43.0092 68.144ZM51.4386 67.792C51.956 67.792 52.3613 67.944 52.6546 68.248C52.9533 68.552 53.1026 68.9893 53.1026 69.56V72H52.7026V69.592C52.7026 69.1227 52.588 68.7653 52.3586 68.52C52.1293 68.2747 51.8093 68.152 51.3986 68.152C50.9293 68.152 50.556 68.2987 50.2786 68.592C50.0066 68.8853 49.8706 69.28 49.8706 69.776V72H49.4706V69.592C49.4706 69.1227 49.356 68.7653 49.1266 68.52C48.8973 68.2747 48.5773 68.152 48.1666 68.152C47.6973 68.152 47.324 68.2987 47.0466 68.592C46.7746 68.8853 46.6386 69.28 46.6386 69.776V72H46.2386V67.824H46.6226V68.72C46.7613 68.4267 46.9666 68.2 47.2386 68.04C47.516 67.8747 47.844 67.792 48.2226 67.792C48.6013 67.792 48.9213 67.8773 49.1826 68.048C49.4493 68.2187 49.6386 68.4693 49.7506 68.8C49.8893 68.4907 50.1053 68.2453 50.3986 68.064C50.6973 67.8827 51.044 67.792 51.4386 67.792ZM56.3941 72.032C55.9994 72.032 55.6421 71.9413 55.3221 71.76C55.0074 71.5787 54.7594 71.328 54.5781 71.008C54.3967 70.6827 54.3061 70.3173 54.3061 69.912C54.3061 69.5067 54.3967 69.144 54.5781 68.824C54.7594 68.4987 55.0074 68.2453 55.3221 68.064C55.6421 67.8827 55.9994 67.792 56.3941 67.792C56.7887 67.792 57.1434 67.8827 57.4581 68.064C57.7781 68.2453 58.0287 68.4987 58.2101 68.824C58.3914 69.144 58.4821 69.5067 58.4821 69.912C58.4821 70.3173 58.3914 70.6827 58.2101 71.008C58.0287 71.328 57.7781 71.5787 57.4581 71.76C57.1434 71.9413 56.7887 72.032 56.3941 72.032ZM56.3941 71.672C56.7141 71.672 56.9994 71.5973 57.2501 71.448C57.5061 71.2987 57.7061 71.0907 57.8501 70.824C57.9994 70.5573 58.0741 70.2533 58.0741 69.912C58.0741 69.5707 57.9994 69.2667 57.8501 69C57.7061 68.7333 57.5061 68.5253 57.2501 68.376C56.9994 68.2267 56.7141 68.152 56.3941 68.152C56.0741 68.152 55.7861 68.2267 55.5301 68.376C55.2794 68.5253 55.0794 68.7333 54.9301 69C54.7861 69.2667 54.7141 69.5707 54.7141 69.912C54.7141 70.2533 54.7861 70.5573 54.9301 70.824C55.0794 71.0907 55.2794 71.2987 55.5301 71.448C55.7861 71.5973 56.0741 71.672 56.3941 71.672ZM60.107 68.736C60.235 68.432 60.435 68.2 60.707 68.04C60.979 67.8747 61.3097 67.792 61.699 67.792V68.184L61.603 68.176C61.139 68.176 60.7763 68.3227 60.515 68.616C60.2537 68.904 60.123 69.3067 60.123 69.824V72H59.723V67.824H60.107V68.736ZM64.2091 67.792C64.7265 67.792 65.1238 67.9253 65.4011 68.192C65.6785 68.4533 65.8171 68.84 65.8171 69.352V72H65.4331V71.256C65.2998 71.5013 65.1051 71.6933 64.8491 71.832C64.5931 71.9653 64.2865 72.032 63.9291 72.032C63.4651 72.032 63.0971 71.9227 62.8251 71.704C62.5585 71.4853 62.4251 71.1973 62.4251 70.84C62.4251 70.4933 62.5478 70.2133 62.7931 70C63.0438 69.7813 63.4411 69.672 63.9851 69.672H65.4171V69.336C65.4171 68.9467 65.3105 68.6507 65.0971 68.448C64.8891 68.2453 64.5825 68.144 64.1771 68.144C63.8998 68.144 63.6331 68.192 63.3771 68.288C63.1265 68.384 62.9131 68.512 62.7371 68.672L62.5371 68.384C62.7451 68.1973 62.9958 68.0533 63.2891 67.952C63.5825 67.8453 63.8891 67.792 64.2091 67.792ZM63.9851 71.704C64.3318 71.704 64.6251 71.624 64.8651 71.464C65.1105 71.304 65.2945 71.072 65.4171 70.768V69.984H63.9931C63.5825 69.984 63.2838 70.0587 63.0971 70.208C62.9158 70.3573 62.8251 70.5627 62.8251 70.824C62.8251 71.096 62.9265 71.312 63.1291 71.472C63.3318 71.6267 63.6171 71.704 63.9851 71.704ZM69.5612 67.792C69.9505 67.792 70.3025 67.8827 70.6172 68.064C70.9319 68.24 71.1772 68.4907 71.3532 68.816C71.5345 69.136 71.6252 69.5013 71.6252 69.912C71.6252 70.3227 71.5345 70.688 71.3532 71.008C71.1772 71.328 70.9319 71.5787 70.6172 71.76C70.3025 71.9413 69.9505 72.032 69.5612 72.032C69.1879 72.032 68.8492 71.944 68.5452 71.768C68.2465 71.5867 68.0145 71.336 67.8492 71.016V72H67.4652V66.064H67.8652V68.776C68.0305 68.4667 68.2625 68.2267 68.5612 68.056C68.8599 67.88 69.1932 67.792 69.5612 67.792ZM69.5372 71.672C69.8572 71.672 70.1452 71.5973 70.4012 71.448C70.6572 71.2987 70.8572 71.0907 71.0012 70.824C71.1505 70.5573 71.2252 70.2533 71.2252 69.912C71.2252 69.5707 71.1505 69.2667 71.0012 69C70.8572 68.7333 70.6572 68.5253 70.4012 68.376C70.1452 68.2267 69.8572 68.152 69.5372 68.152C69.2172 68.152 68.9292 68.2267 68.6732 68.376C68.4225 68.5253 68.2225 68.7333 68.0732 69C67.9292 69.2667 67.8572 69.5707 67.8572 69.912C67.8572 70.2533 67.9292 70.5573 68.0732 70.824C68.2225 71.0907 68.4225 71.2987 68.6732 71.448C68.9292 71.5973 69.2172 71.672 69.5372 71.672ZM72.8636 66.064H73.2636V72H72.8636V66.064ZM78.4776 70.008H74.8856C74.8962 70.3333 74.9789 70.624 75.1336 70.88C75.2882 71.1307 75.4962 71.3253 75.7576 71.464C76.0242 71.6027 76.3229 71.672 76.6536 71.672C76.9256 71.672 77.1762 71.624 77.4056 71.528C77.6402 71.4267 77.8349 71.28 77.9896 71.088L78.2216 71.352C78.0402 71.5707 77.8109 71.7387 77.5336 71.856C77.2616 71.9733 76.9656 72.032 76.6456 72.032C76.2296 72.032 75.8589 71.9413 75.5336 71.76C75.2082 71.5787 74.9522 71.328 74.7656 71.008C74.5842 70.688 74.4936 70.3227 74.4936 69.912C74.4936 69.5067 74.5789 69.144 74.7496 68.824C74.9256 68.4987 75.1656 68.2453 75.4696 68.064C75.7736 67.8827 76.1149 67.792 76.4936 67.792C76.8722 67.792 77.2109 67.8827 77.5096 68.064C77.8136 68.24 78.0509 68.488 78.2216 68.808C78.3976 69.128 78.4856 69.4907 78.4856 69.896L78.4776 70.008ZM76.4936 68.144C76.2002 68.144 75.9362 68.2107 75.7016 68.344C75.4669 68.472 75.2776 68.656 75.1336 68.896C74.9949 69.1307 74.9149 69.3973 74.8936 69.696H78.0936C78.0776 69.3973 77.9976 69.1307 77.8536 68.896C77.7096 68.6613 77.5202 68.4773 77.2856 68.344C77.0509 68.2107 76.7869 68.144 76.4936 68.144Z" fill="#B6B6B6"/>
<g filter="url(#filter1_bd_2500_2637)">
<rect x="145" y="40" width="120" height="120" rx="2" fill="url(#paint2_linear_2500_2637)" fill-opacity="0.5" shape-rendering="crispEdges"/>
<rect x="145.375" y="40.375" width="119.25" height="119.25" rx="1.625" stroke="url(#paint3_linear_2500_2637)" stroke-width="0.75" shape-rendering="crispEdges"/>
</g>
<path d="M204.2 96.6L208.2 92.4L209.8 94V98.8H206.4L204.2 96.6Z" fill="url(#paint4_linear_2500_2637)" fill-opacity="0.5" stroke="#555555" stroke-width="0.5"/>
<path d="M203.364 95.8L200.4 98.8H206.4L203.364 95.8Z" fill="url(#paint5_linear_2500_2637)" fill-opacity="0.5" stroke="#555555" stroke-width="0.5"/>
<path d="M203.15 90.8C203.15 91.5456 202.545 92.15 201.8 92.15C201.054 92.15 200.45 91.5456 200.45 90.8C200.45 90.0544 201.054 89.45 201.8 89.45C202.545 89.45 203.15 90.0544 203.15 90.8Z" stroke="#555555" stroke-width="0.5"/>
<rect x="198.75" y="87.75" width="12.5" height="12.5" rx="0.75" stroke="#555555" stroke-width="0.5"/>
<line x1="172" y1="20.625" x2="184" y2="20.625" stroke="#555555" stroke-width="0.75"/>
<line x1="149" y1="20.625" x2="161" y2="20.625" stroke="#555555" stroke-width="0.75"/>
<line x1="125" y1="20.625" x2="137" y2="20.625" stroke="#555555" stroke-width="0.75"/>
<line x1="101" y1="20.625" x2="113" y2="20.625" stroke="#555555" stroke-width="0.75"/>
<rect x="244.75" y="18.75" width="20.5" height="4.5" rx="0.75" stroke="#B6B6B6" stroke-width="0.5"/>
<path d="M25.2744 22.3208C25.2744 23.3233 24.4858 23.9042 22.9738 23.9042H20V18.1035H22.8097C24.2472 18.1035 24.9897 18.7076 24.9897 19.6106C24.9948 19.8751 24.9251 20.1356 24.7888 20.3617C24.6526 20.5878 24.4554 20.7701 24.2203 20.8874C24.8628 21.0944 25.2744 21.5911 25.2744 22.3208ZM21.3221 19.1138V20.4877H22.6417C23.2906 20.4877 23.6432 20.2561 23.6432 19.7994C23.6432 19.3428 23.2906 19.1203 22.6417 19.1203L21.3221 19.1138ZM23.9356 22.1798C23.9356 21.6908 23.565 21.4592 22.8751 21.4592H21.3221V22.8926H22.8751C23.565 22.8926 23.9356 22.6778 23.9356 22.1798Z" fill="#B6B6B6"/>
<path d="M28.9381 19.3789V20.5729C28.8317 20.5639 28.7496 20.5561 28.6509 20.5561C27.9443 20.5561 27.4762 20.9442 27.4762 21.7993V23.9041H26.1938V19.4449H27.4172V20.0335C27.7314 19.6027 28.2572 19.3789 28.9381 19.3789Z" fill="#B6B6B6"/>
<path d="M31.0703 23.3337L31.5217 22.3221C32.0797 22.7116 32.7411 22.9225 33.4196 22.9275C34.2083 22.9275 34.5289 22.6623 34.5289 22.3053C34.5289 21.2199 31.1844 21.9663 31.1844 19.8111C31.1844 18.8254 31.9744 18 33.6081 18C34.3314 18 35.0713 18.1733 35.6048 18.5175L35.1944 19.5369C34.7111 19.2484 34.1619 19.0911 33.6004 19.0802C32.8118 19.0802 32.5079 19.379 32.5079 19.7438C32.5079 20.8124 35.851 20.075 35.851 22.2018C35.851 23.1707 35.0547 24 33.4145 24C32.5002 24.0038 31.5794 23.7296 31.0703 23.3337Z" fill="#B6B6B6"/>
<path d="M39.524 23.6883C39.2122 23.8865 38.8483 23.9848 38.4801 23.9703C37.4375 23.9703 36.8297 23.4321 36.8297 22.3714V20.5395H36.1475V19.5447H36.8297V18.4594H38.1121V19.5447H39.2136V20.5395H38.1121V22.3507C38.1121 22.7323 38.3172 22.9393 38.6622 22.9393C38.8463 22.9405 39.026 22.8825 39.1751 22.7737L39.524 23.6883Z" fill="#B6B6B6"/>
<path d="M40.0078 21.6751C40.0078 20.3323 41.0337 19.3789 42.4443 19.3789C43.8549 19.3789 44.868 20.3323 44.868 21.6751C44.868 23.0179 43.8498 23.9701 42.4443 23.9701C41.0388 23.9701 40.0078 23.0167 40.0078 21.6751ZM43.5651 21.6751C43.5651 20.8989 43.0804 20.4397 42.4392 20.4397C41.798 20.4397 41.3056 20.9041 41.3056 21.6751C41.3056 22.4462 41.798 22.9093 42.4392 22.9093C43.0804 22.9093 43.5651 22.4449 43.5651 21.6751Z" fill="#B6B6B6"/>
<path d="M48.2331 19.3789V20.5729C48.1266 20.5639 48.0446 20.5561 47.9458 20.5561C47.2392 20.5561 46.7711 20.9442 46.7711 21.7993V23.9041H45.4888V19.4449H46.7122V20.0335C47.0263 19.6027 47.5521 19.3789 48.2331 19.3789Z" fill="#B6B6B6"/>
<path d="M56.4645 21.3518V23.9042H55.1821V21.5498C55.1821 20.8292 54.8615 20.498 54.3447 20.498C53.7689 20.498 53.3663 20.8706 53.3663 21.6623V23.9003H52.0839V21.5459C52.0839 20.8253 51.7799 20.4942 51.2465 20.4942C50.6797 20.4942 50.277 20.8667 50.277 21.6584V23.8965H48.9946V19.445H50.2193V19.9625C50.3949 19.7698 50.61 19.6181 50.8496 19.5177C51.0892 19.4174 51.3476 19.371 51.6068 19.3816C52.2237 19.3816 52.7494 19.6222 53.061 20.1112C53.2539 19.8749 53.4978 19.6862 53.7741 19.5598C54.0504 19.4333 54.3518 19.3723 54.655 19.3816C55.7091 19.379 56.4645 19.9922 56.4645 21.3518Z" fill="#B6B6B6"/>
<path d="M30.2205 22.6105H28.9395V23.9028H30.2205V22.6105Z" fill="#B6B6B6"/>
<defs>
<filter id="filter0_b_2500_2637" x="-5" y="-3" width="295" height="190" filterUnits="userSpaceOnUse" color-interpolation-filters="sRGB">
<feFlood flood-opacity="0" result="BackgroundImageFix"/>
<feGaussianBlur in="BackgroundImage" stdDeviation="2.5"/>
<feComposite in2="SourceAlpha" operator="in" result="effect1_backgroundBlur_2500_2637"/>
<feBlend mode="normal" in="SourceGraphic" in2="effect1_backgroundBlur_2500_2637" result="shape"/>
</filter>
<filter id="filter1_bd_2500_2637" x="95" y="0" width="220" height="220" filterUnits="userSpaceOnUse" color-interpolation-filters="sRGB">
<feFlood flood-opacity="0" result="BackgroundImageFix"/>
<feGaussianBlur in="BackgroundImage" stdDeviation="2.5"/>
<feComposite in2="SourceAlpha" operator="in" result="effect1_backgroundBlur_2500_2637"/>
<feColorMatrix in="SourceAlpha" type="matrix" values="0 0 0 0 0 0 0 0 0 0 0 0 0 0 0 0 0 0 127 0" result="hardAlpha"/>
<feOffset dy="10"/>
<feGaussianBlur stdDeviation="25"/>
<feComposite in2="hardAlpha" operator="out"/>
<feColorMatrix type="matrix" values="0 0 0 0 0 0 0 0 0 0 0 0 0 0 0 0 0 0 0.15 0"/>
<feBlend mode="normal" in2="effect1_backgroundBlur_2500_2637" result="effect2_dropShadow_2500_2637"/>
<feBlend mode="normal" in="SourceGraphic" in2="effect2_dropShadow_2500_2637" result="shape"/>
</filter>
<linearGradient id="paint0_linear_2500_2637" x1="142.5" y1="2" x2="142.5" y2="182" gradientUnits="userSpaceOnUse">
<stop stop-color="#010101"/>
<stop offset="1" stop-color="#010101" stop-opacity="0"/>
</linearGradient>
<linearGradient id="paint1_linear_2500_2637" x1="142.5" y1="2" x2="142.5" y2="182" gradientUnits="userSpaceOnUse">
<stop stop-color="#B6B6B6"/>
<stop offset="1" stop-color="#B6B6B6" stop-opacity="0"/>
</linearGradient>
<linearGradient id="paint2_linear_2500_2637" x1="205" y1="40" x2="205" y2="160" gradientUnits="userSpaceOnUse">
<stop stop-color="#101010"/>
<stop offset="1" stop-color="#101010" stop-opacity="0"/>
</linearGradient>
<linearGradient id="paint3_linear_2500_2637" x1="205" y1="40" x2="205" y2="160" gradientUnits="userSpaceOnUse">
<stop stop-color="#555555"/>
<stop offset="1" stop-color="#555555" stop-opacity="0"/>
</linearGradient>
<linearGradient id="paint4_linear_2500_2637" x1="207" y1="92.4" x2="207" y2="98.8" gradientUnits="userSpaceOnUse">
<stop stop-color="#101010" stop-opacity="0.8"/>
<stop offset="1" stop-color="#101010" stop-opacity="0"/>
</linearGradient>
<linearGradient id="paint5_linear_2500_2637" x1="203.4" y1="95.8" x2="203.4" y2="98.8" gradientUnits="userSpaceOnUse">
<stop stop-color="#101010" stop-opacity="0.8"/>
<stop offset="1" stop-color="#101010" stop-opacity="0"/>
</linearGradient>
</defs>
</svg>
