<svg width="113" height="47" viewBox="0 0 113 47" fill="none" xmlns="http://www.w3.org/2000/svg">
<path id="Vector" d="M73.3086 18.957L76.4231 18.9189C78.7314 18.8906 80.3274 20.2962 80.3536 22.4337C80.3798 24.5712 78.8188 26.0155 76.5105 26.0438L73.396 26.082L73.3086 18.957ZM76.4374 24.9249C78.0243 24.9055 79.0393 23.9259 79.0212 22.45C79.0031 20.9742 77.9644 20.0198 76.3774 20.0392L74.6462 20.0604L74.7061 24.9461L76.4374 24.9249Z" fill="#E7E7E7"/>
<path id="Vector_2" d="M87.1384 24.7939L87.1521 25.905L81.8057 25.9705L81.7183 18.8456L86.9204 18.7818L86.934 19.893L83.0558 19.9405L83.0784 21.7896L86.5154 21.7475L86.5287 22.8332L83.0918 22.8753L83.1158 24.8347L87.1383 24.7854L87.1384 24.7939Z" fill="#E7E7E7"/>
<path id="Vector_3" d="M88.0257 25.1394L88.4713 24.1075C89.0456 24.5586 89.9575 24.8697 90.8316 24.859C91.9434 24.8454 92.4052 24.441 92.3988 23.9151C92.3799 22.3799 88.1576 23.4411 88.1252 20.7947C88.1111 19.6497 89.0156 18.6545 90.9674 18.6306C91.8246 18.6201 92.7183 18.8297 93.3428 19.2292L92.9396 20.2607C92.2901 19.8954 91.5919 19.7173 90.9724 19.7249C89.8692 19.7384 89.4331 20.1679 89.4397 20.7108C89.4583 22.2291 93.6724 21.1849 93.7045 23.8058C93.7185 24.9424 92.8054 25.9292 90.8536 25.9531C89.7418 25.9667 88.6343 25.6325 88.0341 25.1308L88.0256 25.131L88.0257 25.1394Z" fill="#E7E7E7"/>
<path id="Vector_4" d="M94.9487 18.692L96.2726 18.6758L96.36 25.8007L95.0361 25.817L94.9487 18.692Z" fill="#E7E7E7"/>
<path id="Vector_5" d="M103.104 22.0703L104.352 22.055L104.387 24.8965C103.647 25.5079 102.616 25.8259 101.606 25.8383C99.3994 25.8653 97.7512 24.35 97.7251 22.221C97.699 20.092 99.3096 18.5368 101.541 18.5095C102.73 18.4949 103.736 18.8813 104.416 19.6365L103.594 20.4609C103.027 19.908 102.379 19.6614 101.624 19.6707C100.105 19.6893 99.0479 20.7287 99.066 22.2046C99.0841 23.6805 100.166 24.6937 101.668 24.6753C102.177 24.6691 102.677 24.5611 103.132 24.2926L103.105 22.0788L103.104 22.0703Z" fill="#E7E7E7"/>
<path id="Vector_6" d="M112.388 18.4783L112.476 25.6033L111.39 25.6166L107.401 20.8384L107.46 25.6647L106.145 25.6809L106.058 18.5559L107.144 18.5426L111.132 23.3208L111.073 18.4945L112.388 18.4783V18.4783Z" fill="#E7E7E7"/>
<path id="Vector_7" d="M5.75402 33.3923C5.75402 33.3923 17.305 0.114731 19.3024 1.72755C21.2998 3.34036 7.42587 30.6062 2.48244 28.9277C-2.37935 25.6024 9.19592 8.14603 10.8439 19.3324" stroke="#59CBE8" stroke-width="1.75" stroke-linecap="round" stroke-linejoin="round"/>
<path id="Vector_8" d="M19.2158 14.0295L20.9228 11.3448" stroke="#59CBE8" stroke-width="1.75" stroke-linecap="round" stroke-linejoin="round"/>
<path id="Vector_9" d="M18.0823 16.4357C18.0823 16.4357 11.9782 26.0033 15.0965 29.0446C17.0466 30.9464 20.0228 25.8623 23.2017 21.3866" stroke="#59CBE8" stroke-width="1.75" stroke-linecap="round" stroke-linejoin="round"/>
<path id="Vector_10" d="M41.4072 13.7575L43.1142 11.0728" stroke="#59CBE8" stroke-width="1.75" stroke-linecap="round" stroke-linejoin="round"/>
<path id="Vector_11" d="M40.274 16.1638C40.274 16.1638 34.1699 25.7315 37.2882 28.7727C39.2382 30.6746 42.2144 25.5905 45.3933 21.1147L58.2792 1.86929C58.2792 1.86929 39.9569 38.0632 43.6681 39.6126" stroke="#59CBE8" stroke-width="1.75" stroke-linecap="round" stroke-linejoin="round"/>
<path id="Vector_12" d="M32.1417 18.8423C32.1417 18.8423 28.454 10.209 23.5947 20.228C18.7353 30.247 25.7237 30.5007 29.9704 21.7362C33.7537 13.9446 33.393 16.3668 33.393 16.3668C33.393 16.3668 24.0765 47.0549 18.5247 45.6044C13.2199 44.2188 37.9662 21.0784 37.7603 21.5899" stroke="#59CBE8" stroke-width="1.75" stroke-linecap="round" stroke-linejoin="round"/>
<path id="Vector_13" d="M40.2052 7.77454C40.2052 7.77454 36.3946 8.4999 39.0902 7.51674C46.4245 4.83096 75.3029 5.79204 69.3211 7.34144" stroke="#59CBE8" stroke-width="1.75" stroke-linecap="round" stroke-linejoin="round"/>
<path id="Vector_14" d="M61.6434 19.4055C61.6434 19.4055 58.4645 12.1148 53.8441 20.1712C50.0214 26.8266 52.764 29.6774 55.7904 27.9945C59.778 25.0952 62.9041 16.3191 62.9041 16.3191C62.9041 16.3191 55.9165 31.3524 61.294 27.5962C66.6716 23.8401 76.2941 2.87854 76.2941 2.87854C76.2941 2.87854 55.7099 43.5794 61.0654 40.095" stroke="#59CBE8" stroke-width="1.75" stroke-linecap="round" stroke-linejoin="round"/>
</svg>