<svg width="65" height="64" viewBox="0 0 65 64" fill="none" xmlns="http://www.w3.org/2000/svg">
<g id="Logo">
<path id="Vector" d="M48.2418 17.5219L41.2955 23.6992C39.0641 21.3103 35.9704 19.8853 32.6853 19.7329C29.4001 19.5806 26.1882 20.7133 23.7456 22.8854C21.3031 25.0575 19.8268 28.0941 19.6368 31.3369C19.4468 34.5797 20.5583 37.7674 22.7305 40.209L15.7842 46.3863C12.1704 42.0922 10.3775 36.5852 10.7814 31.0192C11.1853 25.4533 13.7545 20.2604 17.9507 16.5287C22.1469 12.7971 27.6443 10.8163 33.2911 11.0015C38.9379 11.1866 44.2957 13.5233 48.2418 17.5219V17.5219Z" stroke="#E93CAC" stroke-miterlimit="10"/>
<path id="Vector_2" d="M55.3321 11.2867L48.3663 17.5038C52.2593 21.7897 54.2768 27.4316 53.975 33.1885C53.6731 38.9454 51.0766 44.3456 46.7567 48.2013C42.4368 52.0569 36.7473 54.0521 30.9399 53.7479C25.1325 53.4437 19.6829 50.865 15.7899 46.5792L8.82411 52.7963C14.4659 58.5874 22.1534 61.9829 30.2664 62.267C38.3793 62.5512 46.284 59.7019 52.3144 54.3197C58.3447 48.9374 62.0297 41.4427 62.5926 33.415C63.1556 25.3874 60.5525 17.4539 55.3321 11.2867V11.2867Z" stroke="#E93CAC" stroke-miterlimit="10"/>
<path id="Vector_3" d="M41.4167 23.9568L32.3797 32.0943L23.3211 40.2306C25.5315 42.4181 28.4945 43.6778 31.6034 43.752C34.7123 43.8261 37.7321 42.709 40.0444 40.6294C42.3568 38.5499 43.787 35.665 44.0421 32.5655C44.2972 29.4661 43.358 26.3863 41.4167 23.9568V23.9568Z" stroke="#E93CAC" stroke-miterlimit="10"/>
<g id="Text">
<path id="Vector_4" d="M3.74142 41.151L8.39669 40.5304L8.60811 41.0342L5.64189 43.3381L9.36865 42.8591L9.57961 43.3715L5.8493 46.2276L5.64582 45.7371L8.67355 43.4148L4.87779 43.8903L4.69339 43.4484L7.73088 41.105L3.92945 41.606L3.74142 41.151Z" fill="#E93CAC" stroke="#E93CAC" stroke-width="0.1"/>
<path id="Vector_5" d="M6.20495 36.2234L6.56422 38.1137L7.74814 38.2967L7.8504 38.8207L3.09086 38.0484L2.9961 37.5464L7.14255 35.0839L7.24412 35.6208L6.20495 36.2234ZM5.72793 36.4966L3.6893 37.6865L6.01879 38.0419L5.72793 36.4966Z" fill="#E93CAC" stroke="#E93CAC" stroke-width="0.1"/>
<path id="Vector_6" d="M5.49411 32.8708L7.05794 32.8187L7.07848 33.3342L5.49741 33.3853L2.5932 34.9188L2.57468 34.3646L4.92719 33.1264L2.49768 32.0396L2.48145 31.5244L5.49411 32.8708Z" fill="#E93CAC" stroke="#E93CAC" stroke-width="0.1"/>
<path id="Vector_7" d="M6.72943 25.1515C7.49095 25.3081 7.83402 25.8577 7.64856 26.7557L7.29509 28.466L2.85442 27.5505L3.18431 25.9599C3.35254 25.1432 3.87789 24.7731 4.59652 24.9231C4.79188 24.9481 4.97715 25.0243 5.13343 25.1441C5.28971 25.2639 5.41142 25.423 5.48618 25.6051C5.61419 25.4029 5.8056 25.2487 6.03051 25.1666C6.25542 25.0846 6.50118 25.0793 6.72943 25.1515ZM3.4726 27.142L4.89736 27.4328L5.11185 26.3937C5.21683 25.8762 5.0363 25.5253 4.56962 25.436C4.10295 25.3468 3.79637 25.5857 3.6914 26.1032L3.4726 27.142ZM6.57724 25.6622C6.06403 25.5532 5.7738 25.8103 5.6534 26.3745L5.41489 27.542L6.89094 27.8441L7.13355 26.6811C7.24577 26.1079 7.08681 25.7581 6.57338 25.6534L6.57724 25.6622Z" fill="#E93CAC" stroke="#E93CAC" stroke-width="0.1"/>
<path id="Vector_8" d="M8.79236 21.4434L9.31785 21.6481L8.35921 24.0961L4.12152 22.4435L5.05067 20.0631L5.57615 20.2679L4.83234 22.1652L6.12936 22.6654L6.79332 20.9713L7.30609 21.1711L6.64213 22.8651L8.00658 23.3991L8.79236 21.4434Z" fill="#E93CAC" stroke="#E93CAC" stroke-width="0.1"/>
<path id="Vector_9" d="M9.27348 18.4516L10.6289 19.2401L10.3678 19.6845L9.01279 18.8874L5.7346 18.6466L6.0148 18.1685L8.66382 18.3678L7.18825 16.1597L7.44507 15.715L9.27348 18.4516Z" fill="#E93CAC" stroke="#E93CAC" stroke-width="0.1"/>
<path id="Vector_10" d="M9.96819 16.007C8.95321 15.1586 8.71688 13.8928 9.43188 13.0399C10.1469 12.1869 11.4177 12.1973 12.4583 13.0514C13.4989 13.9055 13.7139 15.1659 13.0035 16.0147C12.293 16.8636 10.9873 16.86 9.96819 16.007ZM12.1089 13.4481C11.3382 12.8069 10.3876 12.7917 9.87523 13.4088C9.36286 14.026 9.53398 14.9686 10.3013 15.5922C11.0686 16.2159 12.0269 16.2488 12.5483 15.6235C13.0698 14.9982 12.8791 14.0978 12.1089 13.4481Z" fill="#E93CAC" stroke="#E93CAC" stroke-width="0.1"/>
<path id="Vector_11" d="M14.7685 8.07198L17.6327 11.589L17.303 11.857L13.4766 10.6063L15.6137 13.2294L15.2116 13.5584L12.3689 10.0425L12.6986 9.77454L16.5252 11.0209L14.3881 8.39783L14.7685 8.07198Z" fill="#E93CAC" stroke="#E93CAC" stroke-width="0.1"/>
<path id="Vector_12" d="M16.8621 6.66089L18.1972 5.93987C19.225 5.38861 20.3656 5.82005 20.9953 7.00705C21.625 8.19404 21.3726 9.37807 20.3448 9.92934L19.0094 10.6547L16.8621 6.66089ZM20.0587 9.44755C20.8464 9.02202 21.0307 8.14564 20.55 7.25171C20.0693 6.35778 19.2349 6.02448 18.4299 6.44911L17.5666 6.9139L19.1781 9.91144L20.0587 9.44755Z" fill="#E93CAC" stroke="#E93CAC" stroke-width="0.1"/>
<path id="Vector_13" d="M24.1216 3.4707L25.6104 3.11647C26.7486 2.85193 27.7273 3.56881 28.0303 4.88133C28.3334 6.19385 27.7669 7.26633 26.633 7.5311L25.1442 7.88533L24.1216 3.4707ZM26.4749 6.99983C27.3503 6.79932 27.7553 6.00366 27.5263 5.01053C27.2973 4.01741 26.5815 3.48286 25.7061 3.68337L24.7517 3.90568L25.5206 7.22214L26.4749 6.99983Z" fill="#E93CAC" stroke="#E93CAC" stroke-width="0.1"/>
<path id="Vector_14" d="M32.5023 6.28295L32.5292 6.84191L29.9016 6.97657L29.6722 2.44359L32.2304 2.31394L32.2573 2.8729L30.2194 2.97794L30.2891 4.369L32.1058 4.27831L32.1334 4.82434L30.3165 4.91935L30.3913 6.37983L32.5023 6.28295Z" fill="#E93CAC" stroke="#E93CAC" stroke-width="0.1"/>
<path id="Vector_15" d="M33.6348 6.35919L33.8765 5.8748C34.0121 6.05405 34.1831 6.2036 34.3789 6.31421C34.5746 6.42482 34.791 6.49415 35.0146 6.51792C35.6384 6.58084 35.9384 6.30266 35.9805 5.91155C36.0901 4.81082 33.8511 5.28567 33.9996 3.60781C34.0105 3.42782 34.0602 3.25229 34.1453 3.09326C34.2303 2.93423 34.3487 2.79544 34.4924 2.6864C34.6361 2.57736 34.8017 2.50064 34.9778 2.46149C35.1539 2.42234 35.3364 2.42169 35.5128 2.45957C35.9342 2.49777 36.3295 2.68033 36.6317 2.97634L36.411 3.47479C36.1585 3.2095 35.8223 3.03925 35.4589 2.99271C34.8438 2.93023 34.5472 3.22589 34.5094 3.61722C34.3998 4.71795 36.6383 4.25172 36.4909 5.90803C36.4784 6.08869 36.427 6.26452 36.3402 6.42346C36.2533 6.5824 36.1331 6.7207 35.9878 6.82886C35.8425 6.93702 35.6755 7.01249 35.4982 7.05009C35.321 7.0877 35.1377 7.08655 34.961 7.04673C34.7049 7.02763 34.4554 6.95686 34.2275 6.83869C33.9995 6.72052 33.7979 6.5574 33.6348 6.35919Z" fill="#E93CAC" stroke="#E93CAC" stroke-width="0.1"/>
<path id="Vector_16" d="M38.5812 2.99175L39.0901 3.10053L38.1183 7.5317L37.6096 7.4186L38.5812 2.99175Z" fill="#E93CAC" stroke="#E93CAC" stroke-width="0.1"/>
<path id="Vector_17" d="M42.8288 6.59019L43.2955 6.76159L42.6939 8.42004C42.4646 8.53416 42.214 8.59959 41.9581 8.61222C41.7022 8.62485 41.4464 8.58441 41.2069 8.49342C40.1629 8.11458 39.7239 6.92029 40.1835 5.66068C40.6431 4.40107 41.7405 3.75836 42.7972 4.1422C43.0548 4.22938 43.2873 4.37811 43.4744 4.57546C43.6615 4.77281 43.7975 5.01281 43.8708 5.27464L43.4244 5.54085C43.365 5.34409 43.2597 5.16427 43.1171 5.01626C42.9745 4.86825 42.7986 4.75629 42.6041 4.68965C41.8147 4.40625 40.9938 4.88623 40.6499 5.83638C40.3061 6.78653 40.627 7.67642 41.4033 7.96344C41.6918 8.07469 42.0106 8.07912 42.3021 7.97594L42.8288 6.59019Z" fill="#E93CAC" stroke="#E93CAC" stroke-width="0.1"/>
<path id="Vector_18" d="M48.9295 7.27718L46.6057 11.1837L46.2409 10.9658L46.0884 6.94682L44.3659 9.8605L43.9214 9.59518L46.2277 5.69206L46.5927 5.90567L46.7452 9.92461L48.4675 7.01525L48.9295 7.27718Z" fill="#E93CAC" stroke="#E93CAC" stroke-width="0.1"/>
</g>
</g>
</svg>
