<svg width="215" height="89" viewBox="0 0 215 89" fill="none" xmlns="http://www.w3.org/2000/svg">
<g id="Result">
<g id="Backgrond" filter="url(#filter0_b_2523_3166)">
<rect y="0.524292" width="215" height="87.9553" rx="2" fill="#010101" fill-opacity="0.75"/>
<rect x="0.25" y="0.774292" width="214.5" height="87.4553" rx="1.75" stroke="url(#paint0_linear_2523_3166)" stroke-width="0.5"/>
</g>
<g id="https://www.instagram.com &#226;&#128;&#186; brstorm.design" opacity="0.75">
<text fill="#E7E7E7" xml:space="preserve" style="white-space: pre" font-family="Inter" font-size="6" letter-spacing="0em"><tspan x="106.207" y="18.7"> </tspan></text>
<text fill="#B6B6B6" xml:space="preserve" style="white-space: pre" font-family="Inter" font-size="6" letter-spacing="0em"><tspan x="107.895" y="18.7">brstorm.design</tspan></text>
<text fill="#E7E7E7" xml:space="preserve" style="white-space: pre" font-family="Inter" font-size="6" letter-spacing="0em"><tspan x="24" y="18.7">https://www.instagram.com &#x203a;</tspan></text>
</g>
<text id="brstorm.design - Instagram" opacity="0.75" fill="#59CBE8" xml:space="preserve" style="white-space: pre" font-family="Inter" font-size="10" font-weight="500" letter-spacing="0em"><tspan x="12" y="41.1465">brstorm.design - Instagram</tspan></text>
<text id="Br.Storm Design. Entrepreneur. We explor the infinite possibilities of Design! &#226;&#128;&#162;&#226;&#150;&#170;&#239;&#184;&#142;&#226;&#128;&#162; Let&#39;s do a remarkable project? Get in touch below." fill="#B6B6B6" xml:space="preserve" style="white-space: pre" font-family="Inter" font-size="6" letter-spacing="0em"><tspan x="12" y="61.6786">Br.Storm Design. Entrepreneur. We explor the infinite possibilities of </tspan><tspan x="12" y="71.6786">Design! &#x2022;&#x25aa;&#xfe0e;&#x2022; Let&#39;s do a remarkable project? Get in touch below.</tspan></text>
<g id="Favicon">
<path id="Instagram" d="M16.9127 19.5146H15.1029C15.0663 19.5146 15.0296 19.5067 14.993 19.5051C14.7539 19.506 14.5154 19.482 14.2813 19.4336C14.0444 19.3845 13.8225 19.2805 13.6335 19.1299C13.4445 18.9793 13.2938 18.7865 13.1935 18.567C13.0674 18.28 13.0057 17.9691 13.0126 17.6559C13.0063 17.01 13.0023 16.3634 13.0023 15.7176C12.9916 15.4068 13.0184 15.0959 13.082 14.7914C13.2135 14.2624 13.5235 13.8827 14.0383 13.6793C14.3108 13.5766 14.6004 13.5262 14.8918 13.5308C15.503 13.5204 16.1142 13.5204 16.7246 13.5204C17.0449 13.5093 17.3654 13.532 17.6809 13.588C18.2635 13.7151 18.6723 14.0479 18.8763 14.6135C18.9655 14.8847 19.007 15.1693 18.999 15.4547C18.999 16.1458 18.999 16.8369 18.999 17.528C18.9978 17.7251 18.9818 17.9218 18.9512 18.1166C18.8977 18.5061 18.6985 18.8611 18.3934 19.1103C18.0866 19.3629 17.7232 19.4638 17.3343 19.49C17.198 19.5004 17.0554 19.5067 16.9127 19.5146ZM16.0074 18.9848V18.9753C16.1668 18.9753 16.3262 18.98 16.4856 18.9753C16.8274 18.9626 17.1725 18.9673 17.5104 18.9244C17.9734 18.8657 18.2858 18.5988 18.3982 18.1404C18.4399 17.9537 18.461 17.763 18.4611 17.5717C18.4712 17.0151 18.4747 16.459 18.4715 15.9035C18.4721 15.6116 18.4567 15.3199 18.4253 15.0297C18.4073 14.8077 18.3151 14.5981 18.1633 14.4346C18.0116 14.2711 17.8092 14.1632 17.5885 14.1281C17.3781 14.0903 17.1648 14.0712 16.951 14.0709C16.3905 14.063 15.8271 14.0622 15.2607 14.0685C14.9985 14.0681 14.7366 14.0848 14.4766 14.1186C14.2631 14.1423 14.0633 14.2348 13.9074 14.3821C13.7514 14.5293 13.648 14.7232 13.6127 14.9344C13.575 15.1318 13.5555 15.3323 13.5545 15.5333C13.5442 16.0171 13.5402 16.5017 13.5458 16.9854C13.5458 17.3206 13.5577 17.6574 13.5912 17.9903C13.602 18.1551 13.6539 18.3146 13.7423 18.4543C13.8306 18.594 13.9527 18.7095 14.0972 18.7902C14.2854 18.8923 14.4958 18.9469 14.7101 18.9491C15.1428 18.9665 15.5755 18.9737 16.0074 18.9848ZM14.4614 16.516C14.4616 16.2114 14.5523 15.9138 14.7221 15.6606C14.8919 15.4075 15.1332 15.2102 15.4155 15.0937C15.6978 14.9772 16.0083 14.9467 16.308 15.0061C16.6076 15.0655 16.8829 15.2121 17.099 15.4273C17.3151 15.6426 17.4623 15.9169 17.522 16.2156C17.5817 16.5142 17.5513 16.8238 17.4346 17.1053C17.3179 17.3867 17.1201 17.6273 16.8662 17.7967C16.6123 17.9661 16.3137 18.0567 16.0082 18.057C15.5981 18.057 15.2048 17.8947 14.9147 17.6057C14.6247 17.3167 14.4616 16.9247 14.4614 16.516ZM16.0074 17.5145C16.2056 17.5145 16.3993 17.4559 16.5641 17.3461C16.7289 17.2363 16.8573 17.0802 16.933 16.8977C17.0088 16.7152 17.0286 16.5143 16.9898 16.3206C16.951 16.1268 16.8554 15.9489 16.7152 15.8093C16.5749 15.6698 16.3963 15.5748 16.2019 15.5364C16.0075 15.4981 15.806 15.5181 15.623 15.5939C15.44 15.6697 15.2836 15.798 15.1738 15.9624C15.0639 16.1268 15.0054 16.32 15.0057 16.5175C15.0054 16.6487 15.0311 16.7786 15.0813 16.8998C15.1316 17.021 15.2054 17.1311 15.2985 17.2237C15.3916 17.3164 15.5022 17.3898 15.6238 17.4397C15.7455 17.4896 15.8759 17.515 16.0074 17.5145ZM17.2538 14.9034C17.2478 14.9529 17.2522 15.003 17.2666 15.0507C17.2811 15.0984 17.3054 15.1426 17.338 15.1804C17.3705 15.2182 17.4106 15.2489 17.4557 15.2704C17.5007 15.2919 17.5498 15.3039 17.5998 15.3055C17.6497 15.3071 17.6995 15.2983 17.7459 15.2797C17.7922 15.2611 17.8342 15.2331 17.8691 15.1974C17.904 15.1618 17.9311 15.1193 17.9487 15.0726C17.9662 15.026 17.9738 14.9762 17.971 14.9264C17.966 14.8369 17.9274 14.7524 17.863 14.6897C17.7986 14.627 17.713 14.5907 17.623 14.5878C17.533 14.5849 17.4452 14.6157 17.3769 14.6741C17.3085 14.7325 17.2646 14.8143 17.2538 14.9034Z" fill="#E7E7E7"/>
</g>
<g id="More">
<circle id="Ellipse 28" cx="208.5" cy="7.02124" r="0.5" fill="#555555"/>
<circle id="Ellipse 29" cx="208.5" cy="9.02026" r="0.5" fill="#555555"/>
<circle id="Ellipse 30" cx="208.5" cy="11.0193" r="0.5" fill="#555555"/>
</g>
</g>
<defs>
<filter id="filter0_b_2523_3166" x="-5" y="-4.47571" width="225" height="97.9553" filterUnits="userSpaceOnUse" color-interpolation-filters="sRGB">
<feFlood flood-opacity="0" result="BackgroundImageFix"/>
<feGaussianBlur in="BackgroundImage" stdDeviation="2.5"/>
<feComposite in2="SourceAlpha" operator="in" result="effect1_backgroundBlur_2523_3166"/>
<feBlend mode="normal" in="SourceGraphic" in2="effect1_backgroundBlur_2523_3166" result="shape"/>
</filter>
<linearGradient id="paint0_linear_2523_3166" x1="108" y1="0.524292" x2="108" y2="88.4796" gradientUnits="userSpaceOnUse">
<stop stop-color="#555555" stop-opacity="0.75"/>
<stop offset="1" stop-color="#555555" stop-opacity="0.5"/>
</linearGradient>
</defs>
</svg>
